<?xml version="1.0" encoding="UTF-8" standalone="no"?>
<!-- Created with Inkscape (http://www.inkscape.org/) -->
<svg
   xmlns:dc="http://purl.org/dc/elements/1.1/"
   xmlns:cc="http://web.resource.org/cc/"
   xmlns:rdf="http://www.w3.org/1999/02/22-rdf-syntax-ns#"
   xmlns:svg="http://www.w3.org/2000/svg"
   xmlns="http://www.w3.org/2000/svg"
   xmlns:sodipodi="http://inkscape.sourceforge.net/DTD/sodipodi-0.dtd"
   xmlns:inkscape="http://www.inkscape.org/namespaces/inkscape"
   id="svg2"
   sodipodi:version="0.32"
   inkscape:version="0.43"
   width="12mm"
   height="12mm"
   version="1.0"
   sodipodi:docbase="C:\Dokumente und Einstellungen\MovGP0\Desktop"
   sodipodi:docname="Symbol_Telecommunications_line_with_alternate_current_remote_supply.svg">
  <metadata
     id="metadata7">
    <rdf:RDF>
      <cc:Work
         rdf:about="">
        <dc:format>image/svg+xml</dc:format>
        <dc:type
           rdf:resource="http://purl.org/dc/dcmitype/StillImage" />
      </cc:Work>
    </rdf:RDF>
  </metadata>
  <defs
     id="defs5" />
  <sodipodi:namedview
     inkscape:window-height="742"
     inkscape:window-width="1024"
     inkscape:pageshadow="2"
     inkscape:pageopacity="0.0"
     borderopacity="1.0"
     bordercolor="#666666"
     pagecolor="#ffffff"
     id="base"
     showgrid="true"
     gridspacingy="1mm"
     gridspacingx="1mm"
     gridoriginy="0mm"
     gridoriginx="0mm"
     gridtolerance="0.5mm"
     gridempspacing="10"
     inkscape:grid-points="true"
     inkscape:guide-points="true"
     guidetolerance="0.5mm"
     inkscape:zoom="4.0000002"
     inkscape:cx="36.367891"
     inkscape:cy="35.940781"
     inkscape:window-x="1020"
     inkscape:window-y="-4"
     inkscape:current-layer="svg2"
     inkscape:document-units="mm" />
  <rect
     style="fill:none;fill-opacity:1;stroke:#000000;stroke-opacity:1"
     id="rect1479"
     width="35.433071"
     height="35.433071"
     x="3.5433071"
     y="3.5433059" />
  <path
     style="fill:none;fill-opacity:0.75;fill-rule:evenodd;stroke:#000000;stroke-width:1px;stroke-linecap:butt;stroke-linejoin:miter;stroke-opacity:1"
     d="M 7.0866142,28.854276 C 7.5241142,27.904743 9.555022,25.729524 10.379921,25.086482 C 11.079113,24.541432 12.380837,23.300874 14.173229,23.300546 C 15.939574,23.300212 17.129186,24.63527 17.716536,25.151789 C 18.312295,25.675703 20.649691,28.15497 21.259844,28.854276 C 21.94077,29.634696 24.115651,32.056927 24.740651,32.556763 C 25.303151,33.026516 27.115651,34.408006 28.471458,34.408006 C 29.889765,34.408006 31.332895,33.086176 31.827265,32.654725 C 32.264765,32.272906 34.822327,29.393287 35.370572,28.844249"
     id="path2354"
     sodipodi:nodetypes="csssscsss" />
  <path
     style="fill:none;fill-opacity:0.75;fill-rule:evenodd;stroke:#000000;stroke-width:1px;stroke-linecap:butt;stroke-linejoin:miter;stroke-opacity:1"
     d="M 7.0866142,21.290123 C 7.5241142,20.34059 9.555022,18.165371 10.379921,17.522329 C 11.079113,16.977279 12.380837,15.736721 14.173229,15.736393 C 15.939574,15.736059 17.129186,17.071117 17.716536,17.587636 C 18.312295,18.11155 20.649691,20.590817 21.259844,21.290123 C 21.94077,22.070543 24.115651,24.492774 24.740651,24.99261 C 25.303151,25.462363 27.115651,26.843853 28.471458,26.843853 C 29.889765,26.843853 31.332895,25.522023 31.827265,25.090572 C 32.264765,24.708753 34.822327,21.829134 35.370572,21.280096"
     id="path2358"
     sodipodi:nodetypes="csssscsss" />
  <path
     style="fill:none;fill-opacity:0.75;fill-rule:evenodd;stroke:#000000;stroke-width:1px;stroke-linecap:butt;stroke-linejoin:miter;stroke-opacity:1"
     d="M 7.1491129,14.203509 C 7.5866129,13.253976 9.6175209,11.078757 10.44242,10.435715 C 11.141612,9.8906652 12.443336,8.6501072 14.235728,8.6497792 C 16.002073,8.6494452 17.191685,9.9845032 17.779035,10.501022 C 18.374794,11.024936 20.71219,13.504203 21.322343,14.203509 C 22.003269,14.983929 24.17815,17.40616 24.80315,17.905996 C 25.36565,18.375749 27.17815,19.757239 28.533957,19.757239 C 29.952264,19.757239 31.395394,18.435409 31.889764,18.003958 C 32.327264,17.622139 34.884826,14.74252 35.433071,14.193482"
     id="path2360"
     sodipodi:nodetypes="csssscsss" />
</svg>
