<?xml version="1.0" encoding="UTF-8" standalone="no"?>
<!-- Created with Inkscape (http://www.inkscape.org/) -->

<svg
   xmlns:dc="http://purl.org/dc/elements/1.1/"
   xmlns:cc="http://creativecommons.org/ns#"
   xmlns:rdf="http://www.w3.org/1999/02/22-rdf-syntax-ns#"
   xmlns:svg="http://www.w3.org/2000/svg"
   xmlns="http://www.w3.org/2000/svg"
   xmlns:sodipodi="http://sodipodi.sourceforge.net/DTD/sodipodi-0.dtd"
   xmlns:inkscape="http://www.inkscape.org/namespaces/inkscape"
   width="31.932392"
   height="16.52046"
   id="svg2"
   sodipodi:version="0.32"
   inkscape:version="0.48.1 r9760"
   version="1.0"
   sodipodi:docname="Koordi.svg">
  <defs
     id="defs4">
    <marker
       inkscape:stockid="Arrow2Mend"
       orient="auto"
       refY="0"
       refX="0"
       id="Arrow2Mend"
       style="overflow:visible">
      <path
         id="path3319"
         style="font-size:12px;fill-rule:evenodd;stroke-width:0.625;stroke-linejoin:round"
         d="M 8.7185878,4.0337352 -2.2072895,0.01601326 8.7185884,-4.0017078 c -1.7454984,2.3720609 -1.7354408,5.6174519 -6e-7,8.035443 z"
         transform="scale(-0.6,-0.6)"
         inkscape:connector-curvature="0" />
    </marker>
    <marker
       style="overflow:visible"
       id="StopM"
       refX="0"
       refY="0"
       orient="auto"
       inkscape:stockid="StopM">
      <path
         transform="scale(0.4,0.4)"
         style="fill:none;stroke:#000000;stroke-width:1pt"
         d="M 0,5.65 0,-5.65"
         id="path4864"
         inkscape:connector-curvature="0" />
    </marker>
    <marker
       style="overflow:visible"
       id="TriangleOutM"
       refX="0"
       refY="0"
       orient="auto"
       inkscape:stockid="TriangleOutM">
      <path
         transform="scale(0.4,0.4)"
         style="fill-rule:evenodd;stroke:#000000;stroke-width:1pt;marker-start:none"
         d="m 5.77,0 -8.65,5 0,-10 8.65,5 z"
         id="path9535"
         inkscape:connector-curvature="0" />
    </marker>
    <marker
       inkscape:stockid="SchlankRECHTS"
       orient="auto"
       refY="0"
       refX="0"
       id="SchlankRECHTS"
       style="overflow:visible">
      <g
         transform="matrix(-1,0,0,1,-0.00578391,-4.875001e-7)"
         id="g3111">
        <path
           style="fill:#ffffff;fill-opacity:1;fill-rule:nonzero;stroke:none"
           d="m -0.05,-2 4.25,0 0,4 -4.25,0 0,-4 z"
           id="path3113"
           inkscape:connector-curvature="0" />
        <path
           style="fill:#000000;fill-opacity:1;fill-rule:evenodd;stroke:#000000;stroke-width:0.0407842;stroke-linecap:butt;stroke-linejoin:miter;stroke-miterlimit:4;stroke-opacity:1;stroke-dasharray:none"
           d="M 0,0 6,-1.7 6,1.7 0,0 z"
           id="path3115"
           inkscape:connector-curvature="0" />
      </g>
    </marker>
  </defs>
  <sodipodi:namedview
     id="base"
     pagecolor="#ffffff"
     bordercolor="#666666"
     borderopacity="1.0"
     inkscape:pageopacity="0.0"
     inkscape:pageshadow="2"
     inkscape:zoom="22.4"
     inkscape:cx="7.2684269"
     inkscape:cy="6.6895689"
     inkscape:document-units="px"
     inkscape:current-layer="layer1"
     inkscape:window-width="1920"
     inkscape:window-height="1103"
     inkscape:window-x="0"
     inkscape:window-y="33"
     showgrid="false"
     fit-margin-top="0"
     fit-margin-left="0"
     fit-margin-right="0"
     fit-margin-bottom="0"
     inkscape:window-maximized="1" />
  <metadata
     id="metadata7">
    <rdf:RDF>
      <cc:Work
         rdf:about="">
        <dc:format>image/svg+xml</dc:format>
        <dc:type
           rdf:resource="http://purl.org/dc/dcmitype/StillImage" />
      </cc:Work>
    </rdf:RDF>
  </metadata>
  <g
     inkscape:label="Ebene 1"
     inkscape:groupmode="layer"
     id="layer1"
     transform="translate(-447.0625,-97.32329)">
    <g
       id="g11361">
      <g
         style="font-size:17.28934288px;font-style:normal;font-weight:bold;fill:#000000;fill-opacity:1;stroke:none;font-family:Bitstream Vera Sans"
         id="text14522">
        <path
           d="m 463.74724,100.37936 1.36761,2.60015 c 0.47275,0.90612 0.84702,1.48018 1.1228,1.72218 0.15195,0.12945 0.36018,0.1998 0.62471,0.21106 l 0,0.30391 -4.39831,0 0,-0.30391 c 0.3433,-0.0281 0.55435,-0.0732 0.63315,-0.13508 0.0844,-0.0619 0.12663,-0.14633 0.12663,-0.25326 0,-0.15758 -0.0901,-0.40522 -0.27014,-0.7429 l -0.68381,-1.28319 -0.5825,0.85264 c -0.26452,0.38834 -0.41367,0.61909 -0.44743,0.69225 -0.045,0.10694 -0.0675,0.20261 -0.0675,0.28703 0,0.12945 0.0253,0.2392 0.076,0.32924 0.0563,0.0844 0.12944,0.14915 0.21949,0.19417 0.0957,0.0394 0.26733,0.0591 0.51497,0.0591 l 0,0.30391 -3.0898,0 0,-0.30391 c 0.38271,0 0.73165,-0.10412 1.04682,-0.31236 0.3208,-0.21387 0.78511,-0.76823 1.39294,-1.66309 l 0.65004,-0.96239 -1.35917,-2.515737 c -0.44462,-0.821687 -0.77667,-1.325396 -0.99617,-1.511129 -0.21949,-0.185718 -0.46431,-0.289836 -0.73446,-0.312356 l 0,-0.312356 4.37299,0 0,0.312356 -0.22793,0.0084 -0.43899,0.151957 c -0.045,0.0394 -0.0675,0.104126 -0.0675,0.194168 0,0.08443 0.0141,0.171662 0.0422,0.261703 0.0169,0.0394 0.0957,0.191361 0.23638,0.455872 l 0.61627,1.14812 0.3208,-0.455871 c 0.45024,-0.619078 0.67536,-1.052437 0.67536,-1.300078 0,-0.118181 -0.0506,-0.216672 -0.15195,-0.295472 -0.0957,-0.08441 -0.27015,-0.140693 -0.52341,-0.168841 l 0,-0.312356 2.79432,0 0,0.312356 c -0.34332,0.01126 -0.66411,0.118196 -0.96239,0.320798 -0.2983,0.196989 -0.63316,0.582509 -1.00461,1.156563 l -0.82732,1.266313"
           style="font-family:Times New Roman"
           id="path10817"
           inkscape:connector-curvature="0" />
      </g>
      <path
         sodipodi:nodetypes="cc"
         id="path11402"
         d="m 447.35875,110.04354 29.74881,0"
         style="fill:none;stroke:#000000;stroke-width:1.25;stroke-linecap:butt;stroke-linejoin:miter;stroke-miterlimit:4;stroke-opacity:1;stroke-dasharray:none;marker-end:url(#Arrow2Mend)"
         inkscape:connector-curvature="0" />
      <path
         sodipodi:nodetypes="cc"
         id="path1957"
         d="m 447.54705,106.22947 0,7.62813"
         style="fill:none;stroke:#000000;stroke-width:1px;stroke-linecap:butt;stroke-linejoin:miter;stroke-opacity:1"
         inkscape:connector-curvature="0" />
    </g>
  </g>
</svg>
