<?xml version="1.0" encoding="UTF-8" standalone="no"?>
<svg
   xmlns:dc="http://purl.org/dc/elements/1.1/"
   xmlns:cc="http://creativecommons.org/ns#"
   xmlns:rdf="http://www.w3.org/1999/02/22-rdf-syntax-ns#"
   xmlns:svg="http://www.w3.org/2000/svg"
   xmlns="http://www.w3.org/2000/svg"
   viewBox="0 0 566.93335 302.36267"
   height="302.36267"
   width="566.93335"
   xml:space="preserve"
   id="svg2"
   version="1.1"><metadata
     id="metadata8"><rdf:RDF><cc:Work
         rdf:about=""><dc:format>image/svg+xml</dc:format><dc:type
           rdf:resource="http://purl.org/dc/dcmitype/StillImage" /></cc:Work></rdf:RDF></metadata><defs
     id="defs6"><clipPath
       id="clipPath18"
       clipPathUnits="userSpaceOnUse"><path
         id="path16"
         d="M 0,226.772 H 425.2 V 0 H 0 Z" /></clipPath><clipPath
       id="clipPath66"
       clipPathUnits="userSpaceOnUse"><path
         id="path64"
         d="M 0,226.772 H 425.2 V 0 H 0 Z" /></clipPath><clipPath
       id="clipPath88"
       clipPathUnits="userSpaceOnUse"><path
         id="path86"
         d="M 0,226.772 H 425.2 V 0 H 0 Z" /></clipPath><clipPath
       id="clipPath126"
       clipPathUnits="userSpaceOnUse"><path
         id="path124"
         d="M 0,226.772 H 425.2 V 0 H 0 Z" /></clipPath><clipPath
       id="clipPath150"
       clipPathUnits="userSpaceOnUse"><path
         id="path148"
         d="M 0,226.772 H 425.2 V 0 H 0 Z" /></clipPath><clipPath
       id="clipPath174"
       clipPathUnits="userSpaceOnUse"><path
         id="path172"
         d="M 0,226.772 H 425.2 V 0 H 0 Z" /></clipPath><clipPath
       id="clipPath212"
       clipPathUnits="userSpaceOnUse"><path
         id="path210"
         d="M 0,226.772 H 425.2 V 0 H 0 Z" /></clipPath><clipPath
       id="clipPath256"
       clipPathUnits="userSpaceOnUse"><path
         id="path254"
         d="M 0,226.772 H 425.2 V 0 H 0 Z" /></clipPath></defs><g
     transform="matrix(1.3333333,0,0,-1.3333333,0,302.36267)"
     id="g10"><g
       id="g12"><g
         clip-path="url(#clipPath18)"
         id="g14"><g
           transform="translate(99.5,111.0332)"
           id="g20"><path
             id="path22"
             style="fill:#ffffff;fill-opacity:1;fill-rule:nonzero;stroke:none"
             d="m 0,0 c 0,-5.729 -5.103,-10.417 -11.338,-10.417 h -66.907 c -6.236,0 -11.338,4.688 -11.338,10.417 0,5.729 5.102,10.417 11.338,10.417 h 66.907 C -5.103,10.417 0,5.729 0,0" /></g><g
           transform="translate(99.5,111.0332)"
           id="g24"><path
             id="path26"
             style="fill:none;stroke:#1d1d1b;stroke-width:1;stroke-linecap:butt;stroke-linejoin:miter;stroke-miterlimit:4;stroke-dasharray:none;stroke-opacity:1"
             d="m 0,0 c 0,-5.729 -5.103,-10.417 -11.338,-10.417 h -66.907 c -6.236,0 -11.338,4.688 -11.338,10.417 0,5.729 5.102,10.417 11.338,10.417 h 66.907 C -5.103,10.417 0,5.729 0,0 Z" /></g><g
           transform="translate(179.3345,39.3721)"
           id="g28"><path
             id="path30"
             style="fill:#ffffff;fill-opacity:1;fill-rule:nonzero;stroke:none"
             d="M 0,0 C 0,-6.236 -5.103,-11.339 -11.338,-11.339 H -88.58 c -6.235,0 -11.338,5.103 -11.338,11.339 v 5.655 c 0,6.237 5.103,11.339 11.338,11.339 h 77.242 C -5.103,16.994 0,11.892 0,5.655 Z" /></g><g
           transform="translate(179.3345,39.3721)"
           id="g32"><path
             id="path34"
             style="fill:none;stroke:#1d1d1b;stroke-width:1;stroke-linecap:butt;stroke-linejoin:miter;stroke-miterlimit:4;stroke-dasharray:none;stroke-opacity:1"
             d="M 0,0 C 0,-6.236 -5.103,-11.339 -11.338,-11.339 H -88.58 c -6.235,0 -11.338,5.103 -11.338,11.339 v 5.655 c 0,6.237 5.103,11.339 11.338,11.339 h 77.242 C -5.103,16.994 0,11.892 0,5.655 Z" /></g><g
           transform="translate(269.5439,92.3564)"
           id="g36"><path
             id="path38"
             style="fill:#ffffff;fill-opacity:1;fill-rule:nonzero;stroke:none"
             d="m 0,0 c 0,-6.262 -5.076,-11.339 -11.338,-11.339 -6.263,0 -11.339,5.077 -11.339,11.339 0,6.262 5.076,11.338 11.339,11.338 C -5.076,11.338 0,6.262 0,0" /></g><g
           transform="translate(269.5439,92.3564)"
           id="g40"><path
             id="path42"
             style="fill:none;stroke:#1d1d1b;stroke-width:1;stroke-linecap:butt;stroke-linejoin:miter;stroke-miterlimit:4;stroke-dasharray:none;stroke-opacity:1"
             d="m 0,0 c 0,-6.262 -5.076,-11.339 -11.338,-11.339 -6.263,0 -11.339,5.077 -11.339,11.339 0,6.262 5.076,11.338 11.339,11.338 C -5.076,11.338 0,6.262 0,0 Z" /></g><g
           transform="translate(323.0117,130.4521)"
           id="g44"><path
             id="path46"
             style="fill:#ffffff;fill-opacity:1;fill-rule:nonzero;stroke:none"
             d="m 0,0 c 0,-6.262 -5.076,-11.338 -11.338,-11.338 -6.263,0 -11.339,5.076 -11.339,11.338 0,6.263 5.076,11.339 11.339,11.339 C -5.076,11.339 0,6.263 0,0" /></g><g
           transform="translate(323.0117,130.4521)"
           id="g48"><path
             id="path50"
             style="fill:none;stroke:#1d1d1b;stroke-width:1;stroke-linecap:butt;stroke-linejoin:miter;stroke-miterlimit:4;stroke-dasharray:none;stroke-opacity:1"
             d="m 0,0 c 0,-6.262 -5.076,-11.338 -11.338,-11.338 -6.263,0 -11.339,5.076 -11.339,11.338 0,6.263 5.076,11.339 11.339,11.339 C -5.076,11.339 0,6.263 0,0 Z" /></g></g></g><text
       id="text58"
       style="font-variant:normal;font-weight:normal;font-stretch:normal;font-size:10px;font-family:Tahoma;-inkscape-font-specification:Tahoma;writing-mode:lr-tb;fill:#1d1d1b;fill-opacity:1;fill-rule:nonzero;stroke:none"
       transform="matrix(1,0,0,-1,11.9995,107.2759)"><tspan
         id="tspan52"
         y="0"
         x="0 7.71 12.97 17.43 21.889999 27.469999 33.049999 38.580002 41.709999 46.959999 55.360001 58.490002 64.5 69.93 73.269997 78.699997">Messung am Rotor</tspan><tspan
         id="tspan54"
         y="62.16"
         x="70.75 76.279999 81.860001 87.110001 92.639999 96.059998 101.31 104.65 106.94 111.4 116.01 121.59 126.85 132.42999 135.56 141.56 147.14 150.48 155.74001 158.03">quadratischen Anteil</tspan><tspan
         id="tspan56"
         y="74.160004"
         x="98.459999 101.8 105.36 110.62 116.2 121.78 127.04">trennen</tspan></text>
<g
       id="g60"><g
         clip-path="url(#clipPath66)"
         id="g62"><g
           transform="translate(177.4941,175.6211)"
           id="g68"><path
             id="path70"
             style="fill:#ffffff;fill-opacity:1;fill-rule:nonzero;stroke:none"
             d="M 0,0 C 0,-6.236 -5.103,-11.338 -11.338,-11.338 H -88.58 c -6.235,0 -11.338,5.102 -11.338,11.338 v 5.656 c 0,6.236 5.103,11.339 11.338,11.339 h 77.242 C -5.103,16.995 0,11.892 0,5.656 Z" /></g><g
           transform="translate(177.4941,175.6211)"
           id="g72"><path
             id="path74"
             style="fill:none;stroke:#1d1d1b;stroke-width:1;stroke-linecap:butt;stroke-linejoin:miter;stroke-miterlimit:4;stroke-dasharray:none;stroke-opacity:1"
             d="M 0,0 C 0,-6.236 -5.103,-11.338 -11.338,-11.338 H -88.58 c -6.235,0 -11.338,5.102 -11.338,11.338 v 5.656 c 0,6.236 5.103,11.339 11.338,11.339 h 77.242 C -5.103,16.995 0,11.892 0,5.656 Z" /></g></g></g><text
       id="text80"
       style="font-variant:normal;font-weight:normal;font-stretch:normal;font-size:10px;font-family:Tahoma;-inkscape-font-specification:Tahoma;writing-mode:lr-tb;fill:#1d1d1b;fill-opacity:1;fill-rule:nonzero;stroke:none"
       transform="matrix(1,0,0,-1,80.9097,181.3657)"><tspan
         id="tspan76"
         y="0"
         x="0 5.5300002 11.11 16.360001 21.889999 25.309999 30.559999 33.900002 36.189999 40.650002 45.259998 50.84 56.099998 61.68 64.809998 70.809998 76.389999 79.730003 84.989998 87.279999">quadratischen Anteil</tspan><tspan
         id="tspan78"
         y="12"
         x="27.709999 31.049999 34.610001 39.869999 45.450001 51.029999 56.290001">trennen</tspan></text>
<g
       id="g82"><g
         clip-path="url(#clipPath88)"
         id="g84"><g
           transform="translate(51.5835,121.4502)"
           id="g90"><path
             id="path92"
             style="fill:none;stroke:#1d1d1b;stroke-width:1;stroke-linecap:butt;stroke-linejoin:miter;stroke-miterlimit:4;stroke-dasharray:none;stroke-opacity:1"
             d="M 0,0 V 56.999" /></g><g
           transform="translate(51.5835,178.4492)"
           id="g94"><path
             id="path96"
             style="fill:none;stroke:#1d1d1b;stroke-width:1;stroke-linecap:butt;stroke-linejoin:miter;stroke-miterlimit:4;stroke-dasharray:none;stroke-opacity:1"
             d="M 0,0 H 17.917" /></g><g
           transform="translate(71.8613,179.4741)"
           id="g98"><path
             id="path100"
             style="fill:#1d1d1b;fill-opacity:1;fill-rule:nonzero;stroke:none"
             d="m 0,0 c -1.653,0.5 -2.728,0.959 -4.054,1.492 v -5.045 c 0.475,0.226 2.401,0.993 4.054,1.492 1.77,0.535 3.374,0.9 4.415,1.031 C 3.374,-0.9 1.77,-0.534 0,0" /></g><g
           transform="translate(51.5835,100.6162)"
           id="g102"><path
             id="path104"
             style="fill:none;stroke:#1d1d1b;stroke-width:1;stroke-linecap:butt;stroke-linejoin:miter;stroke-miterlimit:4;stroke-dasharray:none;stroke-opacity:1"
             d="M 0,0 V -58.262" /></g><g
           transform="translate(51.5835,42.3545)"
           id="g106"><path
             id="path108"
             style="fill:none;stroke:#1d1d1b;stroke-width:1;stroke-linecap:butt;stroke-linejoin:miter;stroke-miterlimit:4;stroke-dasharray:none;stroke-opacity:1"
             d="M 0,0 H 17.917" /></g><g
           transform="translate(71.8613,43.3799)"
           id="g110"><path
             id="path112"
             style="fill:#1d1d1b;fill-opacity:1;fill-rule:nonzero;stroke:none"
             d="m 0,0 c -1.653,0.499 -2.728,0.959 -4.054,1.491 v -5.044 c 0.475,0.225 2.401,0.992 4.054,1.491 1.77,0.535 3.374,0.901 4.415,1.031 C 3.374,-0.9 1.77,-0.535 0,0" /></g></g></g><text
       id="text118"
       style="font-variant:normal;font-weight:normal;font-stretch:normal;font-size:10px;font-family:Tahoma;-inkscape-font-specification:Tahoma;writing-mode:lr-tb;fill:#1d1d1b;fill-opacity:1;fill-rule:nonzero;stroke:none"
       transform="matrix(1,0,0,-1,25.6221,149.9497)"><tspan
         id="tspan114"
         y="0"
         x="0 5.8800001 9.3100004 14.56 17.74">Kraft</tspan><tspan
         id="tspan116"
         y="84.169998"
         x="-0.38 6.6999998 10.3 15.83 18.129999">Orbit</tspan></text>
<g
       id="g120"><g
         clip-path="url(#clipPath126)"
         id="g122"><g
           transform="translate(177.4941,186.8662)"
           id="g128"><path
             id="path130"
             style="fill:none;stroke:#1d1d1b;stroke-width:1;stroke-linecap:butt;stroke-linejoin:miter;stroke-miterlimit:4;stroke-dasharray:none;stroke-opacity:1"
             d="M 0,0 H 134.18" /></g><g
           transform="translate(311.6738,186.8662)"
           id="g132"><path
             id="path134"
             style="fill:none;stroke:#1d1d1b;stroke-width:1;stroke-linecap:butt;stroke-linejoin:miter;stroke-miterlimit:4;stroke-dasharray:none;stroke-opacity:1"
             d="M 0,0 V -36.834" /></g><g
           transform="translate(312.6992,147.6709)"
           id="g136"><path
             id="path138"
             style="fill:#1d1d1b;fill-opacity:1;fill-rule:nonzero;stroke:none"
             d="M 0,0 C 0.499,1.654 0.959,2.729 1.491,4.055 H -3.553 C -3.328,3.58 -2.561,1.654 -2.062,0 -1.527,-1.77 -1.161,-3.373 -1.031,-4.414 -0.9,-3.373 -0.535,-1.77 0,0" /></g></g></g><text
       id="text142"
       style="font-variant:normal;font-weight:normal;font-stretch:normal;font-size:10px;font-family:Tahoma;-inkscape-font-specification:Tahoma;writing-mode:lr-tb;fill:#1d1d1b;fill-opacity:1;fill-rule:nonzero;stroke:none"
       transform="matrix(1,0,0,-1,206.1084,190.1162)"><tspan
         id="tspan140"
         y="0"
         x="0 5.5900002 10.2 15.78 18.07 23.32 28.85 31.98 38.720001 41.849998 48.41 53.91 61.330002 66.910004 71.519997 77.099998">Schlag &amp; Unwucht</tspan></text>
<g
       id="g144"><g
         clip-path="url(#clipPath150)"
         id="g146"><g
           transform="translate(323.0117,130.4521)"
           id="g152"><path
             id="path154"
             style="fill:none;stroke:#1d1d1b;stroke-width:1;stroke-linecap:butt;stroke-linejoin:miter;stroke-miterlimit:4;stroke-dasharray:none;stroke-opacity:1"
             d="M 0,0 H 43.154" /></g><g
           transform="translate(368.5273,131.4775)"
           id="g156"><path
             id="path158"
             style="fill:#1d1d1b;fill-opacity:1;fill-rule:nonzero;stroke:none"
             d="M 0,0 C -1.653,0.5 -2.728,0.959 -4.054,1.492 V -3.553 C -3.579,-3.327 -1.653,-2.561 0,-2.061 1.77,-1.526 3.374,-1.16 4.415,-1.03 3.374,-0.9 1.77,-0.534 0,0" /></g></g></g><text
       id="text166"
       style="font-variant:normal;font-weight:normal;font-stretch:normal;font-size:10px;font-family:Tahoma;-inkscape-font-specification:Tahoma;writing-mode:lr-tb;fill:#1d1d1b;fill-opacity:1;fill-rule:nonzero;stroke:none"
       transform="matrix(1,0,0,-1,376.8574,127.1157)"><tspan
         id="tspan160"
         y="0"
         x="0 6.5599999 12.08 19.5 25.08 29.690001 35.27">Unwucht</tspan><tspan
         id="tspan162"
         y="38"
         x="9.8900003 15.48 20.09 25.67 27.959999 33.209999">Schlag</tspan><tspan
         id="tspan164"
         y="-40.299999"
         x="-36.279999 -30.6 -25.02 -19.49 -13.96 -11.67 -6.0900002 -0.50999999 5.02 9.4799995 14.36 19.620001 23.219999 27.68 32.93 36.27">Kupplungsversatz</tspan></text>
<g
       id="g168"><g
         clip-path="url(#clipPath174)"
         id="g170"><g
           transform="translate(269.5439,92.3564)"
           id="g176"><path
             id="path178"
             style="fill:none;stroke:#1d1d1b;stroke-width:1;stroke-linecap:butt;stroke-linejoin:miter;stroke-miterlimit:4;stroke-dasharray:none;stroke-opacity:1"
             d="M 0,0 H 109.538" /></g><g
           transform="translate(381.4434,93.3818)"
           id="g180"><path
             id="path182"
             style="fill:#1d1d1b;fill-opacity:1;fill-rule:nonzero;stroke:none"
             d="m 0,0 c -1.653,0.499 -2.728,0.959 -4.054,1.491 v -5.044 c 0.475,0.225 2.401,0.992 4.054,1.491 1.77,0.535 3.374,0.901 4.415,1.031 C 3.374,-0.9 1.77,-0.535 0,0" /></g><g
           transform="translate(311.6738,92.3564)"
           id="g184"><path
             id="path186"
             style="fill:none;stroke:#1d1d1b;stroke-width:1;stroke-linecap:butt;stroke-linejoin:miter;stroke-miterlimit:4;stroke-dasharray:none;stroke-opacity:1"
             d="M 0,0 V 19.76" /></g><g
           transform="translate(310.6484,114.4775)"
           id="g188"><path
             id="path190"
             style="fill:#1d1d1b;fill-opacity:1;fill-rule:nonzero;stroke:none"
             d="M 0,0 C -0.499,-1.654 -0.959,-2.729 -1.491,-4.055 H 3.553 C 3.328,-3.58 2.561,-1.654 2.062,0 1.527,1.77 1.161,3.373 1.031,4.414 0.9,3.373 0.535,1.77 0,0" /></g><g
           transform="translate(307.9141,92.3564)"
           id="g192"><path
             id="path194"
             style="fill:#1d1d1b;fill-opacity:1;fill-rule:nonzero;stroke:none"
             d="m 0,0 c 0,-2.076 1.684,-3.76 3.76,-3.76 2.076,0 3.76,1.684 3.76,3.76 0,2.076 -1.684,3.76 -3.76,3.76 C 1.684,3.76 0,2.076 0,0" /></g></g></g><text
       id="text204"
       style="font-variant:normal;font-weight:normal;font-stretch:normal;font-size:10px;font-family:Tahoma;-inkscape-font-specification:Tahoma;writing-mode:lr-tb;fill:#1d1d1b;fill-opacity:1;fill-rule:nonzero;stroke:none"
       transform="matrix(1,0,0,-1,298.4443,147.188)"><tspan
         id="tspan196"
         y="0"
         x="0">+</tspan><tspan
         id="tspan198"
         y="72.989998"
         x="-35.5">+</tspan><tspan
         id="tspan200"
         y="36.07"
         x="21.99">-</tspan><tspan
         id="tspan202"
         y="41.23"
         x="-52.389999">-</tspan></text>
<g
       id="g206"><g
         clip-path="url(#clipPath212)"
         id="g208"><g
           transform="translate(177.4941,171.4492)"
           id="g214"><path
             id="path216"
             style="fill:none;stroke:#1d1d1b;stroke-width:1;stroke-linecap:butt;stroke-linejoin:miter;stroke-miterlimit:4;stroke-dasharray:none;stroke-opacity:1"
             d="M 0,0 H 153.256" /></g><g
           transform="translate(333.1113,172.4741)"
           id="g218"><path
             id="path220"
             style="fill:#1d1d1b;fill-opacity:1;fill-rule:nonzero;stroke:none"
             d="m 0,0 c -1.653,0.5 -2.728,0.959 -4.054,1.492 v -5.045 c 0.475,0.226 2.401,0.993 4.054,1.492 1.77,0.535 3.374,0.9 4.415,1.031 C 3.374,-0.9 1.77,-0.534 0,0" /></g><g
           transform="translate(258.2051,171.6563)"
           id="g222"><path
             id="path224"
             style="fill:none;stroke:#1d1d1b;stroke-width:1;stroke-linecap:butt;stroke-linejoin:miter;stroke-miterlimit:4;stroke-dasharray:none;stroke-opacity:1"
             d="M 0,0 V -59.54" /></g><g
           transform="translate(259.2305,109.7549)"
           id="g226"><path
             id="path228"
             style="fill:#1d1d1b;fill-opacity:1;fill-rule:nonzero;stroke:none"
             d="M 0,0 C 0.499,1.652 0.959,2.727 1.491,4.053 H -3.553 C -3.328,3.578 -2.561,1.652 -2.062,0 -1.527,-1.77 -1.161,-3.375 -1.031,-4.416 -0.9,-3.375 -0.535,-1.77 0,0" /></g><g
           transform="translate(261.9648,171.6563)"
           id="g230"><path
             id="path232"
             style="fill:#1d1d1b;fill-opacity:1;fill-rule:nonzero;stroke:none"
             d="m 0,0 c 0,2.076 -1.684,3.76 -3.76,3.76 -2.076,0 -3.76,-1.684 -3.76,-3.76 0,-2.076 1.684,-3.76 3.76,-3.76 C -1.684,-3.76 0,-2.076 0,0" /></g><g
           transform="translate(179.3345,48.5322)"
           id="g234"><path
             id="path236"
             style="fill:none;stroke:#1d1d1b;stroke-width:1;stroke-linecap:butt;stroke-linejoin:miter;stroke-miterlimit:4;stroke-dasharray:none;stroke-opacity:1"
             d="M 0,0 H 78.871" /></g><g
           transform="translate(258.2051,48.5322)"
           id="g238"><path
             id="path240"
             style="fill:none;stroke:#1d1d1b;stroke-width:1;stroke-linecap:butt;stroke-linejoin:miter;stroke-miterlimit:4;stroke-dasharray:none;stroke-opacity:1"
             d="M 0,0 V 25.667" /></g><g
           transform="translate(257.1797,76.5605)"
           id="g242"><path
             id="path244"
             style="fill:#1d1d1b;fill-opacity:1;fill-rule:nonzero;stroke:none"
             d="M 0,0 C -0.499,-1.653 -0.959,-2.728 -1.491,-4.054 H 3.553 C 3.328,-3.579 2.561,-1.653 2.062,0 1.527,1.77 1.161,3.374 1.031,4.415 0.9,3.374 0.535,1.77 0,0" /></g></g></g><text
       id="text248"
       style="font-variant:normal;font-weight:normal;font-stretch:normal;font-size:10px;font-family:Tahoma;-inkscape-font-specification:Tahoma;writing-mode:lr-tb;fill:#1d1d1b;fill-opacity:1;fill-rule:nonzero;stroke:none"
       transform="matrix(1,0,0,-1,192.4116,53.2822)"><tspan
         id="tspan246"
         y="0"
         x="0 5.5900002 10.2 15.78 18.07 23.32 28.85 31.98 38.700001 41.830002 47.709999">Schlag &amp; KV</tspan></text>
<g
       id="g250"><g
         clip-path="url(#clipPath256)"
         id="g252"><g
           transform="translate(179.3345,34.5742)"
           id="g258"><path
             id="path260"
             style="fill:none;stroke:#1d1d1b;stroke-width:1;stroke-linecap:butt;stroke-linejoin:miter;stroke-miterlimit:4;stroke-dasharray:none;stroke-opacity:1"
             d="M 0,0 H 144.978" /></g></g></g><text
       id="text264"
       style="font-variant:normal;font-weight:normal;font-stretch:normal;font-size:10px;font-family:Tahoma;-inkscape-font-specification:Tahoma;writing-mode:lr-tb;fill:#1d1d1b;fill-opacity:1;fill-rule:nonzero;stroke:none"
       transform="matrix(1,0,0,-1,271.9453,38.8662)"><tspan
         id="tspan262"
         y="0"
         x="0 3.8299999 10.39 15.91 23.33 28.91 33.52 39.099998 42.439999">(Unwucht)</tspan></text>
</g></svg>