<?xml version="1.0" encoding="UTF-8" standalone="no"?>
<svg
   xmlns:dc="http://purl.org/dc/elements/1.1/"
   xmlns:cc="http://creativecommons.org/ns#"
   xmlns:rdf="http://www.w3.org/1999/02/22-rdf-syntax-ns#"
   xmlns:svg="http://www.w3.org/2000/svg"
   xmlns="http://www.w3.org/2000/svg"
   viewBox="0 0 529.13464 566.92932"
   height="566.92932"
   width="529.13464"
   xml:space="preserve"
   id="svg2"
   version="1.1"><metadata
     id="metadata8"><rdf:RDF><cc:Work
         rdf:about=""><dc:format>image/svg+xml</dc:format><dc:type
           rdf:resource="http://purl.org/dc/dcmitype/StillImage" /></cc:Work></rdf:RDF></metadata><defs
     id="defs6"><clipPath
       id="clipPath18"
       clipPathUnits="userSpaceOnUse"><path
         id="path16"
         d="M 0,425.197 H 396.851 V 0 H 0 Z" /></clipPath><clipPath
       id="clipPath92"
       clipPathUnits="userSpaceOnUse"><path
         id="path90"
         d="M 0,425.197 H 396.851 V 0 H 0 Z" /></clipPath><clipPath
       id="clipPath112"
       clipPathUnits="userSpaceOnUse"><path
         id="path110"
         d="M 0,425.197 H 396.851 V 0 H 0 Z" /></clipPath><clipPath
       id="clipPath140"
       clipPathUnits="userSpaceOnUse"><path
         id="path138"
         d="M 0,425.197 H 396.851 V 0 H 0 Z" /></clipPath></defs><g
     transform="matrix(1.3333333,0,0,-1.3333333,0,566.92933)"
     id="g10"><g
       id="g12"><g
         clip-path="url(#clipPath18)"
         id="g14"><g
           transform="translate(159.5415,344.8369)"
           id="g20"><path
             id="path22"
             style="fill:none;stroke:#1d1d1b;stroke-width:1;stroke-linecap:butt;stroke-linejoin:miter;stroke-miterlimit:10;stroke-dasharray:none;stroke-opacity:1"
             d="m 0,0 c 0,-5.802 -3.969,-10.505 -8.864,-10.505 h -116.918 c -4.895,0 -8.864,4.703 -8.864,10.505 v 13.006 c 0,5.802 3.969,10.505 8.864,10.505 H -8.864 C -3.969,23.511 0,18.808 0,13.006 Z" /></g><g
           transform="translate(159.5415,274.9883)"
           id="g24"><path
             id="path26"
             style="fill:none;stroke:#1d1d1b;stroke-width:1;stroke-linecap:butt;stroke-linejoin:miter;stroke-miterlimit:10;stroke-dasharray:none;stroke-opacity:1"
             d="m 0,0 c 0,-5.802 -3.969,-10.505 -8.864,-10.505 h -116.918 c -4.895,0 -8.864,4.703 -8.864,10.505 v 13.006 c 0,5.801 3.969,10.505 8.864,10.505 H -8.864 C -3.969,23.511 0,18.807 0,13.006 Z" /></g><g
           transform="translate(159.9399,201.6729)"
           id="g28"><path
             id="path30"
             style="fill:none;stroke:#1d1d1b;stroke-width:1;stroke-linecap:butt;stroke-linejoin:miter;stroke-miterlimit:10;stroke-dasharray:none;stroke-opacity:1"
             d="m 0,0 c 0,-7.252 -3.969,-13.131 -8.864,-13.131 h -116.918 c -4.895,0 -8.864,5.879 -8.864,13.131 v 16.258 c 0,7.251 3.969,13.131 8.864,13.131 H -8.864 C -3.969,29.389 0,23.509 0,16.258 Z" /></g><g
           transform="translate(92.2188,327.9199)"
           id="g32"><path
             id="path34"
             style="fill:none;stroke:#1d1d1b;stroke-width:1;stroke-linecap:butt;stroke-linejoin:miter;stroke-miterlimit:10;stroke-dasharray:none;stroke-opacity:1"
             d="M 0,0 V -19.967" /></g><g
           transform="translate(93.2437,305.5918)"
           id="g36"><path
             id="path38"
             style="fill:#1d1d1b;fill-opacity:1;fill-rule:nonzero;stroke:none"
             d="M 0,0 C 0.5,1.653 0.959,2.728 1.492,4.054 H -3.553 C -3.327,3.579 -2.56,1.653 -2.061,0 -1.526,-1.77 -1.161,-3.374 -1.03,-4.415 -0.9,-3.374 -0.534,-1.77 0,0" /></g><g
           transform="translate(91.2188,396.9199)"
           id="g40"><path
             id="path42"
             style="fill:none;stroke:#1d1d1b;stroke-width:1;stroke-linecap:butt;stroke-linejoin:miter;stroke-miterlimit:10;stroke-dasharray:none;stroke-opacity:1"
             d="M 0,0 V -19.967" /></g><g
           transform="translate(92.2437,374.5918)"
           id="g44"><path
             id="path46"
             style="fill:#1d1d1b;fill-opacity:1;fill-rule:nonzero;stroke:none"
             d="M 0,0 C 0.5,1.653 0.959,2.728 1.492,4.054 H -3.553 C -3.327,3.579 -2.56,1.653 -2.061,0 -1.526,-1.77 -1.161,-3.374 -1.03,-4.415 -0.9,-3.374 -0.534,-1.77 0,0" /></g><g
           transform="translate(92.2188,258.6348)"
           id="g48"><path
             id="path50"
             style="fill:none;stroke:#1d1d1b;stroke-width:1;stroke-linecap:butt;stroke-linejoin:miter;stroke-miterlimit:10;stroke-dasharray:none;stroke-opacity:1"
             d="M 0,0 V -19.967" /></g><g
           transform="translate(93.2437,236.3066)"
           id="g52"><path
             id="path54"
             style="fill:#1d1d1b;fill-opacity:1;fill-rule:nonzero;stroke:none"
             d="M 0,0 C 0.5,1.653 0.959,2.728 1.492,4.054 H -3.553 C -3.327,3.579 -2.56,1.653 -2.061,0 -1.526,-1.77 -1.161,-3.374 -1.03,-4.415 -0.9,-3.374 -0.534,-1.77 0,0" /></g><g
           transform="translate(287.3613,98.71)"
           id="g56"><path
             id="path58"
             style="fill:none;stroke:#1d1d1b;stroke-width:1;stroke-linecap:butt;stroke-linejoin:miter;stroke-miterlimit:10;stroke-dasharray:none;stroke-opacity:1"
             d="m 0,0 c 0,-8.09 -5.373,-14.646 -12,-14.646 h -158.286 c -6.627,0 -12,6.556 -12,14.646 v 18.135 c 0,8.09 5.373,14.646 12,14.646 H -12 c 6.627,0 12,-6.556 12,-14.646 z" /></g><g
           transform="translate(193.0752,78.3486)"
           id="g60"><path
             id="path62"
             style="fill:none;stroke:#1d1d1b;stroke-width:1;stroke-linecap:butt;stroke-linejoin:miter;stroke-miterlimit:10;stroke-dasharray:none;stroke-opacity:1"
             d="M 0,0 V -23.855" /></g><g
           transform="translate(194.1001,52.1318)"
           id="g64"><path
             id="path66"
             style="fill:#1d1d1b;fill-opacity:1;fill-rule:nonzero;stroke:none"
             d="M 0,0 C 0.5,1.652 0.959,2.727 1.492,4.053 H -3.553 C -3.327,3.578 -2.56,1.652 -2.061,0 -1.526,-1.77 -1.161,-3.375 -1.03,-4.416 -0.9,-3.375 -0.534,-1.77 0,0" /></g></g></g><text
       id="text70"
       style="font-variant:normal;font-weight:normal;font-stretch:normal;font-size:10px;font-family:Tahoma;-inkscape-font-specification:Tahoma;writing-mode:lr-tb;fill:#000000;fill-opacity:1;fill-rule:nonzero;stroke:none"
       transform="matrix(1,0,0,-1,146.9746,26.5879)"><tspan
         id="tspan68"
         y="0"
         x="0 6 11.53 17.110001 19.4 24.17 29.42 31.709999 36.970001 42.549999 45.889999 51.150002 54.279999 60.84 66.360001 73.779999 79.360001 83.970001 89.550003">Äquivalente Unwucht</tspan></text>
<text
       id="text74"
       style="font-variant:normal;font-weight:bold;font-stretch:normal;font-size:10px;font-family:Tahoma;-inkscape-font-specification:Tahoma-Bold;writing-mode:lr-tb;fill:#000000;fill-opacity:1;fill-rule:nonzero;stroke:none"
       transform="matrix(1,0,0,-1,135.2346,14.5879)"><tspan
         id="tspan72"
         y="0"
         x="0 6.8600001 12.8 16.959999 21.299999 27.290001 33.580002 36.709999 39.639999 46.209999 52.610001 58.599998 63.75 69.690002 72.82 75.75 82.32 88.489998 93.639999 96.660004 100.82 103.84 110.01">Betrag, Phase, Position</tspan></text>
<text
       id="text84"
       style="font-variant:normal;font-weight:normal;font-stretch:normal;font-size:10px;font-family:Tahoma;-inkscape-font-specification:Tahoma;writing-mode:lr-tb;fill:#000000;fill-opacity:1;fill-rule:nonzero;stroke:none"
       transform="matrix(1,0,0,-1,273.2146,413.4279)"><tspan
         id="tspan76"
         y="0"
         x="0 7.71 10.01 13.35 16.48 20.92 26.5 30.959999 36.209999 39.549999 43.990002 46.290001 48.580002 53.189999 58.77">Mit zusätzlich </tspan><tspan
         id="tspan78"
         y="12"
         x="-34.52 -29.27 -23.690001 -18.16 -12.9 -7.3699999 -3.9400001 1.3099999 5.9200001 11.5 14.84 20.1 23.700001 26.83 33.389999 38.919998 46.34 51.919998 56.529999 62.110001 65.449997 73.849998 79.099998 83.559998 88.019997">angebrachter Unwuchtmasse</tspan><tspan
         id="tspan80"
         y="0"
         x="-218.05 -210.97 -205.39 -199.81 -194.55 -191.42 -186.98 -181.39999 -176.94 -171.69 -168.35001 -163.91 -161.62 -159.33 -154.72 -149.14">Ohne zusätzliche</tspan><tspan
         id="tspan82"
         y="12"
         x="-214.19 -207.63 -202.11 -194.69 -189.11 -184.5 -178.92 -175.58 -167.17999 -161.92999 -157.47 -153.00999">Unwuchtmasse</tspan></text>
<g
       id="g86"><g
         clip-path="url(#clipPath92)"
         id="g88"><g
           transform="translate(304.5967,175.3975)"
           id="g94"><path
             id="path96"
             style="fill:none;stroke:#1d1d1b;stroke-width:1;stroke-linecap:butt;stroke-linejoin:miter;stroke-miterlimit:10;stroke-dasharray:none;stroke-opacity:1"
             d="M 0,0 -82.27,-35.139" /></g><g
           transform="translate(220.5586,138.3896)"
           id="g98"><path
             id="path100"
             style="fill:#1d1d1b;fill-opacity:1;fill-rule:nonzero;stroke:none"
             d="M 0,0 C 1.716,0.189 2.885,0.189 4.313,0.221 L 2.332,4.859 C 1.984,4.465 0.515,3.004 -0.81,1.895 -2.228,0.709 -3.56,-0.258 -4.466,-0.787 -3.457,-0.498 -1.838,-0.205 0,0" /></g></g></g><text
       id="text104"
       style="font-variant:normal;font-weight:normal;font-stretch:normal;font-size:10px;font-family:Tahoma;-inkscape-font-specification:Tahoma;writing-mode:lr-tb;fill:#000000;fill-opacity:1;fill-rule:nonzero;stroke:none"
       transform="matrix(1,0,0,-1,14.5059,144.0977)"><tspan
         id="tspan102"
         y="0"
         x="0 5.8800001 9.4799995 14.73 17.91 21.25 26.51 29.639999 35.169998 40.43 44.029999 47.16 53.189999 58.450001 62.91 66.25 71.830002 77.360001 84.779999 90.360001 94.970001 100.55">Kräfte der Restunwucht</tspan></text>
<g
       id="g106"><g
         clip-path="url(#clipPath112)"
         id="g108"><g
           transform="translate(92.2466,178.3975)"
           id="g114"><path
             id="path116"
             style="fill:none;stroke:#1d1d1b;stroke-width:1;stroke-linecap:butt;stroke-linejoin:miter;stroke-miterlimit:10;stroke-dasharray:none;stroke-opacity:1"
             d="M 0,0 79.025,-38.051" /></g><g
           transform="translate(173.8442,140.2471)"
           id="g118"><path
             id="path120"
             style="fill:#1d1d1b;fill-opacity:1;fill-rule:nonzero;stroke:none"
             d="M 0,0 C -1.273,1.166 -2.042,2.047 -3.005,3.102 L -5.194,-1.443 C -4.668,-1.445 -2.6,-1.59 -0.894,-1.857 0.932,-2.145 2.537,-2.51 3.531,-2.844 2.649,-2.275 1.363,-1.25 0,0" /></g><path
           id="path122"
           style="fill:none;stroke:#1d1d1b;stroke-width:1;stroke-linecap:butt;stroke-linejoin:miter;stroke-miterlimit:10;stroke-dasharray:none;stroke-opacity:1"
           d="M 260.158,4.206 H 125.407 v 40.572 h 134.751 z" /></g></g><text
       id="text132"
       style="font-variant:normal;font-weight:normal;font-stretch:normal;font-size:10px;font-family:Tahoma;-inkscape-font-specification:Tahoma;writing-mode:lr-tb;fill:#000000;fill-opacity:1;fill-rule:nonzero;stroke:none"
       transform="matrix(1,0,0,-1,37.2095,213.4077)"><tspan
         id="tspan124"
         y="0"
         x="0 7.0799999 12.66 17.91 23.440001 26.860001 32.110001 35.450001 37.740002 42.200001 46.810001 52.389999 55.52 59.98 64.959999 70.209999 72.5 74.790001 80.050003 83.599998 88.860001 94.440002 99.970001 105.23 110.81">Quadratisch skalierenden </tspan><tspan
         id="tspan126"
         y="12"
         x="13.39 19.389999 24.969999 28.309999 33.57 35.869999 38.16 41.290001 43.580002 49.110001 54.369999 59.950001 63.290001 65.580002 68.760002 71.050003 75.489998 77.779999 83.040001 86.599998 91.860001">Anteil identifizieren</tspan><tspan
         id="tspan128"
         y="-64.989998"
         x="-7 -1.05 4.5300002 7.71 13.24 18.5 22.059999 27.32 29.629999 32.970001 38.549999 44.130001 49.66 52.790001 58.32 63.580002 67.18 70.309998 78.019997 83.279999 87.739998 92.199997 99.620003 104.88 108.48 111.82">Aufbereitung der Messwerte</tspan><tspan
         id="tspan130"
         y="-136.59"
         x="3.97 11.68 16.940001 21.4 25.860001 31.440001 37.02 42.549999 45.68 47.970001 53.549999 56.68 63.43 68.860001 73.470001 79.050003 81.339996 86.589996 92.169998 95.220001 100.48">Messung in Hochläufen</tspan></text>
<g
       id="g134"><g
         clip-path="url(#clipPath140)"
         id="g136"><g
           transform="translate(369.9189,344.8369)"
           id="g142"><path
             id="path144"
             style="fill:none;stroke:#1d1d1b;stroke-width:1;stroke-linecap:butt;stroke-linejoin:miter;stroke-miterlimit:10;stroke-dasharray:none;stroke-opacity:1"
             d="m 0,0 c 0,-5.802 -3.969,-10.505 -8.863,-10.505 h -116.918 c -4.897,0 -8.865,4.703 -8.865,10.505 v 13.006 c 0,5.802 3.968,10.505 8.865,10.505 H -8.863 C -3.969,23.511 0,18.808 0,13.006 Z" /></g><g
           transform="translate(369.9189,274.9883)"
           id="g146"><path
             id="path148"
             style="fill:none;stroke:#1d1d1b;stroke-width:1;stroke-linecap:butt;stroke-linejoin:miter;stroke-miterlimit:10;stroke-dasharray:none;stroke-opacity:1"
             d="m 0,0 c 0,-5.802 -3.969,-10.505 -8.863,-10.505 h -116.918 c -4.897,0 -8.865,4.703 -8.865,10.505 v 13.006 c 0,5.801 3.968,10.505 8.865,10.505 H -8.863 C -3.969,23.511 0,18.807 0,13.006 Z" /></g><g
           transform="translate(370.3174,201.6729)"
           id="g150"><path
             id="path152"
             style="fill:none;stroke:#1d1d1b;stroke-width:1;stroke-linecap:butt;stroke-linejoin:miter;stroke-miterlimit:10;stroke-dasharray:none;stroke-opacity:1"
             d="m 0,0 c 0,-7.252 -3.969,-13.131 -8.863,-13.131 h -116.919 c -4.896,0 -8.864,5.879 -8.864,13.131 v 16.258 c 0,7.251 3.968,13.131 8.864,13.131 H -8.863 C -3.969,29.389 0,23.509 0,16.258 Z" /></g><g
           transform="translate(302.5967,327.9199)"
           id="g154"><path
             id="path156"
             style="fill:none;stroke:#1d1d1b;stroke-width:1;stroke-linecap:butt;stroke-linejoin:miter;stroke-miterlimit:10;stroke-dasharray:none;stroke-opacity:1"
             d="M 0,0 V -19.967" /></g><g
           transform="translate(303.6211,305.5918)"
           id="g158"><path
             id="path160"
             style="fill:#1d1d1b;fill-opacity:1;fill-rule:nonzero;stroke:none"
             d="M 0,0 C 0.499,1.653 0.96,2.728 1.491,4.054 H -3.553 C -3.327,3.579 -2.56,1.653 -2.062,0 -1.526,-1.77 -1.161,-3.374 -1.03,-4.415 -0.899,-3.374 -0.534,-1.77 0,0" /></g><g
           transform="translate(301.5967,396.9199)"
           id="g162"><path
             id="path164"
             style="fill:none;stroke:#1d1d1b;stroke-width:1;stroke-linecap:butt;stroke-linejoin:miter;stroke-miterlimit:10;stroke-dasharray:none;stroke-opacity:1"
             d="M 0,0 V -19.967" /></g><g
           transform="translate(302.6211,374.5918)"
           id="g166"><path
             id="path168"
             style="fill:#1d1d1b;fill-opacity:1;fill-rule:nonzero;stroke:none"
             d="M 0,0 C 0.499,1.653 0.96,2.728 1.491,4.054 H -3.553 C -3.327,3.579 -2.56,1.653 -2.062,0 -1.526,-1.77 -1.161,-3.374 -1.03,-4.415 -0.899,-3.374 -0.534,-1.77 0,0" /></g><g
           transform="translate(302.5967,258.6348)"
           id="g170"><path
             id="path172"
             style="fill:none;stroke:#1d1d1b;stroke-width:1;stroke-linecap:butt;stroke-linejoin:miter;stroke-miterlimit:10;stroke-dasharray:none;stroke-opacity:1"
             d="M 0,0 V -19.967" /></g><g
           transform="translate(303.6211,236.3066)"
           id="g174"><path
             id="path176"
             style="fill:#1d1d1b;fill-opacity:1;fill-rule:nonzero;stroke:none"
             d="M 0,0 C 0.499,1.653 0.96,2.728 1.491,4.054 H -3.553 C -3.327,3.579 -2.56,1.653 -2.062,0 -1.526,-1.77 -1.161,-3.374 -1.03,-4.415 -0.899,-3.374 -0.534,-1.77 0,0" /></g></g></g><text
       id="text190"
       style="font-variant:normal;font-weight:normal;font-stretch:normal;font-size:10px;font-family:Tahoma;-inkscape-font-specification:Tahoma;writing-mode:lr-tb;fill:#000000;fill-opacity:1;fill-rule:nonzero;stroke:none"
       transform="matrix(1,0,0,-1,247.5869,213.4077)"><tspan
         id="tspan178"
         y="0"
         x="0 7.0799999 12.66 17.91 23.440001 26.860001 32.110001 35.450001 37.740002 42.200001 46.810001 52.389999 55.52 59.98 64.959999 70.209999 72.5 74.790001 80.050003 83.599998 88.860001 94.440002 99.970001 105.23 110.81">Quadratisch skalierenden </tspan><tspan
         id="tspan180"
         y="12"
         x="13.39 19.389999 24.969999 28.309999 33.57 35.869999 38.16 41.290001 43.580002 49.110001 54.369999 59.950001 63.290001 65.580002 68.760002 71.050003 75.489998 77.779999 83.040001 86.599998 91.860001">Anteil identifizieren</tspan><tspan
         id="tspan182"
         y="-64.989998"
         x="-7 -1.05 4.5300002 7.71 13.24 18.5 22.059999 27.32 29.629999 32.970001 38.549999 44.130001 49.66 52.790001 58.32 63.580002 67.18 70.309998 78.019997 83.279999 87.739998 92.199997 99.620003 104.88 108.48 111.82">Aufbereitung der Messwerte</tspan><tspan
         id="tspan184"
         y="-136.59"
         x="3.97 11.68 16.940001 21.4 25.860001 31.440001 37.02 42.549999 45.68 47.970001 53.549999 56.68 63.43 68.860001 73.470001 79.050003 81.339996 86.589996 92.169998 95.220001 100.48">Messung in Hochläufen</tspan><tspan
         id="tspan186"
         y="103.35"
         x="-116.02 -110.02 -104.49 -100.05 -97.760002 -92.5 -86.919998 -81.660004 -76.080002 -72.949997 -67.419998 -62.16 -58.560001 -55.43 -49.549999 -45.950001 -40.700001 -37.52 -34.18 -28.92 -25.790001 -20.540001 -14.96 -10.5 -7.3699999 -1.84 3.4200001">Abziehen der Kräfte aus der</tspan><tspan
         id="tspan188"
         y="115.35"
         x="-113.84 -110.71 -104.69 -99.43 -94.970001 -91.629997 -86.050003 -80.519997 -73.099998 -67.519997 -62.91 -57.330002 -53.990002 -49.529999 -44 -38.740002 -34.279999 -30.940001 -28.65 -20.25 -11.85 -6.27 -0.69"> Restunwuchtsbestimmung</tspan></text>
</g></svg>