<?xml version="1.0" encoding="iso-8859-1"?>
<!-- Generator: Adobe Illustrator 16.0.0, SVG Export Plug-In . SVG Version: 6.00 Build 0)  -->
<!DOCTYPE svg PUBLIC "-//W3C//DTD SVG 1.1//EN" "http://www.w3.org/Graphics/SVG/1.1/DTD/svg11.dtd">
<svg xmlns="http://www.w3.org/2000/svg" xmlns:xlink="http://www.w3.org/1999/xlink" version="1.1" id="Capa_1" x="0px" y="0px" width="512px" height="512px" viewBox="0 0 31.093 31.093" style="enable-background:new 0 0 31.093 31.093;" xml:space="preserve">
<g>
	<path d="M25.257,25.234h-2.998v-4.275h0.478h0.614h0.869l0.844,0.98l0.818-0.98h0.819h0.547h0.422l0.001,0.061   c-1.541,0.037-2.781,1.291-2.781,2.842C24.89,24.363,25.031,24.828,25.257,25.234z M25.386,23.861c0,1.299,1.053,2.352,2.353,2.352   c1.298,0,2.351-1.053,2.351-2.352s-1.053-2.353-2.351-2.353C26.439,21.509,25.386,22.562,25.386,23.861z M30.759,26.562H30.31   h-0.578h-0.865l-0.868,1.041l-0.894-1.041h-0.922h-0.65h-0.506v4.53h5.863L30.759,26.562z M22.599,18.41   c0,1.227,0.994,2.219,2.22,2.219c1.225,0,2.219-0.992,2.219-2.219c0-1.225-0.994-2.219-2.219-2.219   C23.593,16.191,22.599,17.186,22.599,18.41z M22.187,18.335c0-1.448,1.16-2.623,2.602-2.655l-0.001-0.056h-0.396H23.88h-0.764   l-0.768,0.918l-0.789-0.918h-0.812h-0.573h-0.447v3.999h2.805C22.32,19.238,22.187,18.807,22.187,18.335z M20.046,13.241   c0,1.145,0.93,2.074,2.074,2.074s2.074-0.929,2.074-2.074c0-1.146-0.93-2.074-2.074-2.074S20.046,12.096,20.046,13.241z    M7.743,20.791H6.874l-0.844,0.98l-0.819-0.98H4.393H3.847H3.424L3.423,20.85c1.541,0.036,2.781,1.291,2.781,2.842   c0,0.502-0.142,0.967-0.368,1.375h2.999v-4.275H8.356H7.743z M1.004,23.691c0,1.299,1.053,2.352,2.351,2.352   c1.299,0,2.352-1.053,2.352-2.352s-1.053-2.353-2.352-2.353C2.058,21.339,1.004,22.393,1.004,23.691z M4.91,26.393H3.99   l-0.895,1.039l-0.868-1.039H1.361H0.782H0.334l-0.132,4.53h5.864v-4.53H5.561H4.91z M4.057,18.24c0,1.225,0.994,2.219,2.22,2.219   c1.225,0,2.219-0.994,2.219-2.219c0-1.227-0.994-2.221-2.219-2.221C5.051,16.02,4.057,17.014,4.057,18.24z M10.344,15.453   L10.344,15.453l-0.812,0.001l-0.789,0.919l-0.767-0.918H7.211H6.701H6.307L6.306,15.51c1.44,0.033,2.601,1.207,2.601,2.656   c0,0.469-0.133,0.902-0.345,1.285h2.804v-3.998h-0.446H10.344z M6.897,13.071c0,1.146,0.929,2.074,2.074,2.074   s2.074-0.929,2.074-2.074s-0.929-2.074-2.074-2.074S6.897,11.926,6.897,13.071z M26.554,0H5.871v0.726h20.684V0z M26.554,9.39   H5.871v0.726h20.684V9.39z M16.157,3.295c0.866,0,1.502,1.868,1.502,2.662c0,0.629-0.371,1.196-0.931,1.434v0.315L16.687,7.73   l0.006,0.123l-1.008,0.112V7.809c-0.037-0.027-0.064-0.077-0.064-0.163v-0.24c-0.581-0.229-0.966-0.801-0.966-1.449   C14.654,5.163,15.288,3.295,16.157,3.295z M14.867,5.957c0,0.584,0.358,1.096,0.894,1.275l0.072,0.024V7.63   c0.017-0.002,0.034-0.002,0.054-0.002l0.521-0.049c0.057,0,0.089-0.002,0.109-0.004V7.246l0.068-0.026   c0.514-0.188,0.86-0.697,0.86-1.263c0-0.785-0.611-2.45-1.291-2.45C15.476,3.507,14.866,5.172,14.867,5.957z M16.693,7.938   l-1.007,0.111v0.075c-0.009,0.04,0.003,0.092,0.012,0.12l0.013,0.043l0.932-0.104l0.045-0.015l0.002-0.046   c0.004-0.014,0.007-0.041,0.007-0.126L16.693,7.938z M15.779,8.446c0.09,0.101,0.23,0.152,0.418,0.153h0.006   c0.318,0,0.43-0.141,0.465-0.262l0.021-0.077l-0.98,0.108L15.779,8.446z M19.656,5.684V5.351H18.3v0.333H19.656z M12.77,5.684   h1.356V5.351H12.77V5.684z M16.366,1.544h-0.332V2.9h0.332V1.544z M17.235,3.213l0.268,0.198L18.31,2.32l-0.268-0.198L17.235,3.213   z M17.92,4.128l0.104,0.315l1.289-0.427l-0.104-0.315L17.92,4.128z M13.077,4.016l1.288,0.429l0.104-0.316L13.183,3.7L13.077,4.016   z M14.116,2.321l0.807,1.091l0.268-0.197l-0.807-1.091L14.116,2.321z M2.772,4.426c0.976,0,1.766-0.79,1.766-1.765   c0-0.975-0.79-1.765-1.766-1.765c-0.975,0-1.765,0.79-1.765,1.765C1.008,3.636,1.798,4.426,2.772,4.426z M1.778,13.321l0.007,0.115   h0.778v-0.728v-0.079V9.487h0.444v3.142v0.079v0.728h0.779l0.007-0.115l0.704,0.115h0.604v-0.652l-0.708-0.155H4.271V9.487V9.19   V8.789h0.112l0.163-3.182L7.7,4.563L7.427,3.739L4.549,4.692H3.415L2.743,5.473L2.091,4.692H1.438H1.004H0.667L0.57,8.13h0.605   l0.032,0.659H1.3V9.19v0.297v3.142H1.18l-0.709,0.155v0.652h0.604L1.778,13.321z" fill="#3070b3"/>
</g>
<g>
</g>
<g>
</g>
<g>
</g>
<g>
</g>
<g>
</g>
<g>
</g>
<g>
</g>
<g>
</g>
<g>
</g>
<g>
</g>
<g>
</g>
<g>
</g>
<g>
</g>
<g>
</g>
<g>
</g>
</svg>
