<?xml version="1.0" encoding="iso-8859-1"?>
<!-- Generator: Adobe Illustrator 16.0.0, SVG Export Plug-In . SVG Version: 6.00 Build 0)  -->
<!DOCTYPE svg PUBLIC "-//W3C//DTD SVG 1.1//EN" "http://www.w3.org/Graphics/SVG/1.1/DTD/svg11.dtd">
<svg version="1.1" id="Capa_1" xmlns="http://www.w3.org/2000/svg" xmlns:xlink="http://www.w3.org/1999/xlink" x="0px" y="0px"
	 width="31.604px" height="31.604px" viewBox="0 0 31.604 31.604" style="enable-background:new 0 0 31.604 31.604;"
	 xml:space="preserve">
<g>
	<g>
		<path d="M18.615,7.229H0.873C0.33,7.229,0,7.641,0,8.186v11.828c0,0.545,0.33,1.015,0.873,1.015h7.698v1.409v0.062H5.852
			c-0.865,0-1.567,0.703-1.567,1.566v0.311h10.581v-0.311c0-0.865-0.702-1.566-1.567-1.566H10.58v-0.062v-1.409h8.035
			c0.545,0,0.938-0.468,0.938-1.015V8.185C19.552,7.641,19.16,7.229,18.615,7.229z M17.543,17.883c0,0.7-0.564,1.269-1.268,1.269
			H3.142c-0.7,0-1.268-0.566-1.268-1.269v-7.376c0-0.7,0.567-1.267,1.268-1.267h13.133c0.701,0,1.27,0.567,1.27,1.267v7.376H17.543z
			"/>
		<path d="M23.171,7.097c-1.11,0-2.012,0.9-2.012,2.011v15.399h10.444V8.664c0-0.866-0.701-1.567-1.565-1.567H23.171z M26.41,22.603
			c-0.477,0-0.859-0.375-0.859-0.836s0.387-0.836,0.859-0.836s0.857,0.375,0.857,0.836S26.882,22.603,26.41,22.603z M29.332,13.124
			h-5.895v-0.938h5.895V13.124z M29.332,11.115h-5.895v-0.938h5.895V11.115z"/>
	</g>
</g>
<g>
</g>
<g>
</g>
<g>
</g>
<g>
</g>
<g>
</g>
<g>
</g>
<g>
</g>
<g>
</g>
<g>
</g>
<g>
</g>
<g>
</g>
<g>
</g>
<g>
</g>
<g>
</g>
<g>
</g>
</svg>
