<?xml version="1.0" encoding="iso-8859-1"?>
<!-- Generator: Adobe Illustrator 16.0.0, SVG Export Plug-In . SVG Version: 6.00 Build 0)  -->
<!DOCTYPE svg PUBLIC "-//W3C//DTD SVG 1.1//EN" "http://www.w3.org/Graphics/SVG/1.1/DTD/svg11.dtd">
<svg xmlns="http://www.w3.org/2000/svg" xmlns:xlink="http://www.w3.org/1999/xlink" version="1.1" id="Capa_1" x="0px" y="0px" width="512px" height="512px" viewBox="0 0 32.166 32.166" style="enable-background:new 0 0 32.166 32.166;" xml:space="preserve">
<g>
	<g>
		<polygon points="32.166,29.828 28.982,27.833 28.982,29.184 2.64,29.184 2.64,3.527 3.989,3.527 1.995,0.344 0,3.527 1.351,3.527     1.351,30.473 28.982,30.473 28.982,31.822   " fill="#3070b3"/>
		<path d="M5.086,22.711c0.839,0,1.517-0.68,1.517-1.516c0-0.601-0.349-1.115-0.854-1.36l2.085-6.272    c0.093,0.019,0.189,0.029,0.287,0.029c0.377,0,0.719-0.143,0.983-0.37l2.886,4.185c-0.215,0.262-0.349,0.59-0.349,0.955    c0,0.838,0.68,1.519,1.519,1.519c0.533,0,1.001-0.277,1.271-0.695l4.467,1.607c0,0.01-0.002,0.02-0.002,0.028    c0,0.838,0.678,1.518,1.516,1.518c0.84,0,1.52-0.68,1.52-1.518c0-0.385-0.147-0.731-0.386-1l1.879-3.295    c0.167,0.063,0.347,0.103,0.534,0.103c0.341,0,0.65-0.116,0.904-0.305l3.658,3.955c-0.195,0.256-0.315,0.57-0.315,0.918    c0,0.838,0.678,1.517,1.517,1.517c0.838,0,1.519-0.679,1.519-1.517s-0.681-1.518-1.519-1.518c-0.257,0-0.496,0.07-0.707,0.184    l-3.729-4.031c0.117-0.216,0.189-0.457,0.189-0.721c0-0.838-0.68-1.518-1.519-1.518s-1.517,0.68-1.517,1.518    c0,0.416,0.168,0.794,0.438,1.066l-1.857,3.258c-0.187-0.082-0.394-0.131-0.61-0.131c-0.601,0-1.114,0.352-1.36,0.857    l-4.398-1.582c0.011-0.069,0.023-0.144,0.023-0.217c0-0.838-0.68-1.519-1.517-1.519c-0.24,0-0.464,0.062-0.665,0.159l-2.981-4.324    c0.08-0.186,0.125-0.389,0.125-0.604c0-0.839-0.68-1.517-1.518-1.517c-0.837,0-1.518,0.678-1.518,1.517    c0,0.508,0.253,0.954,0.637,1.23l-2.12,6.375c-0.011,0-0.021-0.003-0.033-0.003c-0.838,0-1.517,0.68-1.517,1.518    S4.248,22.711,5.086,22.711z" fill="#3070b3"/>
	</g>
</g>
<g>
</g>
<g>
</g>
<g>
</g>
<g>
</g>
<g>
</g>
<g>
</g>
<g>
</g>
<g>
</g>
<g>
</g>
<g>
</g>
<g>
</g>
<g>
</g>
<g>
</g>
<g>
</g>
<g>
</g>
</svg>
