<?xml version="1.0" encoding="iso-8859-1"?>
<!-- Generator: Adobe Illustrator 16.0.0, SVG Export Plug-In . SVG Version: 6.00 Build 0)  -->
<!DOCTYPE svg PUBLIC "-//W3C//DTD SVG 1.1//EN" "http://www.w3.org/Graphics/SVG/1.1/DTD/svg11.dtd">
<svg xmlns="http://www.w3.org/2000/svg" xmlns:xlink="http://www.w3.org/1999/xlink" version="1.1" id="Capa_1" x="0px" y="0px" width="512px" height="512px" viewBox="0 0 35.954 35.954" style="enable-background:new 0 0 35.954 35.954;" xml:space="preserve">
<g>
	<g>
		<path d="M28.86,19.498c0.197-0.97,0.271-1.869,0.271-2.728h-1.343l-0.195-0.741c0,0-0.705-0.408-1.058-0.612    c-0.009-0.203-0.031-0.404-0.073-0.598c0.279-0.24,0.838-0.719,0.838-0.719v-0.964l-1.377-1.605h-0.966    c0,0-0.458,0.392-0.687,0.588c-0.247-0.12-0.51-0.219-0.783-0.294c-0.022-0.271-0.066-0.815-0.066-0.815l-0.683-0.683    l-2.107,0.171l-0.682,0.682c0,0,0.058,0.716,0.086,1.074c-0.207,0.117-0.401,0.25-0.583,0.396    c-0.296-0.135-0.891-0.406-0.891-0.406l-0.933,0.245l-0.882,1.924l-0.031,0.131l0.276,0.802c0,0,0.688,0.314,1.033,0.473    c0.015,0.227,0.05,0.447,0.106,0.662c-0.093,0.079-0.219,0.186-0.343,0.291h-1.299l-0.088-0.338c0,0-0.383-0.221-0.574-0.332    c-0.005-0.109-0.018-0.219-0.04-0.324c0.151-0.13,0.455-0.391,0.455-0.391v-0.521l-0.747-0.872h-0.524    c0,0-0.249,0.213-0.373,0.319c-0.134-0.065-0.277-0.118-0.425-0.159c-0.012-0.147-0.036-0.443-0.036-0.443l-0.37-0.37    l-1.144,0.093l-0.37,0.371c0,0,0.031,0.388,0.046,0.582c-0.112,0.063-0.218,0.136-0.316,0.215    c-0.161-0.072-0.483-0.221-0.483-0.221l-0.506,0.134l-0.479,1.044l-0.016,0.07l0.15,0.435c0,0,0.374,0.17,0.561,0.257    c0.008,0.122,0.027,0.242,0.058,0.358c-0.031,0.026-0.07,0.06-0.11,0.094h-4.5L25.289,4.157C21.18-1.94,13.706-0.854,8.178,4.332    c-6.174,5.79-3.08,9.802-2.134,12.075c0.066,0.141,0.147,0.273,0.226,0.408c-0.436,5.857,5.305,12.113,5.305,12.113l-0.355,7.026    h10.137l0.775-3.231c0,0,0.44,0.738,3.06,0.96c2.619,0.223,2.3-2.976,2.3-2.976s1.744-0.77,1.744-1.347    c0-0.576-1.032-1.321-1.032-1.321s1.109,0.2,1.511-0.268c0.399-0.467-0.49-2.154-0.49-2.154s1.368-0.034,2.175-0.923    C32.204,23.811,28.86,21.188,28.86,19.498z M20.037,15.594c0-1.176,0.952-2.128,2.127-2.128c1.176,0,2.128,0.952,2.128,2.128    c0,0.437-0.132,0.84-0.356,1.177h-3.542C20.169,16.434,20.037,16.029,20.037,15.594z M12.301,16.196    c0-0.638,0.517-1.154,1.154-1.154c0.638,0,1.155,0.517,1.155,1.154c0,0.214-0.074,0.402-0.175,0.574h-1.96    C12.374,16.599,12.301,16.41,12.301,16.196z" fill="#3070b3"/>
		<path d="M19.285,11.506l0.252-0.066l0.286-0.494l-0.066-0.252c0,0-0.189-0.109-0.285-0.164c-0.003-0.056-0.009-0.109-0.021-0.162    c0.075-0.064,0.226-0.194,0.226-0.194v-0.26L19.306,9.48h-0.26c0,0-0.124,0.105-0.185,0.158c-0.067-0.032-0.139-0.058-0.212-0.078    c-0.007-0.073-0.019-0.22-0.019-0.22l-0.184-0.185l-0.568,0.046l-0.184,0.186c0,0,0.016,0.191,0.023,0.289    c-0.055,0.031-0.108,0.066-0.156,0.106c-0.081-0.036-0.241-0.11-0.241-0.11l-0.252,0.067l-0.238,0.519l-0.008,0.035l0.075,0.216    c0,0,0.186,0.085,0.279,0.128c0.004,0.061,0.013,0.121,0.028,0.178c-0.071,0.061-0.212,0.181-0.212,0.181v0.26l0.368,0.437    c0,0,0.214,0.025,0.226,0.018c0.011-0.006,0.035-0.018,0.035-0.018s0.134-0.115,0.202-0.171c0.057,0.025,0.116,0.046,0.178,0.062    c0.007,0.077,0.021,0.23,0.021,0.23l0.184,0.185l0.568-0.052l0.184-0.185c0,0-0.018-0.197-0.027-0.296    c0.046-0.025,0.092-0.055,0.134-0.088C19.137,11.42,19.285,11.506,19.285,11.506z M18.292,11.15c-0.316,0-0.574-0.258-0.574-0.574    c0-0.316,0.257-0.574,0.574-0.574c0.317,0,0.574,0.258,0.574,0.574C18.866,10.892,18.609,11.15,18.292,11.15z" fill="#3070b3"/>
		<path d="M24.888,6.613c-0.104-0.051-0.217-0.093-0.333-0.124c-0.01-0.115-0.027-0.347-0.027-0.347l-0.29-0.29l-0.896,0.073    l-0.29,0.291c0,0,0.024,0.303,0.036,0.455c-0.087,0.05-0.17,0.105-0.247,0.168c-0.126-0.058-0.378-0.174-0.378-0.174L22.067,6.77    l-0.375,0.816l-0.014,0.058l0.118,0.34c0,0,0.292,0.134,0.438,0.201c0.007,0.096,0.021,0.19,0.045,0.28    c-0.111,0.096-0.333,0.285-0.333,0.285v0.408l0.58,0.687c0,0,0.337,0.041,0.355,0.029c0.019-0.01,0.054-0.029,0.054-0.029    s0.212-0.18,0.317-0.269c0.09,0.04,0.183,0.071,0.28,0.098c0.011,0.121,0.034,0.363,0.034,0.363l0.289,0.289l0.894-0.082    l0.29-0.289c0,0-0.028-0.312-0.042-0.466c0.073-0.041,0.143-0.088,0.209-0.14c0.116,0.068,0.349,0.203,0.349,0.203l0.397-0.104    l0.45-0.776L26.3,8.275c0,0-0.299-0.173-0.449-0.259c-0.004-0.088-0.014-0.172-0.031-0.254c0.118-0.102,0.355-0.307,0.355-0.307    V7.047l-0.586-0.683h-0.41C25.179,6.364,24.985,6.531,24.888,6.613z M23.992,8.993c-0.498,0-0.903-0.405-0.903-0.903    c0-0.499,0.405-0.904,0.903-0.904c0.499,0,0.903,0.405,0.903,0.904C24.896,8.588,24.492,8.993,23.992,8.993z" fill="#3070b3"/>
	</g>
</g>
<g>
</g>
<g>
</g>
<g>
</g>
<g>
</g>
<g>
</g>
<g>
</g>
<g>
</g>
<g>
</g>
<g>
</g>
<g>
</g>
<g>
</g>
<g>
</g>
<g>
</g>
<g>
</g>
<g>
</g>
</svg>
