<?xml version="1.0" encoding="UTF-8" standalone="no"?>
<svg
   xmlns:dc="http://purl.org/dc/elements/1.1/"
   xmlns:cc="http://creativecommons.org/ns#"
   xmlns:rdf="http://www.w3.org/1999/02/22-rdf-syntax-ns#"
   xmlns:svg="http://www.w3.org/2000/svg"
   xmlns="http://www.w3.org/2000/svg"
   viewBox="0 0 245.66933 245.66933"
   height="245.66933"
   width="245.66933"
   xml:space="preserve"
   id="svg2"
   version="1.1"><metadata
     id="metadata8"><rdf:RDF><cc:Work
         rdf:about=""><dc:format>image/svg+xml</dc:format><dc:type
           rdf:resource="http://purl.org/dc/dcmitype/StillImage" /></cc:Work></rdf:RDF></metadata><defs
     id="defs6"><clipPath
       id="clipPath22"
       clipPathUnits="userSpaceOnUse"><path
         id="path20"
         d="M 0,184.252 H 184.252 V 0 H 0 Z" /></clipPath><clipPath
       id="clipPath38"
       clipPathUnits="userSpaceOnUse"><path
         id="path36"
         d="M 0,184.252 H 184.252 V 0 H 0 Z" /></clipPath><clipPath
       id="clipPath60"
       clipPathUnits="userSpaceOnUse"><path
         id="path58"
         d="M 0,184.252 H 184.252 V 0 H 0 Z" /></clipPath><clipPath
       id="clipPath76"
       clipPathUnits="userSpaceOnUse"><path
         id="path74"
         d="M 0,184.252 H 184.252 V 0 H 0 Z" /></clipPath><clipPath
       id="clipPath98"
       clipPathUnits="userSpaceOnUse"><path
         id="path96"
         d="M 0,184.252 H 184.252 V 0 H 0 Z" /></clipPath></defs><g
     transform="matrix(1.3333333,0,0,-1.3333333,0,245.66933)"
     id="g10"><g
       transform="translate(28.3315,154.3394)"
       id="g12"><path
         id="path14"
         style="fill:none;stroke:#1d1d1b;stroke-width:1;stroke-linecap:butt;stroke-linejoin:miter;stroke-miterlimit:4;stroke-dasharray:none;stroke-opacity:1"
         d="M 0,0 V -141.732" /></g><g
       id="g16"><g
         clip-path="url(#clipPath22)"
         id="g18"><g
           transform="translate(27.3066,156.7007)"
           id="g24"><path
             id="path26"
             style="fill:#1d1d1b;fill-opacity:1;fill-rule:nonzero;stroke:none"
             d="M 0,0 C -0.5,-1.653 -0.959,-2.728 -1.492,-4.054 H 3.553 C 3.327,-3.579 2.56,-1.653 2.061,0 1.526,1.77 1.161,3.374 1.03,4.415 0.9,3.374 0.534,1.77 0,0" /></g></g></g><g
       transform="translate(16.9927,23.9463)"
       id="g28"><path
         id="path30"
         style="fill:none;stroke:#1d1d1b;stroke-width:1;stroke-linecap:butt;stroke-linejoin:miter;stroke-miterlimit:4;stroke-dasharray:none;stroke-opacity:1"
         d="M 0,0 H 141.733" /></g><g
       id="g32"><g
         clip-path="url(#clipPath38)"
         id="g34"><g
           transform="translate(161.0869,24.9717)"
           id="g40"><path
             id="path42"
             style="fill:#1d1d1b;fill-opacity:1;fill-rule:nonzero;stroke:none"
             d="m 0,0 c -1.653,0.499 -2.728,0.959 -4.054,1.491 v -5.044 c 0.475,0.225 2.401,0.992 4.054,1.491 1.77,0.535 3.374,0.901 4.415,1.031 C 3.374,-0.9 1.77,-0.535 0,0" /></g></g></g><text
       id="text48"
       style="font-variant:normal;font-weight:normal;font-stretch:normal;font-size:12px;font-family:'Times New Roman';-inkscape-font-specification:TimesNewRomanPSMT;writing-mode:lr-tb;fill:#1d1d1b;fill-opacity:1;fill-rule:nonzero;stroke:none"
       transform="matrix(1,0,0,-1,149.3076,10.79)"><tspan
         id="tspan44"
         y="0"
         x="0 6 9.9960003 18 23.327999 27.323999">x[Re] </tspan><tspan
         id="tspan46"
         y="-156.168"
         x="-144.192 -138.192 -134.196 -130.2 -120.864">y[Im]</tspan></text>
<g
       transform="translate(28.3315,23.9463)"
       id="g50"><path
         id="path52"
         style="fill:none;stroke:#27348b;stroke-width:1;stroke-linecap:butt;stroke-linejoin:miter;stroke-miterlimit:4;stroke-dasharray:none;stroke-opacity:1"
         d="M 0,0 85.179,61.295" /></g><g
       id="g54"><g
         clip-path="url(#clipPath60)"
         id="g56"><g
           transform="translate(114.8291,87.4521)"
           id="g62"><path
             id="path64"
             style="fill:#27348b;fill-opacity:1;fill-rule:nonzero;stroke:none"
             d="m 0,0 c -1.634,-0.56 -2.774,-0.814 -4.162,-1.157 l 2.946,-4.094 c 0.254,0.46 1.369,2.207 2.419,3.578 1.124,1.468 2.213,2.702 2.983,3.416 C 3.264,1.24 1.748,0.601 0,0" /></g></g></g><g
       transform="translate(118.5107,88.7412)"
       id="g66"><path
         id="path68"
         style="fill:none;stroke:#00983a;stroke-width:1;stroke-linecap:butt;stroke-linejoin:miter;stroke-miterlimit:4;stroke-dasharray:none;stroke-opacity:1"
         d="M 0,0 -61,17.75" /></g><g
       id="g70"><g
         clip-path="url(#clipPath76)"
         id="g72"><g
           transform="translate(54.957,106.167)"
           id="g78"><path
             id="path80"
             style="fill:#00983a;fill-opacity:1;fill-rule:nonzero;stroke:none"
             d="M 0,0 C 1.448,-0.942 2.351,-1.684 3.476,-2.565 L 4.885,2.278 C 4.366,2.194 2.303,1.996 0.576,1.979 -1.272,1.96 -2.916,2.057 -3.951,2.223 -2.988,1.807 -1.55,1.007 0,0" /></g></g></g><text
       id="text86"
       style="font-variant:normal;font-weight:normal;font-stretch:normal;font-size:10px;font-family:'Myriad Pro';-inkscape-font-specification:MyriadPro-Regular;writing-mode:lr-tb;fill:#1d1d1b;fill-opacity:1;fill-rule:nonzero;stroke:none"
       transform="matrix(1,0,0,-1,82.0107,50.2412)"><tspan
         id="tspan82"
         y="0"
         x="0 5.5900002 10.6 18.940001 23.950001 27.91 31.870001 36.880001 42.43 47.439999 50.709999 52.830002 57.82 62.299999 67.849998 70.209999 75.029999">gemessener Schlag</tspan><tspan
         id="tspan84"
         y="-56.25"
         x="-1.5 6.5999999 12.09 17.73 22.74 25.1 27.459999 29.799999 34.810001 38.080002 43.59 49.139999 54.73 58.689999 61.48 66.489998 72.040001 74.400002 79.410004">Modellierungsfehler</tspan></text>
<g
       transform="translate(28.3315,23.9463)"
       id="g88"><path
         id="path90"
         style="fill:none;stroke:#e84e0e;stroke-width:1;stroke-linecap:butt;stroke-linejoin:miter;stroke-miterlimit:4;stroke-dasharray:none;stroke-opacity:1"
         d="M 0,0 20.771,77.685" /></g><g
       id="g92"><g
         clip-path="url(#clipPath98)"
         id="g94"><g
           transform="translate(48.7222,104.1768)"
           id="g100"><path
             id="path102"
             style="fill:#e84e0e;fill-opacity:1;fill-rule:nonzero;stroke:none"
             d="M 0,0 C -0.91,-1.468 -1.631,-2.387 -2.488,-3.531 L 2.385,-4.834 C 2.29,-4.317 2.046,-2.258 1.991,-0.532 1.932,1.315 1.993,2.96 2.136,3.999 1.741,3.027 0.973,1.571 0,0" /></g></g></g><text
       id="text108"
       style="font-variant:normal;font-weight:normal;font-stretch:normal;font-size:10px;font-family:'Myriad Pro';-inkscape-font-specification:MyriadPro-Regular;writing-mode:lr-tb;fill:#1d1d1b;fill-opacity:1;fill-rule:nonzero;stroke:none"
       transform="matrix(1,0,0,-1,44.0107,78.7412)"><tspan
         id="tspan104"
         y="0"
         x="0 7.3200002 12.14 17.690001 20.860001 25.870001">wahrer</tspan><tspan
         id="tspan106"
         y="12"
         x="0 4.9899998 9.4700003 15.02 17.379999 22.200001">Schlag</tspan></text>
</g></svg>