<?xml version="1.0" encoding="UTF-8" standalone="no"?>
<svg
   xmlns:dc="http://purl.org/dc/elements/1.1/"
   xmlns:cc="http://creativecommons.org/ns#"
   xmlns:rdf="http://www.w3.org/1999/02/22-rdf-syntax-ns#"
   xmlns:svg="http://www.w3.org/2000/svg"
   xmlns="http://www.w3.org/2000/svg"
   viewBox="0 0 245.66667 245.66667"
   height="245.66667"
   width="245.66667"
   xml:space="preserve"
   id="svg2"
   version="1.1"><metadata
     id="metadata8"><rdf:RDF><cc:Work
         rdf:about=""><dc:format>image/svg+xml</dc:format><dc:type
           rdf:resource="http://purl.org/dc/dcmitype/StillImage" /></cc:Work></rdf:RDF></metadata><defs
     id="defs6"><clipPath
       id="clipPath22"
       clipPathUnits="userSpaceOnUse"><path
         id="path20"
         d="M 0,0 H 184.25 V 184 H 0 Z" /></clipPath><clipPath
       id="clipPath38"
       clipPathUnits="userSpaceOnUse"><path
         id="path36"
         d="M 0,0 H 184.25 V 184 H 0 Z" /></clipPath><clipPath
       id="clipPath54"
       clipPathUnits="userSpaceOnUse"><path
         id="path52"
         d="M 0,0 H 184.25 V 184 H 0 Z" /></clipPath><clipPath
       id="clipPath70"
       clipPathUnits="userSpaceOnUse"><path
         id="path68"
         d="M 0,184.25 H 184.25 V 0 H 0 Z" /></clipPath><clipPath
       id="clipPath94"
       clipPathUnits="userSpaceOnUse"><path
         id="path92"
         d="M 0,184.25 H 184.25 V 0 H 0 Z" /></clipPath><clipPath
       id="clipPath110"
       clipPathUnits="userSpaceOnUse"><path
         id="path108"
         d="M 0,184.25 H 184.25 V 0 H 0 Z" /></clipPath></defs><g
     transform="matrix(1.3333333,0,0,-1.3333333,0,245.66667)"
     id="g10"><g
       transform="translate(32.5967,159.8286)"
       id="g12"><path
         id="path14"
         style="fill:none;stroke:#1d1d1b;stroke-width:1;stroke-linecap:butt;stroke-linejoin:miter;stroke-miterlimit:4;stroke-dasharray:none;stroke-opacity:1"
         d="M 0,0 V -141.732" /></g><g
       id="g16"><g
         clip-path="url(#clipPath22)"
         id="g18"><g
           transform="translate(31.5718,162.1899)"
           id="g24"><path
             id="path26"
             style="fill:#1d1d1b;fill-opacity:1;fill-rule:nonzero;stroke:none"
             d="M 0,0 C -0.5,-1.653 -0.959,-2.728 -1.492,-4.054 H 3.553 C 3.327,-3.579 2.56,-1.653 2.061,0 1.526,1.77 1.161,3.374 1.03,4.415 0.9,3.374 0.534,1.77 0,0" /></g></g></g><g
       transform="translate(21.2578,29.4355)"
       id="g28"><path
         id="path30"
         style="fill:none;stroke:#1d1d1b;stroke-width:1;stroke-linecap:butt;stroke-linejoin:miter;stroke-miterlimit:4;stroke-dasharray:none;stroke-opacity:1"
         d="M 0,0 H 141.733" /></g><g
       id="g32"><g
         clip-path="url(#clipPath38)"
         id="g34"><g
           transform="translate(165.3521,30.4609)"
           id="g40"><path
             id="path42"
             style="fill:#1d1d1b;fill-opacity:1;fill-rule:nonzero;stroke:none"
             d="m 0,0 c -1.653,0.499 -2.728,0.959 -4.054,1.491 v -5.044 c 0.475,0.225 2.401,0.992 4.054,1.491 1.77,0.535 3.374,0.901 4.415,1.031 C 3.374,-0.9 1.77,-0.535 0,0" /></g></g></g><text
       id="text46"
       style="font-variant:normal;font-weight:normal;font-stretch:normal;font-size:12px;font-family:'YRVJUC +TimesNewRomanPSMT';-inkscape-font-specification:TimesNewRomanPSMT;writing-mode:lr-tb;fill:#1d1d1b;fill-opacity:1;fill-rule:nonzero;stroke:none"
       transform="matrix(1,0,0,-1,153.5728,16.2793)"><tspan
         id="tspan44"
         y="0"
         x="0 6 9.9960003 18 23.327999 27.323999">x[Re] </tspan></text>
<g
       id="g48"><g
         clip-path="url(#clipPath54)"
         id="g50"><text
           id="text58"
           style="font-variant:normal;font-weight:normal;font-stretch:normal;font-size:12px;font-family:'YRVJUC +TimesNewRomanPSMT';-inkscape-font-specification:TimesNewRomanPSMT;writing-mode:lr-tb;fill:#1d1d1b;fill-opacity:1;fill-rule:nonzero;stroke:none"
           transform="matrix(1,0,0,-1,9.3808,172.4473)"><tspan
             id="tspan56"
             y="0"
             x="0 6 9.9960003 13.992 23.327999">y[Im]</tspan></text>
</g></g><g
       transform="translate(32.6182,29.4189)"
       id="g60"><path
         id="path62"
         style="fill:none;stroke:#0067b2;stroke-width:1;stroke-linecap:butt;stroke-linejoin:miter;stroke-miterlimit:4;stroke-dasharray:none;stroke-opacity:1"
         d="M 0,0 79.072,108.146" /></g><g
       id="g64"><g
         clip-path="url(#clipPath70)"
         id="g66"><g
           transform="translate(112.2568,140.0757)"
           id="g72"><path
             id="path74"
             style="fill:#0067b2;fill-opacity:1;fill-rule:nonzero;stroke:none"
             d="M 0,0 C -1.379,-1.04 -2.385,-1.636 -3.597,-2.392 L 0.476,-5.37 c 0.097,0.517 0.615,2.524 1.188,4.153 C 2.276,0.527 2.929,2.039 3.438,2.956 2.718,2.192 1.476,1.113 0,0" /></g></g></g><text
       id="text78"
       style="font-variant:normal;font-weight:normal;font-stretch:normal;font-size:12px;font-family:'Myriad Pro';-inkscape-font-specification:MyriadPro-Regular;writing-mode:lr-tb;fill:#1d1d1b;fill-opacity:1;fill-rule:nonzero;stroke:none"
       transform="matrix(1,0,0,-1,58.4609,100.2051)"><tspan
         id="tspan76"
         y="0"
         x="0">U</tspan></text>
<text
       id="text82"
       style="font-variant:normal;font-weight:normal;font-stretch:normal;font-size:8px;font-family:'Myriad Pro';-inkscape-font-specification:MyriadPro-Regular;writing-mode:lr-tb;fill:#1d1d1b;fill-opacity:1;fill-rule:nonzero;stroke:none"
       transform="matrix(1,0,0,-1,66.2246,100.2051)"><tspan
         id="tspan80"
         y="0"
         x="0 4.0079999 8.5120001">eqv</tspan></text>
<g
       transform="translate(32.6182,29.4189)"
       id="g84"><path
         id="path86"
         style="fill:none;stroke:#ee722f;stroke-width:1;stroke-linecap:butt;stroke-linejoin:miter;stroke-miterlimit:4;stroke-dasharray:none;stroke-opacity:1"
         d="M 0,0 62.641,21.067" /></g><g
       id="g88"><g
         clip-path="url(#clipPath94)"
         id="g90"><g
           transform="translate(97.1699,52.2109)"
           id="g96"><path
             id="path98"
             style="fill:#ee722f;fill-opacity:1;fill-rule:nonzero;stroke:none"
             d="m 0,0 c -1.726,-0.054 -2.891,0.039 -4.317,0.121 l 1.608,-4.781 c 0.378,0.365 1.958,1.706 3.366,2.706 1.507,1.071 2.911,1.929 3.857,2.385 C 3.485,0.222 1.848,0.058 0,0" /></g></g></g><g
       transform="translate(95.2588,50.4863)"
       id="g100"><path
         id="path102"
         style="fill:none;stroke:#9fae1e;stroke-width:1;stroke-linecap:butt;stroke-linejoin:miter;stroke-miterlimit:4;stroke-dasharray:none;stroke-opacity:1"
         d="M 0,0 19.662,85.955" /></g><g
       id="g104"><g
         clip-path="url(#clipPath110)"
         id="g106"><g
           transform="translate(114.4482,138.9712)"
           id="g112"><path
             id="path114"
             style="fill:#9fae1e;fill-opacity:1;fill-rule:nonzero;stroke:none"
             d="M 0,0 C -0.855,-1.5 -1.543,-2.445 -2.358,-3.619 L 2.56,-4.744 C 2.445,-4.231 2.127,-2.183 2.009,-0.459 1.883,1.385 1.884,3.03 1.989,4.074 1.63,3.088 0.915,1.606 0,0" /></g></g></g><text
       id="text120"
       style="font-variant:normal;font-weight:normal;font-stretch:normal;font-size:8px;font-family:'Myriad Pro';-inkscape-font-specification:MyriadPro-Regular;writing-mode:lr-tb;fill:#1d1d1b;fill-opacity:1;fill-rule:nonzero;stroke:none"
       transform="matrix(1,0,0,-1,112.9551,89.812)"><tspan
         id="tspan116"
         y="0"
         x="0 2.536 6.5440001 10.4 12.288 16.296 17.992001 23.167999 27.504 33.391998 37.799999 41.383999 45.792">reale Unwucht</tspan><tspan
         id="tspan118"
         y="53.368"
         x="-35.112 -31.120001 -27.535999 -23.096001 -21.208 -17.351999">Schlag</tspan></text>
</g></svg>