<?xml version="1.0" encoding="UTF-8" standalone="no"?>
<svg
   xmlns:dc="http://purl.org/dc/elements/1.1/"
   xmlns:cc="http://creativecommons.org/ns#"
   xmlns:rdf="http://www.w3.org/1999/02/22-rdf-syntax-ns#"
   xmlns:svg="http://www.w3.org/2000/svg"
   xmlns="http://www.w3.org/2000/svg"
   viewBox="0 0 245.66933 245.66667"
   height="245.66667"
   width="245.66933"
   xml:space="preserve"
   id="svg2"
   version="1.1"><metadata
     id="metadata8"><rdf:RDF><cc:Work
         rdf:about=""><dc:format>image/svg+xml</dc:format><dc:type
           rdf:resource="http://purl.org/dc/dcmitype/StillImage" /></cc:Work></rdf:RDF></metadata><defs
     id="defs6"><clipPath
       id="clipPath22"
       clipPathUnits="userSpaceOnUse"><path
         id="path20"
         d="M 0,184.25 H 184.252 V 0 H 0 Z" /></clipPath><clipPath
       id="clipPath38"
       clipPathUnits="userSpaceOnUse"><path
         id="path36"
         d="M 0,184.25 H 184.252 V 0 H 0 Z" /></clipPath><clipPath
       id="clipPath60"
       clipPathUnits="userSpaceOnUse"><path
         id="path58"
         d="M 0,184.25 H 184.252 V 0 H 0 Z" /></clipPath><clipPath
       id="clipPath76"
       clipPathUnits="userSpaceOnUse"><path
         id="path74"
         d="M 0,184.25 H 184.252 V 0 H 0 Z" /></clipPath><clipPath
       id="clipPath92"
       clipPathUnits="userSpaceOnUse"><path
         id="path90"
         d="M 0,184.25 H 184.252 V 0 H 0 Z" /></clipPath><clipPath
       id="clipPath112"
       clipPathUnits="userSpaceOnUse"><path
         id="path110"
         d="M 0,184.25 H 184.252 V 0 H 0 Z" /></clipPath><clipPath
       id="clipPath170"
       clipPathUnits="userSpaceOnUse"><path
         id="path168"
         d="M 0,184.25 H 184.252 V 0 H 0 Z" /></clipPath><clipPath
       id="clipPath186"
       clipPathUnits="userSpaceOnUse"><path
         id="path184"
         d="M 0,184.25 H 184.252 V 0 H 0 Z" /></clipPath></defs><g
     transform="matrix(1.3333333,0,0,-1.3333333,0,245.66667)"
     id="g10"><g
       transform="translate(32.5967,160.0786)"
       id="g12"><path
         id="path14"
         style="fill:none;stroke:#1d1d1b;stroke-width:1;stroke-linecap:butt;stroke-linejoin:miter;stroke-miterlimit:4;stroke-dasharray:none;stroke-opacity:1"
         d="M 0,0 V -141.732" /></g><g
       id="g16"><g
         clip-path="url(#clipPath22)"
         id="g18"><g
           transform="translate(31.5718,162.4399)"
           id="g24"><path
             id="path26"
             style="fill:#1d1d1b;fill-opacity:1;fill-rule:nonzero;stroke:none"
             d="M 0,0 C -0.5,-1.653 -0.959,-2.728 -1.492,-4.054 H 3.553 C 3.327,-3.579 2.56,-1.653 2.061,0 1.526,1.77 1.161,3.374 1.03,4.415 0.9,3.374 0.534,1.77 0,0" /></g></g></g><g
       transform="translate(21.2578,29.6855)"
       id="g28"><path
         id="path30"
         style="fill:none;stroke:#1d1d1b;stroke-width:1;stroke-linecap:butt;stroke-linejoin:miter;stroke-miterlimit:4;stroke-dasharray:none;stroke-opacity:1"
         d="M 0,0 H 141.733" /></g><g
       id="g32"><g
         clip-path="url(#clipPath38)"
         id="g34"><g
           transform="translate(165.3521,30.7109)"
           id="g40"><path
             id="path42"
             style="fill:#1d1d1b;fill-opacity:1;fill-rule:nonzero;stroke:none"
             d="m 0,0 c -1.653,0.499 -2.728,0.959 -4.054,1.491 v -5.044 c 0.475,0.225 2.401,0.992 4.054,1.491 1.77,0.535 3.374,0.901 4.415,1.031 C 3.374,-0.9 1.77,-0.535 0,0" /></g></g></g><text
       id="text48"
       style="font-variant:normal;font-weight:normal;font-stretch:normal;font-size:12px;font-family:'Times New Roman';-inkscape-font-specification:TimesNewRomanPSMT;writing-mode:lr-tb;fill:#1d1d1b;fill-opacity:1;fill-rule:nonzero;stroke:none"
       transform="matrix(1,0,0,-1,153.5728,16.5293)"><tspan
         id="tspan44"
         y="0"
         x="0 6 9.9960003 18 23.327999 27.323999">x[Re] </tspan><tspan
         id="tspan46"
         y="-156.168"
         x="-144.192 -138.192 -134.196 -130.2 -120.864">y[Im]</tspan></text>
<g
       transform="translate(32.5967,29.6855)"
       id="g50"><path
         id="path52"
         style="fill:none;stroke:#ea5b0b;stroke-width:1;stroke-linecap:butt;stroke-linejoin:miter;stroke-miterlimit:4;stroke-dasharray:none;stroke-opacity:1"
         d="M 0,0 120.976,50.959" /></g><g
       id="g54"><g
         clip-path="url(#clipPath60)"
         id="g56"><g
           transform="translate(155.3511,82.5059)"
           id="g62"><path
             id="path64"
             style="fill:#ea5b0b;fill-opacity:1;fill-rule:nonzero;stroke:none"
             d="m 0,0 c -1.718,-0.182 -2.886,-0.175 -4.314,-0.199 l 1.958,-4.649 C -2.007,-4.456 -0.53,-3.001 0.8,-1.899 2.224,-0.72 3.56,0.24 4.469,0.765 3.459,0.48 1.838,0.194 0,0" /></g></g></g><g
       transform="translate(32.5967,29.6855)"
       id="g66"><path
         id="path68"
         style="fill:none;stroke:#00983a;stroke-width:1;stroke-linecap:butt;stroke-linejoin:miter;stroke-miterlimit:4;stroke-dasharray:none;stroke-opacity:1"
         d="M 0,0 109.823,67.957" /></g><g
       id="g70"><g
         clip-path="url(#clipPath76)"
         id="g72"><g
           transform="translate(143.8882,99.7563)"
           id="g78"><path
             id="path80"
             style="fill:#00983a;fill-opacity:1;fill-rule:nonzero;stroke:none"
             d="m 0,0 c -1.669,-0.445 -2.824,-0.62 -4.232,-0.865 l 2.654,-4.289 c 0.285,0.441 1.519,2.107 2.662,3.401 1.224,1.386 2.395,2.541 3.213,3.2 C 3.343,1.01 1.786,0.477 0,0" /></g></g></g><g
       transform="translate(156.0571,89.2129)"
       id="g82"><path
         id="path84"
         style="fill:none;stroke:#82368c;stroke-width:1;stroke-linecap:butt;stroke-linejoin:miter;stroke-miterlimit:4;stroke-dasharray:none;stroke-opacity:1"
         d="M 0,0 -4.2,6.684" /></g><g
       id="g86"><g
         clip-path="url(#clipPath92)"
         id="g88"><g
           transform="translate(149.7329,97.3506)"
           id="g94"><path
             id="path96"
             style="fill:#82368c;fill-opacity:1;fill-rule:nonzero;stroke:none"
             d="m 0,0 c 0.457,-1.666 0.639,-2.82 0.894,-4.226 l 4.271,2.684 C 4.722,-1.26 3.047,-0.038 1.745,1.097 0.351,2.31 -0.813,3.474 -1.477,4.286 -1.033,3.335 -0.489,1.782 0,0" /></g><g
           transform="translate(158.1812,87.7588)"
           id="g98"><path
             id="path100"
             style="fill:#82368c;fill-opacity:1;fill-rule:nonzero;stroke:none"
             d="M 0,0 C -0.457,1.666 -0.639,2.82 -0.894,4.226 L -5.165,1.542 C -4.722,1.26 -3.047,0.038 -1.745,-1.097 -0.351,-2.311 0.813,-3.475 1.478,-4.286 1.033,-3.335 0.489,-1.782 0,0" /></g></g></g><g
       transform="translate(61.1602,40.2783)"
       id="g102"><path
         id="path104"
         style="fill:none;stroke:#82368c;stroke-width:1;stroke-linecap:butt;stroke-linejoin:miter;stroke-miterlimit:4;stroke-dasharray:none;stroke-opacity:1"
         d="M 0,0 -4.2,6.684" /></g><g
       id="g106"><g
         clip-path="url(#clipPath112)"
         id="g108"><g
           transform="translate(54.8359,48.417)"
           id="g114"><path
             id="path116"
             style="fill:#82368c;fill-opacity:1;fill-rule:nonzero;stroke:none"
             d="m 0,0 c 0.457,-1.666 0.639,-2.82 0.894,-4.227 l 4.271,2.684 C 4.722,-1.261 3.047,-0.038 1.745,1.096 0.351,2.31 -0.813,3.474 -1.477,4.285 -1.033,3.335 -0.489,1.781 0,0" /></g><g
           transform="translate(63.2842,38.8252)"
           id="g118"><path
             id="path120"
             style="fill:#82368c;fill-opacity:1;fill-rule:nonzero;stroke:none"
             d="M 0,0 C -0.457,1.666 -0.639,2.82 -0.894,4.226 L -5.165,1.541 C -4.722,1.26 -3.047,0.037 -1.745,-1.098 -0.351,-2.311 0.813,-3.475 1.478,-4.287 1.033,-3.336 0.489,-1.783 0,0" /></g></g></g><text
       id="text124"
       style="font-variant:normal;font-weight:normal;font-stretch:normal;font-size:10px;font-family:Tahoma;-inkscape-font-specification:Tahoma;writing-mode:lr-tb;fill:#1d1d1b;fill-opacity:1;fill-rule:nonzero;stroke:none"
       transform="matrix(1,0,0,-1,111.0269,53.083)"><tspan
         id="tspan122"
         y="0"
         x="0">F</tspan></text>
<text
       id="text128"
       style="font-variant:normal;font-weight:normal;font-stretch:normal;font-size:6px;font-family:Tahoma;-inkscape-font-specification:Tahoma;writing-mode:lr-tb;fill:#1d1d1b;fill-opacity:1;fill-rule:nonzero;stroke:none"
       transform="matrix(1,0,0,-1,116.2417,53.083)"><tspan
         id="tspan126"
         y="0"
         x="0 5.04 8.1960001 10.872 13.548 15.366 17.243999 21.246">mess, GL</tspan></text>
<text
       id="text132"
       style="font-variant:normal;font-weight:normal;font-stretch:normal;font-size:10px;font-family:Tahoma;-inkscape-font-specification:Tahoma;writing-mode:lr-tb;fill:#1d1d1b;fill-opacity:1;fill-rule:nonzero;stroke:none"
       transform="matrix(1,0,0,-1,40.728,20.75)"><tspan
         id="tspan130"
         y="0"
         x="0">F</tspan></text>
<text
       id="text136"
       style="font-variant:normal;font-weight:normal;font-stretch:normal;font-size:6px;font-family:Tahoma;-inkscape-font-specification:Tahoma;writing-mode:lr-tb;fill:#1d1d1b;fill-opacity:1;fill-rule:nonzero;stroke:none"
       transform="matrix(1,0,0,-1,45.9429,20.75)"><tspan
         id="tspan134"
         y="0"
         x="0 5.04 8.1960001 10.872 13.548 15.366 17.243999 22.656">mess, WL</tspan></text>
<text
       id="text140"
       style="font-variant:normal;font-weight:normal;font-stretch:normal;font-size:10px;font-family:Tahoma;-inkscape-font-specification:Tahoma;writing-mode:lr-tb;fill:#1d1d1b;fill-opacity:1;fill-rule:nonzero;stroke:none"
       transform="matrix(1,0,0,-1,86.0269,80.6445)"><tspan
         id="tspan138"
         y="0"
         x="0">F</tspan></text>
<text
       id="text144"
       style="font-variant:normal;font-weight:normal;font-stretch:normal;font-size:6px;font-family:Tahoma;-inkscape-font-specification:Tahoma;writing-mode:lr-tb;fill:#1d1d1b;fill-opacity:1;fill-rule:nonzero;stroke:none"
       transform="matrix(1,0,0,-1,91.2417,80.6445)"><tspan
         id="tspan142"
         y="0"
         x="0 2.6760001 4.0500002 9.0900002 10.908 12.786 16.788">sim, GL</tspan></text>
<text
       id="text148"
       style="font-variant:normal;font-weight:normal;font-stretch:normal;font-size:10px;font-family:Tahoma;-inkscape-font-specification:Tahoma;writing-mode:lr-tb;fill:#1d1d1b;fill-opacity:1;fill-rule:nonzero;stroke:none"
       transform="matrix(1,0,0,-1,36.7085,56.3213)"><tspan
         id="tspan146"
         y="0"
         x="0">F</tspan></text>
<text
       id="text152"
       style="font-variant:normal;font-weight:normal;font-stretch:normal;font-size:6px;font-family:Tahoma;-inkscape-font-specification:Tahoma;writing-mode:lr-tb;fill:#1d1d1b;fill-opacity:1;fill-rule:nonzero;stroke:none"
       transform="matrix(1,0,0,-1,41.9233,56.3213)"><tspan
         id="tspan150"
         y="0"
         x="0 2.6760001 4.0500002 9.0900002 10.908 12.786 18.198">sim, WL</tspan></text>
<text
       id="text158"
       style="font-variant:normal;font-weight:normal;font-stretch:normal;font-size:10px;font-family:Tahoma;-inkscape-font-specification:Tahoma;writing-mode:lr-tb;fill:#1d1d1b;fill-opacity:1;fill-rule:nonzero;stroke:none"
       transform="matrix(1,0,0,-1,160.3599,94.583)"><tspan
         id="tspan154"
         y="0"
         x="0 3.8199999 10.01 15.22">|∆F|</tspan><tspan
         id="tspan156"
         y="59.169998"
         x="-90.669998 -86.849998 -80.660004 -75.449997">|∆F|</tspan></text>
<g
       transform="translate(32.5967,29.6855)"
       id="g160"><path
         id="path162"
         style="fill:none;stroke:#b35a33;stroke-width:1;stroke-linecap:butt;stroke-linejoin:miter;stroke-miterlimit:4;stroke-dasharray:none;stroke-opacity:1"
         d="M 0,0 25.667,4.564" /></g><g
       id="g164"><g
         clip-path="url(#clipPath170)"
         id="g166"><g
           transform="translate(60.4092,35.6729)"
           id="g172"><path
             id="path174"
             style="fill:#b35a33;fill-opacity:1;fill-rule:nonzero;stroke:none"
             d="m 0,0 c -1.715,0.202 -2.854,0.467 -4.252,0.759 l 0.883,-4.967 c 0.428,0.306 2.189,1.397 3.73,2.179 1.648,0.836 3.164,1.476 4.166,1.788 C 3.479,-0.296 1.835,-0.217 0,0" /></g></g></g><g
       transform="translate(32.5967,29.6855)"
       id="g176"><path
         id="path178"
         style="fill:none;stroke:#377843;stroke-width:1;stroke-linecap:butt;stroke-linejoin:miter;stroke-miterlimit:4;stroke-dasharray:none;stroke-opacity:1"
         d="M 0,0 16.263,18.156" /></g><g
       id="g180"><g
         clip-path="url(#clipPath186)"
         id="g182"><g
           transform="translate(49.6714,50.2842)"
           id="g188"><path
             id="path190"
             style="fill:#377843;fill-opacity:1;fill-rule:nonzero;stroke:none"
             d="M 0,0 C -1.475,-0.897 -2.535,-1.392 -3.816,-2.024 L -0.058,-5.39 C 0.09,-4.886 0.804,-2.939 1.535,-1.375 2.317,0.3 3.116,1.739 3.713,2.602 2.921,1.913 1.579,0.962 0,0" /></g></g></g></g></svg>