<?xml version="1.0" encoding="UTF-8" standalone="no"?>
<svg
   xmlns:dc="http://purl.org/dc/elements/1.1/"
   xmlns:cc="http://creativecommons.org/ns#"
   xmlns:rdf="http://www.w3.org/1999/02/22-rdf-syntax-ns#"
   xmlns:svg="http://www.w3.org/2000/svg"
   xmlns="http://www.w3.org/2000/svg"
   viewBox="0 0 566.93335 188.97333"
   height="188.97333"
   width="566.93335"
   xml:space="preserve"
   id="svg2"
   version="1.1"><metadata
     id="metadata8"><rdf:RDF><cc:Work
         rdf:about=""><dc:format>image/svg+xml</dc:format><dc:type
           rdf:resource="http://purl.org/dc/dcmitype/StillImage" /></cc:Work></rdf:RDF></metadata><defs
     id="defs6"><clipPath
       id="clipPath22"
       clipPathUnits="userSpaceOnUse"><path
         id="path20"
         d="M 0,141.73 H 425.2 V 0 H 0 Z" /></clipPath><clipPath
       id="clipPath38"
       clipPathUnits="userSpaceOnUse"><path
         id="path36"
         d="M 0,141.73 H 425.2 V 0 H 0 Z" /></clipPath><clipPath
       id="clipPath56"
       clipPathUnits="userSpaceOnUse"><path
         id="path54"
         d="M 0,141.73 H 425.2 V 0 H 0 Z" /></clipPath><clipPath
       id="clipPath84"
       clipPathUnits="userSpaceOnUse"><path
         id="path82"
         d="M 0,141.73 H 425.2 V 0 H 0 Z" /></clipPath><clipPath
       id="clipPath114"
       clipPathUnits="userSpaceOnUse"><path
         id="path112"
         d="M 0,141.73 H 425.2 V 0 H 0 Z" /></clipPath><clipPath
       id="clipPath142"
       clipPathUnits="userSpaceOnUse"><path
         id="path140"
         d="M 0,141.73 H 425.2 V 0 H 0 Z" /></clipPath><clipPath
       id="clipPath166"
       clipPathUnits="userSpaceOnUse"><path
         id="path164"
         d="M 0,141.73 H 425.2 V 0 H 0 Z" /></clipPath></defs><g
     transform="matrix(1.3333333,0,0,-1.3333333,0,188.97333)"
     id="g10"><g
       transform="translate(105.4502,127.0063)"
       id="g12"><path
         id="path14"
         style="fill:none;stroke:#1d1d1b;stroke-width:1;stroke-linecap:butt;stroke-linejoin:miter;stroke-miterlimit:4;stroke-dasharray:none;stroke-opacity:1"
         d="M 0,0 V -120.382" /></g><g
       id="g16"><g
         clip-path="url(#clipPath22)"
         id="g18"><g
           transform="translate(104.4253,129.3677)"
           id="g24"><path
             id="path26"
             style="fill:#1d1d1b;fill-opacity:1;fill-rule:nonzero;stroke:none"
             d="M 0,0 C -0.5,-1.653 -0.959,-2.728 -1.492,-4.054 H 3.553 C 3.327,-3.579 2.56,-1.653 2.061,0 1.526,1.77 1.161,3.374 1.03,4.415 0.9,3.374 0.534,1.77 0,0" /></g></g></g><g
       transform="translate(44.1274,65.1895)"
       id="g28"><path
         id="path30"
         style="fill:none;stroke:#1d1d1b;stroke-width:1;stroke-linecap:butt;stroke-linejoin:miter;stroke-miterlimit:4;stroke-dasharray:none;stroke-opacity:1"
         d="M 0,0 H 123.139" /></g><g
       id="g32"><g
         clip-path="url(#clipPath38)"
         id="g34"><g
           transform="translate(169.6279,66.2148)"
           id="g40"><path
             id="path42"
             style="fill:#1d1d1b;fill-opacity:1;fill-rule:nonzero;stroke:none"
             d="m 0,0 c -1.653,0.499 -2.728,0.959 -4.054,1.491 v -5.044 c 0.475,0.225 2.401,0.992 4.054,1.491 1.77,0.535 3.374,0.901 4.415,1.031 C 3.374,-0.9 1.77,-0.535 0,0" /></g></g></g><text
       id="text48"
       style="font-variant:normal;font-weight:normal;font-stretch:normal;font-size:5.68889999px;font-family:'Times New Roman';-inkscape-font-specification:TimesNewRomanPSMT;writing-mode:lr-tb;fill:#1d1d1b;fill-opacity:1;fill-rule:nonzero;stroke:none"
       transform="matrix(1,0,0,-1,162.8027,58.9512)"><tspan
         id="tspan44"
         y="0"
         x="0 2.84445 4.7388539 8.53335 11.059221 12.953626">x[Re] </tspan><tspan
         id="tspan46"
         y="-74.035347"
         x="-68.357819 -65.513374 -63.618969 -61.724564 -57.298599">y[Im]</tspan></text>
<g
       id="g50"><g
         clip-path="url(#clipPath56)"
         id="g52"><g
           transform="translate(155.0562,65.1895)"
           id="g58"><path
             id="path60"
             style="fill:none;stroke:#1d1d1b;stroke-width:0.25;stroke-linecap:butt;stroke-linejoin:miter;stroke-miterlimit:4;stroke-dasharray:none;stroke-opacity:1"
             d="m 0,0 c 0,-27.397 -22.209,-49.606 -49.606,-49.606 -27.397,0 -49.606,22.209 -49.606,49.606 0,27.397 22.209,49.606 49.606,49.606 C -22.209,49.606 0,27.397 0,0 Z" /></g><g
           transform="translate(105.4502,65.1895)"
           id="g62"><path
             id="path64"
             style="fill:none;stroke:#ea5b0b;stroke-width:1;stroke-linecap:butt;stroke-linejoin:miter;stroke-miterlimit:4;stroke-dasharray:none;stroke-opacity:1"
             d="M 0,0 34.107,27.575" /></g><g
           transform="translate(140.749,95.0464)"
           id="g66"><path
             id="path68"
             style="fill:#ea5b0b;fill-opacity:1;fill-rule:nonzero;stroke:none"
             d="m 0,0 c -1.6,-0.651 -2.724,-0.969 -4.09,-1.389 l 3.172,-3.923 c 0.227,0.474 1.242,2.282 2.214,3.709 1.039,1.528 2.058,2.822 2.785,3.578 C 3.189,1.421 1.712,0.697 0,0" /></g></g></g><text
       id="text72"
       style="font-variant:normal;font-weight:normal;font-stretch:normal;font-size:10px;font-family:'Myriad Pro';-inkscape-font-specification:MyriadPro-Regular;writing-mode:lr-tb;fill:#1d1d1b;fill-opacity:1;fill-rule:nonzero;stroke:none"
       transform="matrix(1,0,0,-1,143.0078,107.4229)"><tspan
         id="tspan70"
         y="0"
         x="0">F</tspan></text>
<text
       id="text76"
       style="font-variant:normal;font-weight:normal;font-stretch:normal;font-size:6px;font-family:'Myriad Pro';-inkscape-font-specification:MyriadPro-Regular;writing-mode:lr-tb;fill:#1d1d1b;fill-opacity:1;fill-rule:nonzero;stroke:none"
       transform="matrix(1,0,0,-1,147.8779,107.4229)"><tspan
         id="tspan74"
         y="0"
         x="0">1</tspan></text>
<g
       id="g78"><g
         clip-path="url(#clipPath84)"
         id="g80"><g
           transform="translate(305.4502,126.749)"
           id="g86"><path
             id="path88"
             style="fill:none;stroke:#1d1d1b;stroke-width:1;stroke-linecap:butt;stroke-linejoin:miter;stroke-miterlimit:4;stroke-dasharray:none;stroke-opacity:1"
             d="M 0,0 V -120.382" /></g><g
           transform="translate(304.4258,129.1104)"
           id="g90"><path
             id="path92"
             style="fill:#1d1d1b;fill-opacity:1;fill-rule:nonzero;stroke:none"
             d="M 0,0 C -0.5,-1.653 -0.96,-2.728 -1.492,-4.054 H 3.553 C 3.326,-3.579 2.56,-1.653 2.061,0 1.525,1.77 1.16,3.374 1.029,4.415 0.899,3.374 0.533,1.77 0,0" /></g><g
           transform="translate(244.127,64.9316)"
           id="g94"><path
             id="path96"
             style="fill:none;stroke:#1d1d1b;stroke-width:1;stroke-linecap:butt;stroke-linejoin:miter;stroke-miterlimit:4;stroke-dasharray:none;stroke-opacity:1"
             d="M 0,0 H 123.14" /></g><g
           transform="translate(369.6279,65.957)"
           id="g98"><path
             id="path100"
             style="fill:#1d1d1b;fill-opacity:1;fill-rule:nonzero;stroke:none"
             d="m 0,0 c -1.653,0.5 -2.728,0.959 -4.054,1.492 v -5.045 c 0.475,0.225 2.401,0.992 4.054,1.492 1.77,0.534 3.374,0.901 4.415,1.03 C 3.374,-0.9 1.77,-0.535 0,0" /></g></g></g><text
       id="text106"
       style="font-variant:normal;font-weight:normal;font-stretch:normal;font-size:5.68889999px;font-family:'Times New Roman';-inkscape-font-specification:TimesNewRomanPSMT;writing-mode:lr-tb;fill:#1d1d1b;fill-opacity:1;fill-rule:nonzero;stroke:none"
       transform="matrix(1,0,0,-1,362.8027,58.6943)"><tspan
         id="tspan102"
         y="0"
         x="0 2.84445 4.7388539 8.53335 11.059221 12.953626">x[Re] </tspan><tspan
         id="tspan104"
         y="-74.035347"
         x="-68.357819 -65.513374 -63.618969 -61.724564 -57.298599">y[Im]</tspan></text>
<g
       id="g108"><g
         clip-path="url(#clipPath114)"
         id="g110"><g
           transform="translate(333.7969,64.9316)"
           id="g116"><path
             id="path118"
             style="fill:none;stroke:#1d1d1b;stroke-width:0.25;stroke-linecap:butt;stroke-linejoin:miter;stroke-miterlimit:4;stroke-dasharray:none;stroke-opacity:1"
             d="m 0,0 c 0,-15.654 -12.691,-28.346 -28.347,-28.346 -15.655,0 -28.346,12.692 -28.346,28.346 0,15.656 12.691,28.347 28.346,28.347 C -12.691,28.347 0,15.656 0,0 Z" /></g><g
           transform="translate(305.4502,64.9316)"
           id="g120"><path
             id="path122"
             style="fill:none;stroke:#00983a;stroke-width:1;stroke-linecap:butt;stroke-linejoin:miter;stroke-miterlimit:4;stroke-dasharray:none;stroke-opacity:1"
             d="M 0,0 19.175,9.924" /></g><g
           transform="translate(326.251,76.8511)"
           id="g124"><path
             id="path126"
             style="fill:#00983a;fill-opacity:1;fill-rule:nonzero;stroke:none"
             d="m 0,0 c -1.698,-0.316 -2.863,-0.401 -4.286,-0.539 l 2.319,-4.48 c 0.318,0.419 1.675,1.985 2.914,3.188 C 2.273,-0.542 3.53,0.52 4.395,1.114 3.41,0.751 1.817,0.339 0,0" /></g></g></g><text
       id="text130"
       style="font-variant:normal;font-weight:normal;font-stretch:normal;font-size:10px;font-family:'Myriad Pro';-inkscape-font-specification:MyriadPro-Regular;writing-mode:lr-tb;fill:#1d1d1b;fill-opacity:1;fill-rule:nonzero;stroke:none"
       transform="matrix(1,0,0,-1,333.7969,82.9736)"><tspan
         id="tspan128"
         y="0"
         x="0">F</tspan></text>
<text
       id="text134"
       style="font-variant:normal;font-weight:normal;font-stretch:normal;font-size:6px;font-family:'Myriad Pro';-inkscape-font-specification:MyriadPro-Regular;writing-mode:lr-tb;fill:#1d1d1b;fill-opacity:1;fill-rule:nonzero;stroke:none"
       transform="matrix(1,0,0,-1,338.667,82.9736)"><tspan
         id="tspan132"
         y="0"
         x="0">2</tspan></text>
<g
       id="g136"><g
         clip-path="url(#clipPath142)"
         id="g138"><g
           transform="translate(130.2588,65.3086)"
           id="g144"><path
             id="path146"
             style="fill:none;stroke:#1d1d1b;stroke-width:0.25;stroke-linecap:butt;stroke-linejoin:miter;stroke-miterlimit:4;stroke-dasharray:none;stroke-opacity:1"
             d="M 0,0 C 0,5.03 -2.043,9.652 -5.458,13.291" /></g><g
           transform="translate(124.2095,78.854)"
           id="g148"><path
             id="path150"
             style="fill:#1d1d1b;fill-opacity:1;fill-rule:nonzero;stroke:none"
             d="m 0,0 c 0.192,-0.387 0.292,-0.661 0.422,-0.994 l 0.919,0.863 C 1.219,-0.083 0.75,0.137 0.375,0.353 -0.024,0.584 -0.366,0.814 -0.568,0.981 -0.413,0.769 -0.206,0.414 0,0" /></g></g></g><text
       id="text154"
       style="font-variant:normal;font-weight:normal;font-stretch:normal;font-size:10px;font-family:'Myriad Pro';-inkscape-font-specification:MyriadPro-Regular;writing-mode:lr-tb;fill:#1d1d1b;fill-opacity:1;fill-rule:nonzero;stroke:none"
       transform="matrix(1,0,0,-1,136.3135,73.248)"><tspan
         id="tspan152"
         y="0"
         x="0">φ</tspan></text>
<text
       id="text158"
       style="font-variant:normal;font-weight:normal;font-stretch:normal;font-size:6px;font-family:'Myriad Pro';-inkscape-font-specification:MyriadPro-Regular;writing-mode:lr-tb;fill:#1d1d1b;fill-opacity:1;fill-rule:nonzero;stroke:none"
       transform="matrix(1,0,0,-1,142.7334,73.248)"><tspan
         id="tspan156"
         y="0"
         x="0">1</tspan></text>
<g
       id="g160"><g
         clip-path="url(#clipPath166)"
         id="g162"><g
           transform="translate(318.1006,64.7832)"
           id="g168"><path
             id="path170"
             style="fill:none;stroke:#1d1d1b;stroke-width:0.25;stroke-linecap:butt;stroke-linejoin:miter;stroke-miterlimit:4;stroke-dasharray:none;stroke-opacity:1"
             d="M 0,0 C 0,1.657 -0.238,3.25 -0.677,4.735" /></g><g
           transform="translate(317.0107,70.0122)"
           id="g172"><path
             id="path174"
             style="fill:#1d1d1b;fill-opacity:1;fill-rule:nonzero;stroke:none"
             d="M 0,0 C -0.003,-0.432 -0.037,-0.722 -0.07,-1.078 L 1.139,-0.72 C 1.052,-0.623 0.731,-0.215 0.494,0.146 0.241,0.532 0.04,0.891 -0.065,1.131 -0.022,0.873 0.003,0.462 0,0" /></g></g></g><text
       id="text178"
       style="font-variant:normal;font-weight:normal;font-stretch:normal;font-size:10px;font-family:'Myriad Pro';-inkscape-font-specification:MyriadPro-Regular;writing-mode:lr-tb;fill:#1d1d1b;fill-opacity:1;fill-rule:nonzero;stroke:none"
       transform="matrix(1,0,0,-1,324.6885,67.5254)"><tspan
         id="tspan176"
         y="0"
         x="0">φ</tspan></text>
<text
       id="text182"
       style="font-variant:normal;font-weight:normal;font-stretch:normal;font-size:6px;font-family:'Myriad Pro';-inkscape-font-specification:MyriadPro-Regular;writing-mode:lr-tb;fill:#1d1d1b;fill-opacity:1;fill-rule:nonzero;stroke:none"
       transform="matrix(1,0,0,-1,331.1084,67.5254)"><tspan
         id="tspan180"
         y="0"
         x="0">2</tspan></text>
</g></svg>