<?xml version="1.0" encoding="UTF-8" standalone="no"?>
<svg
   xmlns:dc="http://purl.org/dc/elements/1.1/"
   xmlns:cc="http://creativecommons.org/ns#"
   xmlns:rdf="http://www.w3.org/1999/02/22-rdf-syntax-ns#"
   xmlns:svg="http://www.w3.org/2000/svg"
   xmlns="http://www.w3.org/2000/svg"
   viewBox="0 0 245.66933 245.66667"
   height="245.66667"
   width="245.66933"
   xml:space="preserve"
   id="svg2"
   version="1.1"><metadata
     id="metadata8"><rdf:RDF><cc:Work
         rdf:about=""><dc:format>image/svg+xml</dc:format><dc:type
           rdf:resource="http://purl.org/dc/dcmitype/StillImage" /></cc:Work></rdf:RDF></metadata><defs
     id="defs6"><clipPath
       id="clipPath22"
       clipPathUnits="userSpaceOnUse"><path
         id="path20"
         d="M 0,184.25 H 184.252 V 0 H 0 Z" /></clipPath><clipPath
       id="clipPath38"
       clipPathUnits="userSpaceOnUse"><path
         id="path36"
         d="M 0,184.25 H 184.252 V 0 H 0 Z" /></clipPath><clipPath
       id="clipPath62"
       clipPathUnits="userSpaceOnUse"><path
         id="path60"
         d="M 0,184.25 H 184.252 V 0 H 0 Z" /></clipPath><clipPath
       id="clipPath78"
       clipPathUnits="userSpaceOnUse"><path
         id="path76"
         d="M 0,184.25 H 184.252 V 0 H 0 Z" /></clipPath><clipPath
       id="clipPath108"
       clipPathUnits="userSpaceOnUse"><path
         id="path106"
         d="M 0,184.25 H 184.252 V 0 H 0 Z" /></clipPath></defs><g
     transform="matrix(1.3333333,0,0,-1.3333333,0,245.66667)"
     id="g10"><g
       transform="translate(88.8345,168.4766)"
       id="g12"><path
         id="path14"
         style="fill:none;stroke:#1d1d1b;stroke-width:0.5;stroke-linecap:butt;stroke-linejoin:miter;stroke-miterlimit:4;stroke-dasharray:none;stroke-opacity:1"
         d="M 0,0 V -154.904" /></g><g
       id="g16"><g
         clip-path="url(#clipPath22)"
         id="g18"><g
           transform="translate(88.3218,169.6572)"
           id="g24"><path
             id="path26"
             style="fill:#1d1d1b;fill-opacity:1;fill-rule:nonzero;stroke:none"
             d="M 0,0 C -0.25,-0.827 -0.479,-1.364 -0.746,-2.027 H 1.776 C 1.664,-1.79 1.28,-0.827 1.031,0 0.764,0.885 0.581,1.687 0.516,2.208 0.45,1.687 0.268,0.885 0,0" /></g></g></g><g
       transform="translate(16.3633,86.5508)"
       id="g28"><path
         id="path30"
         style="fill:none;stroke:#1d1d1b;stroke-width:0.5;stroke-linecap:butt;stroke-linejoin:miter;stroke-miterlimit:4;stroke-dasharray:none;stroke-opacity:1"
         d="M 0,0 H 154.398" /></g><g
       id="g32"><g
         clip-path="url(#clipPath38)"
         id="g34"><g
           transform="translate(171.9419,87.0635)"
           id="g40"><path
             id="path42"
             style="fill:#1d1d1b;fill-opacity:1;fill-rule:nonzero;stroke:none"
             d="M 0,0 C -0.826,0.249 -1.363,0.479 -2.027,0.745 V -1.776 C -1.789,-1.664 -0.826,-1.28 0,-1.03 0.885,-0.764 1.688,-0.581 2.207,-0.516 1.688,-0.45 0.885,-0.268 0,0" /></g><text
           id="text46"
           style="font-variant:normal;font-weight:normal;font-stretch:normal;font-size:8px;font-family:'Times New Roman';-inkscape-font-specification:TimesNewRomanPSMT;writing-mode:lr-tb;fill:#1d1d1b;fill-opacity:1;fill-rule:nonzero;stroke:none"
           transform="matrix(1,0,0,-1,164.8433,77.2852)"><tspan
             id="tspan44"
             y="0"
             x="0 4 6.664 12 15.552 18.216">x[Re] </tspan></text>
</g></g><text
       id="text50"
       style="font-variant:normal;font-weight:normal;font-stretch:normal;font-size:8px;font-family:'Times New Roman';-inkscape-font-specification:TimesNewRomanPSMT;writing-mode:lr-tb;fill:#1d1d1b;fill-opacity:1;fill-rule:nonzero;stroke:none"
       transform="matrix(1,0,0,-1,79.5894,175.9531)"><tspan
         id="tspan48"
         y="0"
         x="0 4 6.664 9.3280001 15.552">y[Im]</tspan></text>
<g
       transform="translate(34.9575,33.8027)"
       id="g52"><path
         id="path54"
         style="fill:none;stroke:#ea5b0b;stroke-width:1;stroke-linecap:butt;stroke-linejoin:miter;stroke-miterlimit:4;stroke-dasharray:none;stroke-opacity:1"
         d="M 0,0 36.577,36.577" /></g><g
       id="g56"><g
         clip-path="url(#clipPath62)"
         id="g58"><g
           transform="translate(72.48,72.7744)"
           id="g64"><path
             id="path66"
             style="fill:#ea5b0b;fill-opacity:1;fill-rule:nonzero;stroke:none"
             d="m 0,0 c -1.522,-0.815 -2.607,-1.251 -3.922,-1.812 l 3.568,-3.567 c 0.175,0.495 0.995,2.4 1.811,3.921 C 2.33,0.172 3.206,1.565 3.851,2.394 3.021,1.749 1.629,0.874 0,0" /></g></g></g><g
       transform="translate(131.0708,45.8828)"
       id="g68"><path
         id="path70"
         style="fill:none;stroke:#ea5b0b;stroke-width:1;stroke-linecap:butt;stroke-linejoin:miter;stroke-miterlimit:4;stroke-dasharray:none;stroke-opacity:1"
         d="M 0,0 -24.497,24.497" /></g><g
       id="g72"><g
         clip-path="url(#clipPath78)"
         id="g74"><g
           transform="translate(104.1792,71.3242)"
           id="g80"><path
             id="path82"
             style="fill:#ea5b0b;fill-opacity:1;fill-rule:nonzero;stroke:none"
             d="m 0,0 c 0.815,-1.521 1.251,-2.606 1.812,-3.92 l 3.567,3.566 C 4.884,-0.178 2.979,0.642 1.458,1.458 -0.172,2.331 -1.565,3.207 -2.394,3.852 -1.749,3.023 -0.874,1.629 0,0" /></g></g></g><text
       id="text86"
       style="font-variant:normal;font-weight:normal;font-stretch:normal;font-size:8px;font-family:Tahoma;-inkscape-font-specification:Tahoma;writing-mode:lr-tb;fill:#1d1d1b;fill-opacity:1;fill-rule:nonzero;stroke:none"
       transform="matrix(1,0,0,-1,122.6616,57.7217)"><tspan
         id="tspan84"
         y="0"
         x="0">F</tspan></text>
<text
       id="text90"
       style="font-variant:normal;font-weight:normal;font-stretch:normal;font-size:5px;font-family:Tahoma;-inkscape-font-specification:Tahoma;writing-mode:lr-tb;fill:#1d1d1b;fill-opacity:1;fill-rule:nonzero;stroke:none"
       transform="matrix(1,0,0,-1,126.8335,57.7217)"><tspan
         id="tspan88"
         y="0"
         x="0">1</tspan></text>
<text
       id="text94"
       style="font-variant:normal;font-weight:normal;font-stretch:normal;font-size:8px;font-family:Tahoma;-inkscape-font-specification:Tahoma;writing-mode:lr-tb;fill:#1d1d1b;fill-opacity:1;fill-rule:nonzero;stroke:none"
       transform="matrix(1,0,0,-1,43.2959,52.1309)"><tspan
         id="tspan92"
         y="0"
         x="0">F</tspan></text>
<text
       id="text98"
       style="font-variant:normal;font-weight:normal;font-stretch:normal;font-size:5px;font-family:Tahoma;-inkscape-font-specification:Tahoma;writing-mode:lr-tb;fill:#1d1d1b;fill-opacity:1;fill-rule:nonzero;stroke:none"
       transform="matrix(1,0,0,-1,47.4678,52.1309)"><tspan
         id="tspan96"
         y="0"
         x="0">2</tspan></text>
<path
       id="path100"
       style="fill:#b2b2b2;fill-opacity:1;fill-rule:nonzero;stroke:#1d1d1b;stroke-width:0.5;stroke-linecap:butt;stroke-linejoin:miter;stroke-miterlimit:4;stroke-dasharray:none;stroke-opacity:1"
       d="M 101.292,97.781 H 76.375 V 75.32 h 24.917 z" /><g
       id="g102"><g
         clip-path="url(#clipPath108)"
         id="g104"><g
           transform="translate(93.2993,85.6816)"
           id="g110"><path
             id="path112"
             style="fill:#ffffff;fill-opacity:1;fill-rule:nonzero;stroke:none"
             d="m 0,0 c 0,-2.349 -1.904,-4.252 -4.252,-4.252 -2.349,0 -4.252,1.903 -4.252,4.252 0,2.349 1.903,4.252 4.252,4.252 C -1.904,4.252 0,2.349 0,0" /></g><g
           transform="translate(93.2993,85.6816)"
           id="g114"><path
             id="path116"
             style="fill:none;stroke:#1d1d1b;stroke-width:0.5;stroke-linecap:butt;stroke-linejoin:miter;stroke-miterlimit:4;stroke-dasharray:none;stroke-opacity:1"
             d="m 0,0 c 0,-2.349 -1.904,-4.252 -4.252,-4.252 -2.349,0 -4.252,1.903 -4.252,4.252 0,2.349 1.903,4.252 4.252,4.252 C -1.904,4.252 0,2.349 0,0 Z" /></g><g
           transform="translate(89.0474,86.6816)"
           id="g118"><path
             id="path120"
             style="fill:none;stroke:#27348b;stroke-width:1;stroke-linecap:butt;stroke-linejoin:miter;stroke-miterlimit:4;stroke-dasharray:none;stroke-opacity:1"
             d="M 0,0 H 29.642" /></g><g
           transform="translate(121.0503,87.707)"
           id="g122"><path
             id="path124"
             style="fill:#27348b;fill-opacity:1;fill-rule:nonzero;stroke:none"
             d="m 0,0 c -1.653,0.499 -2.728,0.959 -4.054,1.491 v -5.044 c 0.475,0.225 2.401,0.992 4.054,1.491 1.77,0.535 3.374,0.901 4.415,1.031 C 3.374,-0.9 1.77,-0.535 0,0" /></g><g
           transform="translate(89.0474,86.6816)"
           id="g126"><path
             id="path128"
             style="fill:none;stroke:#27348b;stroke-width:1;stroke-linecap:butt;stroke-linejoin:miter;stroke-miterlimit:4;stroke-dasharray:none;stroke-opacity:1"
             d="M 0,0 V 52.143" /></g><g
           transform="translate(88.0225,141.186)"
           id="g130"><path
             id="path132"
             style="fill:#27348b;fill-opacity:1;fill-rule:nonzero;stroke:none"
             d="M 0,0 C -0.5,-1.653 -0.959,-2.728 -1.492,-4.054 H 3.553 C 3.327,-3.579 2.56,-1.653 2.061,0 1.526,1.77 1.161,3.374 1.03,4.415 0.9,3.374 0.534,1.77 0,0" /></g></g></g><text
       id="text136"
       style="font-variant:normal;font-weight:normal;font-stretch:normal;font-size:8px;font-family:'Myriad Pro';-inkscape-font-specification:MyriadPro-Regular;writing-mode:lr-tb;fill:#1d1d1b;fill-opacity:1;fill-rule:nonzero;stroke:none"
       transform="matrix(1,0,0,-1,96.7417,137.1538)"><tspan
         id="tspan134"
         y="0"
         x="0">F</tspan></text>
<text
       id="text140"
       style="font-variant:normal;font-weight:normal;font-stretch:normal;font-size:6px;font-family:'Myriad Pro';-inkscape-font-specification:MyriadPro-Regular;writing-mode:lr-tb;fill:#1d1d1b;fill-opacity:1;fill-rule:nonzero;stroke:none"
       transform="matrix(1,0,0,-1,100.6372,137.1538)"><tspan
         id="tspan138"
         y="0"
         x="0">y</tspan></text>
<text
       id="text144"
       style="font-variant:normal;font-weight:normal;font-stretch:normal;font-size:8px;font-family:'Myriad Pro';-inkscape-font-specification:MyriadPro-Regular;writing-mode:lr-tb;fill:#1d1d1b;fill-opacity:1;fill-rule:nonzero;stroke:none"
       transform="matrix(1,0,0,-1,124.6616,77.3823)"><tspan
         id="tspan142"
         y="0"
         x="0">F</tspan></text>
<text
       id="text148"
       style="font-variant:normal;font-weight:normal;font-stretch:normal;font-size:6px;font-family:'Myriad Pro';-inkscape-font-specification:MyriadPro-Regular;writing-mode:lr-tb;fill:#1d1d1b;fill-opacity:1;fill-rule:nonzero;stroke:none"
       transform="matrix(1,0,0,-1,128.5571,77.3823)"><tspan
         id="tspan146"
         y="0"
         x="0">x</tspan></text>
</g></svg>