<?xml version="1.0" encoding="UTF-8" standalone="no"?>
<!-- Created with Inkscape (http://www.inkscape.org/) -->

<svg
   xmlns:dc="http://purl.org/dc/elements/1.1/"
   xmlns:cc="http://creativecommons.org/ns#"
   xmlns:rdf="http://www.w3.org/1999/02/22-rdf-syntax-ns#"
   xmlns:svg="http://www.w3.org/2000/svg"
   xmlns="http://www.w3.org/2000/svg"
   xmlns:sodipodi="http://sodipodi.sourceforge.net/DTD/sodipodi-0.dtd"
   xmlns:inkscape="http://www.inkscape.org/namespaces/inkscape"
   width="140mm"
   height="140mm"
   viewBox="0 0 140 140"
   version="1.1"
   id="svg15572"
   sodipodi:docname="Kreisluaf.svg"
   inkscape:version="0.92.1 r15371">
  <defs
     id="defs15566" />
  <sodipodi:namedview
     id="base"
     pagecolor="#ffffff"
     bordercolor="#666666"
     borderopacity="1.0"
     inkscape:pageopacity="0.0"
     inkscape:pageshadow="2"
     inkscape:zoom="2"
     inkscape:cx="287.1106"
     inkscape:cy="273.82836"
     inkscape:document-units="mm"
     inkscape:current-layer="layer1"
     showgrid="false"
     inkscape:window-width="2560"
     inkscape:window-height="1361"
     inkscape:window-x="-9"
     inkscape:window-y="-9"
     inkscape:window-maximized="1"
     inkscape:snap-smooth-nodes="true"
     showguides="false" />
  <metadata
     id="metadata15569">
    <rdf:RDF>
      <cc:Work
         rdf:about="">
        <dc:format>image/svg+xml</dc:format>
        <dc:type
           rdf:resource="http://purl.org/dc/dcmitype/StillImage" />
        <dc:title></dc:title>
      </cc:Work>
    </rdf:RDF>
  </metadata>
  <g
     inkscape:label="Ebene 1"
     inkscape:groupmode="layer"
     id="layer1"
     transform="translate(0,-157)">
    <path
       sodipodi:nodetypes="ccccccc"
       inkscape:connector-curvature="0"
       id="path16135"
       d="m 71.739788,188.56593 c 19.232348,2.6e-4 34.823192,15.59136 34.823192,34.82371 l 7.50006,9.51015 7.50004,-9.51015 c 1.1e-4,-27.51679 -22.306539,-49.82367 -49.823312,-49.82384 l 9.510166,7.50007 -9.510146,7.50006"
       style="fill:#005293;fill-rule:evenodd;stroke:#000000;stroke-width:0.26458332px;stroke-linecap:butt;stroke-linejoin:miter;stroke-opacity:1" />
    <path
       style="opacity:1;fill:none;fill-opacity:1;fill-rule:nonzero;stroke:#000000;stroke-width:0.35277778;stroke-linecap:butt;stroke-linejoin:miter;stroke-miterlimit:4;stroke-dasharray:none;stroke-dashoffset:0;stroke-opacity:1;paint-order:normal"
       d="m 71.739259,188.56593 h 5.29e-4"
       id="path16194"
       inkscape:connector-curvature="0"
       sodipodi:nodetypes="cc" />
    <path
       style="fill:#dad7cb;fill-rule:evenodd;stroke:#000000;stroke-width:0.26458332px;stroke-linecap:butt;stroke-linejoin:miter;stroke-opacity:1"
       d="m 36.916084,223.38912 c 2.6e-4,-19.23235 15.59136,-34.82319 34.82371,-34.82319 l 9.51015,-7.50006 -9.51015,-7.50004 c -27.51679,-1.1e-4 -49.82367,22.30654 -49.82384,49.82331 l 7.50007,-9.51016 7.50006,9.51014"
       id="path16202"
       inkscape:connector-curvature="0"
       sodipodi:nodetypes="ccccccc" />
    <path
       sodipodi:nodetypes="ccccccc"
       inkscape:connector-curvature="0"
       id="path16204"
       d="m 71.739274,258.21284 c -19.232347,-2.6e-4 -34.82319,-15.59136 -34.823192,-34.82371 l -7.500058,-9.51015 -7.500042,9.51015 c -1.09e-4,27.51679 22.30654,49.82367 49.823313,49.82384 l -9.510165,-7.50006 9.510144,-7.50007"
       style="fill:#a2ad00;fill-rule:evenodd;stroke:#000000;stroke-width:0.26458332px;stroke-linecap:butt;stroke-linejoin:miter;stroke-opacity:1" />
    <path
       style="fill:#e37222;fill-rule:evenodd;stroke:#000000;stroke-width:0.26458332px;stroke-linecap:butt;stroke-linejoin:miter;stroke-opacity:1"
       d="m 106.56299,223.38965 c -2.6e-4,19.23234 -15.591362,34.82319 -34.82371,34.82319 l -9.51015,7.50007 9.510151,7.50003 c 27.516793,1.1e-4 49.823659,-22.30654 49.823829,-49.82331 l -7.50007,9.51016 -7.50005,-9.51014"
       id="path16206"
       inkscape:connector-curvature="0"
       sodipodi:nodetypes="ccccccc" />
  </g>
</svg>
