<?xml version="1.0" encoding="UTF-8" standalone="no"?>
<svg
   xmlns:dc="http://purl.org/dc/elements/1.1/"
   xmlns:cc="http://creativecommons.org/ns#"
   xmlns:rdf="http://www.w3.org/1999/02/22-rdf-syntax-ns#"
   xmlns:svg="http://www.w3.org/2000/svg"
   xmlns="http://www.w3.org/2000/svg"
   viewBox="0 0 245.66933 245.66667"
   height="245.66667"
   width="245.66933"
   xml:space="preserve"
   id="svg2"
   version="1.1"><metadata
     id="metadata8"><rdf:RDF><cc:Work
         rdf:about=""><dc:format>image/svg+xml</dc:format><dc:type
           rdf:resource="http://purl.org/dc/dcmitype/StillImage" /></cc:Work></rdf:RDF></metadata><defs
     id="defs6"><clipPath
       id="clipPath22"
       clipPathUnits="userSpaceOnUse"><path
         id="path20"
         d="M 0,184.25 H 184.252 V 0 H 0 Z" /></clipPath><clipPath
       id="clipPath38"
       clipPathUnits="userSpaceOnUse"><path
         id="path36"
         d="M 0,184.25 H 184.252 V 0 H 0 Z" /></clipPath><clipPath
       id="clipPath58"
       clipPathUnits="userSpaceOnUse"><path
         id="path56"
         d="M 0,184.25 H 184.252 V 0 H 0 Z" /></clipPath><clipPath
       id="clipPath112"
       clipPathUnits="userSpaceOnUse"><path
         id="path110"
         d="M 0,184.25 H 184.252 V 0 H 0 Z" /></clipPath></defs><g
     transform="matrix(1.3333333,0,0,-1.3333333,0,245.66667)"
     id="g10"><g
       transform="translate(49.0444,139.1528)"
       id="g12"><path
         id="path14"
         style="fill:none;stroke:#1d1d1b;stroke-width:0.5;stroke-linecap:butt;stroke-linejoin:miter;stroke-miterlimit:4;stroke-dasharray:none;stroke-opacity:1"
         d="M 0,0 V -56.693" /></g><g
       id="g16"><g
         clip-path="url(#clipPath22)"
         id="g18"><g
           transform="translate(48.5322,140.3335)"
           id="g24"><path
             id="path26"
             style="fill:#1d1d1b;fill-opacity:1;fill-rule:nonzero;stroke:none"
             d="M 0,0 C -0.25,-0.827 -0.48,-1.364 -0.746,-2.027 H 1.776 C 1.663,-1.79 1.28,-0.827 1.03,0 0.763,0.885 0.58,1.687 0.515,2.208 0.45,1.687 0.267,0.885 0,0" /></g></g></g><g
       transform="translate(44.5088,86.9951)"
       id="g28"><path
         id="path30"
         style="fill:none;stroke:#1d1d1b;stroke-width:0.5;stroke-linecap:butt;stroke-linejoin:miter;stroke-miterlimit:4;stroke-dasharray:none;stroke-opacity:1"
         d="M 0,0 H 56.693" /></g><g
       id="g32"><g
         clip-path="url(#clipPath38)"
         id="g34"><g
           transform="translate(102.3833,87.5078)"
           id="g40"><path
             id="path42"
             style="fill:#1d1d1b;fill-opacity:1;fill-rule:nonzero;stroke:none"
             d="M 0,0 C -0.828,0.25 -1.365,0.479 -2.027,0.746 V -1.776 C -1.791,-1.664 -0.828,-1.28 0,-1.031 0.885,-0.764 1.686,-0.58 2.207,-0.516 1.686,-0.45 0.885,-0.268 0,0" /></g></g></g><text
       id="text48"
       style="font-variant:normal;font-weight:normal;font-stretch:normal;font-size:10px;font-family:Tahoma;-inkscape-font-specification:Tahoma;writing-mode:lr-tb;fill:#1d1d1b;fill-opacity:1;fill-rule:nonzero;stroke:none"
       transform="matrix(1,0,0,-1,94.105,71.6797)"><tspan
         id="tspan44"
         y="0"
         x="0 4.9499998 8.7799997 14.8 20.059999 23.889999">x[Re] </tspan><tspan
         id="tspan46"
         y="-75.769997"
         x="-71.43 -66.449997 -62.619999 -58.939999 -50.540001">y[Im]</tspan></text>
<path
       id="path50"
       style="fill:#c7c7c6;fill-opacity:1;fill-rule:nonzero;stroke:#1d1d1b;stroke-width:0.5;stroke-linecap:butt;stroke-linejoin:miter;stroke-miterlimit:4;stroke-dasharray:none;stroke-opacity:1"
       d="m 70.304,65.736 h -42.52 v 42.519 h 42.52 z" /><g
       id="g52"><g
         clip-path="url(#clipPath58)"
         id="g54"><g
           transform="translate(54.7139,86.9961)"
           id="g60"><path
             id="path62"
             style="fill:#ffffff;fill-opacity:1;fill-rule:nonzero;stroke:none"
             d="m 0,0 c 0,-3.132 -2.538,-5.67 -5.669,-5.67 -3.131,0 -5.669,2.538 -5.669,5.67 0,3.131 2.538,5.669 5.669,5.669 C -2.538,5.669 0,3.131 0,0" /></g><g
           transform="translate(54.7139,86.9961)"
           id="g64"><path
             id="path66"
             style="fill:none;stroke:#1d1d1b;stroke-width:0.5;stroke-linecap:butt;stroke-linejoin:miter;stroke-miterlimit:4;stroke-dasharray:none;stroke-opacity:1"
             d="m 0,0 c 0,-3.132 -2.538,-5.67 -5.669,-5.67 -3.131,0 -5.669,2.538 -5.669,5.67 0,3.131 2.538,5.669 5.669,5.669 C -2.538,5.669 0,3.131 0,0 Z" /></g><g
           transform="translate(49.0444,86.9961)"
           id="g68"><path
             id="path70"
             style="fill:none;stroke:#ea5b0b;stroke-width:1;stroke-linecap:butt;stroke-linejoin:miter;stroke-miterlimit:4;stroke-dasharray:none;stroke-opacity:1"
             d="M 0,0 29.445,15.946" /></g><g
           transform="translate(80.0776,104.9678)"
           id="g72"><path
             id="path74"
             style="fill:#ea5b0b;fill-opacity:1;fill-rule:nonzero;stroke:none"
             d="m 0,0 c -1.692,-0.348 -2.855,-0.456 -4.275,-0.619 l 2.402,-4.436 c 0.31,0.425 1.638,2.016 2.854,3.242 C 2.283,-0.5 3.52,0.586 4.373,1.196 3.396,0.815 1.811,0.373 0,0" /></g><g
           transform="translate(139.6616,131.166)"
           id="g76"><path
             id="path78"
             style="fill:#dadada;fill-opacity:1;fill-rule:nonzero;stroke:none"
             d="m 0,0 c 0,-3.131 -2.538,-5.669 -5.67,-5.669 -3.131,0 -5.669,2.538 -5.669,5.669 0,3.131 2.538,5.669 5.669,5.669 C -2.538,5.669 0,3.131 0,0" /></g><g
           transform="translate(139.6616,131.166)"
           id="g80"><path
             id="path82"
             style="fill:none;stroke:#1d1d1b;stroke-width:0.5;stroke-linecap:butt;stroke-linejoin:miter;stroke-miterlimit:4;stroke-dasharray:none;stroke-opacity:1"
             d="m 0,0 c 0,-3.131 -2.538,-5.669 -5.67,-5.669 -3.131,0 -5.669,2.538 -5.669,5.669 0,3.131 2.538,5.669 5.669,5.669 C -2.538,5.669 0,3.131 0,0 Z" /></g><g
           transform="translate(104.5474,115.2207)"
           id="g84"><path
             id="path86"
             style="fill:none;stroke:#ea5b0b;stroke-width:1;stroke-linecap:butt;stroke-linejoin:miter;stroke-miterlimit:4;stroke-dasharray:none;stroke-opacity:1"
             d="M 0,0 29.444,15.945" /></g><g
           transform="translate(102.9595,113.1948)"
           id="g88"><path
             id="path90"
             style="fill:#ea5b0b;fill-opacity:1;fill-rule:nonzero;stroke:none"
             d="M 0,0 C 1.691,0.348 2.854,0.456 4.274,0.619 L 1.872,5.055 C 1.563,4.63 0.234,3.039 -0.981,1.813 -2.283,0.5 -3.521,-0.586 -4.373,-1.196 -3.396,-0.815 -1.811,-0.373 0,0" /></g></g></g><text
       id="text94"
       style="font-variant:normal;font-weight:normal;font-stretch:normal;font-size:10px;font-family:Tahoma;-inkscape-font-specification:Tahoma;writing-mode:lr-tb;fill:#1d1d1b;fill-opacity:1;fill-rule:nonzero;stroke:none"
       transform="matrix(1,0,0,-1,111.1919,102.9419)"><tspan
         id="tspan92"
         y="0"
         x="0">F</tspan></text>
<text
       id="text98"
       style="font-variant:normal;font-weight:normal;font-stretch:normal;font-size:6px;font-family:Tahoma;-inkscape-font-specification:Tahoma;writing-mode:lr-tb;fill:#1d1d1b;fill-opacity:1;fill-rule:nonzero;stroke:none"
       transform="matrix(1,0,0,-1,116.4067,102.9419)"><tspan
         id="tspan96"
         y="0"
         x="0 2.9879999 6.138 9.4560003 12.612">Lager</tspan></text>
<text
       id="text104"
       style="font-variant:normal;font-weight:normal;font-stretch:normal;font-size:10px;font-family:Tahoma;-inkscape-font-specification:Tahoma;writing-mode:lr-tb;fill:#1d1d1b;fill-opacity:1;fill-rule:nonzero;stroke:none"
       transform="matrix(1,0,0,-1,41.2969,34.835)"><tspan
         id="tspan100"
         y="0"
         x="0 4.98 10.23 15.76 21.02">Lager</tspan><tspan
         id="tspan102"
         y="-124.49"
         x="103.68 112.33 117.59 119.91 122.2">Welle</tspan></text>
<g
       id="g106"><g
         clip-path="url(#clipPath112)"
         id="g108"><g
           transform="translate(36.6289,69.5215)"
           id="g114"><path
             id="path116"
             style="fill:none;stroke:#1d1d1b;stroke-width:0.5;stroke-linecap:butt;stroke-linejoin:miter;stroke-miterlimit:4;stroke-dasharray:none;stroke-opacity:1"
             d="M 0,0 10.763,-22.394" /></g><g
           transform="translate(37.4761,69.9287)"
           id="g118"><path
             id="path120"
             style="fill:#1d1d1b;fill-opacity:1;fill-rule:nonzero;stroke:none"
             d="M 0,0 C -0.225,0.468 -0.787,0.665 -1.254,0.44 -1.722,0.215 -1.919,-0.347 -1.694,-0.814 -1.469,-1.282 -0.908,-1.479 -0.44,-1.255 0.028,-1.029 0.225,-0.468 0,0" /></g><g
           transform="translate(133.9917,134.8354)"
           id="g122"><path
             id="path124"
             style="fill:none;stroke:#1d1d1b;stroke-width:0.5;stroke-linecap:butt;stroke-linejoin:miter;stroke-miterlimit:4;stroke-dasharray:none;stroke-opacity:1"
             d="M 0,0 20.577,22.33" /></g><g
           transform="translate(133.3003,135.4722)"
           id="g126"><path
             id="path128"
             style="fill:#1d1d1b;fill-opacity:1;fill-rule:nonzero;stroke:none"
             d="M 0,0 C -0.352,-0.381 -0.327,-0.976 0.055,-1.328 0.437,-1.68 1.031,-1.655 1.383,-1.273 1.734,-0.892 1.71,-0.297 1.328,0.055 0.946,0.406 0.352,0.382 0,0" /></g></g></g></g></svg>