<?xml version="1.0" encoding="UTF-8" standalone="no"?>
<svg
   xmlns:dc="http://purl.org/dc/elements/1.1/"
   xmlns:cc="http://creativecommons.org/ns#"
   xmlns:rdf="http://www.w3.org/1999/02/22-rdf-syntax-ns#"
   xmlns:svg="http://www.w3.org/2000/svg"
   xmlns="http://www.w3.org/2000/svg"
   viewBox="0 0 359.056 283.46399"
   height="283.46399"
   width="359.056"
   xml:space="preserve"
   id="svg2"
   version="1.1"><metadata
     id="metadata8"><rdf:RDF><cc:Work
         rdf:about=""><dc:format>image/svg+xml</dc:format><dc:type
           rdf:resource="http://purl.org/dc/dcmitype/StillImage" /></cc:Work></rdf:RDF></metadata><defs
     id="defs6" /><g
     transform="matrix(1.3333333,0,0,-1.3333333,0,283.464)"
     id="g10"><text
       id="text14"
       style="font-variant:normal;font-weight:normal;font-stretch:normal;font-size:7px;font-family:Tahoma;-inkscape-font-specification:Tahoma;writing-mode:lr-tb;fill:#000000;fill-opacity:1;fill-rule:nonzero;stroke:none"
       transform="matrix(1,0,0,-1,34.4146,22.3906)"><tspan
         id="tspan12"
         y="0"
         x="0 70.343002 74.165001 76.286003">00.2</tspan></text>
<g
       transform="translate(109.5518,30.9609)"
       id="g16"><path
         id="path18"
         style="fill:none;stroke:#000000;stroke-width:0.33500001;stroke-linecap:butt;stroke-linejoin:round;stroke-miterlimit:10;stroke-dasharray:none;stroke-opacity:1"
         d="M 0,0 V 3.334" /></g><g
       transform="translate(183.0806,30.9609)"
       id="g20"><path
         id="path22"
         style="fill:none;stroke:#000000;stroke-width:0.33500001;stroke-linecap:butt;stroke-linejoin:round;stroke-miterlimit:10;stroke-dasharray:none;stroke-opacity:1"
         d="M 0,0 V 3.334" /></g><g
       transform="translate(109.5518,202.9595)"
       id="g24"><path
         id="path26"
         style="fill:none;stroke:#000000;stroke-width:0.33500001;stroke-linecap:butt;stroke-linejoin:round;stroke-miterlimit:10;stroke-dasharray:none;stroke-opacity:1"
         d="M 0,0 V -3.3" /></g><g
       transform="translate(183.0806,202.9595)"
       id="g28"><path
         id="path30"
         style="fill:none;stroke:#000000;stroke-width:0.33500001;stroke-linecap:butt;stroke-linejoin:round;stroke-miterlimit:10;stroke-dasharray:none;stroke-opacity:1"
         d="M 0,0 V -3.3" /></g><text
       id="text42"
       style="font-variant:normal;font-weight:normal;font-stretch:normal;font-size:7px;font-family:Tahoma;-inkscape-font-specification:Tahoma;writing-mode:lr-tb;fill:#000000;fill-opacity:1;fill-rule:nonzero;stroke:none"
       transform="matrix(1,0,0,-1,178.1753,22.3906)"><tspan
         id="tspan32"
         y="0"
         x="0 3.822 5.9429998 73.577003 77.399002 79.519997">0.40.6</tspan><tspan
         id="tspan34"
         y="-5.5159998"
         x="-147.12601">0</tspan><tspan
         id="tspan36"
         y="-39.928001"
         x="-153.44701 -149.625 -147.504">0.2</tspan><tspan
         id="tspan38"
         y="-74.319"
         x="-153.67799 -149.856 -147.735">0.4</tspan><tspan
         id="tspan40"
         y="-108.731"
         x="-153.58701 -149.765 -147.644">0.6</tspan></text>
<g
       transform="translate(36.0459,65.374)"
       id="g44"><path
         id="path46"
         style="fill:none;stroke:#000000;stroke-width:0.50300002;stroke-linecap:butt;stroke-linejoin:round;stroke-miterlimit:10;stroke-dasharray:none;stroke-opacity:1"
         d="M 0,0 H 3.3" /></g><g
       transform="translate(36.0459,99.7646)"
       id="g48"><path
         id="path50"
         style="fill:none;stroke:#000000;stroke-width:0.50300002;stroke-linecap:butt;stroke-linejoin:round;stroke-miterlimit:10;stroke-dasharray:none;stroke-opacity:1"
         d="M 0,0 H 3.3" /></g><g
       transform="translate(36.0459,134.1787)"
       id="g52"><path
         id="path54"
         style="fill:none;stroke:#000000;stroke-width:0.50300002;stroke-linecap:butt;stroke-linejoin:round;stroke-miterlimit:10;stroke-dasharray:none;stroke-opacity:1"
         d="M 0,0 H 3.3" /></g><g
       transform="translate(36.0459,168.5688)"
       id="g56"><path
         id="path58"
         style="fill:none;stroke:#000000;stroke-width:0.50300002;stroke-linecap:butt;stroke-linejoin:round;stroke-miterlimit:10;stroke-dasharray:none;stroke-opacity:1"
         d="M 0,0 H 3.3" /></g><g
       transform="translate(256.6099,65.374)"
       id="g60"><path
         id="path62"
         style="fill:none;stroke:#000000;stroke-width:0.50300002;stroke-linecap:butt;stroke-linejoin:round;stroke-miterlimit:10;stroke-dasharray:none;stroke-opacity:1"
         d="M 0,0 H -3.335" /></g><g
       transform="translate(256.6099,99.7646)"
       id="g64"><path
         id="path66"
         style="fill:none;stroke:#000000;stroke-width:0.50300002;stroke-linecap:butt;stroke-linejoin:round;stroke-miterlimit:10;stroke-dasharray:none;stroke-opacity:1"
         d="M 0,0 H -3.335" /></g><g
       transform="translate(256.6099,134.1787)"
       id="g68"><path
         id="path70"
         style="fill:none;stroke:#000000;stroke-width:0.50300002;stroke-linecap:butt;stroke-linejoin:round;stroke-miterlimit:10;stroke-dasharray:none;stroke-opacity:1"
         d="M 0,0 H -3.335" /></g><g
       transform="translate(256.6099,168.5688)"
       id="g72"><path
         id="path74"
         style="fill:none;stroke:#000000;stroke-width:0.50300002;stroke-linecap:butt;stroke-linejoin:round;stroke-miterlimit:10;stroke-dasharray:none;stroke-opacity:1"
         d="M 0,0 H -3.335" /></g><text
       id="text80"
       style="font-variant:normal;font-weight:normal;font-stretch:normal;font-size:7px;font-family:Tahoma;-inkscape-font-specification:Tahoma;writing-mode:lr-tb;fill:#000000;fill-opacity:1;fill-rule:nonzero;stroke:none"
       transform="matrix(1,0,0,-1,24.5996,165.5127)"><tspan
         id="tspan76"
         y="0"
         x="0 3.822 5.9429998">0.8</tspan><tspan
         id="tspan78"
         y="-34.369999"
         x="6.6149998">1</tspan></text>
<g
       transform="translate(36.0459,30.9609)"
       id="g82"><path
         id="path84"
         style="fill:none;stroke:#a69576;stroke-width:1;stroke-linecap:butt;stroke-linejoin:miter;stroke-miterlimit:22.9260006;stroke-dasharray:10.001, 5;stroke-dashoffset:0;stroke-opacity:1"
         d="M 0,0 216.887,171.999" /></g><path
       id="path86"
       style="fill:none;stroke:#222221;stroke-width:0.5;stroke-linecap:butt;stroke-linejoin:miter;stroke-miterlimit:22.9260006;stroke-dasharray:none;stroke-opacity:1"
       d="M 36.045,30.961 H 256.609 V 202.96 H 36.045 Z" /><g
       transform="translate(39.3462,168.5688)"
       id="g88"><path
         id="path90"
         style="fill:none;stroke:#222221;stroke-width:0.5;stroke-linecap:butt;stroke-linejoin:miter;stroke-miterlimit:22.9260006;stroke-dasharray:2.5, 2.5;stroke-dashoffset:0;stroke-opacity:1"
         d="M 0,0 H 213.929" /></g><g
       transform="translate(39.3457,134.1787)"
       id="g92"><path
         id="path94"
         style="fill:none;stroke:#222221;stroke-width:0.5;stroke-linecap:butt;stroke-linejoin:miter;stroke-miterlimit:22.9260006;stroke-dasharray:2.5, 2.5;stroke-dashoffset:0;stroke-opacity:1"
         d="M 0,0 H 213.929" /></g><g
       transform="translate(39.3457,99.7646)"
       id="g96"><path
         id="path98"
         style="fill:none;stroke:#222221;stroke-width:0.5;stroke-linecap:butt;stroke-linejoin:miter;stroke-miterlimit:22.9260006;stroke-dasharray:2.5, 2.5;stroke-dashoffset:0;stroke-opacity:1"
         d="M 0,0 H 213.929" /></g><g
       transform="translate(39.3457,65.374)"
       id="g100"><path
         id="path102"
         style="fill:none;stroke:#222221;stroke-width:0.5;stroke-linecap:butt;stroke-linejoin:miter;stroke-miterlimit:22.9260006;stroke-dasharray:2.5, 2.5;stroke-dashoffset:0;stroke-opacity:1"
         d="M 0,0 H 213.929" /></g><g
       transform="translate(109.5518,199.6597)"
       id="g104"><path
         id="path106"
         style="fill:none;stroke:#222221;stroke-width:0.5;stroke-linecap:butt;stroke-linejoin:miter;stroke-miterlimit:22.9260006;stroke-dasharray:2.5, 2.5;stroke-dashoffset:0;stroke-opacity:1"
         d="M 0,0 V -165.365" /></g><g
       transform="translate(183.0806,199.6597)"
       id="g108"><path
         id="path110"
         style="fill:none;stroke:#222221;stroke-width:0.5;stroke-linecap:butt;stroke-linejoin:miter;stroke-miterlimit:22.9260006;stroke-dasharray:2.5, 2.5;stroke-dashoffset:0;stroke-opacity:1"
         d="M 0,0 V -165.365" /></g><text
       id="text118"
       style="font-variant:normal;font-weight:normal;font-stretch:normal;font-size:8px;font-family:Tahoma;-inkscape-font-specification:Tahoma;writing-mode:lr-tb;fill:#222221;fill-opacity:1;fill-rule:nonzero;stroke:none"
       transform="matrix(1,0,0,-1,131.688,81.1719)"><tspan
         id="tspan112"
         y="0"
         x="0 5.336 9.5360003 14 18.208 21.087999 25.552 30.016001">Näherung</tspan><tspan
         id="tspan114"
         y="10.896"
         x="0 6.7199998 8.5600004 11.232 13.736 19.072001 23.280001 26.032 30.232 34.655998">mit Gerade</tspan><tspan
         id="tspan116"
         y="71.431999"
         x="-42.560001 -37.759998 -33.799999 -31.968 -27.768 -25.936001 -21.511999 -17.167999 -13.6 -11.768 -9.0959997 -7.2639999 -2.9200001 1.544 4.0479999 8.4720001 12.68 15.56 18.063999 23.312 27.719999 33.655998 38.119999 41.807999 46.271999 48.944 51.448002 55 60.248001 62.751999 65.816002 72.536003">Axialposition der Unwucht zU [m]</tspan></text>
<text
       id="text122"
       style="font-variant:normal;font-weight:normal;font-stretch:normal;font-size:8px;font-family:Tahoma;-inkscape-font-specification:Tahoma;writing-mode:lr-tb;fill:#222221;fill-opacity:1;fill-rule:nonzero;stroke:none"
       transform="matrix(0,1,1,0,13.2012,86.7217)"><tspan
         id="tspan120"
         y="0"
         x="0 4.408 8.6160002 11.496 15.96 20.16 22.007999 24.68 29.143999 30.976 34.543999 37.040001">Verhältnis c</tspan></text>
<text
       id="text126"
       style="font-variant:normal;font-weight:normal;font-stretch:normal;font-size:4.66400003px;font-family:Tahoma;-inkscape-font-specification:Tahoma;writing-mode:lr-tb;fill:#222221;fill-opacity:1;fill-rule:nonzero;stroke:none"
       transform="matrix(0,1,1,0,15.8652,127.4521)"><tspan
         id="tspan124"
         y="0"
         x="0">F</tspan></text>
<text
       id="text130"
       style="font-variant:normal;font-weight:normal;font-stretch:normal;font-size:8px;font-family:Tahoma;-inkscape-font-specification:Tahoma;writing-mode:lr-tb;fill:#222221;fill-opacity:1;fill-rule:nonzero;stroke:none"
       transform="matrix(0,1,1,0,13.2012,132.3883)"><tspan
         id="tspan128"
         y="0"
         x="0 3.0639999 5.9679999">[-]</tspan></text>
<g
       transform="translate(36.0454,31.793)"
       id="g132"><path
         id="path134"
         style="fill:none;stroke:#0000ff;stroke-width:0.5;stroke-linecap:butt;stroke-linejoin:round;stroke-miterlimit:10;stroke-dasharray:none;stroke-opacity:1"
         d="m 0,0 3.659,4.237 3.683,4.007 3.682,3.845 3.659,3.89 3.682,3.984 3.682,3.983 3.682,3.867 3.66,3.683 3.682,3.612 3.682,3.497 3.683,3.498 3.659,3.45 3.682,3.427 3.682,3.359 3.682,3.242 3.659,3.127 3.683,3.011 3.682,2.918 3.659,2.871 3.682,2.918 3.683,2.826 3.682,2.849 3.659,2.732 3.682,2.663 3.683,2.594 3.682,2.548 3.659,2.57 3.683,2.594 3.682,2.594 3.681,2.64 3.66,2.617 3.682,2.594 3.683,2.524 3.659,2.455 3.681,2.362 3.683,2.27 3.683,2.269 3.659,2.34 3.682,2.431 3.682,2.501 3.683,2.548 3.658,2.524 3.683,2.502 3.682,2.408 3.683,2.386 3.659,2.362 3.683,2.432 3.681,2.547 3.659,2.641 3.683,2.732 3.683,2.779 3.681,2.779 3.659,2.71 3.683,2.64 3.682,2.571 3.682,2.524 3.66,2.548 3.681,2.571 3.683,2.732" /></g><g
       transform="translate(36.0454,32.1865)"
       id="g136"><path
         id="path138"
         style="fill:none;stroke:#618679;stroke-width:0.5;stroke-linecap:butt;stroke-linejoin:round;stroke-miterlimit:10;stroke-dasharray:none;stroke-opacity:1"
         d="m 0,0 3.659,5.581 3.683,5.071 3.682,4.726 3.659,4.608 3.682,4.516 3.682,4.377 3.682,4.122 3.66,3.821 3.682,3.637 3.682,3.427 3.683,3.358 3.659,3.266 3.682,3.126 3.682,3.01 3.682,2.849 3.659,2.71 3.683,2.57 3.682,2.455 3.659,2.409 3.682,2.385 3.683,2.316 3.682,2.316 3.659,2.223 3.682,2.131 3.683,2.061 3.682,2.061 3.659,2.061 3.683,2.061 3.682,2.108 3.681,2.131 3.66,2.131 3.682,2.13 3.683,2.107 3.659,2.062 3.681,2.015 3.683,1.968 3.683,1.992 3.659,2.084 3.682,2.154 3.682,2.269 3.683,2.363 3.658,2.362 3.683,2.362 3.682,2.34 3.683,2.338 3.659,2.386 3.683,2.478 3.681,2.64 3.659,2.779 3.683,2.964 3.683,3.081 3.681,3.172 3.659,3.22 3.683,3.242 3.682,3.242 3.682,3.289 3.66,3.427 3.681,3.59 3.683,3.867" /></g><g
       transform="translate(36.0454,33.4619)"
       id="g140"><path
         id="path142"
         style="fill:none;stroke:#c20e1a;stroke-width:0.5;stroke-linecap:butt;stroke-linejoin:round;stroke-miterlimit:10;stroke-dasharray:none;stroke-opacity:1"
         d="m 0,0 3.659,9.332 3.682,7.712 3.682,6.555 3.66,5.859 3.682,5.257 3.682,4.724 3.682,4.168 3.659,3.66 3.683,3.311 3.682,2.987 3.683,2.803 3.658,2.57 3.682,2.41 3.683,2.199 3.682,2.061 3.659,1.876 3.682,1.76 3.683,1.645 3.659,1.551 3.682,1.552 3.682,1.482 3.683,1.436 3.658,1.389 3.683,1.321 3.682,1.297 3.683,1.25 3.658,1.274 3.683,1.297 3.683,1.297 3.681,1.32 3.66,1.366 3.682,1.366 3.682,1.367 3.66,1.366 3.681,1.367 3.683,1.366 3.683,1.39 3.659,1.482 3.682,1.598 3.682,1.69 3.683,1.784 3.658,1.852 3.683,1.9 3.682,1.945 3.683,2.014 3.658,2.108 3.683,2.247 3.682,2.454 3.658,2.71 3.683,3.01 3.684,3.312 3.68,3.613 3.66,3.891 3.683,4.192 3.682,4.492 3.681,4.887 3.661,5.442 3.681,6.206 3.683,7.227" /></g><g
       transform="translate(127.894,84.5986)"
       id="g144"><path
         id="path146"
         style="fill:none;stroke:#222221;stroke-width:0.56699997;stroke-linecap:butt;stroke-linejoin:miter;stroke-miterlimit:22.9260006;stroke-dasharray:none;stroke-opacity:1"
         d="M 0,0 -15.308,7.062" /></g><path
       id="path148"
       style="fill:#ffffff;fill-opacity:1;fill-rule:evenodd;stroke:#222221;stroke-width:0.56699997;stroke-linecap:butt;stroke-linejoin:miter;stroke-miterlimit:22.9260006;stroke-dasharray:none;stroke-opacity:1"
       d="m 38.388,160.366 h 77.617 v 40.483 H 38.388 Z" /><text
       id="text152"
       style="font-variant:normal;font-weight:normal;font-stretch:normal;font-size:7px;font-family:Tahoma;-inkscape-font-specification:Tahoma;writing-mode:lr-tb;fill:#222221;fill-opacity:1;fill-rule:nonzero;stroke:none"
       transform="matrix(1,0,0,-1,66.0186,189.1353)"><tspan
         id="tspan150"
         y="0"
         x="0 3.822 7.6440001 11.466 15.288 17.479 23.358999 24.962">1000 min</tspan></text>
<text
       id="text156"
       style="font-variant:normal;font-weight:normal;font-stretch:normal;font-size:4.08099985px;font-family:Tahoma;-inkscape-font-specification:Tahoma;writing-mode:lr-tb;fill:#222221;fill-opacity:1;fill-rule:nonzero;stroke:none"
       transform="matrix(1,0,0,-1,94.873,191.4663)"><tspan
         id="tspan154"
         y="0"
         x="0 1.481403">-1</tspan></text>
<text
       id="text160"
       style="font-variant:normal;font-weight:normal;font-stretch:normal;font-size:7px;font-family:Tahoma;-inkscape-font-specification:Tahoma;writing-mode:lr-tb;fill:#222221;fill-opacity:1;fill-rule:nonzero;stroke:none"
       transform="matrix(1,0,0,-1,66.0186,176.6855)"><tspan
         id="tspan158"
         y="0"
         x="0 3.822 7.6440001 11.466 15.288 17.479 23.358999 24.962">2000 min</tspan></text>
<text
       id="text164"
       style="font-variant:normal;font-weight:normal;font-stretch:normal;font-size:4.08099985px;font-family:Tahoma;-inkscape-font-specification:Tahoma;writing-mode:lr-tb;fill:#222221;fill-opacity:1;fill-rule:nonzero;stroke:none"
       transform="matrix(1,0,0,-1,94.873,179.0166)"><tspan
         id="tspan162"
         y="0"
         x="0 1.481403">-1</tspan></text>
<text
       id="text168"
       style="font-variant:normal;font-weight:normal;font-stretch:normal;font-size:7px;font-family:Tahoma;-inkscape-font-specification:Tahoma;writing-mode:lr-tb;fill:#222221;fill-opacity:1;fill-rule:nonzero;stroke:none"
       transform="matrix(1,0,0,-1,66.0186,164.2363)"><tspan
         id="tspan166"
         y="0"
         x="0 3.822 7.6440001 11.466 15.288 17.479 23.358999 24.962">3000 min</tspan></text>
<text
       id="text172"
       style="font-variant:normal;font-weight:normal;font-stretch:normal;font-size:4.08099985px;font-family:Tahoma;-inkscape-font-specification:Tahoma;writing-mode:lr-tb;fill:#222221;fill-opacity:1;fill-rule:nonzero;stroke:none"
       transform="matrix(1,0,0,-1,94.873,166.5674)"><tspan
         id="tspan170"
         y="0"
         x="0 1.481403">-1</tspan></text>
<g
       transform="translate(61.8799,193.4575)"
       id="g174"><path
         id="path176"
         style="fill:none;stroke:#322b80;stroke-width:0.5;stroke-linecap:butt;stroke-linejoin:miter;stroke-miterlimit:22.9260006;stroke-dasharray:none;stroke-opacity:1"
         d="M 0,0 H -18.567" /></g><g
       transform="translate(61.8799,166.3438)"
       id="g178"><path
         id="path180"
         style="fill:none;stroke:#c20e1a;stroke-width:0.5;stroke-linecap:butt;stroke-linejoin:miter;stroke-miterlimit:22.9260006;stroke-dasharray:none;stroke-opacity:1"
         d="M 0,0 H -18.567" /></g><g
       transform="translate(61.8799,179.9009)"
       id="g182"><path
         id="path184"
         style="fill:none;stroke:#618679;stroke-width:0.5;stroke-linecap:butt;stroke-linejoin:miter;stroke-miterlimit:22.9260006;stroke-dasharray:none;stroke-opacity:1"
         d="M 0,0 H -18.567" /></g></g></svg>