<?xml version="1.0" encoding="iso-8859-1"?>
<svg xmlns="http://www.w3.org/2000/svg" xmlns:xlink="http://www.w3.org/1999/xlink" version="1.1" viewBox="0 0 44 44" enable-background="new 0 0 44 44" width="512px" height="512px">
  <g>
    <g>
      <path d="m43,19h-5c-0.552,0-1,0.447-1,1v8c0,0.553-0.448,1-1,1s-1-0.447-1-1v-20c0-1.657-1.343-3-3-3s-3,1.343-3,3v28c0,0.553-0.448,1-1,1s-1-0.447-1-1v-25c0-1.657-1.343-3-3-3s-3,1.343-3,3v14c0,0.553-0.448,1-1,1s-1-0.447-1-1v-17c0-1.657-1.343-3-3-3s-3,1.343-3,3v24c0,0.553-0.448,1-1,1s-1-0.447-1-1v-16c0-1.657-1.343-3-3-3s-3,1.343-3,3v3h-4c-0.552,0-1,0.447-1,1 0,0.553 0.448,1 1,1h5c0.552,0 1-0.447 1-1v-4c0-0.553 0.448-1 1-1s1,0.447 1,1v16c0,1.657 1.343,3 3,3s3-1.343 3-3v-24c0-0.553 0.448-1 1-1s1,0.447 1,1v17c0,1.657 1.343,3 3,3s3-1.343 3-3v-14c0-0.553 0.448-1 1-1s1,0.447 1,1v25c0,1.657 1.343,3 3,3s3-1.343 3-3v-28c0-0.553 0.448-1 1-1s1,0.447 1,1v20c0,1.657 1.343,3 3,3s3-1.343 3-3v-7h4c0.552,0 1-0.447 1-1 0-0.553-0.448-1-1-1z" fill="#3070b3"/>
    </g>
  </g>
</svg>
