<?xml version="1.0" encoding="UTF-8" standalone="no"?>
<svg
   xmlns:dc="http://purl.org/dc/elements/1.1/"
   xmlns:cc="http://creativecommons.org/ns#"
   xmlns:rdf="http://www.w3.org/1999/02/22-rdf-syntax-ns#"
   xmlns:svg="http://www.w3.org/2000/svg"
   xmlns="http://www.w3.org/2000/svg"
   viewBox="0 0 566.92932 188.976"
   height="188.976"
   width="566.92932"
   xml:space="preserve"
   id="svg2"
   version="1.1"><metadata
     id="metadata8"><rdf:RDF><cc:Work
         rdf:about=""><dc:format>image/svg+xml</dc:format><dc:type
           rdf:resource="http://purl.org/dc/dcmitype/StillImage" /></cc:Work></rdf:RDF></metadata><defs
     id="defs6"><clipPath
       id="clipPath22"
       clipPathUnits="userSpaceOnUse"><path
         id="path20"
         d="M 0,141.732 H 425.197 V 0 H 0 Z" /></clipPath><clipPath
       id="clipPath38"
       clipPathUnits="userSpaceOnUse"><path
         id="path36"
         d="M 0,141.732 H 425.197 V 0 H 0 Z" /></clipPath><clipPath
       id="clipPath64"
       clipPathUnits="userSpaceOnUse"><path
         id="path62"
         d="M 0,141.732 H 425.197 V 0 H 0 Z" /></clipPath><clipPath
       id="clipPath80"
       clipPathUnits="userSpaceOnUse"><path
         id="path78"
         d="M 0,141.732 H 425.197 V 0 H 0 Z" /></clipPath><clipPath
       id="clipPath104"
       clipPathUnits="userSpaceOnUse"><path
         id="path102"
         d="M 0,141.732 H 425.197 V 0 H 0 Z" /></clipPath><clipPath
       id="clipPath136"
       clipPathUnits="userSpaceOnUse"><path
         id="path134"
         d="M 0,141.732 H 425.197 V 0 H 0 Z" /></clipPath><clipPath
       id="clipPath178"
       clipPathUnits="userSpaceOnUse"><path
         id="path176"
         d="M 0,141.732 H 425.197 V 0 H 0 Z" /></clipPath></defs><g
     transform="matrix(1.3333333,0,0,-1.3333333,0,188.976)"
     id="g10"><g
       transform="translate(59.6925,38.8368)"
       id="g12"><path
         id="path14"
         style="fill:#0000ff;fill-opacity:1;fill-rule:nonzero;stroke:none"
         d="M 0,0 315.496,0.577 Z" /></g><g
       id="g16"><g
         clip-path="url(#clipPath22)"
         id="g18"><g
           transform="translate(377.5488,40.4434)"
           id="g24"><path
             id="path26"
             style="fill:#0000ff;fill-opacity:1;fill-rule:nonzero;stroke:none"
             d="m 0,0 c -1.654,0.496 -2.73,0.954 -4.058,1.484 l 0.01,-5.045 c 0.474,0.227 2.399,0.998 4.051,1.499 1.768,0.539 3.373,0.908 4.413,1.04 C 3.375,-0.894 1.771,-0.531 0,0" /></g></g></g><g
       transform="translate(59.6929,38.8369)"
       id="g28"><path
         id="path30"
         style="fill:none;stroke:#0000ff;stroke-width:0.75;stroke-linecap:butt;stroke-linejoin:miter;stroke-miterlimit:4;stroke-dasharray:none;stroke-opacity:1"
         d="M 0,0 315.496,0.577" /></g><g
       id="g32"><g
         clip-path="url(#clipPath38)"
         id="g34"><g
           transform="translate(376.958,40.1855)"
           id="g40"><path
             id="path42"
             style="fill:#0000ff;fill-opacity:1;fill-rule:nonzero;stroke:none"
             d="m 0,0 c -1.24,0.373 -2.047,0.716 -3.042,1.113 l 0.007,-3.783 c 0.355,0.17 1.799,0.748 3.038,1.125 1.327,0.403 2.529,0.68 3.31,0.778 C 2.532,-0.67 1.328,-0.397 0,0" /></g></g></g><text
       id="text48"
       style="font-variant:normal;font-weight:normal;font-stretch:normal;font-size:10px;font-family:Tahoma;-inkscape-font-specification:Tahoma;writing-mode:lr-tb;fill:#0000ff;fill-opacity:1;fill-rule:nonzero;stroke:none"
       transform="matrix(1,0,0,-1,375.189,28.3545)"><tspan
         id="tspan44"
         y="0"
         x="0">z</tspan><tspan
         id="tspan46"
         y="-93.300003"
         x="-279.60001">y</tspan></text>
<text
       id="text52"
       style="font-variant:normal;font-weight:normal;font-stretch:normal;font-size:5px;font-family:Tahoma;-inkscape-font-specification:Tahoma;writing-mode:lr-tb;fill:#0000ff;fill-opacity:1;fill-rule:nonzero;stroke:none"
       transform="matrix(1,0,0,-1,93.2856,119.0879)"><tspan
         id="tspan50"
         y="0"
         x="0">I</tspan></text>
<g
       transform="translate(86.2245,12.3057)"
       id="g54"><path
         id="path56"
         style="fill:#0000ff;fill-opacity:1;fill-rule:nonzero;stroke:none"
         d="M 0,0 V 106.703 Z" /></g><g
       id="g58"><g
         clip-path="url(#clipPath64)"
         id="g60"><g
           transform="translate(85.1997,121.3706)"
           id="g66"><path
             id="path68"
             style="fill:#0000ff;fill-opacity:1;fill-rule:nonzero;stroke:none"
             d="M 0,0 C -0.5,-1.653 -0.959,-2.728 -1.492,-4.054 H 3.553 C 3.327,-3.58 2.56,-1.653 2.061,0 1.526,1.77 1.161,3.374 1.03,4.415 0.9,3.374 0.534,1.77 0,0" /></g></g></g><g
       transform="translate(86.2246,12.3057)"
       id="g70"><path
         id="path72"
         style="fill:none;stroke:#0000ff;stroke-width:0.75;stroke-linecap:butt;stroke-linejoin:miter;stroke-miterlimit:4;stroke-dasharray:none;stroke-opacity:1"
         d="M 0,0 V 106.703" /></g><g
       id="g74"><g
         clip-path="url(#clipPath80)"
         id="g76"><g
           transform="translate(85.4561,120.7803)"
           id="g82"><path
             id="path84"
             style="fill:#0000ff;fill-opacity:1;fill-rule:nonzero;stroke:none"
             d="M 0,0 C -0.375,-1.24 -0.72,-2.046 -1.119,-3.041 H 2.665 C 2.495,-2.685 1.92,-1.24 1.546,0 1.145,1.327 0.87,2.53 0.772,3.311 0.675,2.53 0.4,1.327 0,0" /></g><g
           transform="translate(90.2104,38.6934)"
           id="g86"><path
             id="path88"
             style="fill:#ffffff;fill-opacity:1;fill-rule:nonzero;stroke:none"
             d="m 0,0 c 0,2.187 -1.772,3.959 -3.958,3.959 -2.187,0 -3.959,-1.772 -3.959,-3.959 0,-2.186 1.772,-3.958 3.959,-3.958 C -1.772,-3.958 0,-2.186 0,0" /></g><g
           transform="translate(90.2104,38.6934)"
           id="g90"><path
             id="path92"
             style="fill:none;stroke:#0000ff;stroke-width:0.75;stroke-linecap:butt;stroke-linejoin:miter;stroke-miterlimit:4;stroke-dasharray:none;stroke-opacity:1"
             d="m 0,0 c 0,2.187 -1.772,3.959 -3.958,3.959 -2.187,0 -3.959,-1.772 -3.959,-3.959 0,-2.186 1.772,-3.958 3.959,-3.958 C -1.772,-3.958 0,-2.186 0,0 Z" /></g></g></g><text
       id="text96"
       style="font-variant:normal;font-weight:normal;font-stretch:normal;font-size:10px;font-family:Tahoma;-inkscape-font-specification:Tahoma;writing-mode:lr-tb;fill:#0000ff;fill-opacity:1;fill-rule:nonzero;stroke:none"
       transform="matrix(1,0,0,-1,74.7095,29.1074)"><tspan
         id="tspan94"
         y="0"
         x="0">x</tspan></text>
<g
       id="g98"><g
         clip-path="url(#clipPath104)"
         id="g100"><g
           transform="translate(83.4399,35.9092)"
           id="g106"><path
             id="path108"
             style="fill:none;stroke:#0000ff;stroke-width:0.75;stroke-linecap:butt;stroke-linejoin:miter;stroke-miterlimit:4;stroke-dasharray:none;stroke-opacity:1"
             d="M 0,0 5.597,5.597" /></g><g
           transform="translate(83.4399,41.4785)"
           id="g110"><path
             id="path112"
             style="fill:none;stroke:#0000ff;stroke-width:0.75;stroke-linecap:butt;stroke-linejoin:miter;stroke-miterlimit:4;stroke-dasharray:none;stroke-opacity:1"
             d="M 0,0 5.624,-5.569" /></g><g
           transform="translate(296.0215,30.9375)"
           id="g114"><path
             id="path116"
             style="fill:none;stroke:#000000;stroke-width:1;stroke-linecap:butt;stroke-linejoin:miter;stroke-miterlimit:4;stroke-dasharray:none;stroke-opacity:1"
             d="m 0,0 -140.978,-21.807 -5.996,38.76 140.979,21.807 z" /></g><g
           transform="translate(225.1807,39.1602)"
           id="g118"><path
             id="path120"
             style="fill:#000000;fill-opacity:1;fill-rule:nonzero;stroke:none"
             d="m 0,0 c 0,1.354 -1.1,2.452 -2.453,2.452 -1.354,0 -2.453,-1.098 -2.453,-2.452 0,-1.354 1.099,-2.452 2.453,-2.452 C -1.1,-2.452 0,-1.354 0,0" /></g><g
           transform="translate(225.1807,39.1602)"
           id="g122"><path
             id="path124"
             style="fill:none;stroke:#000000;stroke-width:1;stroke-linecap:butt;stroke-linejoin:miter;stroke-miterlimit:4;stroke-dasharray:none;stroke-opacity:1"
             d="m 0,0 c 0,1.354 -1.1,2.452 -2.453,2.452 -1.354,0 -2.453,-1.098 -2.453,-2.452 0,-1.354 1.099,-2.452 2.453,-2.452 C -1.1,-2.452 0,-1.354 0,0 Z" /></g></g></g><text
       id="text128"
       style="font-variant:normal;font-weight:normal;font-stretch:normal;font-size:10px;font-family:Tahoma;-inkscape-font-specification:Tahoma;writing-mode:lr-tb;fill:#000000;fill-opacity:1;fill-rule:nonzero;stroke:none"
       transform="matrix(1,0,0,-1,231.188,46.335)"><tspan
         id="tspan126"
         y="0"
         x="0">S</tspan></text>
<g
       id="g130"><g
         clip-path="url(#clipPath136)"
         id="g132"><g
           transform="translate(121.4077,23.5527)"
           id="g138"><path
             id="path140"
             style="fill:none;stroke:#000000;stroke-width:1;stroke-linecap:butt;stroke-linejoin:miter;stroke-miterlimit:4;stroke-dasharray:12;stroke-dashoffset:0;stroke-opacity:1"
             d="M 0,0 225.326,35.472" /></g><g
           transform="translate(320.1514,39.126)"
           id="g142"><path
             id="path144"
             style="fill:none;stroke:#000000;stroke-width:1;stroke-linecap:butt;stroke-linejoin:miter;stroke-miterlimit:4;stroke-dasharray:none;stroke-opacity:1"
             d="M 0,0 C 0,6.578 -0.432,12.189 -5.189,15.028" /></g></g></g><text
       id="text148"
       style="font-variant:normal;font-weight:normal;font-stretch:normal;font-size:10px;font-family:Tahoma;-inkscape-font-specification:Tahoma;writing-mode:lr-tb;fill:#0000ff;fill-opacity:1;fill-rule:nonzero;stroke:none"
       transform="matrix(1,0,0,-1,219.7432,110.084)"><tspan
         id="tspan146"
         y="0"
         x="0">y</tspan></text>
<text
       id="text152"
       style="font-variant:normal;font-weight:normal;font-stretch:normal;font-size:5px;font-family:Tahoma;-inkscape-font-specification:Tahoma;writing-mode:lr-tb;fill:#0000ff;fill-opacity:1;fill-rule:nonzero;stroke:none"
       transform="matrix(1,0,0,-1,217.4399,107.5156)"><tspan
         id="tspan150"
         y="0"
         x="0">k</tspan></text>
<text
       id="text156"
       style="font-variant:normal;font-weight:normal;font-stretch:normal;font-size:10px;font-family:Tahoma;-inkscape-font-specification:Tahoma;writing-mode:lr-tb;fill:#000000;fill-opacity:1;fill-rule:nonzero;stroke:none"
       transform="matrix(1,0,0,-1,321.6055,44.4814)"><tspan
         id="tspan154"
         y="0"
         x="0 25.129999">ζΩ</tspan></text>
<text
       id="text162"
       style="font-variant:normal;font-weight:normal;font-stretch:normal;font-size:5px;font-family:Tahoma;-inkscape-font-specification:Tahoma;writing-mode:lr-tb;fill:#0000ff;fill-opacity:1;fill-rule:nonzero;stroke:none"
       transform="matrix(1,0,0,-1,72.4063,28.5464)"><tspan
         id="tspan158"
         y="0"
         x="0">I</tspan><tspan
         id="tspan160"
         y="1.535"
         x="299.06">I</tspan></text>
<text
       id="text166"
       style="font-variant:normal;font-weight:normal;font-stretch:normal;font-size:10px;font-family:Tahoma;-inkscape-font-specification:Tahoma;writing-mode:lr-tb;fill:#0000ff;fill-opacity:1;fill-rule:nonzero;stroke:none"
       transform="matrix(1,0,0,-1,306.8882,45.875)"><tspan
         id="tspan164"
         y="0"
         x="0">z</tspan></text>
<text
       id="text170"
       style="font-variant:normal;font-weight:normal;font-stretch:normal;font-size:5px;font-family:Tahoma;-inkscape-font-specification:Tahoma;writing-mode:lr-tb;fill:#0000ff;fill-opacity:1;fill-rule:nonzero;stroke:none"
       transform="matrix(1,0,0,-1,303.1675,45.2651)"><tspan
         id="tspan168"
         y="0"
         x="0">k</tspan></text>
<g
       id="g172"><g
         clip-path="url(#clipPath178)"
         id="g174"><g
           transform="translate(222.7275,38.6943)"
           id="g180"><path
             id="path182"
             style="fill:none;stroke:#0000ff;stroke-width:0.75;stroke-linecap:butt;stroke-linejoin:miter;stroke-miterlimit:4;stroke-dasharray:none;stroke-opacity:1"
             d="M 0,0 -10.129,69.922" /></g><g
           transform="translate(211.584,110.2593)"
           id="g184"><path
             id="path186"
             style="fill:#0000ff;fill-opacity:1;fill-rule:nonzero;stroke:none"
             d="m 0,0 c -0.193,-1.281 -0.419,-2.128 -0.671,-3.17 l 3.744,0.543 C 2.854,-2.299 2.078,-0.952 1.53,0.221 0.943,1.478 0.499,2.629 0.29,3.387 0.305,2.601 0.206,1.371 0,0" /></g><g
           transform="translate(222.7959,39.4141)"
           id="g188"><path
             id="path190"
             style="fill:none;stroke:#0000ff;stroke-width:0.75;stroke-linecap:butt;stroke-linejoin:miter;stroke-miterlimit:4;stroke-dasharray:none;stroke-opacity:1"
             d="M 0,0 81.517,12.933" /></g><g
           transform="translate(305.9414,53.3838)"
           id="g192"><path
             id="path194"
             style="fill:#0000ff;fill-opacity:1;fill-rule:nonzero;stroke:none"
             d="m 0,0 c -1.283,0.176 -2.134,0.39 -3.179,0.628 l 0.594,-3.736 c 0.324,0.222 1.661,1.017 2.827,1.581 1.248,0.604 2.394,1.063 3.15,1.282 C 2.605,-0.271 1.374,-0.188 0,0" /></g><g
           transform="translate(226.4922,39.125)"
           id="g196"><path
             id="path198"
             style="fill:none;stroke:#0000ff;stroke-width:0.75;stroke-linecap:butt;stroke-linejoin:miter;stroke-miterlimit:4;stroke-dasharray:none;stroke-opacity:1"
             d="m 0,0 c 0,2.187 -1.771,3.959 -3.958,3.959 -2.187,0 -3.958,-1.772 -3.958,-3.959 0,-2.186 1.771,-3.958 3.958,-3.958 C -1.771,-3.958 0,-2.186 0,0 Z" /></g><g
           transform="translate(219.7227,36.3408)"
           id="g200"><path
             id="path202"
             style="fill:none;stroke:#0000ff;stroke-width:0.75;stroke-linecap:butt;stroke-linejoin:miter;stroke-miterlimit:4;stroke-dasharray:none;stroke-opacity:1"
             d="M 0,0 5.597,5.597" /></g><g
           transform="translate(219.7227,41.9102)"
           id="g204"><path
             id="path206"
             style="fill:none;stroke:#0000ff;stroke-width:0.75;stroke-linecap:butt;stroke-linejoin:miter;stroke-miterlimit:4;stroke-dasharray:none;stroke-opacity:1"
             d="M 0,0 5.623,-5.569" /></g><g
           transform="translate(335.3486,39.3408)"
           id="g208"><path
             id="path210"
             style="fill:none;stroke:#000000;stroke-width:2;stroke-linecap:butt;stroke-linejoin:miter;stroke-miterlimit:4;stroke-dasharray:none;stroke-opacity:1"
             d="M 0,0 12.5,0.073" /></g><g
           transform="translate(350.2041,40.4531)"
           id="g212"><path
             id="path214"
             style="fill:#000000;fill-opacity:1;fill-rule:nonzero;stroke:none"
             d="m 0,0 c -1.656,0.489 -2.733,0.943 -4.063,1.468 l 0.03,-5.045 c 0.473,0.228 2.395,1.007 4.046,1.515 1.765,0.545 3.368,0.92 4.408,1.057 C 3.38,-0.881 1.773,-0.524 0,0" /></g><g
           transform="translate(340.4395,39.377)"
           id="g216"><path
             id="path218"
             style="fill:none;stroke:#000000;stroke-width:2;stroke-linecap:butt;stroke-linejoin:miter;stroke-miterlimit:4;stroke-dasharray:none;stroke-opacity:1"
             d="M 0,0 12.5,0.073" /></g><g
           transform="translate(355.2949,40.4893)"
           id="g220"><path
             id="path222"
             style="fill:#000000;fill-opacity:1;fill-rule:nonzero;stroke:none"
             d="m 0,0 c -1.656,0.489 -2.733,0.943 -4.063,1.468 l 0.03,-5.045 c 0.473,0.228 2.395,1.007 4.046,1.515 1.765,0.545 3.368,0.92 4.408,1.057 C 3.38,-0.881 1.773,-0.524 0,0" /></g></g></g><text
       id="text226"
       style="font-variant:normal;font-weight:normal;font-stretch:normal;font-size:10px;font-family:Tahoma;-inkscape-font-specification:Tahoma;writing-mode:lr-tb;fill:#0000ff;fill-opacity:1;fill-rule:nonzero;stroke:none"
       transform="matrix(1,0,0,-1,222.0249,26.8945)"><tspan
         id="tspan224"
         y="0"
         x="0">x</tspan></text>
<text
       id="text230"
       style="font-variant:normal;font-weight:normal;font-stretch:normal;font-size:5px;font-family:Tahoma;-inkscape-font-specification:Tahoma;writing-mode:lr-tb;fill:#0000ff;fill-opacity:1;fill-rule:nonzero;stroke:none"
       transform="matrix(1,0,0,-1,219.7217,26.3335)"><tspan
         id="tspan228"
         y="0"
         x="0">k</tspan></text>
</g></svg>