<?xml version="1.0" encoding="UTF-8" standalone="no"?>
<svg
   xmlns:dc="http://purl.org/dc/elements/1.1/"
   xmlns:cc="http://creativecommons.org/ns#"
   xmlns:rdf="http://www.w3.org/1999/02/22-rdf-syntax-ns#"
   xmlns:svg="http://www.w3.org/2000/svg"
   xmlns="http://www.w3.org/2000/svg"
   viewBox="0 0 566.93335 188.97333"
   height="188.97333"
   width="566.93335"
   xml:space="preserve"
   id="svg2"
   version="1.1"><metadata
     id="metadata8"><rdf:RDF><cc:Work
         rdf:about=""><dc:format>image/svg+xml</dc:format><dc:type
           rdf:resource="http://purl.org/dc/dcmitype/StillImage" /></cc:Work></rdf:RDF></metadata><defs
     id="defs6"><clipPath
       id="clipPath22"
       clipPathUnits="userSpaceOnUse"><path
         id="path20"
         d="M 0,141.73 H 425.2 V 0 H 0 Z" /></clipPath><clipPath
       id="clipPath38"
       clipPathUnits="userSpaceOnUse"><path
         id="path36"
         d="M 0,141.73 H 425.2 V 0 H 0 Z" /></clipPath><clipPath
       id="clipPath60"
       clipPathUnits="userSpaceOnUse"><path
         id="path58"
         d="M 0,141.73 H 425.2 V 0 H 0 Z" /></clipPath><clipPath
       id="clipPath76"
       clipPathUnits="userSpaceOnUse"><path
         id="path74"
         d="M 0,141.73 H 425.2 V 0 H 0 Z" /></clipPath><clipPath
       id="clipPath98"
       clipPathUnits="userSpaceOnUse"><path
         id="path96"
         d="M 0,141.73 H 425.2 V 0 H 0 Z" /></clipPath><clipPath
       id="clipPath114"
       clipPathUnits="userSpaceOnUse"><path
         id="path112"
         d="M 0,141.73 H 425.2 V 0 H 0 Z" /></clipPath><clipPath
       id="clipPath138"
       clipPathUnits="userSpaceOnUse"><path
         id="path136"
         d="M 0,141.73 H 425.2 V 0 H 0 Z" /></clipPath></defs><g
     transform="matrix(1.3333333,0,0,-1.3333333,0,188.97333)"
     id="g10"><g
       transform="translate(42.7837,94.3198)"
       id="g12"><path
         id="path14"
         style="fill:none;stroke:#1d1d1b;stroke-width:0.5;stroke-linecap:butt;stroke-linejoin:miter;stroke-miterlimit:4;stroke-dasharray:none;stroke-opacity:1"
         d="M 0,0 V -53.388" /></g><g
       id="g16"><g
         clip-path="url(#clipPath22)"
         id="g18"><g
           transform="translate(42.271,95.5005)"
           id="g24"><path
             id="path26"
             style="fill:#1d1d1b;fill-opacity:1;fill-rule:nonzero;stroke:none"
             d="M 0,0 C -0.25,-0.827 -0.479,-1.364 -0.746,-2.027 H 1.776 C 1.664,-1.79 1.28,-0.827 1.031,0 0.763,0.885 0.581,1.687 0.515,2.208 0.45,1.687 0.267,0.885 0,0" /></g></g></g><g
       transform="translate(38.5122,45.2031)"
       id="g28"><path
         id="path30"
         style="fill:none;stroke:#1d1d1b;stroke-width:0.5;stroke-linecap:butt;stroke-linejoin:miter;stroke-miterlimit:4;stroke-dasharray:none;stroke-opacity:1"
         d="M 0,0 H 53.39" /></g><g
       id="g32"><g
         clip-path="url(#clipPath38)"
         id="g34"><g
           transform="translate(93.0825,45.7158)"
           id="g40"><path
             id="path42"
             style="fill:#1d1d1b;fill-opacity:1;fill-rule:nonzero;stroke:none"
             d="m 0,0 c -0.827,0.249 -1.364,0.479 -2.027,0.745 v -2.521 c 0.237,0.112 1.2,0.496 2.027,0.746 0.885,0.266 1.687,0.449 2.208,0.514 C 1.687,-0.45 0.885,-0.268 0,0" /></g></g></g><text
       id="text48"
       style="font-variant:normal;font-weight:normal;font-stretch:normal;font-size:7px;font-family:'Times New Roman';-inkscape-font-specification:TimesNewRomanPSMT;writing-mode:lr-tb;fill:#1d1d1b;fill-opacity:1;fill-rule:nonzero;stroke:none"
       transform="matrix(1,0,0,-1,88.353,40.2471)"><tspan
         id="tspan44"
         y="0"
         x="0 3.5 5.8309999 10.5 13.608 15.939">x[Re] </tspan><tspan
         id="tspan46"
         y="-58.827999"
         x="-54.313 -50.813 -48.481998 -46.151001 -40.705002">y[Im]</tspan></text>
<g
       transform="translate(200.0103,94.5054)"
       id="g50"><path
         id="path52"
         style="fill:none;stroke:#1d1d1b;stroke-width:0.5;stroke-linecap:butt;stroke-linejoin:miter;stroke-miterlimit:4;stroke-dasharray:none;stroke-opacity:1"
         d="M 0,0 V -53.388" /></g><g
       id="g54"><g
         clip-path="url(#clipPath60)"
         id="g56"><g
           transform="translate(199.498,95.686)"
           id="g62"><path
             id="path64"
             style="fill:#1d1d1b;fill-opacity:1;fill-rule:nonzero;stroke:none"
             d="M 0,0 C -0.25,-0.827 -0.48,-1.364 -0.746,-2.027 H 1.776 C 1.663,-1.79 1.28,-0.827 1.03,0 0.763,0.885 0.58,1.687 0.515,2.208 0.45,1.687 0.267,0.885 0,0" /></g></g></g><g
       transform="translate(195.7388,45.3887)"
       id="g66"><path
         id="path68"
         style="fill:none;stroke:#1d1d1b;stroke-width:0.5;stroke-linecap:butt;stroke-linejoin:miter;stroke-miterlimit:4;stroke-dasharray:none;stroke-opacity:1"
         d="M 0,0 H 53.39" /></g><g
       id="g70"><g
         clip-path="url(#clipPath76)"
         id="g72"><g
           transform="translate(250.3096,45.9014)"
           id="g78"><path
             id="path80"
             style="fill:#1d1d1b;fill-opacity:1;fill-rule:nonzero;stroke:none"
             d="M 0,0 C -0.827,0.249 -1.364,0.479 -2.026,0.745 V -1.776 C -1.79,-1.664 -0.827,-1.28 0,-1.03 0.885,-0.764 1.687,-0.581 2.208,-0.516 1.687,-0.45 0.885,-0.268 0,0" /></g></g></g><text
       id="text86"
       style="font-variant:normal;font-weight:normal;font-stretch:normal;font-size:7px;font-family:'Times New Roman';-inkscape-font-specification:TimesNewRomanPSMT;writing-mode:lr-tb;fill:#1d1d1b;fill-opacity:1;fill-rule:nonzero;stroke:none"
       transform="matrix(1,0,0,-1,245.5796,40.4326)"><tspan
         id="tspan82"
         y="0"
         x="0 3.5 5.8309999 10.5 13.608 15.939">x[Re] </tspan><tspan
         id="tspan84"
         y="-58.827999"
         x="-54.313 -50.813 -48.481998 -46.151001 -40.705002">y[Im]</tspan></text>
<g
       transform="translate(335.8369,95.5054)"
       id="g88"><path
         id="path90"
         style="fill:none;stroke:#1d1d1b;stroke-width:0.5;stroke-linecap:butt;stroke-linejoin:miter;stroke-miterlimit:4;stroke-dasharray:none;stroke-opacity:1"
         d="M 0,0 V -53.388" /></g><g
       id="g92"><g
         clip-path="url(#clipPath98)"
         id="g94"><g
           transform="translate(335.3242,96.686)"
           id="g100"><path
             id="path102"
             style="fill:#1d1d1b;fill-opacity:1;fill-rule:nonzero;stroke:none"
             d="M 0,0 C -0.25,-0.827 -0.479,-1.364 -0.746,-2.027 H 1.776 C 1.664,-1.79 1.28,-0.827 1.031,0 0.764,0.885 0.58,1.687 0.516,2.208 0.45,1.687 0.268,0.885 0,0" /></g></g></g><g
       transform="translate(331.5654,46.3887)"
       id="g104"><path
         id="path106"
         style="fill:none;stroke:#1d1d1b;stroke-width:0.5;stroke-linecap:butt;stroke-linejoin:miter;stroke-miterlimit:4;stroke-dasharray:none;stroke-opacity:1"
         d="M 0,0 H 53.39" /></g><g
       id="g108"><g
         clip-path="url(#clipPath114)"
         id="g110"><g
           transform="translate(386.1357,46.9014)"
           id="g116"><path
             id="path118"
             style="fill:#1d1d1b;fill-opacity:1;fill-rule:nonzero;stroke:none"
             d="M 0,0 C -0.827,0.249 -1.364,0.479 -2.026,0.745 V -1.776 C -1.79,-1.664 -0.827,-1.28 0,-1.03 0.885,-0.764 1.687,-0.581 2.208,-0.516 1.687,-0.45 0.885,-0.268 0,0" /></g></g></g><text
       id="text124"
       style="font-variant:normal;font-weight:normal;font-stretch:normal;font-size:7px;font-family:'Times New Roman';-inkscape-font-specification:TimesNewRomanPSMT;writing-mode:lr-tb;fill:#1d1d1b;fill-opacity:1;fill-rule:nonzero;stroke:none"
       transform="matrix(1,0,0,-1,381.4062,41.4326)"><tspan
         id="tspan120"
         y="0"
         x="0 3.5 5.8309999 10.5 13.608 15.939">x[Re] </tspan><tspan
         id="tspan122"
         y="-58.827999"
         x="-54.313 -50.813 -48.481998 -46.151001 -40.705002">y[Im]</tspan></text>
<text
       id="text130"
       style="font-variant:normal;font-weight:normal;font-stretch:normal;font-size:12px;font-family:'Myriad Pro';-inkscape-font-specification:MyriadPro-Regular;writing-mode:lr-tb;fill:#1d1d1b;fill-opacity:1;fill-rule:nonzero;stroke:none"
       transform="matrix(1,0,0,-1,284.9463,70.2495)"><tspan
         id="tspan126"
         y="0"
         x="0">+</tspan><tspan
         id="tspan128"
         y="-1.992"
         x="-154.38">=</tspan></text>
<g
       id="g132"><g
         clip-path="url(#clipPath138)"
         id="g134"><g
           transform="translate(53.4272,41.3945)"
           id="g140"><path
             id="path142"
             style="fill:none;stroke:#ea5b0b;stroke-width:1;stroke-linecap:butt;stroke-linejoin:miter;stroke-miterlimit:4;stroke-dasharray:none;stroke-opacity:1"
             d="M 0,0 C 9.656,14.718 13.42,28.716 8.375,31.753 3.134,34.909 -9.629,25.037 -20.134,9.707 c -10.503,-15.332 -14.77,-30.317 -9.529,-33.472 3.087,-1.858 8.783,0.801 15.09,6.433" /></g><g
           transform="translate(40.106,22.6602)"
           id="g144"><path
             id="path146"
             style="fill:#ea5b0b;fill-opacity:1;fill-rule:nonzero;stroke:none"
             d="M 0,0 C 0.774,0.691 0.842,1.88 0.15,2.654 -0.541,3.429 -1.729,3.496 -2.504,2.805 -3.278,2.113 -3.346,0.925 -2.654,0.15 -1.963,-0.624 -0.774,-0.691 0,0" /></g><g
           transform="translate(38.854,24.0625)"
           id="g148"><path
             id="path150"
             style="fill:none;stroke:#ea5b0b;stroke-width:1;stroke-linecap:butt;stroke-linejoin:miter;stroke-miterlimit:4;stroke-dasharray:none;stroke-opacity:1"
             d="m 0,0 c 4.402,3.932 9.102,9.311 13.419,15.611 0.394,0.575 0.778,1.149 1.154,1.721" /></g><g
           transform="translate(53.7573,43.2969)"
           id="g152"><path
             id="path154"
             style="fill:#ea5b0b;fill-opacity:1;fill-rule:nonzero;stroke:none"
             d="m 0,0 c -0.994,-0.831 -1.725,-1.314 -2.604,-1.927 l 3.162,-2.077 c 0.053,0.39 0.366,1.913 0.734,3.155 C 1.686,0.48 2.117,1.637 2.464,2.343 1.954,1.744 1.063,0.889 0,0" /></g><g
           transform="translate(207.8477,37.1943)"
           id="g156"><path
             id="path158"
             style="fill:none;stroke:#00983a;stroke-width:1;stroke-linecap:butt;stroke-linejoin:miter;stroke-miterlimit:4;stroke-dasharray:none;stroke-opacity:1"
             d="m 0,0 c 2.157,2.064 3.501,4.973 3.501,8.194 0,6.262 -5.077,11.339 -11.339,11.339 -6.262,0 -11.338,-5.077 -11.338,-11.339 0,-1.789 0.414,-3.48 1.152,-4.985" /></g><g
           transform="translate(206.5479,38.5527)"
           id="g160"><path
             id="path162"
             style="fill:#00983a;fill-opacity:1;fill-rule:nonzero;stroke:none"
             d="M 0,0 C -0.75,-0.718 -0.776,-1.908 -0.059,-2.658 0.659,-3.408 1.85,-3.435 2.6,-2.717 3.35,-1.999 3.375,-0.809 2.658,-0.059 1.94,0.691 0.75,0.718 0,0" /></g><g
           transform="translate(189.8232,40.4033)"
           id="g164"><path
             id="path166"
             style="fill:none;stroke:#00983a;stroke-width:1;stroke-linecap:butt;stroke-linejoin:miter;stroke-miterlimit:4;stroke-dasharray:none;stroke-opacity:1"
             d="m 0,0 c 1.845,-3.763 5.713,-6.354 10.187,-6.354 3.04,0 5.801,1.197 7.837,3.145" /></g><g
           transform="translate(188.3535,41.6553)"
           id="g168"><path
             id="path170"
             style="fill:#00983a;fill-opacity:1;fill-rule:nonzero;stroke:none"
             d="m 0,0 c 0.209,-1.278 0.254,-2.154 0.334,-3.223 l 3.397,1.666 C 3.422,-1.312 2.27,-0.269 1.388,0.681 0.443,1.695 -0.333,2.655 -0.764,3.313 -0.508,2.569 -0.225,1.367 0,0" /></g><g
           transform="translate(319.9043,22.9395)"
           id="g172"><path
             id="path174"
             style="fill:none;stroke:#27348b;stroke-width:1;stroke-linecap:butt;stroke-linejoin:miter;stroke-miterlimit:4;stroke-dasharray:none;stroke-opacity:1"
             d="m 0,0 c 4.54,-3.091 10.025,-4.897 15.933,-4.897 8.56,0 16.235,3.794 21.432,9.793" /></g><g
           transform="translate(358.041,30.291)"
           id="g176"><path
             id="path178"
             style="fill:#27348b;fill-opacity:1;fill-rule:nonzero;stroke:none"
             d="M 0,0 C -1.46,-0.923 -2.511,-1.434 -3.781,-2.087 L 0.03,-5.391 C 0.171,-4.884 0.853,-2.927 1.558,-1.35 2.313,0.338 3.087,1.79 3.67,2.662 2.89,1.96 1.563,0.987 0,0" /></g><g
           transform="translate(357.2695,27.835)"
           id="g180"><path
             id="path182"
             style="fill:none;stroke:#27348b;stroke-width:1;stroke-linecap:butt;stroke-linejoin:miter;stroke-miterlimit:4;stroke-dasharray:none;stroke-opacity:1"
             d="m 0,0 c 4.308,4.972 6.914,11.458 6.914,18.554 0,15.655 -12.69,28.346 -28.347,28.346 -15.656,0 -28.346,-12.691 -28.346,-28.346 0,-9.749 4.921,-18.348 12.414,-23.45" /></g><g
           transform="translate(318.8467,21.3857)"
           id="g184"><path
             id="path186"
             style="fill:#27348b;fill-opacity:1;fill-rule:nonzero;stroke:none"
             d="M 0,0 C 0.857,-0.584 2.027,-0.362 2.611,0.496 3.195,1.354 2.974,2.523 2.115,3.107 1.258,3.691 0.088,3.47 -0.496,2.611 -1.08,1.754 -0.858,0.584 0,0" /></g></g></g><text
       id="text192"
       style="font-variant:normal;font-weight:normal;font-stretch:normal;font-size:10px;font-family:'Myriad Pro';-inkscape-font-specification:MyriadPro-Regular;writing-mode:lr-tb;fill:#1d1d1b;fill-opacity:1;fill-rule:nonzero;stroke:none"
       transform="matrix(1,0,0,-1,335.8369,123.0513)"><tspan
         id="tspan188"
         y="0"
         x="0 5.5900002 7.9499998 12.96 15.3 19.780001 25.33 27.690001 32.509998 38.02 43.25">gleichläufg</tspan><tspan
         id="tspan190"
         y="0.23999999"
         x="-132.77 -127.18 -122.17 -116.58 -111.57 -106.02 -103.66 -98.839996 -93.330002 -88.099998">gegenläufg</tspan></text>
<text
       id="text200"
       style="font-variant:normal;font-weight:normal;font-stretch:normal;font-size:7px;font-family:'Myriad Pro';-inkscape-font-specification:MyriadPro-Regular;writing-mode:lr-tb;fill:#1d1d1b;fill-opacity:1;fill-rule:nonzero;stroke:none"
       transform="matrix(1,0,0,-1,298.833,16.8965)"><tspan
         id="tspan194"
         y="0"
         x="0 2.3169999 6.4889998">t=0</tspan><tspan
         id="tspan196"
         y="-10.941"
         x="-85.666 -83.348999 -79.177002">t=0</tspan><tspan
         id="tspan198"
         y="-0.147"
         x="-254.996 -252.679 -248.507">t=0</tspan></text>
<text
       id="text204"
       style="font-variant:normal;font-weight:normal;font-stretch:normal;font-size:10px;font-family:'Myriad Pro';-inkscape-font-specification:MyriadPro-Regular;writing-mode:lr-tb;fill:#1d1d1b;fill-opacity:1;fill-rule:nonzero;stroke:none"
       transform="matrix(1,0,0,-1,43.8325,120.5513)"><tspan
         id="tspan202"
         y="0"
         x="0 6.5100002 11.52 15.48 20.299999 28.6 31.85 37.34 40.650002 46.34 48.68">Gesamtorbit</tspan></text>
</g></svg>