<?xml version="1.0" encoding="UTF-8" standalone="no"?>
<svg
   xmlns:dc="http://purl.org/dc/elements/1.1/"
   xmlns:cc="http://creativecommons.org/ns#"
   xmlns:rdf="http://www.w3.org/1999/02/22-rdf-syntax-ns#"
   xmlns:svg="http://www.w3.org/2000/svg"
   xmlns="http://www.w3.org/2000/svg"
   viewBox="0 0 283.46667 188.97333"
   height="188.97333"
   width="283.46667"
   xml:space="preserve"
   id="svg2"
   version="1.1"><metadata
     id="metadata8"><rdf:RDF><cc:Work
         rdf:about=""><dc:format>image/svg+xml</dc:format><dc:type
           rdf:resource="http://purl.org/dc/dcmitype/StillImage" /></cc:Work></rdf:RDF></metadata><defs
     id="defs6"><clipPath
       id="clipPath22"
       clipPathUnits="userSpaceOnUse"><path
         id="path20"
         d="M 0,141.73 H 212.6 V 0 H 0 Z" /></clipPath><clipPath
       id="clipPath38"
       clipPathUnits="userSpaceOnUse"><path
         id="path36"
         d="M 0,141.73 H 212.6 V 0 H 0 Z" /></clipPath><clipPath
       id="clipPath66"
       clipPathUnits="userSpaceOnUse"><path
         id="path64"
         d="M 0,141.73 H 212.6 V 0 H 0 Z" /></clipPath><clipPath
       id="clipPath82"
       clipPathUnits="userSpaceOnUse"><path
         id="path80"
         d="M 0,141.73 H 212.6 V 0 H 0 Z" /></clipPath></defs><g
     transform="matrix(1.3333333,0,0,-1.3333333,0,188.97333)"
     id="g10"><g
       transform="translate(102.5,101.8281)"
       id="g12"><path
         id="path14"
         style="fill:none;stroke:#1d1d1b;stroke-width:0.5;stroke-linecap:butt;stroke-linejoin:miter;stroke-miterlimit:4;stroke-dasharray:none;stroke-opacity:1"
         d="M 0,0 V -67.036" /></g><g
       id="g16"><g
         clip-path="url(#clipPath22)"
         id="g18"><g
           transform="translate(101.9873,103.0088)"
           id="g24"><path
             id="path26"
             style="fill:#1d1d1b;fill-opacity:1;fill-rule:nonzero;stroke:none"
             d="M 0,0 C -0.25,-0.827 -0.479,-1.364 -0.746,-2.027 H 1.776 C 1.664,-1.79 1.28,-0.827 1.031,0 0.763,0.885 0.581,1.687 0.515,2.208 0.45,1.687 0.267,0.885 0,0" /></g></g></g><g
       transform="translate(21.5,40.1553)"
       id="g28"><path
         id="path30"
         style="fill:none;stroke:#1d1d1b;stroke-width:0.5;stroke-linecap:butt;stroke-linejoin:miter;stroke-miterlimit:4;stroke-dasharray:none;stroke-opacity:1"
         d="M 0,0 H 161.25" /></g><g
       id="g32"><g
         clip-path="url(#clipPath38)"
         id="g34"><g
           transform="translate(183.9307,40.668)"
           id="g40"><path
             id="path42"
             style="fill:#1d1d1b;fill-opacity:1;fill-rule:nonzero;stroke:none"
             d="M 0,0 C -0.827,0.25 -1.364,0.479 -2.026,0.746 V -1.776 C -1.79,-1.664 -0.827,-1.28 0,-1.031 0.885,-0.764 1.687,-0.58 2.208,-0.516 1.687,-0.45 0.885,-0.268 0,0" /></g></g></g><text
       id="text46"
       style="font-variant:normal;font-weight:normal;font-stretch:normal;font-size:7px;font-family:Myriad;-inkscape-font-specification:Myriad-Roman;writing-mode:lr-tb;fill:#1d1d1b;fill-opacity:1;fill-rule:nonzero;stroke:none"
       transform="matrix(1,0,0,-1,88.0205,109.5146)"><tspan
         id="tspan44"
         y="0"
         x="0 1.673">|r</tspan></text>
<text
       id="text50"
       style="font-variant:normal;font-weight:normal;font-stretch:normal;font-size:5px;font-family:Myriad;-inkscape-font-specification:Myriad-Roman;writing-mode:lr-tb;fill:#1d1d1b;fill-opacity:1;fill-rule:nonzero;stroke:none"
       transform="matrix(1,0,0,-1,91.9824,109.5146)"><tspan
         id="tspan48"
         y="0"
         x="0">n</tspan></text>
<text
       id="text54"
       style="font-variant:normal;font-weight:normal;font-stretch:normal;font-size:7px;font-family:Myriad;-inkscape-font-specification:Myriad-Roman;writing-mode:lr-tb;fill:#1d1d1b;fill-opacity:1;fill-rule:nonzero;stroke:none"
       transform="matrix(1,0,0,-1,94.7578,109.5146)"><tspan
         id="tspan52"
         y="0"
         x="0">|</tspan></text>
<g
       transform="translate(85.0396,64.7305)"
       id="g56"><path
         id="path58"
         style="fill:none;stroke:#00983a;stroke-width:1;stroke-linecap:butt;stroke-linejoin:miter;stroke-miterlimit:4;stroke-dasharray:none;stroke-opacity:1"
         d="M 0,0 V -24.575" /></g><g
       id="g60"><g
         clip-path="url(#clipPath66)"
         id="g62"><g
           transform="translate(86.9194,64.7305)"
           id="g68"><path
             id="path70"
             style="fill:#00983a;fill-opacity:1;fill-rule:nonzero;stroke:none"
             d="m 0,0 c 0,1.038 -0.842,1.88 -1.88,1.88 -1.038,0 -1.88,-0.842 -1.88,-1.88 0,-1.038 0.842,-1.88 1.88,-1.88 C -0.842,-1.88 0,-1.038 0,0" /></g></g></g><g
       transform="translate(119.0547,96.7305)"
       id="g72"><path
         id="path74"
         style="fill:none;stroke:#27348b;stroke-width:1;stroke-linecap:butt;stroke-linejoin:miter;stroke-miterlimit:4;stroke-dasharray:none;stroke-opacity:1"
         d="M 0,0 V -56.575" /></g><g
       id="g76"><g
         clip-path="url(#clipPath82)"
         id="g78"><g
           transform="translate(120.9346,96.7305)"
           id="g84"><path
             id="path86"
             style="fill:#27348b;fill-opacity:1;fill-rule:nonzero;stroke:none"
             d="m 0,0 c 0,1.038 -0.842,1.88 -1.88,1.88 -1.038,0 -1.88,-0.842 -1.88,-1.88 0,-1.038 0.842,-1.88 1.88,-1.88 C -0.842,-1.88 0,-1.038 0,0" /></g></g></g><g
       transform="translate(51.0234,43.2305)"
       id="g88"><path
         id="path90"
         style="fill:none;stroke:#27348b;stroke-width:0.5;stroke-linecap:butt;stroke-linejoin:miter;stroke-miterlimit:4;stroke-dasharray:none;stroke-opacity:1"
         d="M 0,0 V -6" /></g><g
       transform="translate(68.0313,43.3682)"
       id="g92"><path
         id="path94"
         style="fill:none;stroke:#27348b;stroke-width:0.5;stroke-linecap:butt;stroke-linejoin:miter;stroke-miterlimit:4;stroke-dasharray:none;stroke-opacity:1"
         d="M 0,0 V -6" /></g><g
       transform="translate(85.0396,43.3682)"
       id="g96"><path
         id="path98"
         style="fill:none;stroke:#27348b;stroke-width:0.5;stroke-linecap:butt;stroke-linejoin:miter;stroke-miterlimit:4;stroke-dasharray:none;stroke-opacity:1"
         d="M 0,0 V -6" /></g><g
       transform="translate(119.0547,43.292)"
       id="g100"><path
         id="path102"
         style="fill:none;stroke:#27348b;stroke-width:0.5;stroke-linecap:butt;stroke-linejoin:miter;stroke-miterlimit:4;stroke-dasharray:none;stroke-opacity:1"
         d="M 0,0 V -6" /></g><g
       transform="translate(136.0625,43.292)"
       id="g104"><path
         id="path106"
         style="fill:none;stroke:#27348b;stroke-width:0.5;stroke-linecap:butt;stroke-linejoin:miter;stroke-miterlimit:4;stroke-dasharray:none;stroke-opacity:1"
         d="M 0,0 V -6" /></g><g
       transform="translate(153.0713,43.5059)"
       id="g108"><path
         id="path110"
         style="fill:none;stroke:#27348b;stroke-width:0.5;stroke-linecap:butt;stroke-linejoin:miter;stroke-miterlimit:4;stroke-dasharray:none;stroke-opacity:1"
         d="M 0,0 V -6" /></g><text
       id="text114"
       style="font-variant:normal;font-weight:normal;font-stretch:normal;font-size:7px;font-family:Myriad;-inkscape-font-specification:Myriad-Roman;writing-mode:lr-tb;fill:#1d1d1b;fill-opacity:1;fill-rule:nonzero;stroke:none"
       transform="matrix(1,0,0,-1,114.3115,28.6045)"><tspan
         id="tspan112"
         y="0"
         x="0">1</tspan></text>
<text
       id="text118"
       style="font-variant:normal;font-weight:normal;font-stretch:normal;font-size:7px;font-family:'Myriad Pro';-inkscape-font-specification:MyriadPro-Regular;writing-mode:lr-tb;fill:#1d1d1b;fill-opacity:1;fill-rule:nonzero;stroke:none"
       transform="matrix(1,0,0,-1,117.9025,28.6045)"><tspan
         id="tspan116"
         y="0"
         x="0">Ω</tspan></text>
<text
       id="text122"
       style="font-variant:normal;font-weight:normal;font-stretch:normal;font-size:7px;font-family:Myriad;-inkscape-font-specification:Myriad-Roman;writing-mode:lr-tb;fill:#1d1d1b;fill-opacity:1;fill-rule:nonzero;stroke:none"
       transform="matrix(1,0,0,-1,131.6925,28.6045)"><tspan
         id="tspan120"
         y="0"
         x="0">2</tspan></text>
<text
       id="text126"
       style="font-variant:normal;font-weight:normal;font-stretch:normal;font-size:7px;font-family:'Myriad Pro';-inkscape-font-specification:MyriadPro-Regular;writing-mode:lr-tb;fill:#1d1d1b;fill-opacity:1;fill-rule:nonzero;stroke:none"
       transform="matrix(1,0,0,-1,135.2835,28.6045)"><tspan
         id="tspan124"
         y="0"
         x="0">Ω</tspan></text>
<text
       id="text130"
       style="font-variant:normal;font-weight:normal;font-stretch:normal;font-size:7px;font-family:Myriad;-inkscape-font-specification:Myriad-Roman;writing-mode:lr-tb;fill:#1d1d1b;fill-opacity:1;fill-rule:nonzero;stroke:none"
       transform="matrix(1,0,0,-1,148.6535,28.6045)"><tspan
         id="tspan128"
         y="0"
         x="0">3</tspan></text>
<text
       id="text134"
       style="font-variant:normal;font-weight:normal;font-stretch:normal;font-size:7px;font-family:'Myriad Pro';-inkscape-font-specification:MyriadPro-Regular;writing-mode:lr-tb;fill:#1d1d1b;fill-opacity:1;fill-rule:nonzero;stroke:none"
       transform="matrix(1,0,0,-1,152.2445,28.6045)"><tspan
         id="tspan132"
         y="0"
         x="0">Ω</tspan></text>
<text
       id="text138"
       style="font-variant:normal;font-weight:normal;font-stretch:normal;font-size:7px;font-family:Myriad;-inkscape-font-specification:Myriad-Roman;writing-mode:lr-tb;fill:#1d1d1b;fill-opacity:1;fill-rule:nonzero;stroke:none"
       transform="matrix(1,0,0,-1,79.4445,28.7165)"><tspan
         id="tspan136"
         y="0"
         x="0 2.1489999">-1</tspan></text>
<text
       id="text142"
       style="font-variant:normal;font-weight:normal;font-stretch:normal;font-size:7px;font-family:'Myriad Pro';-inkscape-font-specification:MyriadPro-Regular;writing-mode:lr-tb;fill:#1d1d1b;fill-opacity:1;fill-rule:nonzero;stroke:none"
       transform="matrix(1,0,0,-1,85.1845,28.7165)"><tspan
         id="tspan140"
         y="0"
         x="0">Ω</tspan></text>
<text
       id="text146"
       style="font-variant:normal;font-weight:normal;font-stretch:normal;font-size:7px;font-family:Myriad;-inkscape-font-specification:Myriad-Roman;writing-mode:lr-tb;fill:#1d1d1b;fill-opacity:1;fill-rule:nonzero;stroke:none"
       transform="matrix(1,0,0,-1,61.8535,28.6045)"><tspan
         id="tspan144"
         y="0"
         x="0 2.1489999">-2</tspan></text>
<text
       id="text150"
       style="font-variant:normal;font-weight:normal;font-stretch:normal;font-size:7px;font-family:'Myriad Pro';-inkscape-font-specification:MyriadPro-Regular;writing-mode:lr-tb;fill:#1d1d1b;fill-opacity:1;fill-rule:nonzero;stroke:none"
       transform="matrix(1,0,0,-1,67.5935,28.6045)"><tspan
         id="tspan148"
         y="0"
         x="0">Ω</tspan></text>
<text
       id="text154"
       style="font-variant:normal;font-weight:normal;font-stretch:normal;font-size:7px;font-family:Myriad;-inkscape-font-specification:Myriad-Roman;writing-mode:lr-tb;fill:#1d1d1b;fill-opacity:1;fill-rule:nonzero;stroke:none"
       transform="matrix(1,0,0,-1,44.9975,28.6045)"><tspan
         id="tspan152"
         y="0"
         x="0 2.1489999">-3</tspan></text>
<text
       id="text158"
       style="font-variant:normal;font-weight:normal;font-stretch:normal;font-size:7px;font-family:'Myriad Pro';-inkscape-font-specification:MyriadPro-Regular;writing-mode:lr-tb;fill:#1d1d1b;fill-opacity:1;fill-rule:nonzero;stroke:none"
       transform="matrix(1,0,0,-1,50.7375,28.6045)"><tspan
         id="tspan156"
         y="0"
         x="0">Ω</tspan></text>
</g></svg>