<?xml version="1.0" encoding="iso-8859-1"?>
<!-- Generator: Adobe Illustrator 17.1.0, SVG Export Plug-In . SVG Version: 6.00 Build 0)  -->
<!DOCTYPE svg PUBLIC "-//W3C//DTD SVG 1.1//EN" "http://www.w3.org/Graphics/SVG/1.1/DTD/svg11.dtd">
<svg version="1.1" id="Capa_1" xmlns="http://www.w3.org/2000/svg" xmlns:xlink="http://www.w3.org/1999/xlink" x="0px" y="0px"
	 viewBox="0 0 294 294" style="enable-background:new 0 0 294 294;" xml:space="preserve">
<path d="M228,15c0-8.284-6.716-15-15-15H81c-8.284,0-15,6.716-15,15v264c0,8.284,6.716,15,15,15h132c8.284,0,15-6.716,15-15V15z
	 M146.583,268.5c-4.556,0-8.25-3.694-8.25-8.25s3.694-8.25,8.25-8.25s8.25,3.694,8.25,8.25S151.14,268.5,146.583,268.5z
	 M146.333,232c-9.113,0-16.5-7.387-16.5-16.5c0-9.113,7.387-16.5,16.5-16.5s16.5,7.387,16.5,16.5
	C162.833,224.613,155.446,232,146.333,232z M195,164H96v-33h99V164z M195,114H96V81h99V114z M195,65H96V32h99V65z"/>
<g>
</g>
<g>
</g>
<g>
</g>
<g>
</g>
<g>
</g>
<g>
</g>
<g>
</g>
<g>
</g>
<g>
</g>
<g>
</g>
<g>
</g>
<g>
</g>
<g>
</g>
<g>
</g>
<g>
</g>
</svg>
