<?xml version="1.0" encoding="UTF-8" standalone="no"?>
<svg
   xmlns:dc="http://purl.org/dc/elements/1.1/"
   xmlns:cc="http://creativecommons.org/ns#"
   xmlns:rdf="http://www.w3.org/1999/02/22-rdf-syntax-ns#"
   xmlns:svg="http://www.w3.org/2000/svg"
   xmlns="http://www.w3.org/2000/svg"
   viewBox="0 0 566.92932 302.36133"
   height="302.36133"
   width="566.92932"
   xml:space="preserve"
   id="svg2"
   version="1.1"><metadata
     id="metadata8"><rdf:RDF><cc:Work
         rdf:about=""><dc:format>image/svg+xml</dc:format><dc:type
           rdf:resource="http://purl.org/dc/dcmitype/StillImage" /></cc:Work></rdf:RDF></metadata><defs
     id="defs6"><clipPath
       id="clipPath118"
       clipPathUnits="userSpaceOnUse"><path
         id="path116"
         d="M 0,226.771 H 425.197 V 0 H 0 Z" /></clipPath><clipPath
       id="clipPath234"
       clipPathUnits="userSpaceOnUse"><path
         id="path232"
         d="M 0,226.771 H 425.197 V 0 H 0 Z" /></clipPath><clipPath
       id="clipPath300"
       clipPathUnits="userSpaceOnUse"><path
         id="path298"
         d="M 0,226.771 H 425.197 V 0 H 0 Z" /></clipPath><clipPath
       id="clipPath340"
       clipPathUnits="userSpaceOnUse"><path
         id="path338"
         d="M 0,226.771 H 425.197 V 0 H 0 Z" /></clipPath><clipPath
       id="clipPath394"
       clipPathUnits="userSpaceOnUse"><path
         id="path392"
         d="M 0,226.771 H 425.197 V 0 H 0 Z" /></clipPath></defs><g
     transform="matrix(1.3333333,0,0,-1.3333333,0,302.36133)"
     id="g10"><g
       transform="translate(76.5908,114.5684)"
       id="g12"><path
         id="path14"
         style="fill:none;stroke:#231f20;stroke-width:1;stroke-linecap:butt;stroke-linejoin:round;stroke-miterlimit:10;stroke-dasharray:5, 5;stroke-dashoffset:0;stroke-opacity:1"
         d="m 0,0 1.312,-0.126 1.313,-0.127 1.312,-0.126 1.312,-0.12 1.312,-0.119 1.313,-0.126 1.312,-0.119 1.336,-0.119 1.312,-0.113 1.312,-0.119 1.312,-0.112 1.313,-0.112 1.312,-0.113 1.313,-0.113 1.312,-0.105 1.312,-0.111 1.336,-0.105 1.312,-0.106 1.312,-0.105 1.313,-0.099 1.312,-0.104 1.312,-0.099 1.313,-0.099 1.312,-0.098 1.312,-0.098 1.337,-0.091 1.311,-0.098 1.313,-0.091 1.312,-0.092 1.312,-0.091 1.313,-0.085 1.312,-0.09 1.312,-0.085 1.336,-0.084 1.313,-0.085 1.312,-0.084 1.312,-0.077 1.313,-0.084 1.312,-0.077 1.312,-0.077 1.312,-0.077 1.312,-0.07 1.337,-0.078 1.312,-0.07 1.312,-0.07 1.313,-0.07 1.312,-0.07 1.312,-0.063 1.313,-0.071 1.311,-0.062 1.313,-0.064 1.337,-0.063 1.312,-0.056 1.312,-0.063 1.313,-0.057 1.311,-0.056 1.313,-0.056 1.311,-0.056 1.313,-0.049 1.312,-0.055 1.337,-0.05 1.312,-0.049 1.313,-0.05 1.312,-0.042 1.312,-0.049 1.312,-0.042 1.312,-0.042 1.312,-0.042 1.313,-0.043 1.336,-0.034 1.312,-0.043 1.313,-0.034 1.311,-0.035 1.313,-0.035 1.312,-0.029 1.313,-0.035 1.312,-0.027 1.336,-0.028 1.313,-0.029 1.312,-0.028 1.313,-0.02 1.311,-0.029 1.313,-0.021 1.312,-0.021 1.312,-0.021 1.312,-0.013 1.337,-0.021 1.312,-0.014 1.312,-0.016 1.312,-0.013 1.312,-0.014 1.313,-0.007 1.312,-0.015 1.312,-0.005 1.312,-0.008 1.337,-0.007 h 1.312 l 1.313,-0.007 h 1.312 1.312 1.312 1.312 M 268.229,0 l -1.312,-0.126 -1.313,-0.127 -1.311,-0.126 -1.313,-0.12 -1.312,-0.119 -1.313,-0.126 -1.312,-0.119 -1.337,-0.119 -1.311,-0.113 -1.312,-0.119 -1.312,-0.112 -1.313,-0.112 -1.312,-0.113 -1.312,-0.113 -1.313,-0.105 -1.312,-0.111 -1.336,-0.105 -1.312,-0.106 -1.313,-0.105 -1.312,-0.099 -1.312,-0.104 -1.312,-0.099 -1.313,-0.099 -1.311,-0.098 -1.313,-0.098 -1.337,-0.091 -1.311,-0.098 -1.313,-0.091 -1.312,-0.092 -1.313,-0.091 -1.312,-0.085 -1.313,-0.09 -1.311,-0.085 -1.336,-0.084 -1.313,-0.085 -1.311,-0.084 -1.314,-0.077 -1.311,-0.084 -1.313,-0.077 -1.312,-0.077 -1.312,-0.077 -1.312,-0.07 -1.337,-0.078 -1.313,-0.07 -1.311,-0.07 -1.313,-0.07 -1.311,-0.07 -1.313,-0.063 -1.312,-0.071 -1.312,-0.062 -1.313,-0.064 -1.337,-0.063 -1.312,-0.056 -1.312,-0.063 -1.313,-0.057 -1.311,-0.056 -1.313,-0.056 -1.311,-0.056 -1.313,-0.049 -1.312,-0.055 -1.337,-0.05 -1.313,-0.049 -1.311,-0.05 -1.313,-0.042 -1.311,-0.049 -1.313,-0.042 -1.312,-0.042 -1.313,-0.042 -1.312,-0.043 -1.336,-0.034 -1.313,-0.043 -1.312,-0.034 -1.312,-0.035 -1.312,-0.035 -1.313,-0.029 -1.311,-0.035 -1.313,-0.027 -1.337,-0.028 -1.311,-0.029 -1.314,-0.028 -1.312,-0.02 -1.311,-0.029 -1.312,-0.021 -1.313,-0.021 -1.311,-0.021 -1.313,-0.013 -1.337,-0.021 -1.312,-0.014 -1.313,-0.016 -1.311,-0.013 -1.313,-0.014 -1.312,-0.007 -1.312,-0.015 -1.312,-0.005 -1.312,-0.008 -1.338,-0.007 h -1.311 l -1.313,-0.007 h -1.312 -1.312 -1.312 -1.313" /></g><g
       transform="translate(344.9961,125.5317)"
       id="g16"><path
         id="path18"
         style="fill:none;stroke:#231f20;stroke-width:0.74400002;stroke-linecap:butt;stroke-linejoin:round;stroke-miterlimit:10;stroke-dasharray:none;stroke-opacity:1"
         d="M 0,0 1.854,-21.179" /></g><g
       transform="translate(76.7837,125.7173)"
       id="g20"><path
         id="path22"
         style="fill:none;stroke:#231f20;stroke-width:0.76200002;stroke-linecap:butt;stroke-linejoin:round;stroke-miterlimit:10;stroke-dasharray:none;stroke-opacity:1"
         d="M 0,0 -1.52,-21.731" /></g><g
       transform="translate(305.4219,129.4355)"
       id="g24"><path
         id="path26"
         style="fill:none;stroke:#231f20;stroke-width:1.59399998;stroke-linecap:butt;stroke-linejoin:round;stroke-miterlimit:10;stroke-dasharray:none;stroke-opacity:1"
         d="m 0,0 -1.487,-0.093 -1.313,-0.092 -1.312,-0.084 -1.337,-0.084 -1.312,-0.084 -1.312,-0.084 -1.313,-0.077 -1.311,-0.085 -1.313,-0.076 -1.312,-0.078 -1.312,-0.077 -1.312,-0.07 -1.337,-0.078 -1.313,-0.07 -1.311,-0.07 -1.313,-0.069 -1.312,-0.071 -1.312,-0.063 -1.312,-0.07 -1.313,-0.064 -1.313,-0.063 -1.336,-0.063 -1.312,-0.056 -1.312,-0.063 -1.313,-0.056 -1.311,-0.056 -1.313,-0.057 -1.312,-0.056 -1.313,-0.049 -1.311,-0.056 -1.337,-0.049 -1.313,-0.049 -1.311,-0.049 -1.313,-0.042 -1.312,-0.049 -1.312,-0.043 -1.312,-0.042 -1.313,-0.042 -1.312,-0.042 -1.336,-0.035 -1.313,-0.042" /></g><g
       transform="translate(308.498,93.999)"
       id="g28"><path
         id="path30"
         style="fill:none;stroke:#231f20;stroke-width:1.59500003;stroke-linecap:butt;stroke-linejoin:round;stroke-miterlimit:10;stroke-dasharray:none;stroke-opacity:1"
         d="m 0,0 -2.69,-0.166 -1.315,-0.085 -1.314,-0.091 -1.314,-0.084 -1.339,-0.084 -1.314,-0.084 -1.314,-0.084 -1.314,-0.078 -1.315,-0.084 -1.313,-0.077 -1.314,-0.077 -1.314,-0.077 -1.314,-0.071 -1.339,-0.077 -1.315,-0.07 -1.313,-0.07 -1.315,-0.071 -1.314,-0.07 -1.314,-0.063 -1.314,-0.07 -1.314,-0.062 -1.315,-0.064 -1.339,-0.063 -1.313,-0.057 -1.315,-0.062 -1.313,-0.057 -1.315,-0.056 -1.314,-0.056 -1.314,-0.056 -1.314,-0.049 -1.314,-0.056 -1.338,-0.049 -1.315,-0.049 -1.314,-0.05 -1.314,-0.042 -1.315,-0.049 -1.314,-0.042 -1.313,-0.042 -1.315,-0.043 -2.741,-0.078" /></g><text
       id="text34"
       style="font-variant:normal;font-weight:normal;font-stretch:normal;font-size:9.99969959px;font-family:Tahoma;-inkscape-font-specification:Tahoma;writing-mode:lr-tb;fill:#231f20;fill-opacity:1;fill-rule:nonzero;stroke:none"
       transform="matrix(1,0,0,-1,381.9956,103.5825)"><tspan
         id="tspan32"
         y="0"
         x="0">z</tspan></text>
<g
       transform="translate(358.543,114.8608)"
       id="g36"><path
         id="path38"
         style="fill:none;stroke:#231f20;stroke-width:0.56699997;stroke-linecap:butt;stroke-linejoin:miter;stroke-miterlimit:22.9260006;stroke-dasharray:none;stroke-opacity:1"
         d="M 0,0 H 23.552" /></g><g
       transform="translate(388.7344,114.8608)"
       id="g40"><path
         id="path42"
         style="fill:#231f20;fill-opacity:1;fill-rule:evenodd;stroke:none"
         d="M 0,0 -3.319,-0.862 -6.64,-1.725 V 0 1.725 l 3.321,-0.862 z" /></g><g
       transform="translate(76.7676,125.4907)"
       id="g44"><path
         id="path46"
         style="fill:none;stroke:#231f20;stroke-width:1.59399998;stroke-linecap:butt;stroke-linejoin:round;stroke-miterlimit:10;stroke-dasharray:none;stroke-opacity:1"
         d="m 0,0 1.312,-0.126 1.313,-0.127 1.312,-0.126 1.312,-0.12 1.312,-0.119 1.313,-0.126 1.312,-0.119 1.336,-0.119 1.312,-0.113 1.312,-0.119 1.313,-0.112 1.312,-0.112 1.312,-0.113 1.313,-0.113 1.312,-0.105 1.312,-0.111 1.336,-0.106 1.312,-0.105 1.313,-0.105 1.312,-0.098 1.312,-0.105 1.313,-0.099 1.312,-0.098 1.312,-0.099 1.312,-0.097 1.337,-0.092 1.311,-0.098 1.313,-0.091 1.312,-0.092 1.313,-0.091 1.312,-0.084 1.312,-0.091 1.312,-0.085 1.337,-0.084 1.312,-0.084 1.312,-0.084 1.313,-0.077 1.312,-0.084 1.312,-0.077 1.312,-0.077 1.312,-0.078 1.312,-0.07 1.337,-0.078 1.312,-0.069 1.313,-0.071 1.312,-0.07 1.312,-0.07 1.312,-0.063 1.313,-0.071 1.311,-0.063 1.314,-0.063 1.336,-0.063 1.312,-0.056 1.312,-0.063 1.313,-0.056 1.312,-0.057 1.312,-0.056 1.312,-0.056 1.312,-0.049 1.312,-0.056 1.337,-0.049 1.312,-0.049 1.313,-0.049 1.312,-0.042 1.312,-0.05 1.312,-0.041 1.312,-0.043 1.313,-0.042 1.312,-0.042 1.336,-0.035 1.313,-0.042 1.312,-0.035 1.312,-0.035 1.312,-0.035 1.312,-0.028 1.313,-0.035 1.312,-0.028 1.337,-0.028 1.312,-0.029 1.312,-0.027 1.313,-0.021 1.312,-0.029 1.312,-0.021 1.312,-0.021 1.312,-0.021 1.312,-0.013 1.337,-0.021 1.312,-0.015 1.312,-0.014 1.313,-0.014 1.312,-0.014 1.312,-0.006 1.312,-0.015 1.312,-0.006 1.312,-0.008 1.337,-0.007 h 1.313 l 1.312,-0.007 h 1.312 1.312 1.312 1.313" /></g><g
       transform="translate(251.793,119.645)"
       id="g48"><path
         id="path50"
         style="fill:none;stroke:#231f20;stroke-width:1.59399998;stroke-linecap:butt;stroke-linejoin:round;stroke-miterlimit:10;stroke-dasharray:none;stroke-opacity:1"
         d="m 0,0 -1.471,-0.034 -1.312,-0.035 -1.313,-0.035 -1.311,-0.028 -1.313,-0.035 -1.312,-0.028 -1.337,-0.029 -1.312,-0.027 -1.312,-0.029 -1.313,-0.021 -1.312,-0.028 -1.312,-0.021 -1.312,-0.021 -1.313,-0.021 -1.312,-0.014 -1.336,-0.021 -1.313,-0.014 -1.312,-0.014 -1.313,-0.014 -1.311,-0.014 -1.313,-0.007 -1.311,-0.014 -1.313,-0.007 -1.311,-0.007 -1.338,-0.007 h -1.313 l -1.311,-0.007 h -1.313 -1.311 -1.313 -1.311" /></g><g
       transform="translate(344.9971,125.4907)"
       id="g52"><path
         id="path54"
         style="fill:none;stroke:#231f20;stroke-width:1.59399998;stroke-linecap:butt;stroke-linejoin:round;stroke-miterlimit:10;stroke-dasharray:none;stroke-opacity:1"
         d="m 0,0 -1.313,-0.126 -1.312,-0.127 -1.312,-0.126 -1.312,-0.12 -1.313,-0.118 -1.312,-0.127 -1.312,-0.119 -1.336,-0.119 -1.313,-0.113 -1.311,-0.119 -1.313,-0.112 -1.312,-0.112 -1.313,-0.112 -1.312,-0.113 -1.312,-0.106 -1.313,-0.111 -1.335,-0.106 -1.313,-0.105 -1.312,-0.105 -1.312,-0.098 -1.312,-0.105 -1.313,-0.099 -1.312,-0.099 -1.312,-0.098 -1.312,-0.097 -1.337,-0.092 -1.313,-0.098 -1.311,-0.091 -1.313,-0.092 -0.922,-0.069" /></g><g
       transform="translate(75.2847,104.2305)"
       id="g56"><path
         id="path58"
         style="fill:none;stroke:#231f20;stroke-width:1.59500003;stroke-linecap:butt;stroke-linejoin:round;stroke-miterlimit:10;stroke-dasharray:none;stroke-opacity:1"
         d="m 0,0 1.329,-0.126 1.328,-0.127 1.329,-0.126 1.328,-0.119 1.329,-0.119 1.329,-0.126 1.328,-0.119 1.354,-0.12 1.328,-0.113 1.329,-0.119 1.329,-0.111 1.328,-0.113 1.329,-0.112 1.328,-0.113 1.329,-0.106 1.329,-0.111 1.353,-0.105 1.329,-0.106 1.328,-0.105 1.329,-0.098 1.329,-0.105 1.329,-0.098 1.328,-0.099 1.329,-0.098 1.328,-0.098 1.354,-0.092 1.329,-0.098 1.328,-0.09 1.328,-0.092 1.33,-0.091 1.328,-0.084 1.328,-0.092 1.329,-0.085 1.353,-0.084 1.329,-0.084 1.329,-0.084 1.328,-0.077 1.329,-0.084 1.329,-0.077 1.328,-0.077 1.329,-0.078 1.329,-0.07 1.353,-0.077 1.328,-0.071 1.329,-0.069 1.329,-0.071 1.329,-0.07 1.328,-0.062 1.329,-0.071 1.329,-0.063 1.329,-0.064 1.353,-0.063 1.328,-0.056 1.329,-0.062 1.329,-0.057 1.328,-0.057 1.329,-0.055 1.329,-0.056 1.329,-0.049 1.328,-0.056 1.353,-0.049 1.329,-0.05 1.329,-0.049 1.329,-0.042 1.328,-0.05 1.329,-0.042 1.328,-0.042 1.329,-0.042 1.329,-0.042 1.353,-0.034 1.328,-0.043 1.329,-0.035 1.328,-0.035 1.33,-0.035 1.328,-0.028 1.329,-0.035 1.328,-0.028 1.353,-0.028 1.33,-0.028 1.328,-0.028 1.329,-0.021 1.328,-0.029 1.329,-0.02 1.329,-0.022 1.328,-0.02 1.329,-0.014 1.353,-0.021 1.329,-0.014 1.329,-0.015 1.328,-0.013 1.329,-0.014 1.328,-0.007 1.33,-0.015 1.328,-0.006 1.328,-0.007 1.354,-0.007 h 1.328 l 1.329,-0.008 h 1.329 1.328 1.329 1.328" /></g><g
       transform="translate(252.7188,98.4385)"
       id="g60"><path
         id="path62"
         style="fill:none;stroke:#231f20;stroke-width:1.59399998;stroke-linecap:butt;stroke-linejoin:round;stroke-miterlimit:10;stroke-dasharray:none;stroke-opacity:1"
         d="m 0,0 -2.144,-0.088 -1.313,-0.035 -1.314,-0.035 -1.315,-0.028 -1.313,-0.035 -1.315,-0.028 -1.339,-0.028 -1.313,-0.028 -1.315,-0.028 -1.314,-0.021 -1.315,-0.029 -1.313,-0.02 -1.314,-0.022 -1.314,-0.02 -1.314,-0.014 -1.339,-0.021 -1.314,-0.014 -1.314,-0.014 -1.315,-0.014 -1.313,-0.014 -1.315,-0.007 -1.314,-0.015 -1.315,-0.006 -1.313,-0.007 -1.339,-0.007 h -1.314 l -1.315,-0.008 h -1.312 -1.316 -1.313 -1.315" /></g><g
       transform="translate(346.8496,104.3516)"
       id="g64"><path
         id="path66"
         style="fill:none;stroke:#231f20;stroke-width:1.59399998;stroke-linecap:butt;stroke-linejoin:round;stroke-miterlimit:10;stroke-dasharray:none;stroke-opacity:1"
         d="m 0,0 -1.365,-0.131 -1.364,-0.131 -1.365,-0.132 -1.364,-0.123 -1.365,-0.124 -1.365,-0.131 -1.364,-0.124 -1.39,-0.124 -1.365,-0.116 -1.364,-0.124 -1.365,-0.116 -1.364,-0.117 -1.365,-0.116 -1.364,-0.117 -1.365,-0.11 -1.364,-0.116 -1.39,-0.11 -1.365,-0.109 -1.365,-0.109 -1.365,-0.103 -1.364,-0.108 -1.364,-0.103 -1.365,-0.102 -1.365,-0.102 -1.364,-0.101 -1.391,-0.095 -1.364,-0.103 -1.364,-0.094 -0.768,-0.053" /></g><g
       transform="translate(253.0313,91.2842)"
       id="g68"><path
         id="path70"
         style="fill:none;stroke:#231f20;stroke-width:0.70899999;stroke-linecap:butt;stroke-linejoin:miter;stroke-miterlimit:22.9260006;stroke-dasharray:none;stroke-opacity:1"
         d="M 0,0 -1.553,35.561" /></g><g
       transform="translate(308.4199,93.9932)"
       id="g72"><path
         id="path74"
         style="fill:none;stroke:#231f20;stroke-width:0.70899999;stroke-linecap:butt;stroke-linejoin:miter;stroke-miterlimit:22.9260006;stroke-dasharray:none;stroke-opacity:1"
         d="M 0,0 -3.102,35.46" /></g><g
       transform="translate(110.834,81.8115)"
       id="g76"><path
         id="path78"
         style="fill:#bdbcbc;fill-opacity:1;fill-rule:evenodd;stroke:none"
         d="m 0,0 9.198,-0.626 4.066,59.77 -9.198,0.625 z" /></g><g
       transform="translate(110.834,81.8115)"
       id="g80"><path
         id="path82"
         style="fill:none;stroke:#231f20;stroke-width:0.56699997;stroke-linecap:butt;stroke-linejoin:miter;stroke-miterlimit:22.9260006;stroke-dasharray:none;stroke-opacity:1"
         d="m 0,0 9.198,-0.626 4.066,59.77 -9.198,0.625 z" /></g><g
       transform="translate(158.2656,79.3057)"
       id="g84"><path
         id="path86"
         style="fill:#bdbcbc;fill-opacity:1;fill-rule:evenodd;stroke:none"
         d="m 0,0 9.213,-0.304 1.984,60.031 -9.214,0.304 z" /></g><g
       transform="translate(158.2656,79.3057)"
       id="g88"><path
         id="path90"
         style="fill:none;stroke:#231f20;stroke-width:0.56699997;stroke-linecap:butt;stroke-linejoin:miter;stroke-miterlimit:22.9260006;stroke-dasharray:none;stroke-opacity:1"
         d="m 0,0 9.213,-0.304 1.984,60.031 -9.214,0.304 z" /></g><g
       transform="translate(60.9478,114.8613)"
       id="g92"><path
         id="path94"
         style="fill:none;stroke:#231f20;stroke-width:0.56699997;stroke-linecap:butt;stroke-linejoin:miter;stroke-miterlimit:22.9260006;stroke-dasharray:8.504, 5.669, 1.134, 5.102;stroke-dashoffset:0;stroke-opacity:1"
         d="M 0,0 H 294.193" /></g><g
       transform="translate(280.7646,76.4766)"
       id="g96"><path
         id="path98"
         style="fill:none;stroke:#231f20;stroke-width:0.56699997;stroke-linecap:butt;stroke-linejoin:miter;stroke-miterlimit:22.9260006;stroke-dasharray:none;stroke-opacity:1"
         d="M 0,0 -0.541,26.225" /></g><g
       transform="translate(259.3486,161.1367)"
       id="g100"><path
         id="path102"
         style="fill:none;stroke:#231f20;stroke-width:0.56699997;stroke-linecap:butt;stroke-linejoin:miter;stroke-miterlimit:22.9260006;stroke-dasharray:none;stroke-opacity:1"
         d="M 0,0 -23.599,-48.103" /></g><g
       transform="translate(141.5454,71.4219)"
       id="g104"><path
         id="path106"
         style="fill:none;stroke:#231f20;stroke-width:0.56699997;stroke-linecap:butt;stroke-linejoin:miter;stroke-miterlimit:22.9260006;stroke-dasharray:none;stroke-opacity:1"
         d="M 0,0 -25.188,18.823" /></g><g
       transform="translate(141.5454,71.4219)"
       id="g108"><path
         id="path110"
         style="fill:none;stroke:#231f20;stroke-width:0.56699997;stroke-linecap:butt;stroke-linejoin:miter;stroke-miterlimit:22.9260006;stroke-dasharray:none;stroke-opacity:1"
         d="M 0,0 21.576,19.93" /></g><g
       id="g112"><g
         clip-path="url(#clipPath118)"
         id="g114"><g
           transform="translate(163.1216,89.6904)"
           id="g120"><path
             id="path122"
             style="fill:#231f20;fill-opacity:1;fill-rule:evenodd;stroke:none"
             d="M 0,0 C 0.915,0 1.661,0.746 1.661,1.661 1.661,2.576 0.915,3.322 0,3.322 -0.915,3.322 -1.661,2.576 -1.661,1.661 -1.661,0.746 -0.915,0 0,0" /></g><g
           transform="translate(163.1216,89.6904)"
           id="g124"><path
             id="path126"
             style="fill:none;stroke:#231f20;stroke-width:0.56699997;stroke-linecap:butt;stroke-linejoin:miter;stroke-miterlimit:22.9260006;stroke-dasharray:none;stroke-opacity:1"
             d="M 0,0 C 0.915,0 1.661,0.746 1.661,1.661 1.661,2.576 0.915,3.322 0,3.322 -0.915,3.322 -1.661,2.576 -1.661,1.661 -1.661,0.746 -0.915,0 0,0 Z" /></g><g
           transform="translate(280.2236,101.04)"
           id="g128"><path
             id="path130"
             style="fill:#231f20;fill-opacity:1;fill-rule:evenodd;stroke:none"
             d="m 0,0 c 0.915,0 1.661,0.746 1.661,1.661 0,0.914 -0.746,1.66 -1.661,1.66 -0.914,0 -1.66,-0.746 -1.66,-1.66 C -1.66,0.746 -0.914,0 0,0" /></g><g
           transform="translate(280.2236,101.04)"
           id="g132"><path
             id="path134"
             style="fill:none;stroke:#231f20;stroke-width:0.56699997;stroke-linecap:butt;stroke-linejoin:miter;stroke-miterlimit:22.9260006;stroke-dasharray:none;stroke-opacity:1"
             d="m 0,0 c 0.915,0 1.661,0.746 1.661,1.661 0,0.914 -0.746,1.66 -1.661,1.66 -0.914,0 -1.66,-0.746 -1.66,-1.66 C -1.66,0.746 -0.914,0 0,0 Z" /></g><g
           transform="translate(236.5322,112.6475)"
           id="g136"><path
             id="path138"
             style="fill:#231f20;fill-opacity:1;fill-rule:evenodd;stroke:none"
             d="m 0,0 c 0.703,-0.588 0.797,-1.635 0.209,-2.339 -0.588,-0.704 -1.635,-0.799 -2.339,-0.21 -0.704,0.588 -0.798,1.635 -0.21,2.34 C -1.752,0.494 -0.705,0.588 0,0" /></g><g
           transform="translate(236.5322,112.6475)"
           id="g140"><path
             id="path142"
             style="fill:none;stroke:#231f20;stroke-width:0.56699997;stroke-linecap:butt;stroke-linejoin:miter;stroke-miterlimit:22.9260006;stroke-dasharray:none;stroke-opacity:1"
             d="m 0,0 c 0.703,-0.588 0.797,-1.635 0.209,-2.339 -0.588,-0.704 -1.635,-0.799 -2.339,-0.21 -0.704,0.588 -0.798,1.635 -0.21,2.34 C -1.752,0.494 -0.705,0.588 0,0 Z" /></g><g
           transform="translate(116.3569,88.583)"
           id="g144"><path
             id="path146"
             style="fill:#231f20;fill-opacity:1;fill-rule:evenodd;stroke:none"
             d="m 0,0 c 0.915,0 1.661,0.746 1.661,1.662 0,0.914 -0.746,1.66 -1.661,1.66 -0.915,0 -1.661,-0.746 -1.661,-1.66 C -1.661,0.746 -0.915,0 0,0" /></g><g
           transform="translate(116.3569,88.583)"
           id="g148"><path
             id="path150"
             style="fill:none;stroke:#231f20;stroke-width:0.56699997;stroke-linecap:butt;stroke-linejoin:miter;stroke-miterlimit:22.9260006;stroke-dasharray:none;stroke-opacity:1"
             d="m 0,0 c 0.915,0 1.661,0.746 1.661,1.662 0,0.914 -0.746,1.66 -1.661,1.66 -0.915,0 -1.661,-0.746 -1.661,-1.66 C -1.661,0.746 -0.915,0 0,0 Z" /></g><g
           transform="translate(75.2847,51.6689)"
           id="g152"><path
             id="path154"
             style="fill:none;stroke:#231f20;stroke-width:0.70899999;stroke-linecap:butt;stroke-linejoin:miter;stroke-miterlimit:22.9260006;stroke-dasharray:none;stroke-opacity:1"
             d="M 0,0 V 11.293 L -7.018,14.628 7.016,18.691 -7.018,22.755 7.016,26.818 -7.018,30.881 7.016,34.943 0,37.984 v 11.389" /></g><g
           transform="translate(75.1001,51.4385)"
           id="g156"><path
             id="path158"
             style="fill:none;stroke:#231f20;stroke-width:0.56699997;stroke-linecap:butt;stroke-linejoin:miter;stroke-miterlimit:22.9260006;stroke-dasharray:none;stroke-opacity:1"
             d="M 0,0 -4.722,-5.812" /></g><g
           transform="translate(82.7363,51.4424)"
           id="g160"><path
             id="path162"
             style="fill:none;stroke:#231f20;stroke-width:0.56699997;stroke-linecap:butt;stroke-linejoin:miter;stroke-miterlimit:22.9260006;stroke-dasharray:none;stroke-opacity:1"
             d="M 0,0 -4.722,-5.813" /></g><g
           transform="translate(89.9272,51.4424)"
           id="g164"><path
             id="path166"
             style="fill:none;stroke:#231f20;stroke-width:0.56699997;stroke-linecap:butt;stroke-linejoin:miter;stroke-miterlimit:22.9260006;stroke-dasharray:none;stroke-opacity:1"
             d="M 0,0 -4.722,-5.813" /></g><g
           transform="translate(68.0864,51.3643)"
           id="g168"><path
             id="path170"
             style="fill:none;stroke:#231f20;stroke-width:0.56699997;stroke-linecap:butt;stroke-linejoin:miter;stroke-miterlimit:22.9260006;stroke-dasharray:none;stroke-opacity:1"
             d="M 0,0 -4.722,-5.813" /></g><g
           transform="translate(61.4565,51.4424)"
           id="g172"><path
             id="path174"
             style="fill:none;stroke:#231f20;stroke-width:0.56699997;stroke-linecap:butt;stroke-linejoin:miter;stroke-miterlimit:22.9260006;stroke-dasharray:none;stroke-opacity:1"
             d="M 0,0 -4.722,-5.813" /></g><g
           transform="translate(59.6958,51.668)"
           id="g176"><path
             id="path178"
             style="fill:none;stroke:#231f20;stroke-width:0.70899999;stroke-linecap:butt;stroke-linejoin:miter;stroke-miterlimit:22.9260006;stroke-dasharray:none;stroke-opacity:1"
             d="M 0,0 H 31.178" /></g><g
           transform="translate(346.8496,51.79)"
           id="g180"><path
             id="path182"
             style="fill:none;stroke:#231f20;stroke-width:0.70899999;stroke-linecap:butt;stroke-linejoin:miter;stroke-miterlimit:22.9260006;stroke-dasharray:none;stroke-opacity:1"
             d="M 0,0 V 11.293 L -7.018,14.629 7.016,18.691 -7.018,22.755 7.016,26.818 -7.018,30.881 7.016,34.944 0,37.984 v 11.389" /></g><g
           transform="translate(346.665,51.5596)"
           id="g184"><path
             id="path186"
             style="fill:none;stroke:#231f20;stroke-width:0.56699997;stroke-linecap:butt;stroke-linejoin:miter;stroke-miterlimit:22.9260006;stroke-dasharray:none;stroke-opacity:1"
             d="M 0,0 -4.723,-5.812" /></g><g
           transform="translate(354.3008,51.5635)"
           id="g188"><path
             id="path190"
             style="fill:none;stroke:#231f20;stroke-width:0.56699997;stroke-linecap:butt;stroke-linejoin:miter;stroke-miterlimit:22.9260006;stroke-dasharray:none;stroke-opacity:1"
             d="M 0,0 -4.722,-5.813" /></g><g
           transform="translate(361.4922,51.5635)"
           id="g192"><path
             id="path194"
             style="fill:none;stroke:#231f20;stroke-width:0.56699997;stroke-linecap:butt;stroke-linejoin:miter;stroke-miterlimit:22.9260006;stroke-dasharray:none;stroke-opacity:1"
             d="M 0,0 -4.723,-5.813" /></g><g
           transform="translate(339.6514,51.4854)"
           id="g196"><path
             id="path198"
             style="fill:none;stroke:#231f20;stroke-width:0.56699997;stroke-linecap:butt;stroke-linejoin:miter;stroke-miterlimit:22.9260006;stroke-dasharray:none;stroke-opacity:1"
             d="M 0,0 -4.723,-5.812" /></g><g
           transform="translate(333.0215,51.5635)"
           id="g200"><path
             id="path202"
             style="fill:none;stroke:#231f20;stroke-width:0.56699997;stroke-linecap:butt;stroke-linejoin:miter;stroke-miterlimit:22.9260006;stroke-dasharray:none;stroke-opacity:1"
             d="M 0,0 -4.723,-5.813" /></g><g
           transform="translate(331.2607,51.7891)"
           id="g204"><path
             id="path206"
             style="fill:none;stroke:#231f20;stroke-width:0.70899999;stroke-linecap:butt;stroke-linejoin:miter;stroke-miterlimit:22.9260006;stroke-dasharray:none;stroke-opacity:1"
             d="M 0,0 H 31.178" /></g><g
           transform="translate(346.8496,101.1631)"
           id="g208"><path
             id="path210"
             style="fill:#ffffff;fill-opacity:1;fill-rule:evenodd;stroke:none"
             d="M 0,0 C 0.878,0 1.594,0.717 1.594,1.595 1.594,2.473 0.878,3.188 0,3.188 -0.878,3.188 -1.595,2.473 -1.595,1.595 -1.595,0.717 -0.878,0 0,0" /></g><g
           transform="translate(346.8496,101.1631)"
           id="g212"><path
             id="path214"
             style="fill:none;stroke:#231f20;stroke-width:0.70899999;stroke-linecap:butt;stroke-linejoin:miter;stroke-miterlimit:22.9260006;stroke-dasharray:none;stroke-opacity:1"
             d="M 0,0 C 0.878,0 1.594,0.717 1.594,1.595 1.594,2.473 0.878,3.188 0,3.188 -0.878,3.188 -1.595,2.473 -1.595,1.595 -1.595,0.717 -0.878,0 0,0 Z" /></g><g
           transform="translate(76.0259,117.8628)"
           id="g216"><path
             id="path218"
             style="fill:none;stroke:#231f20;stroke-width:0.56699997;stroke-linecap:butt;stroke-linejoin:miter;stroke-miterlimit:22.9260006;stroke-dasharray:none;stroke-opacity:1"
             d="M 0,0 V 23.552" /></g><g
           transform="translate(76.0259,148.0547)"
           id="g220"><path
             id="path222"
             style="fill:#231f20;fill-opacity:1;fill-rule:evenodd;stroke:none"
             d="M 0,0 0.863,-3.32 1.725,-6.64 H 0 -1.725 l 0.863,3.32 z" /></g></g></g><text
       id="text226"
       style="font-variant:normal;font-weight:normal;font-stretch:normal;font-size:9.99969959px;font-family:Tahoma;-inkscape-font-specification:Tahoma;writing-mode:lr-tb;fill:#231f20;fill-opacity:1;fill-rule:nonzero;stroke:none"
       transform="matrix(1,0,0,-1,67.9126,141.2378)"><tspan
         id="tspan224"
         y="0"
         x="0">y</tspan></text>
<g
       id="g228"><g
         clip-path="url(#clipPath234)"
         id="g230"><g
           transform="translate(75.2852,101.042)"
           id="g236"><path
             id="path238"
             style="fill:#ffffff;fill-opacity:1;fill-rule:evenodd;stroke:none"
             d="M 0,0 C 0.878,0 1.594,0.717 1.594,1.594 1.594,2.473 0.878,3.188 0,3.188 -0.878,3.188 -1.595,2.473 -1.595,1.594 -1.595,0.717 -0.878,0 0,0" /></g><g
           transform="translate(75.2852,101.042)"
           id="g240"><path
             id="path242"
             style="fill:none;stroke:#231f20;stroke-width:0.70899999;stroke-linecap:butt;stroke-linejoin:miter;stroke-miterlimit:22.9260006;stroke-dasharray:none;stroke-opacity:1"
             d="M 0,0 C 0.878,0 1.594,0.717 1.594,1.594 1.594,2.473 0.878,3.188 0,3.188 -0.878,3.188 -1.595,2.473 -1.595,1.594 -1.595,0.717 -0.878,0 0,0 Z" /></g><g
           transform="translate(394.6875,114.8608)"
           id="g244"><path
             id="path246"
             style="fill:none;stroke:#231f20;stroke-width:0.56699997;stroke-linecap:butt;stroke-linejoin:miter;stroke-miterlimit:22.9260006;stroke-dasharray:none;stroke-opacity:1"
             d="M 0,0 H 14.28" /></g><g
           transform="translate(412.2881,114.8608)"
           id="g248"><path
             id="path250"
             style="fill:#231f20;fill-opacity:1;fill-rule:evenodd;stroke:none"
             d="M 0,0 -1.66,-0.862 -3.32,-1.725 V 0 1.725 l 1.66,-0.862 z" /></g><g
           transform="translate(415.6074,114.8608)"
           id="g252"><path
             id="path254"
             style="fill:#231f20;fill-opacity:1;fill-rule:evenodd;stroke:none"
             d="M 0,0 -1.66,-0.862 -3.319,-1.725 V 0 1.725 L -1.66,0.863 Z" /></g><g
           transform="translate(76.0264,111.9102)"
           id="g256"><path
             id="path258"
             style="fill:#ffffff;fill-opacity:1;fill-rule:evenodd;stroke:none"
             d="M 0,0 C 1.639,0 2.977,1.337 2.977,2.977 2.977,4.616 1.639,5.953 0,5.953 -1.639,5.953 -2.976,4.616 -2.976,2.977 -2.976,1.337 -1.639,0 0,0" /></g><g
           transform="translate(76.0264,111.9102)"
           id="g260"><path
             id="path262"
             style="fill:none;stroke:#231f20;stroke-width:0.56699997;stroke-linecap:butt;stroke-linejoin:miter;stroke-miterlimit:22.9260006;stroke-dasharray:none;stroke-opacity:1"
             d="M 0,0 C 1.639,0 2.977,1.337 2.977,2.977 2.977,4.616 1.639,5.953 0,5.953 -1.639,5.953 -2.976,4.616 -2.976,2.977 -2.976,1.337 -1.639,0 0,0 Z" /></g><g
           transform="translate(73.9019,112.7739)"
           id="g264"><path
             id="path266"
             style="fill:none;stroke:#231f20;stroke-width:0.56699997;stroke-linecap:butt;stroke-linejoin:miter;stroke-miterlimit:22.9260006;stroke-dasharray:none;stroke-opacity:1"
             d="M 0,0 4.251,4.166" /></g><g
           transform="translate(73.9424,116.9834)"
           id="g268"><path
             id="path270"
             style="fill:none;stroke:#231f20;stroke-width:0.56699997;stroke-linecap:butt;stroke-linejoin:miter;stroke-miterlimit:22.9260006;stroke-dasharray:none;stroke-opacity:1"
             d="M 0,0 4.166,-4.251" /></g></g></g><text
       id="text284"
       style="font-variant:normal;font-weight:normal;font-stretch:normal;font-size:9.99969959px;font-family:Tahoma;-inkscape-font-specification:Tahoma;writing-mode:lr-tb;fill:#231f20;fill-opacity:1;fill-rule:nonzero;stroke:none"
       transform="matrix(1,0,0,-1,111.1489,52.8867)"><tspan
         id="tspan272"
         y="0"
         x="0 5.5898323 10.199694 15.729528 23.149305 28.729137 34.308971 39.838806 44.298672 48.908531 54.488365 59.748207 62.028137 67.557976 72.817818">Schwungscheiben</tspan><tspan
         id="tspan274"
         y="13.99958"
         x="25.239243 29.069128 33.528996 36.868893 42.118736 45.718628 49.31852">(starr)</tspan><tspan
         id="tspan276"
         y="-127.74617"
         x="138.06586 146.71559 151.97543 154.28537 156.56531">Welle</tspan><tspan
         id="tspan278"
         y="-113.74659"
         x="127.35618 131.18607 136.44591 138.72585 143.97568 148.43555 151.77545 154.06538 158.52524 163.1351 168.71494">(elastisch)</tspan><tspan
         id="tspan280"
         y="-8.9997301"
         x="140.40579 148.10556 152.33543 155.87532 161.46515 166.07501 171.64485 176.90469 179.18463 184.71446">ML-Scheibe</tspan><tspan
         id="tspan282"
         y="4.9998498"
         x="142.60573 146.43561 151.69545 153.97539 159.22522 163.68509 167.02499 169.31493 173.77478 178.38464 183.96448">(elastisch)</tspan></text>
<text
       id="text288"
       style="font-style:italic;font-variant:normal;font-weight:normal;font-stretch:normal;font-size:11.99969959px;font-family:'Times New Roman';-inkscape-font-specification:TimesNewRomanPS-ItalicMT;writing-mode:lr-tb;fill:#231f20;fill-opacity:1;fill-rule:nonzero;stroke:none"
       transform="matrix(1,0,0,-1,401.0103,117.8633)"><tspan
         id="tspan286"
         y="0"
         x="0">Ω</tspan></text>
<text
       id="text292"
       style="font-variant:normal;font-weight:normal;font-stretch:normal;font-size:9.99969959px;font-family:Tahoma;-inkscape-font-specification:Tahoma;writing-mode:lr-tb;fill:#231f20;fill-opacity:1;fill-rule:nonzero;stroke:none"
       transform="matrix(1,0,0,-1,66.8735,119.645)"><tspan
         id="tspan290"
         y="0"
         x="0">x</tspan></text>
<g
       id="g294"><g
         clip-path="url(#clipPath300)"
         id="g296"><g
           transform="translate(51.7744,81.7998)"
           id="g302"><path
             id="path304"
             style="fill:#ffffff;fill-opacity:1;fill-rule:nonzero;stroke:none"
             d="m 0,0 c 0,-6.262 -5.077,-11.339 -11.339,-11.339 -6.262,0 -11.339,5.077 -11.339,11.339 0,6.262 5.077,11.339 11.339,11.339 C -5.077,11.339 0,6.262 0,0" /></g><g
           transform="translate(51.7744,81.7998)"
           id="g306"><path
             id="path308"
             style="fill:none;stroke:#231f20;stroke-width:0.5;stroke-linecap:butt;stroke-linejoin:miter;stroke-miterlimit:10;stroke-dasharray:none;stroke-opacity:1"
             d="m 0,0 c 0,-6.262 -5.077,-11.339 -11.339,-11.339 -6.262,0 -11.339,5.077 -11.339,11.339 0,6.262 5.077,11.339 11.339,11.339 C -5.077,11.339 0,6.262 0,0 Z" /></g><g
           transform="translate(40.4351,70.4609)"
           id="g310"><path
             id="path312"
             style="fill:none;stroke:#231f20;stroke-width:0.5;stroke-linecap:butt;stroke-linejoin:miter;stroke-miterlimit:10;stroke-dasharray:none;stroke-opacity:1"
             d="M 0,0 V -17.574" /></g><g
           transform="translate(40.4351,93.1387)"
           id="g314"><path
             id="path316"
             style="fill:none;stroke:#231f20;stroke-width:0.5;stroke-linecap:butt;stroke-linejoin:miter;stroke-miterlimit:10;stroke-dasharray:none;stroke-opacity:1"
             d="M 0,0 V 10.223" /></g><g
           transform="translate(40.4351,103.3613)"
           id="g318"><path
             id="path320"
             style="fill:none;stroke:#231f20;stroke-width:0.5;stroke-linecap:butt;stroke-linejoin:miter;stroke-miterlimit:10;stroke-dasharray:none;stroke-opacity:1"
             d="M 0,0 H 34.309" /></g><g
           transform="translate(27.0469,71.9873)"
           id="g322"><path
             id="path324"
             style="fill:none;stroke:#231f20;stroke-width:0.5;stroke-linecap:butt;stroke-linejoin:miter;stroke-miterlimit:10;stroke-dasharray:none;stroke-opacity:1"
             d="M 0,0 24.343,17.842" /></g><g
           transform="translate(53.8232,91.6133)"
           id="g326"><path
             id="path328"
             style="fill:#231f20;fill-opacity:1;fill-rule:nonzero;stroke:none"
             d="m 0,0 c -0.834,-1.265 -1.723,-3.03 -2.041,-4.444 l -0.712,2.425 -2.1,1.411 C -3.409,-0.731 -1.457,-0.415 0,0" /></g></g></g><text
       id="text332"
       style="font-variant:normal;font-weight:normal;font-stretch:normal;font-size:9.99969959px;font-family:Tahoma;-inkscape-font-specification:Tahoma;writing-mode:lr-tb;fill:#231f20;fill-opacity:1;fill-rule:nonzero;stroke:none"
       transform="matrix(1,0,0,-1,9.8125,29.2905)"><tspan
         id="tspan330"
         y="0"
         x="0 5.8798237 9.309721 14.559564 17.739468 21.079367 29.479116 34.738956 39.198826 43.658691 49.238522 54.818356">Kraftmessung</tspan></text>
<g
       id="g334"><g
         clip-path="url(#clipPath340)"
         id="g336"><g
           transform="translate(382.9736,81.1963)"
           id="g342"><path
             id="path344"
             style="fill:#ffffff;fill-opacity:1;fill-rule:nonzero;stroke:none"
             d="m 0,0 c 0,-6.262 -5.077,-11.339 -11.34,-11.339 -6.262,0 -11.338,5.077 -11.338,11.339 0,6.262 5.076,11.339 11.338,11.339 C -5.077,11.339 0,6.262 0,0" /></g><g
           transform="translate(382.9736,81.1963)"
           id="g346"><path
             id="path348"
             style="fill:none;stroke:#231f20;stroke-width:0.5;stroke-linecap:butt;stroke-linejoin:miter;stroke-miterlimit:10;stroke-dasharray:none;stroke-opacity:1"
             d="m 0,0 c 0,-6.262 -5.077,-11.339 -11.34,-11.339 -6.262,0 -11.338,5.077 -11.338,11.339 0,6.262 5.076,11.339 11.338,11.339 C -5.077,11.339 0,6.262 0,0 Z" /></g><g
           transform="translate(371.6338,69.8574)"
           id="g350"><path
             id="path352"
             style="fill:none;stroke:#231f20;stroke-width:0.5;stroke-linecap:butt;stroke-linejoin:miter;stroke-miterlimit:10;stroke-dasharray:none;stroke-opacity:1"
             d="M 0,0 V -17.574" /></g><g
           transform="translate(371.6338,92.5352)"
           id="g354"><path
             id="path356"
             style="fill:none;stroke:#231f20;stroke-width:0.5;stroke-linecap:butt;stroke-linejoin:miter;stroke-miterlimit:10;stroke-dasharray:none;stroke-opacity:1"
             d="M 0,0 V 10.223" /></g><g
           transform="translate(371.6348,102.7578)"
           id="g358"><path
             id="path360"
             style="fill:none;stroke:#231f20;stroke-width:0.5;stroke-linecap:butt;stroke-linejoin:miter;stroke-miterlimit:10;stroke-dasharray:none;stroke-opacity:1"
             d="M 0,0 H -24.785" /></g><g
           transform="translate(358.2461,71.3838)"
           id="g362"><path
             id="path364"
             style="fill:none;stroke:#231f20;stroke-width:0.5;stroke-linecap:butt;stroke-linejoin:miter;stroke-miterlimit:10;stroke-dasharray:none;stroke-opacity:1"
             d="M 0,0 24.343,17.842" /></g><g
           transform="translate(385.0225,91.0098)"
           id="g366"><path
             id="path368"
             style="fill:#231f20;fill-opacity:1;fill-rule:nonzero;stroke:none"
             d="m 0,0 c -0.834,-1.265 -1.723,-3.03 -2.041,-4.444 l -0.713,2.426 -2.099,1.41 C -3.408,-0.731 -1.457,-0.415 0,0" /></g><path
           id="path370"
           style="fill:#abaaaa;fill-opacity:1;fill-rule:evenodd;stroke:#231f20;stroke-width:0.56699997;stroke-linecap:butt;stroke-linejoin:miter;stroke-miterlimit:22.9260006;stroke-dasharray:none;stroke-opacity:1"
           d="m 198.849,129.639 h -3.5 v 31.498 h 3.5 z" /><g
           transform="translate(169.4624,175.8867)"
           id="g372"><path
             id="path374"
             style="fill:none;stroke:#231f20;stroke-width:0.56699997;stroke-linecap:butt;stroke-linejoin:miter;stroke-miterlimit:22.9260006;stroke-dasharray:none;stroke-opacity:1"
             d="M 0,0 26.531,-23.218" /></g><g
           transform="translate(196.4136,154.0854)"
           id="g376"><path
             id="path378"
             style="fill:#231f20;fill-opacity:1;fill-rule:evenodd;stroke:none"
             d="M 0,0 C 0.704,-0.588 0.798,-1.635 0.21,-2.339 -0.378,-3.043 -1.426,-3.138 -2.129,-2.549 -2.833,-1.961 -2.928,-0.914 -2.34,-0.21 -1.752,0.494 -0.704,0.588 0,0" /></g><g
           transform="translate(196.4136,154.0854)"
           id="g380"><path
             id="path382"
             style="fill:none;stroke:#231f20;stroke-width:0.56699997;stroke-linecap:butt;stroke-linejoin:miter;stroke-miterlimit:22.9260006;stroke-dasharray:none;stroke-opacity:1"
             d="M 0,0 C 0.704,-0.588 0.798,-1.635 0.21,-2.339 -0.378,-3.043 -1.426,-3.138 -2.129,-2.549 -2.833,-1.961 -2.928,-0.914 -2.34,-0.21 -1.752,0.494 -0.704,0.588 0,0 Z" /></g></g></g><text
       id="text386"
       style="font-variant:normal;font-weight:normal;font-stretch:normal;font-size:9.99969959px;font-family:Tahoma;-inkscape-font-specification:Tahoma;writing-mode:lr-tb;fill:#231f20;fill-opacity:1;fill-rule:nonzero;stroke:none"
       transform="matrix(1,0,0,-1,98.0991,180.6367)"><tspan
         id="tspan384"
         y="0"
         x="0 5.9998202 11.529655 15.98952 19.32942 24.579262 30.159096 35.688931 40.148796 48.548542 53.808384 58.268253 62.728119 68.307953 73.887787">Abstandsmessung</tspan></text>
<g
       id="g388"><g
         clip-path="url(#clipPath394)"
         id="g390"><g
           transform="translate(197.0098,129.6387)"
           id="g396"><path
             id="path398"
             style="fill:none;stroke:#df1d25;stroke-width:0.5;stroke-linecap:butt;stroke-linejoin:miter;stroke-miterlimit:22.9260006;stroke-dasharray:none;stroke-opacity:1"
             d="M 0,0 V -0.5" /></g><g
           transform="translate(197.0098,128.2148)"
           id="g400"><path
             id="path402"
             style="fill:none;stroke:#df1d25;stroke-width:0.5;stroke-linecap:butt;stroke-linejoin:miter;stroke-miterlimit:22.9260006;stroke-dasharray:0.924, 0.924;stroke-dashoffset:0;stroke-opacity:1"
             d="M 0,0 V -5.08" /></g><g
           transform="translate(197.0098,122.6729)"
           id="g404"><path
             id="path406"
             style="fill:none;stroke:#df1d25;stroke-width:0.5;stroke-linecap:butt;stroke-linejoin:miter;stroke-miterlimit:22.9260006;stroke-dasharray:none;stroke-opacity:1"
             d="M 0,0 V -0.5" /></g><g
           transform="translate(197.0098,119.1553)"
           id="g408"><path
             id="path410"
             style="fill:#df1d25;fill-opacity:1;fill-rule:nonzero;stroke:none"
             d="M 0,0 C -0.527,1.42 -1.426,3.182 -2.378,4.273 L 0,3.414 2.377,4.273 C 1.425,3.182 0.526,1.42 0,0" /></g></g></g></g></svg>