<?xml version="1.0" encoding="UTF-8" standalone="no"?>
<svg
   xmlns:dc="http://purl.org/dc/elements/1.1/"
   xmlns:cc="http://creativecommons.org/ns#"
   xmlns:rdf="http://www.w3.org/1999/02/22-rdf-syntax-ns#"
   xmlns:svg="http://www.w3.org/2000/svg"
   xmlns="http://www.w3.org/2000/svg"
   viewBox="0 0 566.92932 188.976"
   height="188.976"
   width="566.92932"
   xml:space="preserve"
   id="svg2"
   version="1.1"><metadata
     id="metadata8"><rdf:RDF><cc:Work
         rdf:about=""><dc:format>image/svg+xml</dc:format><dc:type
           rdf:resource="http://purl.org/dc/dcmitype/StillImage" /></cc:Work></rdf:RDF></metadata><defs
     id="defs6"><clipPath
       id="clipPath86"
       clipPathUnits="userSpaceOnUse"><path
         id="path84"
         d="M 0,141.732 H 425.197 V 0 H 0 Z" /></clipPath><clipPath
       id="clipPath150"
       clipPathUnits="userSpaceOnUse"><path
         id="path148"
         d="M 0,141.732 H 425.197 V 0 H 0 Z" /></clipPath><clipPath
       id="clipPath180"
       clipPathUnits="userSpaceOnUse"><path
         id="path178"
         d="M 0,141.732 H 425.197 V 0 H 0 Z" /></clipPath><clipPath
       id="clipPath204"
       clipPathUnits="userSpaceOnUse"><path
         id="path202"
         d="M 0,141.732 H 425.197 V 0 H 0 Z" /></clipPath><clipPath
       id="clipPath232"
       clipPathUnits="userSpaceOnUse"><path
         id="path230"
         d="M 0,141.732 H 425.197 V 0 H 0 Z" /></clipPath><clipPath
       id="clipPath260"
       clipPathUnits="userSpaceOnUse"><path
         id="path258"
         d="M 0,141.732 H 425.197 V 0 H 0 Z" /></clipPath><clipPath
       id="clipPath304"
       clipPathUnits="userSpaceOnUse"><path
         id="path302"
         d="M 0,141.732 H 425.197 V 0 H 0 Z" /></clipPath></defs><g
     transform="matrix(1.3333333,0,0,-1.3333333,0,188.976)"
     id="g10"><g
       transform="translate(307.4541,55.5352)"
       id="g12"><path
         id="path14"
         style="fill:none;stroke:#231f20;stroke-width:0.5;stroke-linecap:butt;stroke-linejoin:miter;stroke-miterlimit:22.9260006;stroke-dasharray:none;stroke-opacity:1"
         d="M 0,0 -3.631,-3.63" /></g><g
       transform="translate(313.3257,55.5371)"
       id="g16"><path
         id="path18"
         style="fill:none;stroke:#231f20;stroke-width:0.5;stroke-linecap:butt;stroke-linejoin:miter;stroke-miterlimit:22.9260006;stroke-dasharray:none;stroke-opacity:1"
         d="M 0,0 -3.63,-3.631" /></g><g
       transform="translate(318.855,55.5371)"
       id="g20"><path
         id="path22"
         style="fill:none;stroke:#231f20;stroke-width:0.5;stroke-linecap:butt;stroke-linejoin:miter;stroke-miterlimit:22.9260006;stroke-dasharray:none;stroke-opacity:1"
         d="M 0,0 -3.631,-3.631" /></g><g
       transform="translate(302.063,55.4883)"
       id="g24"><path
         id="path26"
         style="fill:none;stroke:#231f20;stroke-width:0.5;stroke-linecap:butt;stroke-linejoin:miter;stroke-miterlimit:22.9260006;stroke-dasharray:none;stroke-opacity:1"
         d="M 0,0 -3.632,-3.63" /></g><g
       transform="translate(296.9648,55.5371)"
       id="g28"><path
         id="path30"
         style="fill:none;stroke:#231f20;stroke-width:0.5;stroke-linecap:butt;stroke-linejoin:miter;stroke-miterlimit:22.9260006;stroke-dasharray:none;stroke-opacity:1"
         d="M 0,0 -3.631,-3.631" /></g><text
       id="text34"
       style="font-variant:normal;font-weight:normal;font-stretch:normal;font-size:0.42269999px;font-family:Arial;-inkscape-font-specification:ArialMT;writing-mode:lr-tb;fill:#e9e9e9;fill-opacity:1;fill-rule:nonzero;stroke:none"
       transform="matrix(1,0,0,-1,319.5059,54.5596)"><tspan
         id="tspan32"
         y="0"
         x="0 0.2582697">FB</tspan></text>
<g
       transform="translate(107.8784,57.0752)"
       id="g36"><path
         id="path38"
         style="fill:none;stroke:#231f20;stroke-width:0.5;stroke-linecap:butt;stroke-linejoin:miter;stroke-miterlimit:22.9260006;stroke-dasharray:none;stroke-opacity:1"
         d="M 0,0 -3.63,-3.632" /></g><g
       transform="translate(113.7505,57.0762)"
       id="g40"><path
         id="path42"
         style="fill:none;stroke:#231f20;stroke-width:0.5;stroke-linecap:butt;stroke-linejoin:miter;stroke-miterlimit:22.9260006;stroke-dasharray:none;stroke-opacity:1"
         d="M 0,0 -3.631,-3.632" /></g><g
       transform="translate(119.2783,57.0762)"
       id="g44"><path
         id="path46"
         style="fill:none;stroke:#231f20;stroke-width:0.5;stroke-linecap:butt;stroke-linejoin:miter;stroke-miterlimit:22.9260006;stroke-dasharray:none;stroke-opacity:1"
         d="M 0,0 -3.63,-3.632" /></g><g
       transform="translate(102.4868,57.0273)"
       id="g48"><path
         id="path50"
         style="fill:none;stroke:#231f20;stroke-width:0.5;stroke-linecap:butt;stroke-linejoin:miter;stroke-miterlimit:22.9260006;stroke-dasharray:none;stroke-opacity:1"
         d="M 0,0 -3.631,-3.63" /></g><g
       transform="translate(97.3892,57.0762)"
       id="g52"><path
         id="path54"
         style="fill:none;stroke:#231f20;stroke-width:0.5;stroke-linecap:butt;stroke-linejoin:miter;stroke-miterlimit:22.9260006;stroke-dasharray:none;stroke-opacity:1"
         d="M 0,0 -3.63,-3.632" /></g><g
       transform="translate(83.6748,69.2373)"
       id="g56"><path
         id="path58"
         style="fill:none;stroke:#231f20;stroke-width:0.5;stroke-linecap:butt;stroke-linejoin:miter;stroke-miterlimit:22.9260006;stroke-dasharray:6;stroke-dashoffset:0;stroke-opacity:1"
         d="M 0,0 H 245.563" /></g><g
       transform="translate(100.0854,57.4736)"
       id="g60"><path
         id="path62"
         style="fill:#ffffff;fill-opacity:1;fill-rule:evenodd;stroke:none"
         d="M 0,0 7.536,11.764 14.887,-0.222 Z" /></g><g
       transform="translate(100.0854,57.4736)"
       id="g64"><path
         id="path66"
         style="fill:none;stroke:#231f20;stroke-width:0.5;stroke-linecap:butt;stroke-linejoin:miter;stroke-miterlimit:22.9260006;stroke-dasharray:none;stroke-opacity:1"
         d="M 0,0 7.536,11.764 14.887,-0.222 Z" /></g><g
       transform="translate(95.7466,57.1777)"
       id="g68"><path
         id="path70"
         style="fill:none;stroke:#231f20;stroke-width:0.5;stroke-linecap:butt;stroke-linejoin:miter;stroke-miterlimit:22.9260006;stroke-dasharray:none;stroke-opacity:1"
         d="M 0,0 H 23.971" /></g><g
       transform="translate(107.0645,68.5)"
       id="g72"><path
         id="path74"
         style="fill:none;stroke:#231f20;stroke-width:0.5;stroke-linecap:butt;stroke-linejoin:miter;stroke-miterlimit:22.9260006;stroke-dasharray:none;stroke-opacity:1"
         d="M 0,0 -7.076,-11.322" /></g><g
       transform="translate(108.2729,68.5)"
       id="g76"><path
         id="path78"
         style="fill:none;stroke:#231f20;stroke-width:0.5;stroke-linecap:butt;stroke-linejoin:miter;stroke-miterlimit:22.9260006;stroke-dasharray:none;stroke-opacity:1"
         d="M 0,0 6.67,-11.322" /></g><g
       id="g80"><g
         clip-path="url(#clipPath86)"
         id="g82"><g
           transform="translate(109.4663,69.166)"
           id="g88"><path
             id="path90"
             style="fill:#ffffff;fill-opacity:1;fill-rule:evenodd;stroke:none"
             d="m 0,0 c 0,0.993 -0.805,1.798 -1.798,1.798 -0.993,0 -1.797,-0.805 -1.797,-1.798 0,-0.992 0.804,-1.799 1.797,-1.799 C -0.805,-1.799 0,-0.992 0,0" /></g><g
           transform="translate(109.4663,69.166)"
           id="g92"><path
             id="path94"
             style="fill:none;stroke:#231f20;stroke-width:0.5;stroke-linecap:butt;stroke-linejoin:miter;stroke-miterlimit:22.9260006;stroke-dasharray:none;stroke-opacity:1"
             d="m 0,0 c 0,0.993 -0.805,1.798 -1.798,1.798 -0.993,0 -1.797,-0.805 -1.797,-1.798 0,-0.992 0.804,-1.799 1.797,-1.799 C -0.805,-1.799 0,-0.992 0,0 Z" /></g><g
           transform="translate(299.9541,57.4736)"
           id="g96"><path
             id="path98"
             style="fill:#ffffff;fill-opacity:1;fill-rule:evenodd;stroke:none"
             d="m 0,0 7.536,11.764 7.35,-11.986 z" /></g><g
           transform="translate(299.9541,57.4736)"
           id="g100"><path
             id="path102"
             style="fill:none;stroke:#231f20;stroke-width:0.5;stroke-linecap:butt;stroke-linejoin:miter;stroke-miterlimit:22.9260006;stroke-dasharray:none;stroke-opacity:1"
             d="m 0,0 7.536,11.764 7.35,-11.986 z" /></g><g
           transform="translate(295.6104,55.6787)"
           id="g104"><path
             id="path106"
             style="fill:none;stroke:#231f20;stroke-width:0.5;stroke-linecap:butt;stroke-linejoin:miter;stroke-miterlimit:22.9260006;stroke-dasharray:none;stroke-opacity:1"
             d="M 0,0 H 23.973" /></g><g
           transform="translate(295.564,57.3037)"
           id="g108"><path
             id="path110"
             style="fill:none;stroke:#231f20;stroke-width:0.5;stroke-linecap:butt;stroke-linejoin:miter;stroke-miterlimit:22.9260006;stroke-dasharray:none;stroke-opacity:1"
             d="M 0,0 H 23.971" /></g><g
           transform="translate(306.8818,68.6279)"
           id="g112"><path
             id="path114"
             style="fill:none;stroke:#231f20;stroke-width:0.5;stroke-linecap:butt;stroke-linejoin:miter;stroke-miterlimit:22.9260006;stroke-dasharray:none;stroke-opacity:1"
             d="M 0,0 -7.076,-11.324" /></g><g
           transform="translate(308.0913,68.6279)"
           id="g116"><path
             id="path118"
             style="fill:none;stroke:#231f20;stroke-width:0.5;stroke-linecap:butt;stroke-linejoin:miter;stroke-miterlimit:22.9260006;stroke-dasharray:none;stroke-opacity:1"
             d="M 0,0 6.669,-11.324" /></g><g
           transform="translate(309.2847,69.292)"
           id="g120"><path
             id="path122"
             style="fill:#ffffff;fill-opacity:1;fill-rule:evenodd;stroke:none"
             d="m 0,0 c 0,0.994 -0.805,1.799 -1.799,1.799 -0.993,0 -1.798,-0.805 -1.798,-1.799 0,-0.992 0.805,-1.797 1.798,-1.797 C -0.805,-1.797 0,-0.992 0,0" /></g><g
           transform="translate(309.2847,69.292)"
           id="g124"><path
             id="path126"
             style="fill:none;stroke:#231f20;stroke-width:0.5;stroke-linecap:butt;stroke-linejoin:miter;stroke-miterlimit:22.9260006;stroke-dasharray:none;stroke-opacity:1"
             d="m 0,0 c 0,0.994 -0.805,1.799 -1.799,1.799 -0.993,0 -1.798,-0.805 -1.798,-1.799 0,-0.992 0.805,-1.797 1.798,-1.797 C -0.805,-1.797 0,-0.992 0,0 Z" /></g><g
           transform="translate(182.1426,76.9346)"
           id="g128"><path
             id="path130"
             style="fill:none;stroke:#231f20;stroke-width:0.5;stroke-linecap:butt;stroke-linejoin:miter;stroke-miterlimit:22.9260006;stroke-dasharray:none;stroke-opacity:1"
             d="M 0,0 V -4.729" /></g><g
           transform="translate(182.6553,71.0254)"
           id="g132"><path
             id="path134"
             style="fill:#231f20;fill-opacity:1;fill-rule:nonzero;stroke:none"
             d="M 0,0 C 0.25,0.826 0.479,1.363 0.746,2.027 H -1.776 C -1.664,1.789 -1.28,0.826 -1.031,0 -0.764,-0.885 -0.581,-1.688 -0.516,-2.207 -0.45,-1.688 -0.268,-0.885 0,0" /></g><g
           transform="translate(181.6299,78.1152)"
           id="g136"><path
             id="path138"
             style="fill:#231f20;fill-opacity:1;fill-rule:nonzero;stroke:none"
             d="M 0,0 C -0.25,-0.826 -0.479,-1.363 -0.746,-2.027 H 1.776 C 1.664,-1.789 1.28,-0.826 1.031,0 0.764,0.885 0.581,1.688 0.516,2.207 0.45,1.688 0.268,0.885 0,0" /></g></g></g><text
       id="text142"
       style="font-variant:normal;font-weight:normal;font-stretch:normal;font-size:10px;font-family:Tahoma;-inkscape-font-specification:Tahoma;writing-mode:lr-tb;fill:#231f20;fill-opacity:1;fill-rule:nonzero;stroke:none"
       transform="matrix(1,0,0,-1,174.96,71.6045)"><tspan
         id="tspan140"
         y="0"
         x="0">a</tspan></text>
<g
       id="g144"><g
         clip-path="url(#clipPath150)"
         id="g146"><g
           transform="translate(107.7432,94.5664)"
           id="g152"><path
             id="path154"
             style="fill:none;stroke:#3050aa;stroke-width:0.5;stroke-linecap:butt;stroke-linejoin:miter;stroke-miterlimit:4;stroke-dasharray:none;stroke-opacity:1"
             d="M 0,0 V -27.464" /></g><g
           transform="translate(107.231,95.7471)"
           id="g156"><path
             id="path158"
             style="fill:#3050aa;fill-opacity:1;fill-rule:nonzero;stroke:none"
             d="M 0,0 C -0.25,-0.826 -0.48,-1.363 -0.746,-2.027 H 1.776 C 1.663,-1.789 1.28,-0.826 1.03,0 0.763,0.885 0.58,1.688 0.515,2.207 0.45,1.688 0.267,0.885 0,0" /></g><g
           transform="translate(105.5459,69.2998)"
           id="g160"><path
             id="path162"
             style="fill:none;stroke:#3050aa;stroke-width:0.5;stroke-linecap:butt;stroke-linejoin:miter;stroke-miterlimit:4;stroke-dasharray:none;stroke-opacity:1"
             d="M 0,0 H 27.464" /></g><g
           transform="translate(134.1909,69.8125)"
           id="g164"><path
             id="path166"
             style="fill:#3050aa;fill-opacity:1;fill-rule:nonzero;stroke:none"
             d="M 0,0 C -0.826,0.249 -1.364,0.479 -2.027,0.745 V -1.776 C -1.79,-1.664 -0.826,-1.28 0,-1.03 0.885,-0.764 1.688,-0.581 2.208,-0.516 1.688,-0.45 0.885,-0.268 0,0" /></g></g></g><text
       id="text172"
       style="font-variant:normal;font-weight:normal;font-stretch:normal;font-size:10px;font-family:Tahoma;-inkscape-font-specification:Tahoma;writing-mode:lr-tb;fill:#3361b6;fill-opacity:1;fill-rule:nonzero;stroke:none"
       transform="matrix(1,0,0,-1,131.7988,60.2764)"><tspan
         id="tspan168"
         y="0"
         x="0">z</tspan><tspan
         id="tspan170"
         y="-34.779999"
         x="-31.969999">y</tspan></text>
<g
       id="g174"><g
         clip-path="url(#clipPath180)"
         id="g176"><g
           transform="translate(184.7651,76.9346)"
           id="g182"><path
             id="path184"
             style="fill:none;stroke:#3050aa;stroke-width:0.5;stroke-linecap:butt;stroke-linejoin:miter;stroke-miterlimit:4;stroke-dasharray:none;stroke-opacity:1"
             d="M 0,0 9.333,-67.401" /></g><g
           transform="translate(184.0957,78.0342)"
           id="g186"><path
             id="path188"
             style="fill:#3050aa;fill-opacity:1;fill-rule:nonzero;stroke:none"
             d="m 0,0 c -0.134,-0.854 -0.288,-1.417 -0.461,-2.11 l 2.499,0.345 C 1.893,-1.545 1.381,-0.644 1.021,0.142 0.634,0.98 0.343,1.751 0.208,2.257 0.214,1.732 0.143,0.913 0,0" /></g></g></g><text
       id="text192"
       style="font-variant:normal;font-weight:normal;font-stretch:normal;font-size:10px;font-family:Tahoma;-inkscape-font-specification:Tahoma;writing-mode:lr-tb;fill:#231f20;fill-opacity:1;fill-rule:nonzero;stroke:none"
       transform="matrix(1,0,0,-1,194.0986,22.373)"><tspan
         id="tspan190"
         y="0"
         x="0">R</tspan></text>
<text
       id="text196"
       style="font-variant:normal;font-weight:normal;font-stretch:normal;font-size:6px;font-family:Tahoma;-inkscape-font-specification:Tahoma;writing-mode:lr-tb;fill:#231f20;fill-opacity:1;fill-rule:nonzero;stroke:none"
       transform="matrix(1,0,0,-1,200.3047,22.373)"><tspan
         id="tspan194"
         y="0"
         x="0 3.1500001 4.9679999">a,2</tspan></text>
<g
       id="g198"><g
         clip-path="url(#clipPath204)"
         id="g200"><g
           transform="translate(111.6079,122.8174)"
           id="g206"><path
             id="path208"
             style="fill:none;stroke:#3050aa;stroke-width:0.5;stroke-linecap:butt;stroke-linejoin:miter;stroke-miterlimit:4;stroke-dasharray:none;stroke-opacity:1"
             d="M 0,0 H 192.215" /></g><g
           transform="translate(305.0039,123.3301)"
           id="g210"><path
             id="path212"
             style="fill:#3050aa;fill-opacity:1;fill-rule:nonzero;stroke:none"
             d="M 0,0 C -0.826,0.249 -1.364,0.479 -2.027,0.745 V -1.776 C -1.79,-1.664 -0.826,-1.28 0,-1.03 0.885,-0.764 1.688,-0.581 2.208,-0.516 1.688,-0.45 0.885,-0.268 0,0" /></g><g
           transform="translate(110.4268,122.3047)"
           id="g214"><path
             id="path216"
             style="fill:#3050aa;fill-opacity:1;fill-rule:nonzero;stroke:none"
             d="M 0,0 C 0.827,-0.249 1.364,-0.479 2.027,-0.745 V 1.776 C 1.79,1.664 0.827,1.28 0,1.031 -0.885,0.764 -1.687,0.581 -2.207,0.516 -1.687,0.45 -0.885,0.268 0,0" /></g></g></g><text
       id="text220"
       style="font-variant:normal;font-weight:normal;font-stretch:normal;font-size:10px;font-family:Tahoma;-inkscape-font-specification:Tahoma;writing-mode:lr-tb;fill:#231f20;fill-opacity:1;fill-rule:nonzero;stroke:none"
       transform="matrix(1,0,0,-1,195.1812,125.0605)"><tspan
         id="tspan218"
         y="0"
         x="0">l</tspan></text>
<text
       id="text224"
       style="font-variant:normal;font-weight:normal;font-stretch:normal;font-size:5px;font-family:Tahoma;-inkscape-font-specification:Tahoma;writing-mode:lr-tb;fill:#231f20;fill-opacity:1;fill-rule:nonzero;stroke:none"
       transform="matrix(1,0,0,-1,197.4663,125.0605)"><tspan
         id="tspan222"
         y="0"
         x="0 4.3249998 6.9549999 8.1149998 9.2600002">Welle</tspan></text>
<g
       id="g226"><g
         clip-path="url(#clipPath232)"
         id="g228"><g
           transform="translate(111.6079,109.0752)"
           id="g234"><path
             id="path236"
             style="fill:none;stroke:#3050aa;stroke-width:0.5;stroke-linecap:butt;stroke-linejoin:miter;stroke-miterlimit:4;stroke-dasharray:none;stroke-opacity:1"
             d="M 0,0 H 67.824" /></g><g
           transform="translate(180.6133,109.5879)"
           id="g238"><path
             id="path240"
             style="fill:#3050aa;fill-opacity:1;fill-rule:nonzero;stroke:none"
             d="m 0,0 c -0.827,0.249 -1.364,0.479 -2.027,0.745 v -2.521 c 0.237,0.112 1.2,0.496 2.027,0.746 0.885,0.266 1.687,0.449 2.207,0.514 C 1.687,-0.45 0.885,-0.268 0,0" /></g><g
           transform="translate(110.4268,108.5625)"
           id="g242"><path
             id="path244"
             style="fill:#3050aa;fill-opacity:1;fill-rule:nonzero;stroke:none"
             d="M 0,0 C 0.827,-0.249 1.364,-0.479 2.027,-0.745 V 1.776 C 1.79,1.664 0.827,1.28 0,1.031 -0.885,0.764 -1.687,0.581 -2.207,0.516 -1.687,0.45 -0.885,0.268 0,0" /></g></g></g><text
       id="text248"
       style="font-variant:normal;font-weight:normal;font-stretch:normal;font-size:10px;font-family:Tahoma;-inkscape-font-specification:Tahoma;writing-mode:lr-tb;fill:#231f20;fill-opacity:1;fill-rule:nonzero;stroke:none"
       transform="matrix(1,0,0,-1,129.6733,110.5996)"><tspan
         id="tspan246"
         y="0"
         x="0">l</tspan></text>
<text
       id="text252"
       style="font-variant:normal;font-weight:normal;font-stretch:normal;font-size:5px;font-family:Tahoma;-inkscape-font-specification:Tahoma;writing-mode:lr-tb;fill:#231f20;fill-opacity:1;fill-rule:nonzero;stroke:none"
       transform="matrix(1,0,0,-1,131.9585,110.5996)"><tspan
         id="tspan250"
         y="0"
         x="0 2.6400001 5.355 7.585 8.7399998 10.41 11.555 14.27 17.059999 17.055 19.85 22.48 25.27 27.5 30.215">Position Sensor</tspan></text>
<g
       id="g254"><g
         clip-path="url(#clipPath260)"
         id="g256"><g
           transform="translate(253.9316,78.3066)"
           id="g262"><path
             id="path264"
             style="fill:none;stroke:#231f20;stroke-width:0.5;stroke-linecap:butt;stroke-linejoin:miter;stroke-miterlimit:22.9260006;stroke-dasharray:none;stroke-opacity:1"
             d="M 0,0 C 4.87,-0.531 9.714,-1.145 14.533,-1.839" /></g><g
           transform="translate(175.2661,79.6504)"
           id="g266"><path
             id="path268"
             style="fill:none;stroke:#231f20;stroke-width:0.5;stroke-linecap:butt;stroke-linejoin:miter;stroke-miterlimit:22.9260006;stroke-dasharray:none;stroke-opacity:1"
             d="M 0,0 C 5.691,0.424 11.414,0.735 17.166,0.933" /></g><g
           transform="translate(268.4316,82.7266)"
           id="g270"><path
             id="path272"
             style="fill:none;stroke:#231f20;stroke-width:0.5;stroke-linecap:butt;stroke-linejoin:miter;stroke-miterlimit:22.9260006;stroke-dasharray:none;stroke-opacity:1"
             d="M 0,0 C 12.88,-3.458 25.573,-7.993 38.052,-13.554" /></g><g
           transform="translate(192.4312,90.3926)"
           id="g274"><path
             id="path276"
             style="fill:none;stroke:#231f20;stroke-width:0.5;stroke-linecap:butt;stroke-linejoin:miter;stroke-miterlimit:22.9260006;stroke-dasharray:none;stroke-opacity:1"
             d="m 0,0 c 4.927,0.314 9.875,0.474 14.843,0.474 15.767,0 31.335,-1.601 46.657,-4.719" /></g><g
           transform="translate(108.2168,69.2412)"
           id="g278"><path
             id="path280"
             style="fill:none;stroke:#231f20;stroke-width:0.5;stroke-linecap:butt;stroke-linejoin:miter;stroke-miterlimit:22.9260006;stroke-dasharray:none;stroke-opacity:1"
             d="M 0,0 C 21.749,9.675 44.146,16.235 67.049,19.413" /></g><g
           transform="translate(211.207,87.0049)"
           id="g282"><path
             id="path284"
             style="fill:none;stroke:#3050aa;stroke-width:0.5;stroke-linecap:butt;stroke-linejoin:miter;stroke-miterlimit:4;stroke-dasharray:none;stroke-opacity:1"
             d="M 0,0 1.392,-71.472" /></g><g
           transform="translate(210.6719,88.1758)"
           id="g286"><path
             id="path288"
             style="fill:#3050aa;fill-opacity:1;fill-rule:nonzero;stroke:none"
             d="m 0,0 c -0.234,-0.832 -0.453,-1.373 -0.707,-2.041 l 2.522,0.049 C 1.698,-1.757 1.296,-0.802 1.03,0.02 0.746,0.899 0.547,1.698 0.472,2.217 0.417,1.695 0.25,0.89 0,0" /></g></g></g><text
       id="text292"
       style="font-variant:normal;font-weight:normal;font-stretch:normal;font-size:10px;font-family:Tahoma;-inkscape-font-specification:Tahoma;writing-mode:lr-tb;fill:#231f20;fill-opacity:1;fill-rule:nonzero;stroke:none"
       transform="matrix(1,0,0,-1,215.2651,30.0088)"><tspan
         id="tspan290"
         y="0"
         x="0">R</tspan></text>
<text
       id="text296"
       style="font-variant:normal;font-weight:normal;font-stretch:normal;font-size:6px;font-family:Tahoma;-inkscape-font-specification:Tahoma;writing-mode:lr-tb;fill:#231f20;fill-opacity:1;fill-rule:nonzero;stroke:none"
       transform="matrix(1,0,0,-1,221.4712,30.0088)"><tspan
         id="tspan294"
         y="0"
         x="0 3.1500001 4.9679999">a,1</tspan></text>
<g
       id="g298"><g
         clip-path="url(#clipPath304)"
         id="g300"><g
           transform="translate(253.9316,86.1475)"
           id="g306"><path
             id="path308"
             style="fill:none;stroke:#231f20;stroke-width:0.5;stroke-linecap:butt;stroke-linejoin:miter;stroke-miterlimit:22.9260006;stroke-dasharray:none;stroke-opacity:1"
             d="M 0,0 V -7.842" /></g><g
           transform="translate(268.4316,82.7266)"
           id="g310"><path
             id="path312"
             style="fill:none;stroke:#231f20;stroke-width:0.5;stroke-linecap:butt;stroke-linejoin:miter;stroke-miterlimit:22.9260006;stroke-dasharray:none;stroke-opacity:1"
             d="M 0,0 0.033,-6.259" /></g><g
           transform="translate(192.4312,90.3926)"
           id="g314"><path
             id="path316"
             style="fill:none;stroke:#231f20;stroke-width:0.5;stroke-linecap:butt;stroke-linejoin:miter;stroke-miterlimit:22.9260006;stroke-dasharray:none;stroke-opacity:1"
             d="M 0,0 V -9.811" /></g><g
           transform="translate(175.2656,88.6543)"
           id="g318"><path
             id="path320"
             style="fill:none;stroke:#231f20;stroke-width:0.5;stroke-linecap:butt;stroke-linejoin:miter;stroke-miterlimit:22.9260006;stroke-dasharray:none;stroke-opacity:1"
             d="M 0,0 V -9.004" /></g></g></g></g></svg>