<?xml version="1.0" encoding="iso-8859-1"?>
<!-- Generator: Adobe Illustrator 16.0.0, SVG Export Plug-In . SVG Version: 6.00 Build 0)  -->
<!DOCTYPE svg PUBLIC "-//W3C//DTD SVG 1.1//EN" "http://www.w3.org/Graphics/SVG/1.1/DTD/svg11.dtd">
<svg xmlns="http://www.w3.org/2000/svg" xmlns:xlink="http://www.w3.org/1999/xlink" version="1.1" id="Capa_1" x="0px" y="0px" width="512px" height="512px" viewBox="0 0 31.371 31.371" style="enable-background:new 0 0 31.371 31.371;" xml:space="preserve">
<g>
	<path d="M29.642,12.513c-1.022-0.964-2.635-0.916-3.601,0.109c-0.963,1.022-0.914,2.634,0.109,3.598   c0.274,0.259,0.594,0.438,0.928,0.554c-0.569,2.424-2.907,6.029-11.479,7.25v-0.74c5.15-1.277,8.973-5.917,8.973-11.462   C24.572,5.292,19.281,0,12.751,0C6.223,0,0.93,5.292,0.93,11.821c0,5.822,4.212,10.649,9.753,11.63v2.111H6.716v1.611H3.343v4.197   h18.282v-4.197h-2.416v-1.611H15.6v-0.238c9.689-1.328,12.21-5.633,12.785-8.465c0.504-0.099,0.984-0.344,1.363-0.746   C30.714,15.088,30.664,13.477,29.642,12.513z M9.691,11.823c0-1.808,1.464-3.272,3.271-3.272c1.807,0,3.271,1.464,3.271,3.272   c0,1.805-1.464,3.27-3.271,3.27C11.155,15.093,9.691,13.628,9.691,11.823z" fill="#3070b3"/>
</g>
<g>
</g>
<g>
</g>
<g>
</g>
<g>
</g>
<g>
</g>
<g>
</g>
<g>
</g>
<g>
</g>
<g>
</g>
<g>
</g>
<g>
</g>
<g>
</g>
<g>
</g>
<g>
</g>
<g>
</g>
</svg>
