<?xml version="1.0" encoding="UTF-8" standalone="no"?>
<!-- Created with Inkscape (http://www.inkscape.org/) -->

<svg
   xmlns:dc="http://purl.org/dc/elements/1.1/"
   xmlns:cc="http://creativecommons.org/ns#"
   xmlns:rdf="http://www.w3.org/1999/02/22-rdf-syntax-ns#"
   xmlns:svg="http://www.w3.org/2000/svg"
   xmlns="http://www.w3.org/2000/svg"
   xmlns:sodipodi="http://sodipodi.sourceforge.net/DTD/sodipodi-0.dtd"
   xmlns:inkscape="http://www.inkscape.org/namespaces/inkscape"
   width="297mm"
   height="420mm"
   viewBox="0 0 297 420"
   version="1.1"
   id="svg12273"
   inkscape:version="0.92.1 r15371"
   sodipodi:docname="Systembild_Verstärker_DinA3.svg">
  <defs
     id="defs12267">
    <clipPath
       id="clipPath5509"
       clipPathUnits="userSpaceOnUse">
      <path
         inkscape:connector-curvature="0"
         id="path5511"
         d="M 0,0 H 198.4252 V 198.4252 H 0 Z" />
    </clipPath>
    <clipPath
       id="clipPath5603"
       clipPathUnits="userSpaceOnUse">
      <path
         inkscape:connector-curvature="0"
         id="path5605"
         d="M 0,0 H 198.4252 V 198.4252 H 0 Z" />
    </clipPath>
  </defs>
  <sodipodi:namedview
     id="base"
     pagecolor="#ffffff"
     bordercolor="#666666"
     borderopacity="1.0"
     inkscape:pageopacity="0.0"
     inkscape:pageshadow="2"
     inkscape:zoom="0.7"
     inkscape:cx="662.98536"
     inkscape:cy="781.12404"
     inkscape:document-units="mm"
     inkscape:current-layer="layer1"
     showgrid="false"
     inkscape:window-width="2560"
     inkscape:window-height="1361"
     inkscape:window-x="-9"
     inkscape:window-y="-9"
     inkscape:window-maximized="1" />
  <metadata
     id="metadata12270">
    <rdf:RDF>
      <cc:Work
         rdf:about="">
        <dc:format>image/svg+xml</dc:format>
        <dc:type
           rdf:resource="http://purl.org/dc/dcmitype/StillImage" />
        <dc:title></dc:title>
      </cc:Work>
    </rdf:RDF>
  </metadata>
  <g
     inkscape:label="Ebene 1"
     inkscape:groupmode="layer"
     id="layer1"
     transform="translate(0,123)">
    <path
       style="clip-rule:evenodd;fill:#84a7d5;fill-rule:evenodd;stroke-width:0.60548484;image-rendering:optimizeQuality;shape-rendering:geometricPrecision;text-rendering:geometricPrecision"
       inkscape:connector-curvature="0"
       d="m 21.390208,-101.40903 c -0.575793,-0.25116 -0.983999,-0.52783 -1.357366,-0.84854 -0.55312,0.14098 -1.114847,0.30332 -1.657408,0.48056 -0.311369,0.10178 -0.616114,0.20825 -0.909178,0.31867 0.191954,0.17849 0.394033,0.33339 0.607794,0.46045 h 3.316158 z m -4.168823,0.0449 c -0.302739,0.11886 -0.590749,0.24142 -0.857746,0.36631 h 1.284462 c -0.147805,-0.11009 -0.289904,-0.23264 -0.426716,-0.36631 z m 4.168823,-1.19899 c -0.345957,0.067 -0.705861,0.14569 -1.071595,0.23443 0.302387,0.24421 0.637011,0.46088 1.071595,0.65971 z m 0,-0.99017 c -1.029264,-0.77529 -2.090527,-0.65925 -3.143494,-0.77193 l 0.0024,0.0445 c 0.488742,0.42224 0.856938,0.7926 1.184046,1.12171 0.231841,0.23331 0.442903,0.44561 0.662637,0.64106 0.442218,-0.1103 0.878526,-0.20691 1.294571,-0.28643 v -0.74889 z m -3.397698,-0.63477 c -0.618154,0.0554 -1.356591,0.19253 -2.135814,0.3763 0.279686,0.56591 0.580731,1.09563 0.914801,1.55574 0.161531,0.22274 0.330808,0.42876 0.508955,0.61456 0.327902,-0.12559 0.670816,-0.24656 1.02151,-0.36125 0.496495,-0.1623 1.009517,-0.31215 1.518123,-0.44494 -0.182081,-0.16883 -0.361459,-0.34943 -0.555131,-0.54422 -0.345728,-0.34789 -0.737774,-0.74226 -1.272444,-1.19619 z m -2.371818,0.43315 -0.01618,0.004 c 0.0047,0.0765 0.01314,0.15108 0.02527,0.22363 0.05189,0.31092 0.0018,0.75316 -0.10301,0.99612 -0.03935,0.0906 -0.08929,0.16098 -0.149159,0.19938 l 8.8e-5,2.3e-4 c -0.08536,0.0549 -0.176224,0.0526 -0.267777,-0.0256 -0.09661,-0.0824 -0.197695,-0.2825 -0.291828,-0.65062 -0.04244,-0.16592 -0.07235,-0.33777 -0.09087,-0.51445 -0.467963,0.12883 -0.936617,0.26777 -1.390287,0.40986 0.04931,0.14357 0.09761,0.28666 0.145226,0.42776 0.231184,0.68497 0.444944,1.3184 0.673285,1.68662 h 1.673708 c 0.359219,-0.18859 0.770122,-0.37362 1.21315,-0.55053 -0.161642,-0.17481 -0.315651,-0.3651 -0.463145,-0.56841 -0.351122,-0.48367 -0.666314,-1.04206 -0.958488,-1.63818 z m -0.249924,0.0625 c -0.136477,0.0347 -0.273862,0.0706 -0.411366,0.10736 0.01694,0.17883 0.04631,0.35216 0.08897,0.51907 0.0793,0.31015 0.151081,0.4701 0.212181,0.52581 0.01506,-0.0159 0.03166,-0.0456 0.04878,-0.0848 0.08998,-0.20794 0.131882,-0.59098 0.08639,-0.86315 -0.01126,-0.0667 -0.01928,-0.13491 -0.02492,-0.20432 z m -2.260065,0.65181 c -0.838746,0.26769 -1.615844,0.54221 -2.227802,0.77821 v 1.26462 h 2.999736 c -0.216228,-0.39911 -0.413607,-0.98424 -0.625333,-1.61137 -0.04796,-0.14218 -0.09672,-0.28666 -0.146601,-0.43146 z m -2.461678,0.86978 -0.05617,0.0223 -0.04415,-0.1101 v 1.47051 h 0.100314 v -0.0904 z m 7.095913,-2.23016 c -0.57051,-0.11627 -1.136659,-0.35262 -1.691785,-0.88978 -0.04615,-0.0446 -0.09167,-0.0877 -0.13647,-0.12939 -0.11931,0.32183 -0.208941,0.63499 -0.261956,0.9329 -0.01144,0.0643 -0.0211,0.12772 -0.02909,0.19028 0.0411,0.0895 0.0828,0.17849 0.124791,0.26655 0.715103,-0.17006 1.39961,-0.30239 1.994518,-0.37056 z m -2.017197,-1.1896 c -0.147029,-0.12826 -0.287231,-0.24024 -0.422013,-0.3372 l -0.01718,-0.0105 c -0.06985,0.2177 -0.130532,0.43392 -0.180727,0.64756 0.119966,0.19446 0.233307,0.40259 0.340791,0.61929 0.06257,-0.2953 0.157708,-0.60367 0.27914,-0.91909 z m -0.643752,-0.48635 c -0.394604,-0.24645 -0.744295,-0.35991 -1.086551,-0.37945 0.222864,0.1195 0.429535,0.29171 0.621742,0.50312 0.108288,0.11905 0.211953,0.25093 0.311493,0.39268 0.04515,-0.17117 0.09649,-0.34349 0.153316,-0.51635 z m -1.692792,-0.32386 c -0.47606,0.10682 -0.979267,0.34721 -1.606404,0.61927 0.657678,0.34676 1.100353,1.38455 1.474095,2.44515 0.473012,-0.14839 0.962417,-0.29338 1.450269,-0.42694 -0.01026,-0.22376 -0.0035,-0.45437 0.01876,-0.68991 0.02445,-0.25983 0.06751,-0.52548 0.126943,-0.79483 -0.129412,-0.20189 -0.26623,-0.38609 -0.411138,-0.5455 -0.311487,-0.3426 -0.660256,-0.56939 -1.05251,-0.60724 z m 1.552821,2.57402 c 0.139971,-0.0373 0.279603,-0.0736 0.418424,-0.10852 5.82e-4,-0.10582 0.0076,-0.21411 0.01953,-0.32464 l -5.82e-4,-7.9e-4 c -0.108633,-0.23802 -0.223552,-0.46863 -0.345528,-0.68509 -0.0319,0.17432 -0.05605,0.34629 -0.07201,0.51515 v 5.8e-4 c -0.01941,0.2061 -0.02637,0.40795 -0.01976,0.60421 z m -3.472865,-1.82116 c -0.184777,0.0772 -0.380226,0.15557 -0.588252,0.23287 v 2.8985 c 0.600624,-0.22937 1.347153,-0.49209 2.149851,-0.74831 -0.399224,-1.13307 -0.872441,-2.22894 -1.561599,-2.38306 z m -0.822128,0.31745 -0.100313,0.0347 v 2.90941 l 0.100313,-0.0396 z"
       class="fil0"
       id="Fläche" />
    <path
       style="clip-rule:evenodd;fill:#0064a8;fill-rule:nonzero;stroke-width:0.60548484;image-rendering:optimizeQuality;shape-rendering:geometricPrecision;text-rendering:geometricPrecision"
       inkscape:connector-curvature="0"
       d="m 21.863771,-106.07944 v 5.42369 0.11884 H 21.744918 10.512865 10.394018 v -0.11884 -6.08293 -5.14913 -0.11884 h 0.118847 7.901864 c 0.03067,0.0749 0.06546,0.15085 0.104241,0.22736 v 0.0104 h -7.887253 v 5.03027 5.96409 h 10.994354 v -5.2135 c 0.09155,-0.0165 0.171627,-0.0474 0.2377,-0.0913 z"
       class="fil1"
       id="Rahmen" />
    <path
       id="Fuss"
       class="fil2"
       d="m 15.760576,-105.66043 c -0.08458,-0.0462 -0.170624,-0.095 -0.25747,-0.1458 l -2.29e-4,2.9e-4 c -0.07031,-0.0411 -0.140745,-0.0836 -0.21095,-0.12705 -0.165688,0.51605 -0.27934,1.02398 -0.324744,1.5069 v 5.8e-4 c -0.04562,0.48427 -0.02281,0.94525 0.0846,1.36503 0.0793,0.31014 0.151082,0.47009 0.212182,0.5258 0.01507,-0.0159 0.03167,-0.0456 0.04872,-0.0848 0.08998,-0.20791 0.131881,-0.59095 0.08639,-0.86312 -0.05348,-0.31911 -0.04104,-0.66949 0.02492,-1.04005 0.06435,-0.36159 0.180498,-0.74441 0.336546,-1.13765 z"
       inkscape:connector-curvature="0"
       style="clip-rule:evenodd;fill:#0064a8;fill-rule:evenodd;stroke-width:0.60548484;image-rendering:optimizeQuality;shape-rendering:geometricPrecision;text-rendering:geometricPrecision" />
    <path
       id="linker_x0020_Arm"
       class="fil2"
       d="m 21.848268,-106.88638 c -0.377207,-0.91984 -1.458019,-2.01708 -2.784965,-2.82598 -0.06708,0.0758 -0.133459,0.15255 -0.19881,0.23029 0.922553,0.64689 1.61358,1.52353 1.621672,2.16513 0.05259,-0.0159 0.110099,-0.0265 0.171744,-0.0313 0.195226,-0.0148 0.437862,0.0294 0.70093,0.14402 0.02199,0.009 0.0472,0.0212 0.07393,0.0341 h 2.91e-4 c 0.172665,0.0832 0.311951,0.18084 0.415072,0.28373 z"
       inkscape:connector-curvature="0"
       style="clip-rule:evenodd;fill:#0064a8;fill-rule:evenodd;stroke-width:0.60548484;image-rendering:optimizeQuality;shape-rendering:geometricPrecision;text-rendering:geometricPrecision" />
    <path
       id="linke_x0020_Hand"
       class="fil2"
       d="m 21.225177,-107.00189 c -0.446404,-0.16475 -0.706495,-0.13556 -0.835274,0.0373 -0.06842,0.14864 0.07667,0.43737 0.524795,0.62263 0.475597,0.1966 0.752932,0.15958 0.883,0.0104 0.130075,-0.14913 -0.126111,-0.50564 -0.572521,-0.67038 z"
       inkscape:connector-curvature="0"
       style="clip-rule:evenodd;fill:#0064a8;fill-rule:evenodd;stroke-width:0.60548484;image-rendering:optimizeQuality;shape-rendering:geometricPrecision;text-rendering:geometricPrecision" />
    <path
       id="rechter_x0020_Arm"
       class="fil2"
       d="m 19.922455,-105.84767 c 0.07637,-0.10963 -2.381808,-2.23871 -2.584921,-1.62876 -0.0083,0.0248 -0.03523,0.35956 -0.04333,0.49907 -0.232416,-0.083 -0.468303,-0.18422 -0.703305,-0.30373 -1.545614,-0.78551 -2.474254,-2.06203 -2.073453,-2.85059 0.32136,-0.63238 1.652243,-0.55759 2.890991,-0.15646 0.06683,-0.0871 0.134114,-0.17264 0.201734,-0.25634 -2.079305,-0.79672 -4.268473,-0.81908 -4.807528,0.24195 -0.617468,1.21496 0.813259,3.18204 3.195066,4.3925 0.392142,0.19929 0.785742,0.36564 1.172254,0.49907 -0.01237,0.14009 -0.03595,0.36271 -0.02351,0.4143 0.165694,0.68002 2.589518,-0.58347 2.775984,-0.85101 z"
       inkscape:connector-curvature="0"
       style="clip-rule:evenodd;fill:#0064a8;fill-rule:evenodd;stroke-width:0.60548484;image-rendering:optimizeQuality;shape-rendering:geometricPrecision;text-rendering:geometricPrecision" />
    <path
       id="Hals"
       class="fil2"
       d="m 16.21003,-107.98202 c 0.100851,0.0733 0.204776,0.14434 0.311258,0.21218 l 2.28e-4,-2.6e-4 c 0.107713,0.0685 0.217694,0.13423 0.329339,0.19622 0.44314,-0.65128 0.932,-1.23942 1.442641,-1.72637 0.459527,-0.43818 0.93782,-0.79574 1.418244,-1.04511 -0.05423,-0.0446 -0.108605,-0.0918 -0.162534,-0.14106 l -2.28e-4,2e-4 c -0.05976,-0.0545 -0.11951,-0.11232 -0.178692,-0.17311 -0.08292,-0.0778 -0.16434,-0.16061 -0.24375,-0.24823 l -2.3e-4,2.2e-4 -2.27e-4,-2.2e-4 -0.0011,-8e-4 -0.0053,-0.006 c -0.148492,-0.16446 -0.279593,-0.33476 -0.392013,-0.50583 -0.43585,0.41955 -0.869659,0.91929 -1.286046,1.48239 -0.435158,0.5886 -0.851579,1.24708 -1.231688,1.95656 z"
       inkscape:connector-curvature="0"
       style="clip-rule:evenodd;fill:#0064a8;fill-rule:evenodd;stroke-width:0.60548484;image-rendering:optimizeQuality;shape-rendering:geometricPrecision;text-rendering:geometricPrecision" />
    <path
       id="Kopf"
       class="fil2"
       d="m 19.293912,-111.07566 2.28e-4,2.3e-4 0.0035,0.005 c 0.384038,0.42483 0.818311,0.72981 1.209562,0.87888 0.365499,0.13928 0.685856,0.14051 0.8739,-0.0294 0.02158,-0.0195 0.04146,-0.0415 0.05922,-0.065 0.01659,-0.0222 0.03154,-0.0465 0.04444,-0.0719 l 0.02673,-0.0773 -2.29e-4,-1.1e-4 0.02909,-0.0869 -2.25e-4,-1.1e-4 c 0.132768,-0.40112 0.248032,-0.81774 0.362486,-1.2319 0.117158,-0.42393 0.23397,-0.84617 0.366307,-1.24313 v -5.8e-4 c 0.133201,-0.39942 0.165459,-0.57791 0.03606,-0.62105 -0.171397,-0.0572 -0.551852,-0.0131 -1.196843,0.0615 -0.531566,0.0615 -1.238778,0.14365 -2.16581,0.20487 -0.05529,0.008 -0.107279,0.0221 -0.155012,0.0432 l 7.7e-5,1.2e-4 c -0.04491,0.0198 -0.08536,0.0451 -0.120512,0.0759 l 2.3e-4,2.3e-4 -1.54e-4,1.2e-4 -0.0047,0.004 c -0.188138,0.17005 -0.219131,0.48897 -0.117592,0.86661 0.108491,0.4027 0.366742,0.86392 0.748658,1.28763 z"
       inkscape:connector-curvature="0"
       style="clip-rule:evenodd;fill:#0064a8;fill-rule:evenodd;stroke-width:0.60548484;image-rendering:optimizeQuality;shape-rendering:geometricPrecision;text-rendering:geometricPrecision" />
    <text
       x="24.148993"
       y="-109.037"
       id="Text:AM"
       class="fil2 fnt0"
       style="font-weight:normal;font-size:4.04997635px;line-height:0%;font-family:'TUM Neue Helvetica 55 Regular';clip-rule:evenodd;fill:#0064a8;fill-rule:evenodd;stroke-width:0.60548484;image-rendering:optimizeQuality;shape-rendering:geometricPrecision;text-rendering:geometricPrecision">Lehrstuhl für</text>
    <text
       x="24.148993"
       y="-104.78693"
       id="text489"
       class="fil2 fnt0"
       style="font-weight:normal;font-size:4.04997635px;line-height:0%;font-family:'TUM Neue Helvetica 55 Regular';clip-rule:evenodd;fill:#0064a8;fill-rule:evenodd;stroke-width:0.60548484;image-rendering:optimizeQuality;shape-rendering:geometricPrecision;text-rendering:geometricPrecision">Angewandte Mechanik</text>
    <text
       x="24.148993"
       y="-100.5369"
       id="text491"
       class="fil2 fnt0"
       style="font-weight:normal;font-size:4.04997635px;line-height:0%;font-family:'TUM Neue Helvetica 55 Regular';clip-rule:evenodd;fill:#0064a8;fill-rule:evenodd;stroke-width:0.60548484;image-rendering:optimizeQuality;shape-rendering:geometricPrecision;text-rendering:geometricPrecision">Technische Universität München</text>
    <polygon
       transform="matrix(1.4889664,0,0,1.4889664,246.07445,-150.54574)"
       style="clip-rule:evenodd;fill:#0064a8;fill-opacity:1;fill-rule:nonzero;stroke-width:2.10965633;image-rendering:optimizeQuality;shape-rendering:geometricPrecision;text-rendering:geometricPrecision"
       points="14.3318,35.1805 12.2773,35.1805 12.2773,27.0122 5,27.0122 5,28.7823 6.6958,28.7823 6.6958,37 8.4781,37 8.4781,28.7946 10.4576,28.7946 10.4576,37 16.1262,37 16.1262,28.8814 18.143,28.8814 18.143,36.9978 20.0122,36.9978 20.0122,28.8814 22.0541,28.8814 22.0541,36.9978 23.923,36.9978 23.923,27 14.3318,27 "
       class="fil2"
       id="TUM_x0020_-_x0020_voll" />
    <text
       xml:space="preserve"
       style="font-style:normal;font-variant:normal;font-weight:normal;font-stretch:normal;font-size:4.93888903px;line-height:125%;font-family:Arial;-inkscape-font-specification:'Arial, Normal';font-variant-ligatures:normal;font-variant-caps:normal;font-variant-numeric:normal;font-feature-settings:normal;text-align:center;letter-spacing:0px;word-spacing:0px;writing-mode:lr-tb;text-anchor:middle;fill:#58585a;fill-opacity:1;stroke:none;stroke-width:0.26458332px;stroke-linecap:butt;stroke-linejoin:miter;stroke-opacity:1"
       x="38.285324"
       y="293.854"
       id="text5336"><tspan
         sodipodi:role="line"
         id="tspan5334"
         x="38.285324"
         y="293.854"
         style="font-style:normal;font-variant:normal;font-weight:normal;font-stretch:normal;font-size:4.93888903px;font-family:Arial;-inkscape-font-specification:'Arial, Normal';font-variant-ligatures:normal;font-variant-caps:normal;font-variant-numeric:normal;font-feature-settings:normal;text-align:center;writing-mode:lr-tb;text-anchor:middle;fill:#58585a;stroke-width:0.26458332px">© Johannes Maierhofer - 2017</tspan></text>
    <rect
       style="fill:#0065bd;fill-opacity:1;fill-rule:nonzero;stroke:none;stroke-width:0.6549502;stroke-linecap:butt;stroke-linejoin:miter;stroke-miterlimit:4;stroke-dasharray:none;stroke-dashoffset:0;stroke-opacity:1;paint-order:normal"
       id="rect13763"
       width="2.6400297"
       height="108.18376"
       x="159.63675"
       y="-279.76178"
       transform="rotate(90)" />
    <rect
       transform="rotate(90)"
       y="-280.09589"
       x="257.12329"
       height="109.38647"
       width="2.6400297"
       id="rect13765"
       style="fill:#0065bd;fill-opacity:1;fill-rule:nonzero;stroke:none;stroke-width:0.65858078;stroke-linecap:butt;stroke-linejoin:miter;stroke-miterlimit:4;stroke-dasharray:none;stroke-dashoffset:0;stroke-opacity:1;paint-order:normal" />
    <rect
       y="164.6066"
       x="171.38487"
       height="90.18882"
       width="107.56135"
       id="rect13767"
       style="fill:#d9dadb;fill-opacity:1;fill-rule:nonzero;stroke:none;stroke-width:1.38837242;stroke-linecap:butt;stroke-linejoin:miter;stroke-miterlimit:4;stroke-dasharray:none;stroke-dashoffset:0;stroke-opacity:1;paint-order:normal" />
    <flowRoot
       transform="matrix(0.26458333,0,0,0.26458333,150.36191,88.713714)"
       style="font-style:normal;font-variant:normal;font-weight:normal;font-stretch:normal;font-size:10.66666698px;line-height:125%;font-family:Arial;-inkscape-font-specification:'Arial, Normal';text-align:start;letter-spacing:0px;word-spacing:0px;writing-mode:lr-tb;text-anchor:start;fill:#000000;fill-opacity:1;stroke:none;stroke-width:1px;stroke-linecap:butt;stroke-linejoin:miter;stroke-opacity:1"
       id="flowRoot13777"
       xml:space="preserve"><flowRegion
         style="text-align:start;text-anchor:start"
         id="flowRegion13771"><rect
           style="text-align:start;text-anchor:start"
           y="301.09113"
           x="97.14286"
           height="106.78571"
           width="244.64285"
           id="rect13769" /></flowRegion><flowPara
         style="font-size:16px;line-height:155.19999266%;fill:#0065bd"
         id="flowPara13773">3D CAD Modell</flowPara><flowPara
         id="flowPara13775">Das reale Magnetlager mit 8 Polen weißt folgenden Blechschnitt auf</flowPara></flowRoot>    <rect
       style="opacity:1;fill:#ffffff;fill-opacity:1;fill-rule:nonzero;stroke:none;stroke-width:0.4199959;stroke-linecap:butt;stroke-linejoin:miter;stroke-miterlimit:4;stroke-dasharray:none;stroke-dashoffset:0;stroke-opacity:1;paint-order:normal"
       id="rect13779"
       width="95.118378"
       height="66.347969"
       x="176.62801"
       y="185.04709" />
  </g>
</svg>
