<?xml version="1.0" encoding="UTF-8" standalone="no"?>
<!-- Created with Inkscape (http://www.inkscape.org/) -->

<svg
   xmlns:dc="http://purl.org/dc/elements/1.1/"
   xmlns:cc="http://creativecommons.org/ns#"
   xmlns:rdf="http://www.w3.org/1999/02/22-rdf-syntax-ns#"
   xmlns:svg="http://www.w3.org/2000/svg"
   xmlns="http://www.w3.org/2000/svg"
   xmlns:sodipodi="http://sodipodi.sourceforge.net/DTD/sodipodi-0.dtd"
   xmlns:inkscape="http://www.inkscape.org/namespaces/inkscape"
   id="svg3187"
   version="1.1"
   inkscape:version="0.91 r13725"
   width="70mm"
   height="70mm"
   xml:space="preserve"
   sodipodi:docname="Aufbau_Magnetlager.svg"><metadata
     id="metadata3193"><rdf:RDF><cc:Work
         rdf:about=""><dc:format>image/svg+xml</dc:format><dc:type
           rdf:resource="http://purl.org/dc/dcmitype/StillImage" /><dc:title /></cc:Work></rdf:RDF></metadata><defs
     id="defs3191" /><sodipodi:namedview
     pagecolor="#ffffff"
     bordercolor="#666666"
     borderopacity="1"
     objecttolerance="10"
     gridtolerance="10"
     guidetolerance="10"
     inkscape:pageopacity="0"
     inkscape:pageshadow="2"
     inkscape:window-width="1440"
     inkscape:window-height="803"
     id="namedview3189"
     showgrid="false"
     inkscape:zoom="2.8832348"
     inkscape:cx="156.42359"
     inkscape:cy="125.4979"
     inkscape:window-x="0"
     inkscape:window-y="1"
     inkscape:window-maximized="1"
     inkscape:current-layer="g3195"
     units="mm"
     inkscape:snap-global="true"
     inkscape:snap-object-midpoints="true" /><g
     id="g3195"
     inkscape:groupmode="layer"
     inkscape:label="Aufbau_Mag_EM"
     transform="matrix(1.25,0,0,-1.25,0,248.03158)"><path
       d="m 90.469415,166.43212 c 39.317545,0 71.190615,-31.86985 71.190615,-71.183198 0,-39.313701 -31.87307,-71.1837 -71.190615,-71.1837 -39.31748,0 -71.19056,31.869999 -71.19056,71.1837 0,39.313348 31.87308,71.183198 71.19056,71.183198 z"
       style="fill:none;stroke:#2b2b2a;stroke-width:0.56689996;stroke-linecap:butt;stroke-linejoin:miter;stroke-miterlimit:22.92558479;stroke-dasharray:none;stroke-opacity:1"
       id="path3197"
       inkscape:connector-curvature="0" /><path
       d="m 90.469575,174.69083 c 43.879135,0 79.450305,-35.56736 79.450305,-79.44206 0,-43.874996 -35.57117,-79.442358 -79.450305,-79.442358 -43.87924,0 -79.45041,35.567362 -79.45041,79.442358 0,43.8747 35.57117,79.44206 79.45041,79.44206 z"
       style="fill:none;stroke:#2b2b2a;stroke-width:0.56689996;stroke-linecap:butt;stroke-linejoin:miter;stroke-miterlimit:22.92558479;stroke-dasharray:none;stroke-opacity:1"
       id="path3199"
       inkscape:connector-curvature="0" /><path
       d="m 90.6138,114.28437 c 10.4953,0 19.00351,-8.50734 19.00351,-19.001529 0,-10.494234 -8.50821,-19.001577 -19.00351,-19.001577 -10.49524,0 -19.00345,8.507343 -19.00345,19.001577 0,10.494189 8.50821,19.001529 19.00345,19.001529 z"
       style="fill:#b3b3b3;fill-opacity:1;fill-rule:evenodd;stroke:#2b2b2a;stroke-width:0.56689996;stroke-linecap:butt;stroke-linejoin:miter;stroke-miterlimit:22.92558479;stroke-dasharray:none;stroke-opacity:1"
       id="path3201"
       inkscape:connector-curvature="0" /><g
       id="g4248"
       transform="translate(0.70257178,0)"><path
         inkscape:connector-curvature="0"
         id="path3353"
         style="fill:#9e9e9e;fill-opacity:1;fill-rule:evenodd;stroke:#2b2b2a;stroke-width:0.56689996;stroke-linecap:butt;stroke-linejoin:miter;stroke-miterlimit:22.92558479;stroke-dasharray:none;stroke-opacity:1"
         d="m 106.82743,114.58477 -0.012,45.53619 -32.909805,0 0,-45.53619 6.3479,4.27788 0,34.74404 20.547895,-0.16716 0,-34.57688 6.02598,-4.27788 z" /><path
         inkscape:connector-curvature="0"
         id="path3355"
         style="fill:none;stroke:#2b2b2a;stroke-width:1.20000005;stroke-linecap:butt;stroke-linejoin:miter;stroke-miterlimit:22.92558479;stroke-dasharray:none;stroke-opacity:1"
         d="m 106.47943,144.23704 c 1.87641,-0.47527 3.7524,-0.95053 4.25474,-2.21814 0.50234,-1.26745 -0.36908,-3.32705 -2.56361,-4.30145 -2.19463,-0.97441 -5.71247,-0.86358 -8.192265,0.095 -2.4798,0.95859 -3.92186,2.76468 -3.66762,3.99259 0.25414,1.22791 2.20457,1.87753 4.154855,2.52715" /><g
         transform="matrix(0.50705346,0,0,0.50700209,-42.56488,-190.91964)"
         id="g3357"><path
           inkscape:connector-curvature="0"
           id="path3363"
           style="fill:none;stroke:#2b2b2a;stroke-width:2.36673427;stroke-linecap:butt;stroke-linejoin:miter;stroke-miterlimit:22.92558479;stroke-dasharray:none;stroke-opacity:1"
           d="m 294.5443,675.237 c 3.7001,-0.9374 7.4002,-1.8749 8.3909,-4.375 0.9907,-2.4999 -0.7277,-6.5622 -5.0559,-8.4841 -4.3285,-1.9219 -11.266,-1.7033 -16.1566,0.1874 -4.8904,1.8907 -7.7344,5.453 -7.2332,7.8749 0.5012,2.4219 4.3475,3.7032 8.1941,4.9844" /><path
           inkscape:connector-curvature="0"
           id="path3365"
           style="fill:none;stroke:#2b2b2a;stroke-width:2.36673427;stroke-linecap:butt;stroke-linejoin:miter;stroke-miterlimit:22.92558479;stroke-dasharray:none;stroke-opacity:1"
           d="m 294.2739,668.1135 c 3.7001,-0.9374 7.4004,-1.8748 8.3911,-4.375 0.9905,-2.4999 -0.7279,-6.5622 -5.0564,-8.4841 -4.3282,-1.9219 -11.2657,-1.7033 -16.1561,0.1874 -4.8906,1.8907 -7.7346,5.453 -7.2337,7.8749 0.5017,2.4219 4.3478,3.7032 8.1944,4.9845" /><path
           inkscape:connector-curvature="0"
           id="path3369"
           style="fill:none;stroke:#2b2b2a;stroke-width:2.36673427;stroke-linecap:butt;stroke-linejoin:miter;stroke-miterlimit:22.92558479;stroke-dasharray:none;stroke-opacity:1"
           d="m 294.3995,653.3685 c 3.7006,-0.9374 7.4004,-1.8748 8.3914,-4.375 0.9907,-2.4998 -0.7282,-6.5622 -5.0562,-8.4841 -4.3282,-1.9218 -11.2657,-1.7033 -16.1566,0.1874 -4.8906,1.8907 -7.7346,5.453 -7.2332,7.8749 0.5012,2.422 4.3478,3.7032 8.1939,4.9845" /><path
           inkscape:connector-curvature="0"
           id="path3371"
           style="fill:none;stroke:#2b2b2a;stroke-width:2.36673427;stroke-linecap:butt;stroke-linejoin:miter;stroke-miterlimit:22.92558479;stroke-dasharray:none;stroke-opacity:1"
           d="m 293.8371,647.1808 c 3.7006,-0.9374 7.4004,-1.8748 8.3914,-4.375 0.9907,-2.4999 -0.7282,-6.5622 -5.0562,-8.4841 -4.3282,-1.9219 -11.2657,-1.7033 -16.1563,0.1874 -4.8909,1.8907 -7.7349,5.453 -7.2337,7.8749 0.5017,2.4219 4.348,3.7032 8.1941,4.9844" /><path
           inkscape:connector-curvature="0"
           id="path3373"
           style="fill:none;stroke:#2b2b2a;stroke-width:2.36673427;stroke-linecap:butt;stroke-linejoin:miter;stroke-miterlimit:22.92558479;stroke-dasharray:none;stroke-opacity:1"
           d="m 294.7748,640.5087 c 3.7001,-0.9374 7.4004,-1.8748 8.3911,-4.375 0.9907,-2.4998 -0.7282,-6.5622 -5.0564,-8.4841 -4.328,-1.9218 -11.2655,-1.7033 -16.1561,0.1874 -4.8906,1.8907 -7.7346,5.453 -7.2337,7.8749 0.5017,2.422 4.3478,3.7032 8.1941,4.9845" /><path
           inkscape:connector-curvature="0"
           id="path3375"
           style="fill:none;stroke:#2b2b2a;stroke-width:2.36673427;stroke-linecap:butt;stroke-linejoin:miter;stroke-miterlimit:22.92558479;stroke-dasharray:none;stroke-opacity:1"
           d="m 242.6499,673.1498 c 3.7001,-0.9374 7.4004,-1.8748 8.3911,-4.375 0.9905,-2.4998 -0.7279,-6.5622 -5.0564,-8.4841 -4.3282,-1.9218 -11.2657,-1.7033 -16.1561,0.1874 -4.8906,1.8907 -7.7346,5.453 -7.2337,7.8749 0.5017,2.422 4.3478,3.7032 8.1944,4.9845" /><path
           inkscape:connector-curvature="0"
           id="path3377"
           style="fill:none;stroke:#2b2b2a;stroke-width:2.36673427;stroke-linecap:butt;stroke-linejoin:miter;stroke-miterlimit:22.92558479;stroke-dasharray:none;stroke-opacity:1"
           d="m 242.4991,666.0181 c 3.7001,-0.9374 7.4004,-1.8748 8.3911,-4.375 0.9907,-2.4998 -0.7279,-6.5622 -5.0564,-8.484 -4.3282,-1.9219 -11.2655,-1.7034 -16.1561,0.1873 -4.8906,1.8907 -7.7346,5.453 -7.2337,7.875 0.5017,2.4219 4.3478,3.7031 8.1941,4.9844" /><path
           inkscape:connector-curvature="0"
           id="path3379"
           style="fill:none;stroke:#2b2b2a;stroke-width:2.36673427;stroke-linecap:butt;stroke-linejoin:miter;stroke-miterlimit:22.92558479;stroke-dasharray:none;stroke-opacity:1"
           d="m 242.3684,661.1029 c 3.7001,-0.9375 7.4002,-1.8749 8.3909,-4.375 0.9907,-2.4999 -0.7277,-6.5622 -5.0559,-8.4841 -4.3285,-1.9219 -11.266,-1.7034 -16.1566,0.1873 -4.8904,1.8908 -7.7344,5.4531 -7.2332,7.875 0.5012,2.4219 4.3475,3.7032 8.1941,4.9844" /><path
           inkscape:connector-curvature="0"
           id="path3381"
           style="fill:none;stroke:#2b2b2a;stroke-width:2.36673427;stroke-linecap:butt;stroke-linejoin:miter;stroke-miterlimit:22.92558479;stroke-dasharray:none;stroke-opacity:1"
           d="m 241.9934,655.759 c 3.7001,-0.9374 7.4004,-1.8748 8.3911,-4.375 0.9907,-2.4999 -0.7279,-6.5622 -5.0564,-8.4841 -4.3282,-1.9219 -11.2655,-1.7033 -16.1561,0.1874 -4.8906,1.8907 -7.7346,5.453 -7.2337,7.8749 0.5017,2.4219 4.3478,3.7032 8.1941,4.9844" /><path
           inkscape:connector-curvature="0"
           id="path3383"
           style="fill:none;stroke:#2b2b2a;stroke-width:2.36673427;stroke-linecap:butt;stroke-linejoin:miter;stroke-miterlimit:22.92558479;stroke-dasharray:none;stroke-opacity:1"
           d="m 241.8996,649.6654 c 3.7006,-0.9375 7.4004,-1.8749 8.3911,-4.375 0.991,-2.4999 -0.7279,-6.5622 -5.0559,-8.4841 -4.3282,-1.9219 -11.2657,-1.7034 -16.1566,0.1873 -4.8906,1.8907 -7.7346,5.453 -7.2332,7.875 0.5012,2.4219 4.3478,3.7031 8.1939,4.9844" /><path
           inkscape:connector-curvature="0"
           id="path3385"
           style="fill:none;stroke:#2b2b2a;stroke-width:2.36673427;stroke-linecap:butt;stroke-linejoin:miter;stroke-miterlimit:22.92558479;stroke-dasharray:none;stroke-opacity:1"
           d="m 241.7122,643.1964 c 3.7001,-0.9374 7.4004,-1.8748 8.3911,-4.375 0.9905,-2.4999 -0.7279,-6.5622 -5.0564,-8.4841 -4.3282,-1.9219 -11.2657,-1.7033 -16.1561,0.1874 -4.8906,1.8907 -7.7346,5.453 -7.2337,7.8749 0.5017,2.4219 4.3478,3.7032 8.1941,4.9845" /><path
           inkscape:connector-curvature="0"
           id="path3387"
           style="fill:none;stroke:#2b2b2a;stroke-width:2.36673427;stroke-linecap:butt;stroke-linejoin:miter;stroke-miterlimit:22.92558479;stroke-dasharray:none;stroke-opacity:1"
           d="m 294.5443,678.0963 c 3.9501,0.25 7.8999,0.5 11.2499,0.3124 3.3497,-0.1874 6.0999,-0.8124 8.8498,-1.4375" /><path
           inkscape:connector-curvature="0"
           id="path3391"
           style="fill:none;stroke:#2b2b2a;stroke-width:2.36673427;stroke-linecap:butt;stroke-linejoin:miter;stroke-miterlimit:22.92558479;stroke-dasharray:none;stroke-opacity:1"
           d="m 229.5652,675.7058 c -3.6876,-0.7188 -7.3749,-1.4374 -11.0157,-3.0158 -3.6403,-1.578 -7.2343,-4.0155 -10.8278,-6.453" /></g><path
         inkscape:connector-curvature="0"
         id="path3401"
         style="fill:none;stroke:#0065bd;stroke-width:1.20000005;stroke-linecap:butt;stroke-linejoin:miter;stroke-miterlimit:22.92558479;stroke-dasharray:1.2, 1.2;stroke-dashoffset:0;stroke-opacity:1"
         d="m 95.774165,107.99257 c -2.45997,-0.95468 -3.03494,-0.86758 -5.33636,-0.66569 -2.30146,0.20194 -6.32963,0.51882 -8.13621,1.65952 -2.948938,2.19369 -4.970245,5.02937 -5.05147,8.75897 -0.0154,0.73784 -0.0154,0.73784 -0.0358,6.52375 -0.0205,5.78606 -0.0615,17.35802 0.0168,23.59146 0.0788,6.23359 0.27685,7.12881 0.88511,7.59342 0.60842,0.46482 1.62704,0.49899 5.46178,0.56237 3.83464,0.0634 10.48541,0.15565 14.24628,0.0592 3.761015,-0.0963 4.632595,-0.38157 5.179245,-1.17371 0.54645,-0.79219 0.76849,-2.09139 0.87416,-8.25957 0.10593,-6.16819 0.40337,-23.49528 0.40337,-23.49528 -1.23494,-7.23845 -1.16644,-12.18455 -8.506905,-15.15444 z"
         sodipodi:nodetypes="cccccccsccccc" /></g><g
       id="g3403"
       transform="matrix(0.50705346,0,0,0.50700209,-42.56488,-190.91964)"><path
         d="m 262.9344,736.0458 0,-171.5462 -1.1339,0 0,171.5462 1.1339,0 z m -0.567,6.5786 3.4719,-6.9414 -6.9415,0 3.4696,6.9414 z"
         style="fill:#2b2b2a;fill-opacity:1;fill-rule:nonzero;stroke:none"
         id="path3405"
         inkscape:connector-curvature="0" /></g><g
       id="g3407"
       transform="matrix(0.51603592,0,0,0.51598364,-44.921585,-195.98971)"
       style="stroke-width:0.54262537;stroke-miterlimit:22.92558479;stroke-dasharray:none"><path
         d="m 433.9137,563.9326 -171.5463,0 0,1.1339 171.5463,0 0,-1.1339 z m 6.5786,0.567 -6.9415,-3.4719 0,6.9415 6.9415,-3.4696 z"
         style="fill:#2b2b2a;fill-opacity:1;fill-rule:nonzero;stroke:none;stroke-width:0.54262537;stroke-miterlimit:22.92558479;stroke-dasharray:none"
         id="path3409"
         inkscape:connector-curvature="0" /></g><flowRoot
       xml:space="preserve"
       id="flowRoot3411"
       style="font-style:normal;font-weight:normal;font-size:40px;line-height:125%;font-family:Sans;letter-spacing:0px;word-spacing:0px;fill:#000000;fill-opacity:1;stroke:none"
       transform="matrix(0.40564277,0,0,-0.40560168,-135.93533,505.31541)"><flowRegion
         id="flowRegion3413"><rect
           id="rect3415"
           width="313.04214"
           height="170.03369"
           x="561.89941"
           y="765.7146" /></flowRegion><flowPara
         id="flowPara3417">$x$</flowPara></flowRoot><flowRoot
       xml:space="preserve"
       id="flowRoot3411-4"
       style="font-style:normal;font-weight:normal;font-size:40px;line-height:125%;font-family:Sans;letter-spacing:0px;word-spacing:0px;fill:#000000;fill-opacity:1;stroke:none"
       transform="matrix(0.40564277,0,0,-0.40560168,-45.897858,416.03031)"><flowRegion
         id="flowRegion3413-7"><rect
           id="rect3415-8"
           width="313.04214"
           height="170.03369"
           x="561.89941"
           y="765.7146" /></flowRegion><flowPara
         id="flowPara3417-6">$y$</flowPara></flowRoot><g
       id="g4249"
       transform="matrix(1,0,0,-1,0.70257178,191.35971)"><path
         d="m 106.82743,114.58477 -0.012,45.53619 -32.909805,0 0,-45.53619 6.3479,4.27788 0,34.74404 20.547895,-0.16716 0,-34.57688 6.02598,-4.27788 z"
         style="fill:#9e9e9e;fill-opacity:1;fill-rule:evenodd;stroke:#2b2b2a;stroke-width:0.56689996;stroke-linecap:butt;stroke-linejoin:miter;stroke-miterlimit:22.92558479;stroke-dasharray:none;stroke-opacity:1"
         id="path4251"
         inkscape:connector-curvature="0" /><path
         d="m 106.47943,144.23704 c 1.87641,-0.47527 3.7524,-0.95053 4.25474,-2.21814 0.50234,-1.26745 -0.36908,-3.32705 -2.56361,-4.30145 -2.19463,-0.97441 -5.71247,-0.86358 -8.192265,0.095 -2.4798,0.95859 -3.92186,2.76468 -3.66762,3.99259 0.25414,1.22791 2.20457,1.87753 4.154855,2.52715"
         style="fill:none;stroke:#2b2b2a;stroke-width:1.20000005;stroke-linecap:butt;stroke-linejoin:miter;stroke-miterlimit:22.92558479;stroke-dasharray:none;stroke-opacity:1"
         id="path4253"
         inkscape:connector-curvature="0" /><g
         id="g4255"
         transform="matrix(0.50705346,0,0,0.50700209,-42.56488,-190.91964)"><path
           d="m 294.5443,675.237 c 3.7001,-0.9374 7.4002,-1.8749 8.3909,-4.375 0.9907,-2.4999 -0.7277,-6.5622 -5.0559,-8.4841 -4.3285,-1.9219 -11.266,-1.7033 -16.1566,0.1874 -4.8904,1.8907 -7.7344,5.453 -7.2332,7.8749 0.5012,2.4219 4.3475,3.7032 8.1941,4.9844"
           style="fill:none;stroke:#2b2b2a;stroke-width:2.36673427;stroke-linecap:butt;stroke-linejoin:miter;stroke-miterlimit:22.92558479;stroke-dasharray:none;stroke-opacity:1"
           id="path4257"
           inkscape:connector-curvature="0" /><path
           d="m 294.2739,668.1135 c 3.7001,-0.9374 7.4004,-1.8748 8.3911,-4.375 0.9905,-2.4999 -0.7279,-6.5622 -5.0564,-8.4841 -4.3282,-1.9219 -11.2657,-1.7033 -16.1561,0.1874 -4.8906,1.8907 -7.7346,5.453 -7.2337,7.8749 0.5017,2.4219 4.3478,3.7032 8.1944,4.9845"
           style="fill:none;stroke:#2b2b2a;stroke-width:2.36673427;stroke-linecap:butt;stroke-linejoin:miter;stroke-miterlimit:22.92558479;stroke-dasharray:none;stroke-opacity:1"
           id="path4259"
           inkscape:connector-curvature="0" /><path
           d="m 294.3995,653.3685 c 3.7006,-0.9374 7.4004,-1.8748 8.3914,-4.375 0.9907,-2.4998 -0.7282,-6.5622 -5.0562,-8.4841 -4.3282,-1.9218 -11.2657,-1.7033 -16.1566,0.1874 -4.8906,1.8907 -7.7346,5.453 -7.2332,7.8749 0.5012,2.422 4.3478,3.7032 8.1939,4.9845"
           style="fill:none;stroke:#2b2b2a;stroke-width:2.36673427;stroke-linecap:butt;stroke-linejoin:miter;stroke-miterlimit:22.92558479;stroke-dasharray:none;stroke-opacity:1"
           id="path4261"
           inkscape:connector-curvature="0" /><path
           d="m 293.8371,647.1808 c 3.7006,-0.9374 7.4004,-1.8748 8.3914,-4.375 0.9907,-2.4999 -0.7282,-6.5622 -5.0562,-8.4841 -4.3282,-1.9219 -11.2657,-1.7033 -16.1563,0.1874 -4.8909,1.8907 -7.7349,5.453 -7.2337,7.8749 0.5017,2.4219 4.348,3.7032 8.1941,4.9844"
           style="fill:none;stroke:#2b2b2a;stroke-width:2.36673427;stroke-linecap:butt;stroke-linejoin:miter;stroke-miterlimit:22.92558479;stroke-dasharray:none;stroke-opacity:1"
           id="path4263"
           inkscape:connector-curvature="0" /><path
           d="m 294.7748,640.5087 c 3.7001,-0.9374 7.4004,-1.8748 8.3911,-4.375 0.9907,-2.4998 -0.7282,-6.5622 -5.0564,-8.4841 -4.328,-1.9218 -11.2655,-1.7033 -16.1561,0.1874 -4.8906,1.8907 -7.7346,5.453 -7.2337,7.8749 0.5017,2.422 4.3478,3.7032 8.1941,4.9845"
           style="fill:none;stroke:#2b2b2a;stroke-width:2.36673427;stroke-linecap:butt;stroke-linejoin:miter;stroke-miterlimit:22.92558479;stroke-dasharray:none;stroke-opacity:1"
           id="path4265"
           inkscape:connector-curvature="0" /><path
           d="m 242.6499,673.1498 c 3.7001,-0.9374 7.4004,-1.8748 8.3911,-4.375 0.9905,-2.4998 -0.7279,-6.5622 -5.0564,-8.4841 -4.3282,-1.9218 -11.2657,-1.7033 -16.1561,0.1874 -4.8906,1.8907 -7.7346,5.453 -7.2337,7.8749 0.5017,2.422 4.3478,3.7032 8.1944,4.9845"
           style="fill:none;stroke:#2b2b2a;stroke-width:2.36673427;stroke-linecap:butt;stroke-linejoin:miter;stroke-miterlimit:22.92558479;stroke-dasharray:none;stroke-opacity:1"
           id="path4267"
           inkscape:connector-curvature="0" /><path
           d="m 242.4991,666.0181 c 3.7001,-0.9374 7.4004,-1.8748 8.3911,-4.375 0.9907,-2.4998 -0.7279,-6.5622 -5.0564,-8.484 -4.3282,-1.9219 -11.2655,-1.7034 -16.1561,0.1873 -4.8906,1.8907 -7.7346,5.453 -7.2337,7.875 0.5017,2.4219 4.3478,3.7031 8.1941,4.9844"
           style="fill:none;stroke:#2b2b2a;stroke-width:2.36673427;stroke-linecap:butt;stroke-linejoin:miter;stroke-miterlimit:22.92558479;stroke-dasharray:none;stroke-opacity:1"
           id="path4269"
           inkscape:connector-curvature="0" /><path
           d="m 242.3684,661.1029 c 3.7001,-0.9375 7.4002,-1.8749 8.3909,-4.375 0.9907,-2.4999 -0.7277,-6.5622 -5.0559,-8.4841 -4.3285,-1.9219 -11.266,-1.7034 -16.1566,0.1873 -4.8904,1.8908 -7.7344,5.4531 -7.2332,7.875 0.5012,2.4219 4.3475,3.7032 8.1941,4.9844"
           style="fill:none;stroke:#2b2b2a;stroke-width:2.36673427;stroke-linecap:butt;stroke-linejoin:miter;stroke-miterlimit:22.92558479;stroke-dasharray:none;stroke-opacity:1"
           id="path4271"
           inkscape:connector-curvature="0" /><path
           d="m 241.9934,655.759 c 3.7001,-0.9374 7.4004,-1.8748 8.3911,-4.375 0.9907,-2.4999 -0.7279,-6.5622 -5.0564,-8.4841 -4.3282,-1.9219 -11.2655,-1.7033 -16.1561,0.1874 -4.8906,1.8907 -7.7346,5.453 -7.2337,7.8749 0.5017,2.4219 4.3478,3.7032 8.1941,4.9844"
           style="fill:none;stroke:#2b2b2a;stroke-width:2.36673427;stroke-linecap:butt;stroke-linejoin:miter;stroke-miterlimit:22.92558479;stroke-dasharray:none;stroke-opacity:1"
           id="path4273"
           inkscape:connector-curvature="0" /><path
           d="m 241.8996,649.6654 c 3.7006,-0.9375 7.4004,-1.8749 8.3911,-4.375 0.991,-2.4999 -0.7279,-6.5622 -5.0559,-8.4841 -4.3282,-1.9219 -11.2657,-1.7034 -16.1566,0.1873 -4.8906,1.8907 -7.7346,5.453 -7.2332,7.875 0.5012,2.4219 4.3478,3.7031 8.1939,4.9844"
           style="fill:none;stroke:#2b2b2a;stroke-width:2.36673427;stroke-linecap:butt;stroke-linejoin:miter;stroke-miterlimit:22.92558479;stroke-dasharray:none;stroke-opacity:1"
           id="path4275"
           inkscape:connector-curvature="0" /><path
           d="m 241.7122,643.1964 c 3.7001,-0.9374 7.4004,-1.8748 8.3911,-4.375 0.9905,-2.4999 -0.7279,-6.5622 -5.0564,-8.4841 -4.3282,-1.9219 -11.2657,-1.7033 -16.1561,0.1874 -4.8906,1.8907 -7.7346,5.453 -7.2337,7.8749 0.5017,2.4219 4.3478,3.7032 8.1941,4.9845"
           style="fill:none;stroke:#2b2b2a;stroke-width:2.36673427;stroke-linecap:butt;stroke-linejoin:miter;stroke-miterlimit:22.92558479;stroke-dasharray:none;stroke-opacity:1"
           id="path4277"
           inkscape:connector-curvature="0" /><path
           d="m 294.5443,678.0963 c 3.9501,0.25 7.8999,0.5 11.2499,0.3124 3.3497,-0.1874 6.0999,-0.8124 8.8498,-1.4375"
           style="fill:none;stroke:#2b2b2a;stroke-width:2.36673427;stroke-linecap:butt;stroke-linejoin:miter;stroke-miterlimit:22.92558479;stroke-dasharray:none;stroke-opacity:1"
           id="path4279"
           inkscape:connector-curvature="0" /><path
           d="m 229.5652,675.7058 c -3.6876,-0.7188 -7.3749,-1.4374 -11.0157,-3.0158 -3.6403,-1.578 -7.2343,-4.0155 -10.8278,-6.453"
           style="fill:none;stroke:#2b2b2a;stroke-width:2.36673427;stroke-linecap:butt;stroke-linejoin:miter;stroke-miterlimit:22.92558479;stroke-dasharray:none;stroke-opacity:1"
           id="path4281"
           inkscape:connector-curvature="0" /></g><path
         sodipodi:nodetypes="cccccccsccccc"
         d="m 95.774165,107.99257 c -2.45997,-0.95468 -3.03494,-0.86758 -5.33636,-0.66569 -2.30146,0.20194 -6.32963,0.51882 -8.13621,1.65952 -2.948938,2.19369 -4.970245,5.02937 -5.05147,8.75897 -0.0154,0.73784 -0.0154,0.73784 -0.0358,6.52375 -0.0205,5.78606 -0.0615,17.35802 0.0168,23.59146 0.0788,6.23359 0.27685,7.12881 0.88511,7.59342 0.60842,0.46482 1.62704,0.49899 5.46178,0.56237 3.83464,0.0634 10.48541,0.15565 14.24628,0.0592 3.761015,-0.0963 4.632595,-0.38157 5.179245,-1.17371 0.54645,-0.79219 0.76849,-2.09139 0.87416,-8.25957 0.10593,-6.16819 0.40337,-23.49528 0.40337,-23.49528 -1.23494,-7.23845 -1.16644,-12.18455 -8.506905,-15.15444 z"
         style="fill:none;stroke:#0065bd;stroke-width:1.20000005;stroke-linecap:butt;stroke-linejoin:miter;stroke-miterlimit:22.92558479;stroke-dasharray:1.2, 1.2;stroke-dashoffset:0;stroke-opacity:1"
         id="path4283"
         inkscape:connector-curvature="0" /></g><g
       id="g4285"
       transform="matrix(0,1,-1,0,184.427,5.5159413)"><path
         d="m 106.82743,114.58477 -0.012,45.53619 -32.909805,0 0,-45.53619 6.3479,4.27788 0,34.74404 20.547895,-0.16716 0,-34.57688 6.02598,-4.27788 z"
         style="fill:#9e9e9e;fill-opacity:1;fill-rule:evenodd;stroke:#2b2b2a;stroke-width:0.56689996;stroke-linecap:butt;stroke-linejoin:miter;stroke-miterlimit:22.92558479;stroke-dasharray:none;stroke-opacity:1"
         id="path4287"
         inkscape:connector-curvature="0" /><path
         d="m 106.47943,144.23704 c 1.87641,-0.47527 3.7524,-0.95053 4.25474,-2.21814 0.50234,-1.26745 -0.36908,-3.32705 -2.56361,-4.30145 -2.19463,-0.97441 -5.71247,-0.86358 -8.192265,0.095 -2.4798,0.95859 -3.92186,2.76468 -3.66762,3.99259 0.25414,1.22791 2.20457,1.87753 4.154855,2.52715"
         style="fill:none;stroke:#2b2b2a;stroke-width:1.20000005;stroke-linecap:butt;stroke-linejoin:miter;stroke-miterlimit:22.92558479;stroke-dasharray:none;stroke-opacity:1"
         id="path4289"
         inkscape:connector-curvature="0" /><g
         id="g4291"
         transform="matrix(0.50705346,0,0,0.50700209,-42.56488,-190.91964)"><path
           d="m 294.5443,675.237 c 3.7001,-0.9374 7.4002,-1.8749 8.3909,-4.375 0.9907,-2.4999 -0.7277,-6.5622 -5.0559,-8.4841 -4.3285,-1.9219 -11.266,-1.7033 -16.1566,0.1874 -4.8904,1.8907 -7.7344,5.453 -7.2332,7.8749 0.5012,2.4219 4.3475,3.7032 8.1941,4.9844"
           style="fill:none;stroke:#2b2b2a;stroke-width:2.36673427;stroke-linecap:butt;stroke-linejoin:miter;stroke-miterlimit:22.92558479;stroke-dasharray:none;stroke-opacity:1"
           id="path4293"
           inkscape:connector-curvature="0" /><path
           d="m 294.2739,668.1135 c 3.7001,-0.9374 7.4004,-1.8748 8.3911,-4.375 0.9905,-2.4999 -0.7279,-6.5622 -5.0564,-8.4841 -4.3282,-1.9219 -11.2657,-1.7033 -16.1561,0.1874 -4.8906,1.8907 -7.7346,5.453 -7.2337,7.8749 0.5017,2.4219 4.3478,3.7032 8.1944,4.9845"
           style="fill:none;stroke:#2b2b2a;stroke-width:2.36673427;stroke-linecap:butt;stroke-linejoin:miter;stroke-miterlimit:22.92558479;stroke-dasharray:none;stroke-opacity:1"
           id="path4295"
           inkscape:connector-curvature="0" /><path
           d="m 294.3995,653.3685 c 3.7006,-0.9374 7.4004,-1.8748 8.3914,-4.375 0.9907,-2.4998 -0.7282,-6.5622 -5.0562,-8.4841 -4.3282,-1.9218 -11.2657,-1.7033 -16.1566,0.1874 -4.8906,1.8907 -7.7346,5.453 -7.2332,7.8749 0.5012,2.422 4.3478,3.7032 8.1939,4.9845"
           style="fill:none;stroke:#2b2b2a;stroke-width:2.36673427;stroke-linecap:butt;stroke-linejoin:miter;stroke-miterlimit:22.92558479;stroke-dasharray:none;stroke-opacity:1"
           id="path4297"
           inkscape:connector-curvature="0" /><path
           d="m 293.8371,647.1808 c 3.7006,-0.9374 7.4004,-1.8748 8.3914,-4.375 0.9907,-2.4999 -0.7282,-6.5622 -5.0562,-8.4841 -4.3282,-1.9219 -11.2657,-1.7033 -16.1563,0.1874 -4.8909,1.8907 -7.7349,5.453 -7.2337,7.8749 0.5017,2.4219 4.348,3.7032 8.1941,4.9844"
           style="fill:none;stroke:#2b2b2a;stroke-width:2.36673427;stroke-linecap:butt;stroke-linejoin:miter;stroke-miterlimit:22.92558479;stroke-dasharray:none;stroke-opacity:1"
           id="path4299"
           inkscape:connector-curvature="0" /><path
           d="m 294.7748,640.5087 c 3.7001,-0.9374 7.4004,-1.8748 8.3911,-4.375 0.9907,-2.4998 -0.7282,-6.5622 -5.0564,-8.4841 -4.328,-1.9218 -11.2655,-1.7033 -16.1561,0.1874 -4.8906,1.8907 -7.7346,5.453 -7.2337,7.8749 0.5017,2.422 4.3478,3.7032 8.1941,4.9845"
           style="fill:none;stroke:#2b2b2a;stroke-width:2.36673427;stroke-linecap:butt;stroke-linejoin:miter;stroke-miterlimit:22.92558479;stroke-dasharray:none;stroke-opacity:1"
           id="path4301"
           inkscape:connector-curvature="0" /><path
           d="m 242.6499,673.1498 c 3.7001,-0.9374 7.4004,-1.8748 8.3911,-4.375 0.9905,-2.4998 -0.7279,-6.5622 -5.0564,-8.4841 -4.3282,-1.9218 -11.2657,-1.7033 -16.1561,0.1874 -4.8906,1.8907 -7.7346,5.453 -7.2337,7.8749 0.5017,2.422 4.3478,3.7032 8.1944,4.9845"
           style="fill:none;stroke:#2b2b2a;stroke-width:2.36673427;stroke-linecap:butt;stroke-linejoin:miter;stroke-miterlimit:22.92558479;stroke-dasharray:none;stroke-opacity:1"
           id="path4303"
           inkscape:connector-curvature="0" /><path
           d="m 242.4991,666.0181 c 3.7001,-0.9374 7.4004,-1.8748 8.3911,-4.375 0.9907,-2.4998 -0.7279,-6.5622 -5.0564,-8.484 -4.3282,-1.9219 -11.2655,-1.7034 -16.1561,0.1873 -4.8906,1.8907 -7.7346,5.453 -7.2337,7.875 0.5017,2.4219 4.3478,3.7031 8.1941,4.9844"
           style="fill:none;stroke:#2b2b2a;stroke-width:2.36673427;stroke-linecap:butt;stroke-linejoin:miter;stroke-miterlimit:22.92558479;stroke-dasharray:none;stroke-opacity:1"
           id="path4305"
           inkscape:connector-curvature="0" /><path
           d="m 242.3684,661.1029 c 3.7001,-0.9375 7.4002,-1.8749 8.3909,-4.375 0.9907,-2.4999 -0.7277,-6.5622 -5.0559,-8.4841 -4.3285,-1.9219 -11.266,-1.7034 -16.1566,0.1873 -4.8904,1.8908 -7.7344,5.4531 -7.2332,7.875 0.5012,2.4219 4.3475,3.7032 8.1941,4.9844"
           style="fill:none;stroke:#2b2b2a;stroke-width:2.36673427;stroke-linecap:butt;stroke-linejoin:miter;stroke-miterlimit:22.92558479;stroke-dasharray:none;stroke-opacity:1"
           id="path4307"
           inkscape:connector-curvature="0" /><path
           d="m 241.9934,655.759 c 3.7001,-0.9374 7.4004,-1.8748 8.3911,-4.375 0.9907,-2.4999 -0.7279,-6.5622 -5.0564,-8.4841 -4.3282,-1.9219 -11.2655,-1.7033 -16.1561,0.1874 -4.8906,1.8907 -7.7346,5.453 -7.2337,7.8749 0.5017,2.4219 4.3478,3.7032 8.1941,4.9844"
           style="fill:none;stroke:#2b2b2a;stroke-width:2.36673427;stroke-linecap:butt;stroke-linejoin:miter;stroke-miterlimit:22.92558479;stroke-dasharray:none;stroke-opacity:1"
           id="path4309"
           inkscape:connector-curvature="0" /><path
           d="m 241.8996,649.6654 c 3.7006,-0.9375 7.4004,-1.8749 8.3911,-4.375 0.991,-2.4999 -0.7279,-6.5622 -5.0559,-8.4841 -4.3282,-1.9219 -11.2657,-1.7034 -16.1566,0.1873 -4.8906,1.8907 -7.7346,5.453 -7.2332,7.875 0.5012,2.4219 4.3478,3.7031 8.1939,4.9844"
           style="fill:none;stroke:#2b2b2a;stroke-width:2.36673427;stroke-linecap:butt;stroke-linejoin:miter;stroke-miterlimit:22.92558479;stroke-dasharray:none;stroke-opacity:1"
           id="path4311"
           inkscape:connector-curvature="0" /><path
           d="m 241.7122,643.1964 c 3.7001,-0.9374 7.4004,-1.8748 8.3911,-4.375 0.9905,-2.4999 -0.7279,-6.5622 -5.0564,-8.4841 -4.3282,-1.9219 -11.2657,-1.7033 -16.1561,0.1874 -4.8906,1.8907 -7.7346,5.453 -7.2337,7.8749 0.5017,2.4219 4.3478,3.7032 8.1941,4.9845"
           style="fill:none;stroke:#2b2b2a;stroke-width:2.36673427;stroke-linecap:butt;stroke-linejoin:miter;stroke-miterlimit:22.92558479;stroke-dasharray:none;stroke-opacity:1"
           id="path4313"
           inkscape:connector-curvature="0" /><path
           d="m 294.5443,678.0963 c 3.9501,0.25 7.8999,0.5 11.2499,0.3124 3.3497,-0.1874 6.0999,-0.8124 8.8498,-1.4375"
           style="fill:none;stroke:#2b2b2a;stroke-width:2.36673427;stroke-linecap:butt;stroke-linejoin:miter;stroke-miterlimit:22.92558479;stroke-dasharray:none;stroke-opacity:1"
           id="path4315"
           inkscape:connector-curvature="0" /><path
           d="m 229.5652,675.7058 c -3.6876,-0.7188 -7.3749,-1.4374 -11.0157,-3.0158 -3.6403,-1.578 -7.2343,-4.0155 -10.8278,-6.453"
           style="fill:none;stroke:#2b2b2a;stroke-width:2.36673427;stroke-linecap:butt;stroke-linejoin:miter;stroke-miterlimit:22.92558479;stroke-dasharray:none;stroke-opacity:1"
           id="path4317"
           inkscape:connector-curvature="0" /></g><path
         sodipodi:nodetypes="cccccccsccccc"
         d="m 95.774165,107.99257 c -2.45997,-0.95468 -3.03494,-0.86758 -5.33636,-0.66569 -2.30146,0.20194 -6.32963,0.51882 -8.13621,1.65952 -2.948938,2.19369 -4.970245,5.02937 -5.05147,8.75897 -0.0154,0.73784 -0.0154,0.73784 -0.0358,6.52375 -0.0205,5.78606 -0.0615,17.35802 0.0168,23.59146 0.0788,6.23359 0.27685,7.12881 0.88511,7.59342 0.60842,0.46482 1.62704,0.49899 5.46178,0.56237 3.83464,0.0634 10.48541,0.15565 14.24628,0.0592 3.761015,-0.0963 4.632595,-0.38157 5.179245,-1.17371 0.54645,-0.79219 0.76849,-2.09139 0.87416,-8.25957 0.10593,-6.16819 0.40337,-23.49528 0.40337,-23.49528 -1.23494,-7.23845 -1.16644,-12.18455 -8.506905,-15.15444 z"
         style="fill:none;stroke:#0065bd;stroke-width:1.20000005;stroke-linecap:butt;stroke-linejoin:miter;stroke-miterlimit:22.92558479;stroke-dasharray:1.2, 1.2;stroke-dashoffset:0;stroke-opacity:1"
         id="path4319"
         inkscape:connector-curvature="0" /></g><g
       transform="matrix(0,1,1,0,-3.1993365,5.5159413)"
       id="g4321"><path
         inkscape:connector-curvature="0"
         id="path4323"
         style="fill:#9e9e9e;fill-opacity:1;fill-rule:evenodd;stroke:#2b2b2a;stroke-width:0.56689996;stroke-linecap:butt;stroke-linejoin:miter;stroke-miterlimit:22.92558479;stroke-dasharray:none;stroke-opacity:1"
         d="m 106.82743,114.58477 -0.012,45.53619 -32.909805,0 0,-45.53619 6.3479,4.27788 0,34.74404 20.547895,-0.16716 0,-34.57688 6.02598,-4.27788 z" /><path
         inkscape:connector-curvature="0"
         id="path4325"
         style="fill:none;stroke:#2b2b2a;stroke-width:1.20000005;stroke-linecap:butt;stroke-linejoin:miter;stroke-miterlimit:22.92558479;stroke-dasharray:none;stroke-opacity:1"
         d="m 106.47943,144.23704 c 1.87641,-0.47527 3.7524,-0.95053 4.25474,-2.21814 0.50234,-1.26745 -0.36908,-3.32705 -2.56361,-4.30145 -2.19463,-0.97441 -5.71247,-0.86358 -8.192265,0.095 -2.4798,0.95859 -3.92186,2.76468 -3.66762,3.99259 0.25414,1.22791 2.20457,1.87753 4.154855,2.52715" /><g
         transform="matrix(0.50705346,0,0,0.50700209,-42.56488,-190.91964)"
         id="g4327"><path
           inkscape:connector-curvature="0"
           id="path4329"
           style="fill:none;stroke:#2b2b2a;stroke-width:2.36673427;stroke-linecap:butt;stroke-linejoin:miter;stroke-miterlimit:22.92558479;stroke-dasharray:none;stroke-opacity:1"
           d="m 294.5443,675.237 c 3.7001,-0.9374 7.4002,-1.8749 8.3909,-4.375 0.9907,-2.4999 -0.7277,-6.5622 -5.0559,-8.4841 -4.3285,-1.9219 -11.266,-1.7033 -16.1566,0.1874 -4.8904,1.8907 -7.7344,5.453 -7.2332,7.8749 0.5012,2.4219 4.3475,3.7032 8.1941,4.9844" /><path
           inkscape:connector-curvature="0"
           id="path4331"
           style="fill:none;stroke:#2b2b2a;stroke-width:2.36673427;stroke-linecap:butt;stroke-linejoin:miter;stroke-miterlimit:22.92558479;stroke-dasharray:none;stroke-opacity:1"
           d="m 294.2739,668.1135 c 3.7001,-0.9374 7.4004,-1.8748 8.3911,-4.375 0.9905,-2.4999 -0.7279,-6.5622 -5.0564,-8.4841 -4.3282,-1.9219 -11.2657,-1.7033 -16.1561,0.1874 -4.8906,1.8907 -7.7346,5.453 -7.2337,7.8749 0.5017,2.4219 4.3478,3.7032 8.1944,4.9845" /><path
           inkscape:connector-curvature="0"
           id="path4333"
           style="fill:none;stroke:#2b2b2a;stroke-width:2.36673427;stroke-linecap:butt;stroke-linejoin:miter;stroke-miterlimit:22.92558479;stroke-dasharray:none;stroke-opacity:1"
           d="m 294.3995,653.3685 c 3.7006,-0.9374 7.4004,-1.8748 8.3914,-4.375 0.9907,-2.4998 -0.7282,-6.5622 -5.0562,-8.4841 -4.3282,-1.9218 -11.2657,-1.7033 -16.1566,0.1874 -4.8906,1.8907 -7.7346,5.453 -7.2332,7.8749 0.5012,2.422 4.3478,3.7032 8.1939,4.9845" /><path
           inkscape:connector-curvature="0"
           id="path4335"
           style="fill:none;stroke:#2b2b2a;stroke-width:2.36673427;stroke-linecap:butt;stroke-linejoin:miter;stroke-miterlimit:22.92558479;stroke-dasharray:none;stroke-opacity:1"
           d="m 293.8371,647.1808 c 3.7006,-0.9374 7.4004,-1.8748 8.3914,-4.375 0.9907,-2.4999 -0.7282,-6.5622 -5.0562,-8.4841 -4.3282,-1.9219 -11.2657,-1.7033 -16.1563,0.1874 -4.8909,1.8907 -7.7349,5.453 -7.2337,7.8749 0.5017,2.4219 4.348,3.7032 8.1941,4.9844" /><path
           inkscape:connector-curvature="0"
           id="path4337"
           style="fill:none;stroke:#2b2b2a;stroke-width:2.36673427;stroke-linecap:butt;stroke-linejoin:miter;stroke-miterlimit:22.92558479;stroke-dasharray:none;stroke-opacity:1"
           d="m 294.7748,640.5087 c 3.7001,-0.9374 7.4004,-1.8748 8.3911,-4.375 0.9907,-2.4998 -0.7282,-6.5622 -5.0564,-8.4841 -4.328,-1.9218 -11.2655,-1.7033 -16.1561,0.1874 -4.8906,1.8907 -7.7346,5.453 -7.2337,7.8749 0.5017,2.422 4.3478,3.7032 8.1941,4.9845" /><path
           inkscape:connector-curvature="0"
           id="path4339"
           style="fill:none;stroke:#2b2b2a;stroke-width:2.36673427;stroke-linecap:butt;stroke-linejoin:miter;stroke-miterlimit:22.92558479;stroke-dasharray:none;stroke-opacity:1"
           d="m 242.6499,673.1498 c 3.7001,-0.9374 7.4004,-1.8748 8.3911,-4.375 0.9905,-2.4998 -0.7279,-6.5622 -5.0564,-8.4841 -4.3282,-1.9218 -11.2657,-1.7033 -16.1561,0.1874 -4.8906,1.8907 -7.7346,5.453 -7.2337,7.8749 0.5017,2.422 4.3478,3.7032 8.1944,4.9845" /><path
           inkscape:connector-curvature="0"
           id="path4341"
           style="fill:none;stroke:#2b2b2a;stroke-width:2.36673427;stroke-linecap:butt;stroke-linejoin:miter;stroke-miterlimit:22.92558479;stroke-dasharray:none;stroke-opacity:1"
           d="m 242.4991,666.0181 c 3.7001,-0.9374 7.4004,-1.8748 8.3911,-4.375 0.9907,-2.4998 -0.7279,-6.5622 -5.0564,-8.484 -4.3282,-1.9219 -11.2655,-1.7034 -16.1561,0.1873 -4.8906,1.8907 -7.7346,5.453 -7.2337,7.875 0.5017,2.4219 4.3478,3.7031 8.1941,4.9844" /><path
           inkscape:connector-curvature="0"
           id="path4343"
           style="fill:none;stroke:#2b2b2a;stroke-width:2.36673427;stroke-linecap:butt;stroke-linejoin:miter;stroke-miterlimit:22.92558479;stroke-dasharray:none;stroke-opacity:1"
           d="m 242.3684,661.1029 c 3.7001,-0.9375 7.4002,-1.8749 8.3909,-4.375 0.9907,-2.4999 -0.7277,-6.5622 -5.0559,-8.4841 -4.3285,-1.9219 -11.266,-1.7034 -16.1566,0.1873 -4.8904,1.8908 -7.7344,5.4531 -7.2332,7.875 0.5012,2.4219 4.3475,3.7032 8.1941,4.9844" /><path
           inkscape:connector-curvature="0"
           id="path4345"
           style="fill:none;stroke:#2b2b2a;stroke-width:2.36673427;stroke-linecap:butt;stroke-linejoin:miter;stroke-miterlimit:22.92558479;stroke-dasharray:none;stroke-opacity:1"
           d="m 241.9934,655.759 c 3.7001,-0.9374 7.4004,-1.8748 8.3911,-4.375 0.9907,-2.4999 -0.7279,-6.5622 -5.0564,-8.4841 -4.3282,-1.9219 -11.2655,-1.7033 -16.1561,0.1874 -4.8906,1.8907 -7.7346,5.453 -7.2337,7.8749 0.5017,2.4219 4.3478,3.7032 8.1941,4.9844" /><path
           inkscape:connector-curvature="0"
           id="path4347"
           style="fill:none;stroke:#2b2b2a;stroke-width:2.36673427;stroke-linecap:butt;stroke-linejoin:miter;stroke-miterlimit:22.92558479;stroke-dasharray:none;stroke-opacity:1"
           d="m 241.8996,649.6654 c 3.7006,-0.9375 7.4004,-1.8749 8.3911,-4.375 0.991,-2.4999 -0.7279,-6.5622 -5.0559,-8.4841 -4.3282,-1.9219 -11.2657,-1.7034 -16.1566,0.1873 -4.8906,1.8907 -7.7346,5.453 -7.2332,7.875 0.5012,2.4219 4.3478,3.7031 8.1939,4.9844" /><path
           inkscape:connector-curvature="0"
           id="path4349"
           style="fill:none;stroke:#2b2b2a;stroke-width:2.36673427;stroke-linecap:butt;stroke-linejoin:miter;stroke-miterlimit:22.92558479;stroke-dasharray:none;stroke-opacity:1"
           d="m 241.7122,643.1964 c 3.7001,-0.9374 7.4004,-1.8748 8.3911,-4.375 0.9905,-2.4999 -0.7279,-6.5622 -5.0564,-8.4841 -4.3282,-1.9219 -11.2657,-1.7033 -16.1561,0.1874 -4.8906,1.8907 -7.7346,5.453 -7.2337,7.8749 0.5017,2.4219 4.3478,3.7032 8.1941,4.9845" /><path
           inkscape:connector-curvature="0"
           id="path4351"
           style="fill:none;stroke:#2b2b2a;stroke-width:2.36673427;stroke-linecap:butt;stroke-linejoin:miter;stroke-miterlimit:22.92558479;stroke-dasharray:none;stroke-opacity:1"
           d="m 294.5443,678.0963 c 3.9501,0.25 7.8999,0.5 11.2499,0.3124 3.3497,-0.1874 6.0999,-0.8124 8.8498,-1.4375" /><path
           inkscape:connector-curvature="0"
           id="path4353"
           style="fill:none;stroke:#2b2b2a;stroke-width:2.36673427;stroke-linecap:butt;stroke-linejoin:miter;stroke-miterlimit:22.92558479;stroke-dasharray:none;stroke-opacity:1"
           d="m 229.5652,675.7058 c -3.6876,-0.7188 -7.3749,-1.4374 -11.0157,-3.0158 -3.6403,-1.578 -7.2343,-4.0155 -10.8278,-6.453" /></g><path
         inkscape:connector-curvature="0"
         id="path4355"
         style="fill:none;stroke:#0065bd;stroke-width:1.20000005;stroke-linecap:butt;stroke-linejoin:miter;stroke-miterlimit:22.92558479;stroke-dasharray:1.2, 1.2;stroke-dashoffset:0;stroke-opacity:1"
         d="m 95.774165,107.99257 c -2.45997,-0.95468 -3.03494,-0.86758 -5.33636,-0.66569 -2.30146,0.20194 -6.32963,0.51882 -8.13621,1.65952 -2.948938,2.19369 -4.970245,5.02937 -5.05147,8.75897 -0.0154,0.73784 -0.0154,0.73784 -0.0358,6.52375 -0.0205,5.78606 -0.0615,17.35802 0.0168,23.59146 0.0788,6.23359 0.27685,7.12881 0.88511,7.59342 0.60842,0.46482 1.62704,0.49899 5.46178,0.56237 3.83464,0.0634 10.48541,0.15565 14.24628,0.0592 3.761015,-0.0963 4.632595,-0.38157 5.179245,-1.17371 0.54645,-0.79219 0.76849,-2.09139 0.87416,-8.25957 0.10593,-6.16819 0.40337,-23.49528 0.40337,-23.49528 -1.23494,-7.23845 -1.16644,-12.18455 -8.506905,-15.15444 z"
         sodipodi:nodetypes="cccccccsccccc" /></g></g></svg>