<?xml version="1.0" encoding="iso-8859-1"?>
<!-- Generator: Adobe Illustrator 16.0.0, SVG Export Plug-In . SVG Version: 6.00 Build 0)  -->
<!DOCTYPE svg PUBLIC "-//W3C//DTD SVG 1.1//EN" "http://www.w3.org/Graphics/SVG/1.1/DTD/svg11.dtd">
<svg version="1.1" id="Capa_1" xmlns="http://www.w3.org/2000/svg" xmlns:xlink="http://www.w3.org/1999/xlink" x="0px" y="0px"
	 width="485.211px" height="485.211px" viewBox="0 0 485.211 485.211" style="enable-background:new 0 0 485.211 485.211;"
	 xml:space="preserve">
<g>
	<g>
		<path d="M121.304,75.816H30.327C13.564,75.816,0,89.409,0,106.141v333.586c0,16.76,13.564,30.322,30.327,30.322h90.978
			c16.762,0,30.324-13.562,30.324-30.322V106.141C151.628,89.409,138.066,75.816,121.304,75.816z M45.49,379.073
			c-8.382,0-15.163-6.781-15.163-15.168c0-8.377,6.781-15.158,15.163-15.158c8.38,0,15.161,6.781,15.161,15.158
			C60.651,372.292,53.87,379.073,45.49,379.073z M121.304,197.118H30.327v-30.324h90.978V197.118z M121.304,136.467H30.327v-30.326
			h90.978V136.467z"/>
		<path d="M318.423,409.396v-30.322h-90.98v30.322c-16.759,0-30.327,13.567-30.327,30.331h151.629
			C348.745,422.963,335.183,409.396,318.423,409.396z"/>
		<path d="M454.889,15.163H90.978c-16.762,0-30.327,13.593-30.327,30.327h30.327h90.978h272.934v242.604H181.955v60.653h272.934
			c16.759,0,30.322-13.562,30.322-30.332V45.489C485.211,28.755,471.647,15.163,454.889,15.163z M272.933,333.584
			c-8.382,0-15.163-6.777-15.163-15.169c0-8.377,6.781-15.158,15.163-15.158c8.383,0,15.164,6.781,15.164,15.158
			C288.097,326.807,281.315,333.584,272.933,333.584z"/>
	</g>
</g>
<g>
</g>
<g>
</g>
<g>
</g>
<g>
</g>
<g>
</g>
<g>
</g>
<g>
</g>
<g>
</g>
<g>
</g>
<g>
</g>
<g>
</g>
<g>
</g>
<g>
</g>
<g>
</g>
<g>
</g>
</svg>
