<?xml version='1.0' encoding='UTF-8' ?>
<!DOCTYPE svg PUBLIC "-//W3C//DTD SVG 1.1//EN" "http://www.w3.org/Graphics/SVG/1.1/DTD/svg11.dtd" [ 
 <!ATTLIST svg 
                                               xmlns:dsy CDATA #FIXED "http://www.3ds.com/print"  
                                               dsy:text-version CDATA #IMPLIED > 

                                               <!ATTLIST text 
                                               xmlns:dsy CDATA #FIXED "http://www.3ds.com/print" 
                                               dsy:text-version CDATA #IMPLIED > 
                                                ]>
<svg style = "background : rgb(255,255,255)" width = "229mm" xmlns = "http://www.w3.org/2000/svg" height = "162mm" version = "1.1" viewBox = "0 0 229 162" xmlns:dsy = "http://www.3ds.com/print" xmlns:xlink = "http://www.w3.org/1999/xlink" dsy:text-version = "21000"><g fill = "none" stroke = "rgb(128, 128, 255)" stroke-width = "0.35" stroke-linecap = "butt" stroke-linejoin = "miter"><path d = "M 79.6689 39.0978 L 87.077 46.5059 L 94.485 53.914 L 95.1864 54.3684 L 95.8878 54.8229 L 96.7136 54.951 L 97.5395 55.0792 L 98.0225 56.2453 L 98.5055 57.4113 L 96.4265 59.1294 L 94.3475 60.8475 L 92.6294 62.9265 L 90.9113 65.0055 L 89.7452 64.5225 L 88.5792 64.0395 L 88.451 63.2137 L 88.3229 62.3878 L 87.8684 61.6864 L 87.414 60.9851 L 80.0059 53.577 L 72.5978 46.1689 L 71.5947 45.6258 L 70.5915 45.0827 L 69.4546 45.1764 L 68.3178 45.27 L 67.417 45.9699 L 66.5162 46.6699 L 64.1909 50.5062 L 61.8656 54.3425 L 60.1489 58.487 L 58.4322 62.6316 L 57.3637 66.9885 L 56.2953 71.3455 L 56.4373 72.4773 L 56.5793 73.6092 L 57.317 74.4793 L 58.0546 75.3494 L 59.148 75.6747 L 60.2414 76 L 70.718 76 L 81.1946 76 L 82.0119 75.8254 L 82.8292 75.6508 L 83.5037 75.1574 L 84.1783 74.6641 L 85.3444 75.1471 L 86.5105 75.6301 L 86.2552 78.3151 L 86 81 L 86.2552 83.685 L 86.5105 86.3699 L 85.3444 86.8529 L 84.1783 87.3359 L 83.5037 86.8426 L 82.8292 86.3492 L 82.0119 86.1746 L 81.1946 86 L 70.718 86 L 60.2414 86 L 59.148 86.3253 L 58.0546 86.6506 L 57.317 87.5207 L 56.5793 88.3909 L 56.4373 89.5227 L 56.2953 90.6546 L 57.3637 95.0115 L 58.4322 99.3684 L 60.1489 103.513 L 61.8656 107.658 L 64.1909 111.494 L 66.5162 115.33 L 67.417 116.03 L 68.3178 116.73 L 69.4546 116.824 L 70.5915 116.917 L 71.5947 116.374 L 72.5978 115.831 L 80.0059 108.423 L 87.414 101.015 L 87.8684 100.314 L 88.3229 99.6122 L 88.451 98.7864 L 88.5792 97.9605 L 89.7452 97.4775 L 90.9113 96.9945 L 92.6294 99.0735 L 94.3475 101.153 L 96.4265 102.871 L 98.5055 104.589 L 98.0225 105.755 L 97.5395 106.921 L 96.7136 107.049 L 95.8878 107.177 L 95.1864 107.632 L 94.485 108.086 L 87.077 115.494 L 79.6689 122.902 L 79.1258 123.905 L 78.5827 124.908 L 78.6764 126.045 L 78.77 127.182 L 79.4699 128.083 L 80.1698 128.984 L 84.0062 131.309 L 87.8425 133.634 L 91.987 135.351 L 96.1316 137.068 L 100.489 138.136 L 104.845 139.205 L 105.977 139.063 L 107.109 138.921 L 107.979 138.183 L 108.849 137.445 L 109.175 136.352 L 109.5 135.259 L 109.5 124.782 L 109.5 114.305 L 109.325 113.488 L 109.151 112.671 L 108.657 111.996 L 108.164 111.322 L 108.647 110.156 L 109.13 108.99 L 111.815 109.245 L 114.5 109.5 L 117.185 109.245 L 119.87 108.99 L 120.353 110.156 L 120.836 111.322 L 120.343 111.996 L 119.849 112.671 L 119.675 113.488 L 119.5 114.305 L 119.5 124.782 L 119.5 135.259 L 119.825 136.352 L 120.151 137.445 L 121.021 138.183 L 121.891 138.921 L 123.023 139.063 L 124.155 139.205 L 128.511 138.136 L 132.868 137.068 L 137.013 135.351 L 141.158 133.634 L 144.994 131.309 L 148.83 128.984 L 149.53 128.083 L 150.23 127.182 L 150.324 126.045 L 150.417 124.908 L 149.874 123.905 L 149.331 122.902 L 141.923 115.494 L 134.515 108.086 L 133.814 107.632 L 133.112 107.177 L 132.286 107.049 L 131.461 106.921 L 130.978 105.755 L 130.495 104.589 L 132.574 102.871 L 134.653 101.153 L 136.371 99.0735 L 138.089 96.9945 L 139.255 97.4775 L 140.421 97.9605 L 140.549 98.7864 L 140.677 99.6122 L 141.132 100.314 L 141.586 101.015 L 148.994 108.423 L 156.402 115.831 L 157.405 116.374 L 158.408 116.917 L 159.545 116.824 L 160.682 116.73 L 161.583 116.03 L 162.484 115.33 L 164.809 111.494 L 167.134 107.658 L 168.851 103.513 L 170.568 99.3684 L 171.636 95.0115 L 172.705 90.6546 L 172.563 89.5227 L 172.421 88.3909 L 171.683 87.5207 L 170.945 86.6506 L 169.852 86.3253 L 168.759 86 L 158.282 86 L 147.805 86 L 146.988 86.1746 L 146.171 86.3492 L 145.496 86.8426 L 144.822 87.3359 L 143.656 86.8529 L 142.49 86.3699 L 142.745 83.685 L 143 81 L 142.745 78.3151 L 142.49 75.6301 L 143.656 75.1471 L 144.822 74.6641 L 145.496 75.1574 L 146.171 75.6508 L 146.988 75.8254 L 147.805 76 L 158.282 76 L 168.759 76 L 169.852 75.6747 L 170.945 75.3494 L 171.683 74.4793 L 172.421 73.6092 L 172.563 72.4773 L 172.705 71.3455 L 171.636 66.9885 L 170.568 62.6316 L 168.851 58.487 L 167.134 54.3425 L 164.809 50.5062 L 162.484 46.6699 L 161.583 45.9699 L 160.682 45.27 L 159.545 45.1764 L 158.408 45.0827 L 157.405 45.6258 L 156.402 46.1689 L 148.994 53.577 L 141.586 60.9851 L 141.132 61.6864 L 140.677 62.3878 L 140.549 63.2137 L 140.421 64.0395 L 139.255 64.5225 L 138.089 65.0055 L 136.371 62.9265 L 134.653 60.8475 L 132.574 59.1294 L 130.495 57.4113 L 130.978 56.2453 L 131.461 55.0792 L 132.286 54.951 L 133.112 54.8229 L 133.814 54.3684 L 134.515 53.914 L 141.923 46.5059 L 149.331 39.0978 L 149.874 38.0947 L 150.417 37.0915 L 150.324 35.9547 L 150.23 34.8178 L 149.53 33.917 L 148.83 33.0163 L 144.994 30.6909 L 141.158 28.3656 L 137.013 26.6489 L 132.868 24.9322 L 128.511 23.8637 L 124.155 22.7953 L 123.023 22.9373 L 121.891 23.0793 L 121.021 23.817 L 120.151 24.5547 L 119.825 25.648 L 119.5 26.7414 L 119.5 37.218 L 119.5 47.6946 L 119.675 48.5119 L 119.849 49.3292 L 120.343 50.0037 L 120.836 50.6783 L 120.353 51.8444 L 119.87 53.0105 L 117.185 52.7552 L 114.5 52.5 L 111.815 52.7552 L 109.13 53.0105 L 108.647 51.8444 L 108.164 50.6783 L 108.657 50.0037 L 109.151 49.3292 L 109.325 48.5119 L 109.5 47.6946 L 109.5 37.218 L 109.5 26.7414 L 109.175 25.648 L 108.849 24.5547 L 107.979 23.817 L 107.109 23.0793 L 105.977 22.9373 L 104.845 22.7953 L 100.489 23.8637 L 96.1316 24.9322 L 91.987 26.6489 L 87.8425 28.3656 L 84.0062 30.6909 L 80.1698 33.0163 L 79.4699 33.917 L 78.77 34.8178 L 78.6764 35.9547 L 78.5827 37.0915 L 79.1258 38.0947 L 79.6689 39.0978"/><path d = "M 48.4932 79.1571 L 47.9891 79.7829 L 47.4849 80.4088 L 47.571 81.2078 L 47.6571 82.0068 L 48.2829 82.5109 L 48.9088 83.0151 L 49.7078 82.929 L 50.5068 82.8429 L 51.0109 82.2171 L 51.515 81.5912 L 51.429 80.7922 L 51.3429 79.9932 L 50.7171 79.4891 L 50.0912 78.985 L 49.2922 79.071 L 48.4932 79.1571"/><path d = "M 112.657 147.007 L 113.283 147.511 L 113.909 148.015 L 114.708 147.929 L 115.507 147.843 L 116.011 147.217 L 116.515 146.591 L 116.429 145.792 L 116.343 144.993 L 115.717 144.489 L 115.091 143.985 L 114.292 144.071 L 113.493 144.157 L 112.989 144.783 L 112.485 145.409 L 112.571 146.208 L 112.657 147.007"/><path d = "M 178.493 79.1571 L 177.989 79.7829 L 177.485 80.4088 L 177.571 81.2078 L 177.657 82.0068 L 178.283 82.5109 L 178.909 83.0151 L 179.708 82.929 L 180.507 82.8429 L 181.011 82.2171 L 181.515 81.5912 L 181.429 80.7922 L 181.343 79.9932 L 180.717 79.4891 L 180.091 78.985 L 179.292 79.071 L 178.493 79.1571"/><path d = "M 112.657 17.0068 L 113.283 17.5109 L 113.909 18.015 L 114.708 17.929 L 115.507 17.8429 L 116.011 17.2171 L 116.515 16.5912 L 116.429 15.7922 L 116.343 14.9932 L 115.717 14.4891 L 115.091 13.985 L 114.292 14.071 L 113.493 14.1571 L 112.989 14.7829 L 112.485 15.4088 L 112.571 16.2078 L 112.657 17.0068"/><path d = "M 45.5 81 L 45.8853 75.858 L 46.2707 70.7161 L 47.4181 65.689 L 48.5655 60.6619 L 50.4493 55.862 L 52.3331 51.062 L 54.9113 46.5965 L 57.4895 42.1309 L 60.7045 38.0995 L 63.9194 34.0681 L 65.812 32.312 L 67.6993 30.5609 L 71.4792 27.0536 L 75.7396 24.149 L 80 21.2443 L 84.6457 19.007 L 89.2915 16.7697 L 94.2188 15.2498 L 99.146 13.73 L 104.245 12.9615 L 109.344 12.1929 L 114.5 12.1929 L 119.656 12.1929 L 124.755 12.9615 L 129.854 13.73 L 134.781 15.2498 L 139.709 16.7697 L 144.354 19.007 L 149 21.2443 L 153.26 24.149 L 157.521 27.0536 L 161.301 30.5609 L 165.081 34.0681 L 168.296 38.0995 L 171.51 42.1309 L 174.089 46.5965 L 176.667 51.062 L 178.551 55.862 L 180.435 60.6619 L 181.582 65.689 L 182.729 70.7161 L 183.115 75.858 L 183.5 81 L 183.115 86.142 L 182.729 91.2839 L 181.582 96.311 L 180.435 101.338 L 178.551 106.138 L 176.667 110.938 L 174.089 115.404 L 171.51 119.869 L 168.296 123.901 L 165.081 127.932 L 163.188 129.688 L 161.301 131.439 L 157.521 134.946 L 153.26 137.851 L 149 140.756 L 144.354 142.993 L 139.709 145.23 L 134.781 146.75 L 129.854 148.27 L 124.755 149.039 L 119.656 149.807 L 114.5 149.807 L 109.344 149.807 L 104.245 149.039 L 99.146 148.27 L 94.2188 146.75 L 89.2915 145.23 L 84.6457 142.993 L 80 140.756 L 75.7396 137.851 L 71.4792 134.946 L 67.6993 131.439 L 63.9194 127.932 L 60.7045 123.901 L 57.4895 119.869 L 54.9113 115.404 L 52.3331 110.938 L 50.4493 106.138 L 48.5655 101.338 L 47.4181 96.311 L 46.2707 91.2839 L 45.8853 86.142 L 45.5 81"/></g><g fill = "none" stroke = "rgb(255, 128, 0)" stroke-width = "0.35" stroke-linecap = "butt" stroke-linejoin = "miter"><path d = "M 168.759 74.25 L 168.509 74.3455 L 168.259 74.441 L 168.009 74.3455 L 167.759 74.25 L 167.509 74.3455 L 167.259 74.441 L 167.009 74.3455 L 166.759 74.25 L 166.509 74.3455 L 166.259 74.441 L 166.009 74.3455 L 165.759 74.25 L 165.509 74.3455 L 165.259 74.441 L 165.009 74.3455 L 164.759 74.25 L 164.509 74.3455 L 164.259 74.441 L 164.009 74.3455 L 163.759 74.25 L 163.509 74.3455 L 163.259 74.441 L 163.009 74.3455 L 162.759 74.25 L 162.509 74.3455 L 162.259 74.441 L 162.009 74.3455 L 161.759 74.25 L 161.509 74.3455 L 161.259 74.441 L 161.009 74.3455 L 160.759 74.25 L 160.509 74.3455 L 160.259 74.441 L 160.009 74.3455 L 159.759 74.25 L 159.509 74.3455 L 159.259 74.441 L 159.009 74.3455 L 158.759 74.25 L 158.509 74.3455 L 158.259 74.441 L 158.009 74.3455 L 157.759 74.25 L 157.509 74.3455 L 157.259 74.441 L 157.009 74.3455 L 156.759 74.25 L 156.509 74.3455 L 156.259 74.441 L 156.009 74.3455 L 155.759 74.25 L 155.509 74.3455 L 155.259 74.441 L 155.009 74.3455 L 154.759 74.25 L 154.509 74.3455 L 154.259 74.441 L 154.009 74.3455 L 153.759 74.25 L 153.509 74.3455 L 153.259 74.441 L 153.009 74.3455 L 152.759 74.25 L 152.509 74.3455 L 152.259 74.441 L 152.009 74.3455 L 151.759 74.25 L 151.509 74.3455 L 151.259 74.441 L 151.009 74.3455 L 150.759 74.25 L 150.509 74.3455 L 150.259 74.441 L 150.009 74.3455 L 149.759 74.25 L 149.509 74.3455 L 149.259 74.441 L 149.009 74.3455 L 148.759 74.25 L 148.509 74.3455 L 148.259 74.441 L 148.009 74.3455 L 147.759 74.25 L 147.529 74.3289 L 147.298 74.4078 L 147.169 74.5989 L 147.039 74.79 L 147.039 75 L 147.039 75.21 L 147.132 75.3691 L 147.226 75.5281 L 147.359 75.6147 L 147.493 75.7012 L 147.626 75.7256 L 147.759 75.75 L 147.883 75.7289 L 148.007 75.7078 L 148.133 75.6334 L 148.259 75.559 L 148.385 75.6334 L 148.511 75.7078 L 148.635 75.7289 L 148.759 75.75 L 148.883 75.7289 L 149.007 75.7078 L 149.133 75.6334 L 149.259 75.559 L 149.385 75.6334 L 149.511 75.7078 L 149.635 75.7289 L 149.759 75.75 L 149.883 75.7289 L 150.007 75.7078 L 150.133 75.6334 L 150.259 75.559 L 150.385 75.6334 L 150.511 75.7078 L 150.635 75.7289 L 150.759 75.75 L 150.883 75.7289 L 151.007 75.7078 L 151.133 75.6334 L 151.259 75.559 L 151.385 75.6334 L 151.511 75.7078 L 151.635 75.7289 L 151.759 75.75 L 151.883 75.7289 L 152.007 75.7078 L 152.133 75.6334 L 152.259 75.559 L 152.385 75.6334 L 152.511 75.7078 L 152.635 75.7289 L 152.759 75.75 L 152.883 75.7289 L 153.007 75.7078 L 153.133 75.6334 L 153.259 75.559 L 153.385 75.6334 L 153.511 75.7078 L 153.635 75.7289 L 153.759 75.75 L 153.883 75.7289 L 154.007 75.7078 L 154.133 75.6334 L 154.259 75.559 L 154.385 75.6334 L 154.511 75.7078 L 154.635 75.7289 L 154.759 75.75 L 154.883 75.7289 L 155.007 75.7078 L 155.133 75.6334 L 155.259 75.559 L 155.385 75.6334 L 155.511 75.7078 L 155.635 75.7289 L 155.759 75.75 L 155.883 75.7289 L 156.007 75.7078 L 156.133 75.6334 L 156.259 75.559 L 156.385 75.6334 L 156.511 75.7078 L 156.635 75.7289 L 156.759 75.75 L 156.883 75.7289 L 157.007 75.7078 L 157.133 75.6334 L 157.259 75.559 L 157.385 75.6334 L 157.511 75.7078 L 157.635 75.7289 L 157.759 75.75 L 157.883 75.7289 L 158.007 75.7078 L 158.133 75.6334 L 158.259 75.559 L 158.385 75.6334 L 158.511 75.7078 L 158.635 75.7289 L 158.759 75.75 L 158.883 75.7289 L 159.007 75.7078 L 159.133 75.6334 L 159.259 75.559 L 159.385 75.6334 L 159.511 75.7078 L 159.635 75.7289 L 159.759 75.75 L 159.883 75.7289 L 160.007 75.7078 L 160.133 75.6334 L 160.259 75.559 L 160.385 75.6334 L 160.511 75.7078 L 160.635 75.7289 L 160.759 75.75 L 160.883 75.7289 L 161.007 75.7078 L 161.133 75.6334 L 161.259 75.559 L 161.385 75.6334 L 161.511 75.7078 L 161.635 75.7289 L 161.759 75.75 L 161.883 75.7289 L 162.007 75.7078 L 162.133 75.6334 L 162.259 75.559 L 162.385 75.6334 L 162.511 75.7078 L 162.635 75.7289 L 162.759 75.75 L 162.883 75.7289 L 163.007 75.7078 L 163.133 75.6334 L 163.259 75.559 L 163.385 75.6334 L 163.511 75.7078 L 163.635 75.7289 L 163.759 75.75 L 163.883 75.7289 L 164.007 75.7078 L 164.133 75.6334 L 164.259 75.559 L 164.385 75.6334 L 164.511 75.7078 L 164.635 75.7289 L 164.759 75.75 L 164.883 75.7289 L 165.007 75.7078 L 165.133 75.6334 L 165.259 75.559 L 165.385 75.6334 L 165.511 75.7078 L 165.635 75.7289 L 165.759 75.75 L 165.883 75.7289 L 166.007 75.7078 L 166.133 75.6334 L 166.259 75.559 L 166.385 75.6334 L 166.511 75.7078 L 166.635 75.7289 L 166.759 75.75 L 166.883 75.7289 L 167.007 75.7078 L 167.133 75.6334 L 167.259 75.559 L 167.385 75.6334 L 167.511 75.7078 L 167.635 75.7289 L 167.759 75.75 L 167.883 75.7289 L 168.007 75.7078 L 168.133 75.6334 L 168.259 75.559 L 168.385 75.6334 L 168.511 75.7078 L 168.635 75.7289 L 168.759 75.75 L 168.892 75.7256 L 169.025 75.7012 L 169.158 75.6147 L 169.291 75.5281 L 169.385 75.3691 L 169.479 75.21 L 169.479 75 L 169.479 74.79 L 169.349 74.5989 L 169.219 74.4078 L 168.989 74.3289 L 168.759 74.25"/><path d = "M 148.094 37.8604 L 147.984 38.1047 L 147.875 38.349 L 147.631 38.4582 L 147.387 38.5675 L 147.277 38.8118 L 147.168 39.0561 L 146.924 39.1653 L 146.679 39.2746 L 146.57 39.5189 L 146.461 39.7632 L 146.217 39.8725 L 145.972 39.9817 L 145.863 40.226 L 145.754 40.4703 L 145.51 40.5796 L 145.265 40.6888 L 145.156 40.9331 L 145.047 41.1774 L 144.802 41.2867 L 144.558 41.3959 L 144.449 41.6402 L 144.34 41.8845 L 144.095 41.9938 L 143.851 42.103 L 143.742 42.3473 L 143.633 42.5916 L 143.388 42.7009 L 143.144 42.8101 L 143.035 43.0544 L 142.925 43.2987 L 142.681 43.408 L 142.437 43.5172 L 142.328 43.7615 L 142.218 44.0058 L 141.974 44.1151 L 141.73 44.2243 L 141.62 44.4686 L 141.511 44.7129 L 141.267 44.8222 L 141.023 44.9314 L 140.913 45.1758 L 140.804 45.4201 L 140.56 45.5293 L 140.315 45.6386 L 140.206 45.8829 L 140.097 46.1272 L 139.853 46.2364 L 139.608 46.3457 L 139.499 46.59 L 139.39 46.8343 L 139.146 46.9435 L 138.901 47.0528 L 138.792 47.2971 L 138.683 47.5414 L 138.438 47.6506 L 138.194 47.7599 L 138.085 48.0042 L 137.976 48.2485 L 137.731 48.3577 L 137.487 48.467 L 137.378 48.7113 L 137.269 48.9556 L 137.024 49.0648 L 136.78 49.1741 L 136.671 49.4184 L 136.561 49.6627 L 136.317 49.7719 L 136.073 49.8812 L 135.964 50.1255 L 135.854 50.3698 L 135.61 50.4791 L 135.366 50.5883 L 135.257 50.8326 L 135.147 51.0769 L 134.903 51.1862 L 134.659 51.2954 L 134.549 51.5397 L 134.44 51.784 L 134.196 51.8933 L 133.952 52.0025 L 133.842 52.2468 L 133.733 52.4911 L 133.489 52.6004 L 133.244 52.7096 L 133.138 52.9281 L 133.031 53.1466 L 133.074 53.3736 L 133.117 53.6006 L 133.266 53.7491 L 133.414 53.8976 L 133.593 53.9438 L 133.772 53.99 L 133.927 53.9569 L 134.082 53.9239 L 134.194 53.8471 L 134.305 53.7703 L 134.378 53.6677 L 134.451 53.5651 L 134.487 53.4234 L 134.524 53.2817 L 134.665 53.2452 L 134.807 53.2087 L 134.91 53.1359 L 135.012 53.0632 L 135.085 52.9606 L 135.158 52.858 L 135.194 52.7163 L 135.231 52.5746 L 135.372 52.5381 L 135.514 52.5016 L 135.617 52.4288 L 135.719 52.3561 L 135.792 52.2535 L 135.865 52.1509 L 135.901 52.0092 L 135.938 51.8675 L 136.08 51.831 L 136.221 51.7945 L 136.324 51.7217 L 136.426 51.649 L 136.499 51.5464 L 136.572 51.4438 L 136.608 51.3021 L 136.645 51.1604 L 136.787 51.1239 L 136.928 51.0874 L 137.031 51.0146 L 137.134 50.9419 L 137.206 50.8393 L 137.279 50.7367 L 137.316 50.595 L 137.352 50.4533 L 137.494 50.4168 L 137.635 50.3803 L 137.738 50.3075 L 137.841 50.2347 L 137.913 50.1322 L 137.986 50.0296 L 138.023 49.8879 L 138.059 49.7462 L 138.201 49.7097 L 138.343 49.6732 L 138.445 49.6004 L 138.548 49.5276 L 138.62 49.425 L 138.693 49.3225 L 138.73 49.1807 L 138.766 49.0391 L 138.908 49.0026 L 139.05 48.9661 L 139.152 48.8933 L 139.255 48.8205 L 139.328 48.7179 L 139.4 48.6153 L 139.437 48.4736 L 139.473 48.3319 L 139.615 48.2954 L 139.757 48.259 L 139.859 48.1862 L 139.962 48.1134 L 140.035 48.0108 L 140.107 47.9082 L 140.144 47.7665 L 140.18 47.6248 L 140.322 47.5883 L 140.464 47.5519 L 140.566 47.4791 L 140.669 47.4063 L 140.742 47.3037 L 140.815 47.2011 L 140.851 47.0594 L 140.888 46.9177 L 141.029 46.8812 L 141.171 46.8447 L 141.274 46.772 L 141.376 46.6992 L 141.449 46.5966 L 141.522 46.494 L 141.558 46.3523 L 141.595 46.2106 L 141.736 46.1741 L 141.878 46.1376 L 141.981 46.0649 L 142.083 45.9921 L 142.156 45.8895 L 142.229 45.7869 L 142.265 45.6452 L 142.302 45.5035 L 142.443 45.467 L 142.585 45.4305 L 142.688 45.3578 L 142.79 45.285 L 142.863 45.1824 L 142.936 45.0798 L 142.972 44.9381 L 143.009 44.7964 L 143.151 44.7599 L 143.292 44.7234 L 143.395 44.6507 L 143.497 44.5779 L 143.57 44.4753 L 143.643 44.3727 L 143.68 44.231 L 143.716 44.0893 L 143.858 44.0528 L 143.999 44.0163 L 144.102 43.9436 L 144.205 43.8708 L 144.277 43.7682 L 144.35 43.6656 L 144.387 43.5239 L 144.423 43.3822 L 144.565 43.3457 L 144.707 43.3092 L 144.809 43.2365 L 144.912 43.1637 L 144.984 43.0611 L 145.057 42.9585 L 145.094 42.8168 L 145.13 42.6751 L 145.272 42.6386 L 145.414 42.6021 L 145.516 42.5293 L 145.619 42.4566 L 145.692 42.354 L 145.764 42.2514 L 145.801 42.1097 L 145.837 41.968 L 145.979 41.9315 L 146.121 41.895 L 146.223 41.8222 L 146.326 41.7495 L 146.399 41.6469 L 146.471 41.5443 L 146.508 41.4026 L 146.544 41.2609 L 146.686 41.2244 L 146.828 41.1879 L 146.93 41.1151 L 147.033 41.0424 L 147.106 40.9398 L 147.179 40.8372 L 147.215 40.6955 L 147.252 40.5538 L 147.393 40.5173 L 147.535 40.4808 L 147.638 40.408 L 147.74 40.3353 L 147.813 40.2327 L 147.886 40.1301 L 147.922 39.9884 L 147.959 39.8467 L 148.1 39.8102 L 148.242 39.7737 L 148.345 39.7009 L 148.447 39.6282 L 148.52 39.5256 L 148.593 39.423 L 148.629 39.2813 L 148.666 39.1395 L 148.807 39.1031 L 148.949 39.0666 L 149.052 38.9938 L 149.154 38.921 L 149.231 38.8097 L 149.308 38.6984 L 149.341 38.543 L 149.374 38.3876 L 149.328 38.2088 L 149.282 38.0301 L 149.133 37.8816 L 148.985 37.7331 L 148.758 37.6898 L 148.531 37.6466 L 148.312 37.7535 L 148.094 37.8604"/><path d = "M 168.759 87.75 L 168.509 87.6545 L 168.259 87.559 L 168.009 87.6545 L 167.759 87.75 L 167.509 87.6545 L 167.259 87.559 L 167.009 87.6545 L 166.759 87.75 L 166.509 87.6545 L 166.259 87.559 L 166.009 87.6545 L 165.759 87.75 L 165.509 87.6545 L 165.259 87.559 L 165.009 87.6545 L 164.759 87.75 L 164.509 87.6545 L 164.259 87.559 L 164.009 87.6545 L 163.759 87.75 L 163.509 87.6545 L 163.259 87.559 L 163.009 87.6545 L 162.759 87.75 L 162.509 87.6545 L 162.259 87.559 L 162.009 87.6545 L 161.759 87.75 L 161.509 87.6545 L 161.259 87.559 L 161.009 87.6545 L 160.759 87.75 L 160.509 87.6545 L 160.259 87.559 L 160.009 87.6545 L 159.759 87.75 L 159.509 87.6545 L 159.259 87.559 L 159.009 87.6545 L 158.759 87.75 L 158.509 87.6545 L 158.259 87.559 L 158.009 87.6545 L 157.759 87.75 L 157.509 87.6545 L 157.259 87.559 L 157.009 87.6545 L 156.759 87.75 L 156.509 87.6545 L 156.259 87.559 L 156.009 87.6545 L 155.759 87.75 L 155.509 87.6545 L 155.259 87.559 L 155.009 87.6545 L 154.759 87.75 L 154.509 87.6545 L 154.259 87.559 L 154.009 87.6545 L 153.759 87.75 L 153.509 87.6545 L 153.259 87.559 L 153.009 87.6545 L 152.759 87.75 L 152.509 87.6545 L 152.259 87.559 L 152.009 87.6545 L 151.759 87.75 L 151.509 87.6545 L 151.259 87.559 L 151.009 87.6545 L 150.759 87.75 L 150.509 87.6545 L 150.259 87.559 L 150.009 87.6545 L 149.759 87.75 L 149.509 87.6545 L 149.259 87.559 L 149.009 87.6545 L 148.759 87.75 L 148.509 87.6545 L 148.259 87.559 L 148.009 87.6545 L 147.759 87.75 L 147.529 87.6711 L 147.298 87.5922 L 147.169 87.4011 L 147.039 87.21 L 147.039 87 L 147.039 86.79 L 147.132 86.631 L 147.226 86.4719 L 147.359 86.3853 L 147.493 86.2988 L 147.626 86.2744 L 147.759 86.25 L 147.883 86.2711 L 148.007 86.2922 L 148.133 86.3666 L 148.259 86.441 L 148.385 86.3666 L 148.511 86.2922 L 148.635 86.2711 L 148.759 86.25 L 148.883 86.2711 L 149.007 86.2922 L 149.133 86.3666 L 149.259 86.441 L 149.385 86.3666 L 149.511 86.2922 L 149.635 86.2711 L 149.759 86.25 L 149.883 86.2711 L 150.007 86.2922 L 150.133 86.3666 L 150.259 86.441 L 150.385 86.3666 L 150.511 86.2922 L 150.635 86.2711 L 150.759 86.25 L 150.883 86.2711 L 151.007 86.2922 L 151.133 86.3666 L 151.259 86.441 L 151.385 86.3666 L 151.511 86.2922 L 151.635 86.2711 L 151.759 86.25 L 151.883 86.2711 L 152.007 86.2922 L 152.133 86.3666 L 152.259 86.441 L 152.385 86.3666 L 152.511 86.2922 L 152.635 86.2711 L 152.759 86.25 L 152.883 86.2711 L 153.007 86.2922 L 153.133 86.3666 L 153.259 86.441 L 153.385 86.3666 L 153.511 86.2922 L 153.635 86.2711 L 153.759 86.25 L 153.883 86.2711 L 154.007 86.2922 L 154.133 86.3666 L 154.259 86.441 L 154.385 86.3666 L 154.511 86.2922 L 154.635 86.2711 L 154.759 86.25 L 154.883 86.2711 L 155.007 86.2922 L 155.133 86.3666 L 155.259 86.441 L 155.385 86.3666 L 155.511 86.2922 L 155.635 86.2711 L 155.759 86.25 L 155.883 86.2711 L 156.007 86.2922 L 156.133 86.3666 L 156.259 86.441 L 156.385 86.3666 L 156.511 86.2922 L 156.635 86.2711 L 156.759 86.25 L 156.883 86.2711 L 157.007 86.2922 L 157.133 86.3666 L 157.259 86.441 L 157.385 86.3666 L 157.511 86.2922 L 157.635 86.2711 L 157.759 86.25 L 157.883 86.2711 L 158.007 86.2922 L 158.133 86.3666 L 158.259 86.441 L 158.385 86.3666 L 158.511 86.2922 L 158.635 86.2711 L 158.759 86.25 L 158.883 86.2711 L 159.007 86.2922 L 159.133 86.3666 L 159.259 86.441 L 159.385 86.3666 L 159.511 86.2922 L 159.635 86.2711 L 159.759 86.25 L 159.883 86.2711 L 160.007 86.2922 L 160.133 86.3666 L 160.259 86.441 L 160.385 86.3666 L 160.511 86.2922 L 160.635 86.2711 L 160.759 86.25 L 160.883 86.2711 L 161.007 86.2922 L 161.133 86.3666 L 161.259 86.441 L 161.385 86.3666 L 161.511 86.2922 L 161.635 86.2711 L 161.759 86.25 L 161.883 86.2711 L 162.007 86.2922 L 162.133 86.3666 L 162.259 86.441 L 162.385 86.3666 L 162.511 86.2922 L 162.635 86.2711 L 162.759 86.25 L 162.883 86.2711 L 163.007 86.2922 L 163.133 86.3666 L 163.259 86.441 L 163.385 86.3666 L 163.511 86.2922 L 163.635 86.2711 L 163.759 86.25 L 163.883 86.2711 L 164.007 86.2922 L 164.133 86.3666 L 164.259 86.441 L 164.385 86.3666 L 164.511 86.2922 L 164.635 86.2711 L 164.759 86.25 L 164.883 86.2711 L 165.007 86.2922 L 165.133 86.3666 L 165.259 86.441 L 165.385 86.3666 L 165.511 86.2922 L 165.635 86.2711 L 165.759 86.25 L 165.883 86.2711 L 166.007 86.2922 L 166.133 86.3666 L 166.259 86.441 L 166.385 86.3666 L 166.511 86.2922 L 166.635 86.2711 L 166.759 86.25 L 166.883 86.2711 L 167.007 86.2922 L 167.133 86.3666 L 167.259 86.441 L 167.385 86.3666 L 167.511 86.2922 L 167.635 86.2711 L 167.759 86.25 L 167.883 86.2711 L 168.007 86.2922 L 168.133 86.3666 L 168.259 86.441 L 168.385 86.3666 L 168.511 86.2922 L 168.635 86.2711 L 168.759 86.25 L 168.892 86.2744 L 169.025 86.2988 L 169.158 86.3853 L 169.291 86.4719 L 169.385 86.631 L 169.479 86.79 L 169.479 87 L 169.479 87.21 L 169.349 87.4011 L 169.219 87.5922 L 168.989 87.6711 L 168.759 87.75"/><path d = "M 157.64 47.4063 L 157.395 47.5156 L 157.151 47.6248 L 157.042 47.8691 L 156.933 48.1134 L 156.688 48.2227 L 156.444 48.3319 L 156.335 48.5762 L 156.225 48.8205 L 155.981 48.9298 L 155.737 49.0391 L 155.628 49.2833 L 155.518 49.5276 L 155.274 49.6369 L 155.03 49.7462 L 154.92 49.9905 L 154.811 50.2347 L 154.567 50.344 L 154.323 50.4533 L 154.213 50.6976 L 154.104 50.9419 L 153.86 51.0511 L 153.615 51.1604 L 153.506 51.4047 L 153.397 51.649 L 153.153 51.7582 L 152.908 51.8675 L 152.799 52.1118 L 152.69 52.3561 L 152.446 52.4653 L 152.201 52.5746 L 152.092 52.8189 L 151.983 53.0632 L 151.738 53.1724 L 151.494 53.2817 L 151.385 53.526 L 151.276 53.7703 L 151.031 53.8795 L 150.787 53.9888 L 150.678 54.2331 L 150.569 54.4774 L 150.324 54.5866 L 150.08 54.6959 L 149.971 54.9402 L 149.861 55.1845 L 149.617 55.2938 L 149.373 55.403 L 149.264 55.6473 L 149.154 55.8916 L 148.91 56.0009 L 148.666 56.1101 L 148.556 56.3544 L 148.447 56.5987 L 148.203 56.708 L 147.959 56.8172 L 147.849 57.0615 L 147.74 57.3058 L 147.496 57.4151 L 147.252 57.5243 L 147.142 57.7686 L 147.033 58.0129 L 146.789 58.1222 L 146.544 58.2314 L 146.435 58.4757 L 146.326 58.72 L 146.082 58.8293 L 145.837 58.9385 L 145.728 59.1828 L 145.619 59.4271 L 145.375 59.5364 L 145.13 59.6457 L 145.021 59.8899 L 144.912 60.1342 L 144.667 60.2435 L 144.423 60.3528 L 144.314 60.5971 L 144.205 60.8414 L 143.96 60.9506 L 143.716 61.0599 L 143.607 61.3042 L 143.497 61.5485 L 143.253 61.6577 L 143.009 61.767 L 142.9 62.0113 L 142.79 62.2556 L 142.572 62.3625 L 142.353 62.4694 L 142.126 62.4261 L 141.899 62.3829 L 141.751 62.2344 L 141.602 62.0859 L 141.556 61.9071 L 141.51 61.7284 L 141.543 61.573 L 141.576 61.4175 L 141.653 61.3062 L 141.73 61.1949 L 141.832 61.1221 L 141.935 61.0494 L 142.077 61.0129 L 142.218 60.9764 L 142.255 60.8347 L 142.291 60.693 L 142.364 60.5904 L 142.437 60.4878 L 142.539 60.415 L 142.642 60.3423 L 142.784 60.3058 L 142.925 60.2693 L 142.962 60.1276 L 142.998 59.9859 L 143.071 59.8833 L 143.144 59.7807 L 143.247 59.7079 L 143.349 59.6352 L 143.491 59.5987 L 143.633 59.5622 L 143.669 59.4205 L 143.706 59.2788 L 143.778 59.1762 L 143.851 59.0736 L 143.954 59.0008 L 144.056 58.9281 L 144.198 58.8916 L 144.34 58.8551 L 144.376 58.7134 L 144.413 58.5717 L 144.485 58.4691 L 144.558 58.3665 L 144.661 58.2937 L 144.763 58.221 L 144.905 58.1845 L 145.047 58.148 L 145.083 58.0063 L 145.12 57.8646 L 145.192 57.762 L 145.265 57.6594 L 145.368 57.5866 L 145.47 57.5138 L 145.612 57.4773 L 145.754 57.4409 L 145.79 57.2992 L 145.827 57.1575 L 145.9 57.0549 L 145.972 56.9523 L 146.075 56.8795 L 146.178 56.8067 L 146.319 56.7702 L 146.461 56.7338 L 146.497 56.5921 L 146.534 56.4504 L 146.607 56.3478 L 146.679 56.2452 L 146.782 56.1724 L 146.885 56.0996 L 147.026 56.0631 L 147.168 56.0266 L 147.205 55.885 L 147.241 55.7432 L 147.314 55.6406 L 147.387 55.5381 L 147.489 55.4653 L 147.592 55.3925 L 147.733 55.356 L 147.875 55.3195 L 147.912 55.1778 L 147.948 55.0361 L 148.021 54.9335 L 148.094 54.8309 L 148.196 54.7582 L 148.299 54.6854 L 148.441 54.6489 L 148.582 54.6124 L 148.619 54.4707 L 148.655 54.329 L 148.728 54.2264 L 148.801 54.1238 L 148.903 54.0511 L 149.006 53.9783 L 149.148 53.9418 L 149.289 53.9053 L 149.326 53.7636 L 149.362 53.6219 L 149.435 53.5193 L 149.508 53.4167 L 149.61 53.344 L 149.713 53.2712 L 149.855 53.2347 L 149.996 53.1982 L 150.033 53.0565 L 150.069 52.9148 L 150.142 52.8122 L 150.215 52.7096 L 150.318 52.6369 L 150.42 52.5641 L 150.562 52.5276 L 150.704 52.4911 L 150.74 52.3494 L 150.777 52.2077 L 150.849 52.1051 L 150.922 52.0025 L 151.025 51.9298 L 151.127 51.857 L 151.269 51.8205 L 151.411 51.784 L 151.447 51.6423 L 151.484 51.5006 L 151.556 51.398 L 151.629 51.2954 L 151.732 51.2227 L 151.834 51.1499 L 151.976 51.1134 L 152.118 51.0769 L 152.154 50.9352 L 152.191 50.7935 L 152.264 50.6909 L 152.336 50.5883 L 152.439 50.5155 L 152.542 50.4428 L 152.683 50.4063 L 152.825 50.3698 L 152.861 50.2281 L 152.898 50.0864 L 152.971 49.9838 L 153.043 49.8812 L 153.146 49.8084 L 153.249 49.7357 L 153.39 49.6992 L 153.532 49.6627 L 153.569 49.521 L 153.605 49.3793 L 153.678 49.2767 L 153.751 49.1741 L 153.853 49.1013 L 153.956 49.0286 L 154.097 48.9921 L 154.239 48.9556 L 154.276 48.8139 L 154.312 48.6722 L 154.385 48.5696 L 154.458 48.467 L 154.56 48.3942 L 154.663 48.3215 L 154.805 48.285 L 154.946 48.2485 L 154.983 48.1068 L 155.019 47.9651 L 155.092 47.8625 L 155.165 47.7599 L 155.267 47.6871 L 155.37 47.6143 L 155.512 47.5779 L 155.653 47.5414 L 155.69 47.3997 L 155.726 47.258 L 155.799 47.1554 L 155.872 47.0528 L 155.974 46.98 L 156.077 46.9072 L 156.219 46.8708 L 156.36 46.8343 L 156.397 46.6926 L 156.433 46.5509 L 156.506 46.4483 L 156.579 46.3457 L 156.69 46.2688 L 156.802 46.192 L 156.957 46.159 L 157.112 46.126 L 157.291 46.1722 L 157.47 46.2184 L 157.618 46.3669 L 157.767 46.5154 L 157.81 46.7424 L 157.853 46.9694 L 157.747 47.1878 L 157.64 47.4063"/><path d = "M 148.094 124.14 L 147.984 123.895 L 147.875 123.651 L 147.631 123.542 L 147.387 123.433 L 147.277 123.188 L 147.168 122.944 L 146.924 122.835 L 146.679 122.725 L 146.57 122.481 L 146.461 122.237 L 146.217 122.128 L 145.972 122.018 L 145.863 121.774 L 145.754 121.53 L 145.51 121.42 L 145.265 121.311 L 145.156 121.067 L 145.047 120.823 L 144.802 120.713 L 144.558 120.604 L 144.449 120.36 L 144.34 120.115 L 144.095 120.006 L 143.851 119.897 L 143.742 119.653 L 143.633 119.408 L 143.388 119.299 L 143.144 119.19 L 143.035 118.946 L 142.925 118.701 L 142.681 118.592 L 142.437 118.483 L 142.328 118.238 L 142.218 117.994 L 141.974 117.885 L 141.73 117.776 L 141.62 117.531 L 141.511 117.287 L 141.267 117.178 L 141.023 117.069 L 140.913 116.824 L 140.804 116.58 L 140.56 116.471 L 140.315 116.361 L 140.206 116.117 L 140.097 115.873 L 139.853 115.764 L 139.608 115.654 L 139.499 115.41 L 139.39 115.166 L 139.146 115.057 L 138.901 114.947 L 138.792 114.703 L 138.683 114.459 L 138.438 114.349 L 138.194 114.24 L 138.085 113.996 L 137.976 113.752 L 137.731 113.642 L 137.487 113.533 L 137.378 113.289 L 137.269 113.044 L 137.024 112.935 L 136.78 112.826 L 136.671 112.582 L 136.561 112.337 L 136.317 112.228 L 136.073 112.119 L 135.964 111.875 L 135.854 111.63 L 135.61 111.521 L 135.366 111.412 L 135.257 111.167 L 135.147 110.923 L 134.903 110.814 L 134.659 110.705 L 134.549 110.46 L 134.44 110.216 L 134.196 110.107 L 133.952 109.997 L 133.842 109.753 L 133.733 109.509 L 133.489 109.4 L 133.244 109.29 L 133.138 109.072 L 133.031 108.853 L 133.074 108.626 L 133.117 108.399 L 133.266 108.251 L 133.414 108.102 L 133.593 108.056 L 133.772 108.01 L 133.927 108.043 L 134.082 108.076 L 134.194 108.153 L 134.305 108.23 L 134.378 108.332 L 134.451 108.435 L 134.487 108.577 L 134.524 108.718 L 134.665 108.755 L 134.807 108.791 L 134.91 108.864 L 135.012 108.937 L 135.085 109.039 L 135.158 109.142 L 135.194 109.284 L 135.231 109.425 L 135.372 109.462 L 135.514 109.498 L 135.617 109.571 L 135.719 109.644 L 135.792 109.747 L 135.865 109.849 L 135.901 109.991 L 135.938 110.133 L 136.08 110.169 L 136.221 110.206 L 136.324 110.278 L 136.426 110.351 L 136.499 110.454 L 136.572 110.556 L 136.608 110.698 L 136.645 110.84 L 136.787 110.876 L 136.928 110.913 L 137.031 110.985 L 137.134 111.058 L 137.206 111.161 L 137.279 111.263 L 137.316 111.405 L 137.352 111.547 L 137.494 111.583 L 137.635 111.62 L 137.738 111.692 L 137.841 111.765 L 137.913 111.868 L 137.986 111.97 L 138.023 112.112 L 138.059 112.254 L 138.201 112.29 L 138.343 112.327 L 138.445 112.4 L 138.548 112.472 L 138.62 112.575 L 138.693 112.678 L 138.73 112.819 L 138.766 112.961 L 138.908 112.997 L 139.05 113.034 L 139.152 113.107 L 139.255 113.179 L 139.328 113.282 L 139.4 113.385 L 139.437 113.526 L 139.473 113.668 L 139.615 113.705 L 139.757 113.741 L 139.859 113.814 L 139.962 113.887 L 140.035 113.989 L 140.107 114.092 L 140.144 114.233 L 140.18 114.375 L 140.322 114.412 L 140.464 114.448 L 140.566 114.521 L 140.669 114.594 L 140.742 114.696 L 140.815 114.799 L 140.851 114.941 L 140.888 115.082 L 141.029 115.119 L 141.171 115.155 L 141.274 115.228 L 141.376 115.301 L 141.449 115.403 L 141.522 115.506 L 141.558 115.648 L 141.595 115.789 L 141.736 115.826 L 141.878 115.862 L 141.981 115.935 L 142.083 116.008 L 142.156 116.111 L 142.229 116.213 L 142.265 116.355 L 142.302 116.497 L 142.443 116.533 L 142.585 116.569 L 142.688 116.642 L 142.79 116.715 L 142.863 116.818 L 142.936 116.92 L 142.972 117.062 L 143.009 117.204 L 143.151 117.24 L 143.292 117.277 L 143.395 117.349 L 143.497 117.422 L 143.57 117.525 L 143.643 117.627 L 143.68 117.769 L 143.716 117.911 L 143.858 117.947 L 143.999 117.984 L 144.102 118.056 L 144.205 118.129 L 144.277 118.232 L 144.35 118.334 L 144.387 118.476 L 144.423 118.618 L 144.565 118.654 L 144.707 118.691 L 144.809 118.764 L 144.912 118.836 L 144.984 118.939 L 145.057 119.042 L 145.094 119.183 L 145.13 119.325 L 145.272 119.361 L 145.414 119.398 L 145.516 119.471 L 145.619 119.543 L 145.692 119.646 L 145.764 119.749 L 145.801 119.89 L 145.837 120.032 L 145.979 120.069 L 146.121 120.105 L 146.223 120.178 L 146.326 120.251 L 146.399 120.353 L 146.471 120.456 L 146.508 120.597 L 146.544 120.739 L 146.686 120.776 L 146.828 120.812 L 146.93 120.885 L 147.033 120.958 L 147.106 121.06 L 147.179 121.163 L 147.215 121.305 L 147.252 121.446 L 147.393 121.483 L 147.535 121.519 L 147.638 121.592 L 147.74 121.665 L 147.813 121.767 L 147.886 121.87 L 147.922 122.012 L 147.959 122.153 L 148.1 122.19 L 148.242 122.226 L 148.345 122.299 L 148.447 122.372 L 148.52 122.474 L 148.593 122.577 L 148.629 122.719 L 148.666 122.86 L 148.807 122.897 L 148.949 122.933 L 149.052 123.006 L 149.154 123.079 L 149.231 123.19 L 149.308 123.302 L 149.341 123.457 L 149.374 123.612 L 149.328 123.791 L 149.282 123.97 L 149.133 124.118 L 148.985 124.267 L 148.758 124.31 L 148.531 124.353 L 148.312 124.247 L 148.094 124.14"/><path d = "M 157.64 114.594 L 157.395 114.484 L 157.151 114.375 L 157.042 114.131 L 156.933 113.887 L 156.688 113.777 L 156.444 113.668 L 156.335 113.424 L 156.225 113.179 L 155.981 113.07 L 155.737 112.961 L 155.628 112.717 L 155.518 112.472 L 155.274 112.363 L 155.03 112.254 L 154.92 112.01 L 154.811 111.765 L 154.567 111.656 L 154.323 111.547 L 154.213 111.302 L 154.104 111.058 L 153.86 110.949 L 153.615 110.84 L 153.506 110.595 L 153.397 110.351 L 153.153 110.242 L 152.908 110.133 L 152.799 109.888 L 152.69 109.644 L 152.446 109.535 L 152.201 109.425 L 152.092 109.181 L 151.983 108.937 L 151.738 108.828 L 151.494 108.718 L 151.385 108.474 L 151.276 108.23 L 151.031 108.12 L 150.787 108.011 L 150.678 107.767 L 150.569 107.523 L 150.324 107.413 L 150.08 107.304 L 149.971 107.06 L 149.861 106.816 L 149.617 106.706 L 149.373 106.597 L 149.264 106.353 L 149.154 106.108 L 148.91 105.999 L 148.666 105.89 L 148.556 105.646 L 148.447 105.401 L 148.203 105.292 L 147.959 105.183 L 147.849 104.938 L 147.74 104.694 L 147.496 104.585 L 147.252 104.476 L 147.142 104.231 L 147.033 103.987 L 146.789 103.878 L 146.544 103.769 L 146.435 103.524 L 146.326 103.28 L 146.082 103.171 L 145.837 103.061 L 145.728 102.817 L 145.619 102.573 L 145.375 102.464 L 145.13 102.354 L 145.021 102.11 L 144.912 101.866 L 144.667 101.757 L 144.423 101.647 L 144.314 101.403 L 144.205 101.159 L 143.96 101.049 L 143.716 100.94 L 143.607 100.696 L 143.497 100.452 L 143.253 100.342 L 143.009 100.233 L 142.9 99.9887 L 142.79 99.7444 L 142.572 99.6375 L 142.353 99.5306 L 142.126 99.5739 L 141.899 99.6172 L 141.751 99.7657 L 141.602 99.9142 L 141.556 100.093 L 141.51 100.272 L 141.543 100.427 L 141.576 100.582 L 141.653 100.694 L 141.73 100.805 L 141.832 100.878 L 141.935 100.951 L 142.077 100.987 L 142.218 101.024 L 142.255 101.165 L 142.291 101.307 L 142.364 101.41 L 142.437 101.512 L 142.539 101.585 L 142.642 101.658 L 142.784 101.694 L 142.925 101.731 L 142.962 101.872 L 142.998 102.014 L 143.071 102.117 L 143.144 102.219 L 143.247 102.292 L 143.349 102.365 L 143.491 102.401 L 143.633 102.438 L 143.669 102.58 L 143.706 102.721 L 143.778 102.824 L 143.851 102.926 L 143.954 102.999 L 144.056 103.072 L 144.198 103.108 L 144.34 103.145 L 144.376 103.287 L 144.413 103.428 L 144.485 103.531 L 144.558 103.634 L 144.661 103.706 L 144.763 103.779 L 144.905 103.816 L 145.047 103.852 L 145.083 103.994 L 145.12 104.135 L 145.192 104.238 L 145.265 104.341 L 145.368 104.413 L 145.47 104.486 L 145.612 104.523 L 145.754 104.559 L 145.79 104.701 L 145.827 104.843 L 145.9 104.945 L 145.972 105.048 L 146.075 105.121 L 146.178 105.193 L 146.319 105.23 L 146.461 105.266 L 146.497 105.408 L 146.534 105.55 L 146.607 105.652 L 146.679 105.755 L 146.782 105.828 L 146.885 105.9 L 147.026 105.937 L 147.168 105.973 L 147.205 106.115 L 147.241 106.257 L 147.314 106.359 L 147.387 106.462 L 147.489 106.535 L 147.592 106.607 L 147.733 106.644 L 147.875 106.68 L 147.912 106.822 L 147.948 106.964 L 148.021 107.066 L 148.094 107.169 L 148.196 107.242 L 148.299 107.315 L 148.441 107.351 L 148.582 107.388 L 148.619 107.529 L 148.655 107.671 L 148.728 107.774 L 148.801 107.876 L 148.903 107.949 L 149.006 108.022 L 149.148 108.058 L 149.289 108.095 L 149.326 108.236 L 149.362 108.378 L 149.435 108.481 L 149.508 108.583 L 149.61 108.656 L 149.713 108.729 L 149.855 108.765 L 149.996 108.802 L 150.033 108.943 L 150.069 109.085 L 150.142 109.188 L 150.215 109.29 L 150.318 109.363 L 150.42 109.436 L 150.562 109.472 L 150.704 109.509 L 150.74 109.651 L 150.777 109.792 L 150.849 109.895 L 150.922 109.997 L 151.025 110.07 L 151.127 110.143 L 151.269 110.18 L 151.411 110.216 L 151.447 110.358 L 151.484 110.499 L 151.556 110.602 L 151.629 110.705 L 151.732 110.777 L 151.834 110.85 L 151.976 110.887 L 152.118 110.923 L 152.154 111.065 L 152.191 111.207 L 152.264 111.309 L 152.336 111.412 L 152.439 111.484 L 152.542 111.557 L 152.683 111.594 L 152.825 111.63 L 152.861 111.772 L 152.898 111.914 L 152.971 112.016 L 153.043 112.119 L 153.146 112.192 L 153.249 112.264 L 153.39 112.301 L 153.532 112.337 L 153.569 112.479 L 153.605 112.621 L 153.678 112.723 L 153.751 112.826 L 153.853 112.899 L 153.956 112.971 L 154.097 113.008 L 154.239 113.044 L 154.276 113.186 L 154.312 113.328 L 154.385 113.43 L 154.458 113.533 L 154.56 113.606 L 154.663 113.679 L 154.805 113.715 L 154.946 113.752 L 154.983 113.893 L 155.019 114.035 L 155.092 114.138 L 155.165 114.24 L 155.267 114.313 L 155.37 114.386 L 155.512 114.422 L 155.653 114.459 L 155.69 114.6 L 155.726 114.742 L 155.799 114.845 L 155.872 114.947 L 155.974 115.02 L 156.077 115.093 L 156.219 115.129 L 156.36 115.166 L 156.397 115.307 L 156.433 115.449 L 156.506 115.552 L 156.579 115.654 L 156.69 115.731 L 156.802 115.808 L 156.957 115.841 L 157.112 115.874 L 157.291 115.828 L 157.47 115.782 L 157.618 115.633 L 157.767 115.485 L 157.81 115.258 L 157.853 115.031 L 157.747 114.812 L 157.64 114.594"/><path d = "M 107.75 26.7414 L 107.845 26.9914 L 107.941 27.2414 L 107.845 27.4914 L 107.75 27.7414 L 107.845 27.9914 L 107.941 28.2414 L 107.845 28.4914 L 107.75 28.7414 L 107.845 28.9914 L 107.941 29.2414 L 107.845 29.4914 L 107.75 29.7414 L 107.845 29.9914 L 107.941 30.2414 L 107.845 30.4914 L 107.75 30.7414 L 107.845 30.9914 L 107.941 31.2414 L 107.845 31.4914 L 107.75 31.7414 L 107.845 31.9914 L 107.941 32.2414 L 107.845 32.4914 L 107.75 32.7414 L 107.845 32.9914 L 107.941 33.2414 L 107.845 33.4914 L 107.75 33.7414 L 107.845 33.9914 L 107.941 34.2414 L 107.845 34.4914 L 107.75 34.7414 L 107.845 34.9914 L 107.941 35.2414 L 107.845 35.4914 L 107.75 35.7414 L 107.845 35.9914 L 107.941 36.2414 L 107.845 36.4914 L 107.75 36.7414 L 107.845 36.9914 L 107.941 37.2414 L 107.845 37.4914 L 107.75 37.7414 L 107.845 37.9914 L 107.941 38.2414 L 107.845 38.4914 L 107.75 38.7414 L 107.845 38.9914 L 107.941 39.2414 L 107.845 39.4914 L 107.75 39.7414 L 107.845 39.9914 L 107.941 40.2414 L 107.845 40.4914 L 107.75 40.7414 L 107.845 40.9914 L 107.941 41.2414 L 107.845 41.4914 L 107.75 41.7414 L 107.845 41.9914 L 107.941 42.2414 L 107.845 42.4914 L 107.75 42.7414 L 107.845 42.9914 L 107.941 43.2414 L 107.845 43.4914 L 107.75 43.7414 L 107.845 43.9914 L 107.941 44.2414 L 107.845 44.4914 L 107.75 44.7414 L 107.845 44.9914 L 107.941 45.2414 L 107.845 45.4914 L 107.75 45.7414 L 107.845 45.9914 L 107.941 46.2414 L 107.845 46.4914 L 107.75 46.7414 L 107.845 46.9914 L 107.941 47.2414 L 107.845 47.4914 L 107.75 47.7414 L 107.829 47.9715 L 107.908 48.2016 L 108.099 48.3315 L 108.29 48.4614 L 108.5 48.4614 L 108.71 48.4614 L 108.869 48.3676 L 109.028 48.2739 L 109.115 48.1407 L 109.201 48.0074 L 109.226 47.8744 L 109.25 47.7414 L 109.229 47.6174 L 109.208 47.4934 L 109.133 47.3674 L 109.059 47.2414 L 109.133 47.1154 L 109.208 46.9894 L 109.229 46.8654 L 109.25 46.7414 L 109.229 46.6174 L 109.208 46.4934 L 109.133 46.3674 L 109.059 46.2414 L 109.133 46.1154 L 109.208 45.9894 L 109.229 45.8654 L 109.25 45.7414 L 109.229 45.6174 L 109.208 45.4934 L 109.133 45.3674 L 109.059 45.2414 L 109.133 45.1154 L 109.208 44.9894 L 109.229 44.8654 L 109.25 44.7414 L 109.229 44.6174 L 109.208 44.4934 L 109.133 44.3674 L 109.059 44.2414 L 109.133 44.1154 L 109.208 43.9894 L 109.229 43.8654 L 109.25 43.7414 L 109.229 43.6174 L 109.208 43.4934 L 109.133 43.3674 L 109.059 43.2414 L 109.133 43.1154 L 109.208 42.9894 L 109.229 42.8654 L 109.25 42.7414 L 109.229 42.6174 L 109.208 42.4934 L 109.133 42.3674 L 109.059 42.2414 L 109.133 42.1154 L 109.208 41.9894 L 109.229 41.8654 L 109.25 41.7414 L 109.229 41.6174 L 109.208 41.4934 L 109.133 41.3674 L 109.059 41.2414 L 109.133 41.1154 L 109.208 40.9894 L 109.229 40.8654 L 109.25 40.7414 L 109.229 40.6174 L 109.208 40.4934 L 109.133 40.3674 L 109.059 40.2414 L 109.133 40.1154 L 109.208 39.9894 L 109.229 39.8654 L 109.25 39.7414 L 109.229 39.6174 L 109.208 39.4934 L 109.133 39.3674 L 109.059 39.2414 L 109.133 39.1154 L 109.208 38.9894 L 109.229 38.8654 L 109.25 38.7414 L 109.229 38.6174 L 109.208 38.4934 L 109.133 38.3674 L 109.059 38.2414 L 109.133 38.1154 L 109.208 37.9894 L 109.229 37.8654 L 109.25 37.7414 L 109.229 37.6174 L 109.208 37.4934 L 109.133 37.3674 L 109.059 37.2414 L 109.133 37.1154 L 109.208 36.9894 L 109.229 36.8654 L 109.25 36.7414 L 109.229 36.6174 L 109.208 36.4934 L 109.133 36.3674 L 109.059 36.2414 L 109.133 36.1154 L 109.208 35.9894 L 109.229 35.8654 L 109.25 35.7414 L 109.229 35.6174 L 109.208 35.4934 L 109.133 35.3674 L 109.059 35.2414 L 109.133 35.1154 L 109.208 34.9894 L 109.229 34.8654 L 109.25 34.7414 L 109.229 34.6174 L 109.208 34.4934 L 109.133 34.3674 L 109.059 34.2414 L 109.133 34.1154 L 109.208 33.9893 L 109.229 33.8654 L 109.25 33.7414 L 109.229 33.6174 L 109.208 33.4934 L 109.133 33.3674 L 109.059 33.2414 L 109.133 33.1154 L 109.208 32.9893 L 109.229 32.8654 L 109.25 32.7414 L 109.229 32.6174 L 109.208 32.4934 L 109.133 32.3674 L 109.059 32.2414 L 109.133 32.1154 L 109.208 31.9893 L 109.229 31.8654 L 109.25 31.7414 L 109.229 31.6174 L 109.208 31.4934 L 109.133 31.3674 L 109.059 31.2414 L 109.133 31.1154 L 109.208 30.9893 L 109.229 30.8654 L 109.25 30.7414 L 109.229 30.6174 L 109.208 30.4934 L 109.133 30.3674 L 109.059 30.2414 L 109.133 30.1154 L 109.208 29.9893 L 109.229 29.8654 L 109.25 29.7414 L 109.229 29.6174 L 109.208 29.4934 L 109.133 29.3674 L 109.059 29.2414 L 109.133 29.1154 L 109.208 28.9893 L 109.229 28.8654 L 109.25 28.7414 L 109.229 28.6174 L 109.208 28.4934 L 109.133 28.3674 L 109.059 28.2414 L 109.133 28.1154 L 109.208 27.9893 L 109.229 27.8654 L 109.25 27.7414 L 109.229 27.6174 L 109.208 27.4934 L 109.133 27.3674 L 109.059 27.2414 L 109.133 27.1154 L 109.208 26.9893 L 109.229 26.8654 L 109.25 26.7414 L 109.226 26.6083 L 109.201 26.4753 L 109.115 26.3421 L 109.028 26.2088 L 108.869 26.1151 L 108.71 26.0214 L 108.5 26.0214 L 108.29 26.0214 L 108.099 26.1513 L 107.908 26.2812 L 107.829 26.5113 L 107.75 26.7414"/><path d = "M 121.25 26.7414 L 121.155 26.9914 L 121.059 27.2414 L 121.155 27.4914 L 121.25 27.7414 L 121.155 27.9914 L 121.059 28.2414 L 121.155 28.4914 L 121.25 28.7414 L 121.155 28.9914 L 121.059 29.2414 L 121.155 29.4914 L 121.25 29.7414 L 121.155 29.9914 L 121.059 30.2414 L 121.155 30.4914 L 121.25 30.7414 L 121.155 30.9914 L 121.059 31.2414 L 121.155 31.4914 L 121.25 31.7414 L 121.155 31.9914 L 121.059 32.2414 L 121.155 32.4914 L 121.25 32.7414 L 121.155 32.9914 L 121.059 33.2414 L 121.155 33.4914 L 121.25 33.7414 L 121.155 33.9914 L 121.059 34.2414 L 121.155 34.4914 L 121.25 34.7414 L 121.155 34.9914 L 121.059 35.2414 L 121.155 35.4914 L 121.25 35.7414 L 121.155 35.9914 L 121.059 36.2414 L 121.155 36.4914 L 121.25 36.7414 L 121.155 36.9914 L 121.059 37.2414 L 121.155 37.4914 L 121.25 37.7414 L 121.155 37.9914 L 121.059 38.2414 L 121.155 38.4914 L 121.25 38.7414 L 121.155 38.9914 L 121.059 39.2414 L 121.155 39.4914 L 121.25 39.7414 L 121.155 39.9914 L 121.059 40.2414 L 121.155 40.4914 L 121.25 40.7414 L 121.155 40.9914 L 121.059 41.2414 L 121.155 41.4914 L 121.25 41.7414 L 121.155 41.9914 L 121.059 42.2414 L 121.155 42.4914 L 121.25 42.7414 L 121.155 42.9914 L 121.059 43.2414 L 121.155 43.4914 L 121.25 43.7414 L 121.155 43.9914 L 121.059 44.2414 L 121.155 44.4914 L 121.25 44.7414 L 121.155 44.9914 L 121.059 45.2414 L 121.155 45.4914 L 121.25 45.7414 L 121.155 45.9914 L 121.059 46.2414 L 121.155 46.4914 L 121.25 46.7414 L 121.155 46.9914 L 121.059 47.2414 L 121.155 47.4914 L 121.25 47.7414 L 121.171 47.9715 L 121.092 48.2016 L 120.901 48.3315 L 120.71 48.4614 L 120.5 48.4614 L 120.29 48.4614 L 120.131 48.3676 L 119.972 48.2739 L 119.885 48.1407 L 119.799 48.0074 L 119.774 47.8744 L 119.75 47.7414 L 119.771 47.6174 L 119.792 47.4934 L 119.867 47.3674 L 119.941 47.2414 L 119.867 47.1154 L 119.792 46.9894 L 119.771 46.8654 L 119.75 46.7414 L 119.771 46.6174 L 119.792 46.4934 L 119.867 46.3674 L 119.941 46.2414 L 119.867 46.1154 L 119.792 45.9894 L 119.771 45.8654 L 119.75 45.7414 L 119.771 45.6174 L 119.792 45.4934 L 119.867 45.3674 L 119.941 45.2414 L 119.867 45.1154 L 119.792 44.9894 L 119.771 44.8654 L 119.75 44.7414 L 119.771 44.6174 L 119.792 44.4934 L 119.867 44.3674 L 119.941 44.2414 L 119.867 44.1154 L 119.792 43.9894 L 119.771 43.8654 L 119.75 43.7414 L 119.771 43.6174 L 119.792 43.4934 L 119.867 43.3674 L 119.941 43.2414 L 119.867 43.1154 L 119.792 42.9894 L 119.771 42.8654 L 119.75 42.7414 L 119.771 42.6174 L 119.792 42.4934 L 119.867 42.3674 L 119.941 42.2414 L 119.867 42.1154 L 119.792 41.9894 L 119.771 41.8654 L 119.75 41.7414 L 119.771 41.6174 L 119.792 41.4934 L 119.867 41.3674 L 119.941 41.2414 L 119.867 41.1154 L 119.792 40.9894 L 119.771 40.8654 L 119.75 40.7414 L 119.771 40.6174 L 119.792 40.4934 L 119.867 40.3674 L 119.941 40.2414 L 119.867 40.1154 L 119.792 39.9894 L 119.771 39.8654 L 119.75 39.7414 L 119.771 39.6174 L 119.792 39.4934 L 119.867 39.3674 L 119.941 39.2414 L 119.867 39.1154 L 119.792 38.9894 L 119.771 38.8654 L 119.75 38.7414 L 119.771 38.6174 L 119.792 38.4934 L 119.867 38.3674 L 119.941 38.2414 L 119.867 38.1154 L 119.792 37.9894 L 119.771 37.8654 L 119.75 37.7414 L 119.771 37.6174 L 119.792 37.4934 L 119.867 37.3674 L 119.941 37.2414 L 119.867 37.1154 L 119.792 36.9894 L 119.771 36.8654 L 119.75 36.7414 L 119.771 36.6174 L 119.792 36.4934 L 119.867 36.3674 L 119.941 36.2414 L 119.867 36.1154 L 119.792 35.9894 L 119.771 35.8654 L 119.75 35.7414 L 119.771 35.6174 L 119.792 35.4934 L 119.867 35.3674 L 119.941 35.2414 L 119.867 35.1154 L 119.792 34.9894 L 119.771 34.8654 L 119.75 34.7414 L 119.771 34.6174 L 119.792 34.4934 L 119.867 34.3674 L 119.941 34.2414 L 119.867 34.1154 L 119.792 33.9893 L 119.771 33.8654 L 119.75 33.7414 L 119.771 33.6174 L 119.792 33.4934 L 119.867 33.3674 L 119.941 33.2414 L 119.867 33.1154 L 119.792 32.9893 L 119.771 32.8654 L 119.75 32.7414 L 119.771 32.6174 L 119.792 32.4934 L 119.867 32.3674 L 119.941 32.2414 L 119.867 32.1154 L 119.792 31.9893 L 119.771 31.8654 L 119.75 31.7414 L 119.771 31.6174 L 119.792 31.4934 L 119.867 31.3674 L 119.941 31.2414 L 119.867 31.1154 L 119.792 30.9893 L 119.771 30.8654 L 119.75 30.7414 L 119.771 30.6174 L 119.792 30.4934 L 119.867 30.3674 L 119.941 30.2414 L 119.867 30.1154 L 119.792 29.9893 L 119.771 29.8654 L 119.75 29.7414 L 119.771 29.6174 L 119.792 29.4934 L 119.867 29.3674 L 119.941 29.2414 L 119.867 29.1154 L 119.792 28.9893 L 119.771 28.8654 L 119.75 28.7414 L 119.771 28.6174 L 119.792 28.4934 L 119.867 28.3674 L 119.941 28.2414 L 119.867 28.1154 L 119.792 27.9893 L 119.771 27.8654 L 119.75 27.7414 L 119.771 27.6174 L 119.792 27.4934 L 119.867 27.3674 L 119.941 27.2414 L 119.867 27.1154 L 119.792 26.9893 L 119.771 26.8654 L 119.75 26.7414 L 119.774 26.6083 L 119.799 26.4753 L 119.885 26.3421 L 119.972 26.2088 L 120.131 26.1151 L 120.29 26.0214 L 120.5 26.0214 L 120.71 26.0214 L 120.901 26.1513 L 121.092 26.2812 L 121.171 26.5113 L 121.25 26.7414"/><path d = "M 107.75 135.259 L 107.845 135.009 L 107.941 134.759 L 107.845 134.509 L 107.75 134.259 L 107.845 134.009 L 107.941 133.759 L 107.845 133.509 L 107.75 133.259 L 107.845 133.009 L 107.941 132.759 L 107.845 132.509 L 107.75 132.259 L 107.845 132.009 L 107.941 131.759 L 107.845 131.509 L 107.75 131.259 L 107.845 131.009 L 107.941 130.759 L 107.845 130.509 L 107.75 130.259 L 107.845 130.009 L 107.941 129.759 L 107.845 129.509 L 107.75 129.259 L 107.845 129.009 L 107.941 128.759 L 107.845 128.509 L 107.75 128.259 L 107.845 128.009 L 107.941 127.759 L 107.845 127.509 L 107.75 127.259 L 107.845 127.009 L 107.941 126.759 L 107.845 126.509 L 107.75 126.259 L 107.845 126.009 L 107.941 125.759 L 107.845 125.509 L 107.75 125.259 L 107.845 125.009 L 107.941 124.759 L 107.845 124.509 L 107.75 124.259 L 107.845 124.009 L 107.941 123.759 L 107.845 123.509 L 107.75 123.259 L 107.845 123.009 L 107.941 122.759 L 107.845 122.509 L 107.75 122.259 L 107.845 122.009 L 107.941 121.759 L 107.845 121.509 L 107.75 121.259 L 107.845 121.009 L 107.941 120.759 L 107.845 120.509 L 107.75 120.259 L 107.845 120.009 L 107.941 119.759 L 107.845 119.509 L 107.75 119.259 L 107.845 119.009 L 107.941 118.759 L 107.845 118.509 L 107.75 118.259 L 107.845 118.009 L 107.941 117.759 L 107.845 117.509 L 107.75 117.259 L 107.845 117.009 L 107.941 116.759 L 107.845 116.509 L 107.75 116.259 L 107.845 116.009 L 107.941 115.759 L 107.845 115.509 L 107.75 115.259 L 107.845 115.009 L 107.941 114.759 L 107.845 114.509 L 107.75 114.259 L 107.829 114.029 L 107.908 113.798 L 108.099 113.669 L 108.29 113.539 L 108.5 113.539 L 108.71 113.539 L 108.869 113.632 L 109.028 113.726 L 109.115 113.859 L 109.201 113.993 L 109.226 114.126 L 109.25 114.259 L 109.229 114.383 L 109.208 114.507 L 109.133 114.633 L 109.059 114.759 L 109.133 114.885 L 109.208 115.011 L 109.229 115.135 L 109.25 115.259 L 109.229 115.383 L 109.208 115.507 L 109.133 115.633 L 109.059 115.759 L 109.133 115.885 L 109.208 116.011 L 109.229 116.135 L 109.25 116.259 L 109.229 116.383 L 109.208 116.507 L 109.133 116.633 L 109.059 116.759 L 109.133 116.885 L 109.208 117.011 L 109.229 117.135 L 109.25 117.259 L 109.229 117.383 L 109.208 117.507 L 109.133 117.633 L 109.059 117.759 L 109.133 117.885 L 109.208 118.011 L 109.229 118.135 L 109.25 118.259 L 109.229 118.383 L 109.208 118.507 L 109.133 118.633 L 109.059 118.759 L 109.133 118.885 L 109.208 119.011 L 109.229 119.135 L 109.25 119.259 L 109.229 119.383 L 109.208 119.507 L 109.133 119.633 L 109.059 119.759 L 109.133 119.885 L 109.208 120.011 L 109.229 120.135 L 109.25 120.259 L 109.229 120.383 L 109.208 120.507 L 109.133 120.633 L 109.059 120.759 L 109.133 120.885 L 109.208 121.011 L 109.229 121.135 L 109.25 121.259 L 109.229 121.383 L 109.208 121.507 L 109.133 121.633 L 109.059 121.759 L 109.133 121.885 L 109.208 122.011 L 109.229 122.135 L 109.25 122.259 L 109.229 122.383 L 109.208 122.507 L 109.133 122.633 L 109.059 122.759 L 109.133 122.885 L 109.208 123.011 L 109.229 123.135 L 109.25 123.259 L 109.229 123.383 L 109.208 123.507 L 109.133 123.633 L 109.059 123.759 L 109.133 123.885 L 109.208 124.011 L 109.229 124.135 L 109.25 124.259 L 109.229 124.383 L 109.208 124.507 L 109.133 124.633 L 109.059 124.759 L 109.133 124.885 L 109.208 125.011 L 109.229 125.135 L 109.25 125.259 L 109.229 125.383 L 109.208 125.507 L 109.133 125.633 L 109.059 125.759 L 109.133 125.885 L 109.208 126.011 L 109.229 126.135 L 109.25 126.259 L 109.229 126.383 L 109.208 126.507 L 109.133 126.633 L 109.059 126.759 L 109.133 126.885 L 109.208 127.011 L 109.229 127.135 L 109.25 127.259 L 109.229 127.383 L 109.208 127.507 L 109.133 127.633 L 109.059 127.759 L 109.133 127.885 L 109.208 128.011 L 109.229 128.135 L 109.25 128.259 L 109.229 128.383 L 109.208 128.507 L 109.133 128.633 L 109.059 128.759 L 109.133 128.885 L 109.208 129.011 L 109.229 129.135 L 109.25 129.259 L 109.229 129.383 L 109.208 129.507 L 109.133 129.633 L 109.059 129.759 L 109.133 129.885 L 109.208 130.011 L 109.229 130.135 L 109.25 130.259 L 109.229 130.383 L 109.208 130.507 L 109.133 130.633 L 109.059 130.759 L 109.133 130.885 L 109.208 131.011 L 109.229 131.135 L 109.25 131.259 L 109.229 131.383 L 109.208 131.507 L 109.133 131.633 L 109.059 131.759 L 109.133 131.885 L 109.208 132.011 L 109.229 132.135 L 109.25 132.259 L 109.229 132.383 L 109.208 132.507 L 109.133 132.633 L 109.059 132.759 L 109.133 132.885 L 109.208 133.011 L 109.229 133.135 L 109.25 133.259 L 109.229 133.383 L 109.208 133.507 L 109.133 133.633 L 109.059 133.759 L 109.133 133.885 L 109.208 134.011 L 109.229 134.135 L 109.25 134.259 L 109.229 134.383 L 109.208 134.507 L 109.133 134.633 L 109.059 134.759 L 109.133 134.885 L 109.208 135.011 L 109.229 135.135 L 109.25 135.259 L 109.226 135.392 L 109.201 135.525 L 109.115 135.658 L 109.028 135.791 L 108.869 135.885 L 108.71 135.979 L 108.5 135.979 L 108.29 135.979 L 108.099 135.849 L 107.908 135.719 L 107.829 135.489 L 107.75 135.259"/><path d = "M 121.25 135.259 L 121.155 135.009 L 121.059 134.759 L 121.155 134.509 L 121.25 134.259 L 121.155 134.009 L 121.059 133.759 L 121.155 133.509 L 121.25 133.259 L 121.155 133.009 L 121.059 132.759 L 121.155 132.509 L 121.25 132.259 L 121.155 132.009 L 121.059 131.759 L 121.155 131.509 L 121.25 131.259 L 121.155 131.009 L 121.059 130.759 L 121.155 130.509 L 121.25 130.259 L 121.155 130.009 L 121.059 129.759 L 121.155 129.509 L 121.25 129.259 L 121.155 129.009 L 121.059 128.759 L 121.155 128.509 L 121.25 128.259 L 121.155 128.009 L 121.059 127.759 L 121.155 127.509 L 121.25 127.259 L 121.155 127.009 L 121.059 126.759 L 121.155 126.509 L 121.25 126.259 L 121.155 126.009 L 121.059 125.759 L 121.155 125.509 L 121.25 125.259 L 121.155 125.009 L 121.059 124.759 L 121.155 124.509 L 121.25 124.259 L 121.155 124.009 L 121.059 123.759 L 121.155 123.509 L 121.25 123.259 L 121.155 123.009 L 121.059 122.759 L 121.155 122.509 L 121.25 122.259 L 121.155 122.009 L 121.059 121.759 L 121.155 121.509 L 121.25 121.259 L 121.155 121.009 L 121.059 120.759 L 121.155 120.509 L 121.25 120.259 L 121.155 120.009 L 121.059 119.759 L 121.155 119.509 L 121.25 119.259 L 121.155 119.009 L 121.059 118.759 L 121.155 118.509 L 121.25 118.259 L 121.155 118.009 L 121.059 117.759 L 121.155 117.509 L 121.25 117.259 L 121.155 117.009 L 121.059 116.759 L 121.155 116.509 L 121.25 116.259 L 121.155 116.009 L 121.059 115.759 L 121.155 115.509 L 121.25 115.259 L 121.155 115.009 L 121.059 114.759 L 121.155 114.509 L 121.25 114.259 L 121.171 114.029 L 121.092 113.798 L 120.901 113.669 L 120.71 113.539 L 120.5 113.539 L 120.29 113.539 L 120.131 113.632 L 119.972 113.726 L 119.885 113.859 L 119.799 113.993 L 119.774 114.126 L 119.75 114.259 L 119.771 114.383 L 119.792 114.507 L 119.867 114.633 L 119.941 114.759 L 119.867 114.885 L 119.792 115.011 L 119.771 115.135 L 119.75 115.259 L 119.771 115.383 L 119.792 115.507 L 119.867 115.633 L 119.941 115.759 L 119.867 115.885 L 119.792 116.011 L 119.771 116.135 L 119.75 116.259 L 119.771 116.383 L 119.792 116.507 L 119.867 116.633 L 119.941 116.759 L 119.867 116.885 L 119.792 117.011 L 119.771 117.135 L 119.75 117.259 L 119.771 117.383 L 119.792 117.507 L 119.867 117.633 L 119.941 117.759 L 119.867 117.885 L 119.792 118.011 L 119.771 118.135 L 119.75 118.259 L 119.771 118.383 L 119.792 118.507 L 119.867 118.633 L 119.941 118.759 L 119.867 118.885 L 119.792 119.011 L 119.771 119.135 L 119.75 119.259 L 119.771 119.383 L 119.792 119.507 L 119.867 119.633 L 119.941 119.759 L 119.867 119.885 L 119.792 120.011 L 119.771 120.135 L 119.75 120.259 L 119.771 120.383 L 119.792 120.507 L 119.867 120.633 L 119.941 120.759 L 119.867 120.885 L 119.792 121.011 L 119.771 121.135 L 119.75 121.259 L 119.771 121.383 L 119.792 121.507 L 119.867 121.633 L 119.941 121.759 L 119.867 121.885 L 119.792 122.011 L 119.771 122.135 L 119.75 122.259 L 119.771 122.383 L 119.792 122.507 L 119.867 122.633 L 119.941 122.759 L 119.867 122.885 L 119.792 123.011 L 119.771 123.135 L 119.75 123.259 L 119.771 123.383 L 119.792 123.507 L 119.867 123.633 L 119.941 123.759 L 119.867 123.885 L 119.792 124.011 L 119.771 124.135 L 119.75 124.259 L 119.771 124.383 L 119.792 124.507 L 119.867 124.633 L 119.941 124.759 L 119.867 124.885 L 119.792 125.011 L 119.771 125.135 L 119.75 125.259 L 119.771 125.383 L 119.792 125.507 L 119.867 125.633 L 119.941 125.759 L 119.867 125.885 L 119.792 126.011 L 119.771 126.135 L 119.75 126.259 L 119.771 126.383 L 119.792 126.507 L 119.867 126.633 L 119.941 126.759 L 119.867 126.885 L 119.792 127.011 L 119.771 127.135 L 119.75 127.259 L 119.771 127.383 L 119.792 127.507 L 119.867 127.633 L 119.941 127.759 L 119.867 127.885 L 119.792 128.011 L 119.771 128.135 L 119.75 128.259 L 119.771 128.383 L 119.792 128.507 L 119.867 128.633 L 119.941 128.759 L 119.867 128.885 L 119.792 129.011 L 119.771 129.135 L 119.75 129.259 L 119.771 129.383 L 119.792 129.507 L 119.867 129.633 L 119.941 129.759 L 119.867 129.885 L 119.792 130.011 L 119.771 130.135 L 119.75 130.259 L 119.771 130.383 L 119.792 130.507 L 119.867 130.633 L 119.941 130.759 L 119.867 130.885 L 119.792 131.011 L 119.771 131.135 L 119.75 131.259 L 119.771 131.383 L 119.792 131.507 L 119.867 131.633 L 119.941 131.759 L 119.867 131.885 L 119.792 132.011 L 119.771 132.135 L 119.75 132.259 L 119.771 132.383 L 119.792 132.507 L 119.867 132.633 L 119.941 132.759 L 119.867 132.885 L 119.792 133.011 L 119.771 133.135 L 119.75 133.259 L 119.771 133.383 L 119.792 133.507 L 119.867 133.633 L 119.941 133.759 L 119.867 133.885 L 119.792 134.011 L 119.771 134.135 L 119.75 134.259 L 119.771 134.383 L 119.792 134.507 L 119.867 134.633 L 119.941 134.759 L 119.867 134.885 L 119.792 135.011 L 119.771 135.135 L 119.75 135.259 L 119.774 135.392 L 119.799 135.525 L 119.885 135.658 L 119.972 135.791 L 120.131 135.885 L 120.29 135.979 L 120.5 135.979 L 120.71 135.979 L 120.901 135.849 L 121.092 135.719 L 121.171 135.489 L 121.25 135.259"/><path d = "M 71.3604 47.4063 L 71.6047 47.5156 L 71.849 47.6248 L 71.9582 47.8691 L 72.0675 48.1134 L 72.3118 48.2227 L 72.5561 48.3319 L 72.6653 48.5762 L 72.7746 48.8205 L 73.0189 48.9298 L 73.2632 49.0391 L 73.3724 49.2833 L 73.4817 49.5276 L 73.726 49.6369 L 73.9703 49.7462 L 74.0796 49.9905 L 74.1888 50.2347 L 74.4331 50.344 L 74.6774 50.4533 L 74.7867 50.6976 L 74.8959 50.9419 L 75.1402 51.0511 L 75.3845 51.1604 L 75.4938 51.4047 L 75.603 51.649 L 75.8473 51.7582 L 76.0916 51.8675 L 76.2009 52.1118 L 76.3101 52.3561 L 76.5544 52.4653 L 76.7987 52.5746 L 76.908 52.8189 L 77.0172 53.0632 L 77.2615 53.1724 L 77.5058 53.2817 L 77.6151 53.526 L 77.7243 53.7703 L 77.9686 53.8795 L 78.2129 53.9888 L 78.3222 54.2331 L 78.4314 54.4774 L 78.6757 54.5866 L 78.92 54.6959 L 79.0293 54.9402 L 79.1385 55.1845 L 79.3828 55.2938 L 79.6271 55.403 L 79.7364 55.6473 L 79.8456 55.8916 L 80.0899 56.0009 L 80.3343 56.1101 L 80.4435 56.3544 L 80.5528 56.5987 L 80.7971 56.708 L 81.0414 56.8172 L 81.1506 57.0615 L 81.2599 57.3058 L 81.5042 57.4151 L 81.7485 57.5243 L 81.8577 57.7686 L 81.967 58.0129 L 82.2113 58.1222 L 82.4556 58.2314 L 82.5648 58.4757 L 82.6741 58.72 L 82.9184 58.8293 L 83.1627 58.9385 L 83.2719 59.1828 L 83.3812 59.4271 L 83.6255 59.5364 L 83.8698 59.6457 L 83.979 59.8899 L 84.0883 60.1342 L 84.3326 60.2435 L 84.5769 60.3528 L 84.6861 60.5971 L 84.7954 60.8414 L 85.0397 60.9506 L 85.284 61.0599 L 85.3932 61.3042 L 85.5025 61.5485 L 85.7468 61.6577 L 85.9911 61.767 L 86.1004 62.0113 L 86.2096 62.2556 L 86.4281 62.3625 L 86.6466 62.4694 L 86.8736 62.4261 L 87.1006 62.3829 L 87.2491 62.2344 L 87.3976 62.0859 L 87.4437 61.9071 L 87.4899 61.7284 L 87.4569 61.573 L 87.4239 61.4175 L 87.3471 61.3062 L 87.2703 61.1949 L 87.1677 61.1221 L 87.0651 61.0494 L 86.9234 61.0129 L 86.7817 60.9764 L 86.7452 60.8347 L 86.7087 60.693 L 86.6359 60.5904 L 86.5632 60.4878 L 86.4606 60.415 L 86.358 60.3423 L 86.2163 60.3058 L 86.0746 60.2693 L 86.0381 60.1276 L 86.0016 59.9859 L 85.9288 59.8833 L 85.8561 59.7807 L 85.7535 59.7079 L 85.6509 59.6352 L 85.5092 59.5987 L 85.3675 59.5622 L 85.331 59.4205 L 85.2945 59.2788 L 85.2217 59.1762 L 85.1489 59.0736 L 85.0464 59.0008 L 84.9438 58.9281 L 84.8021 58.8916 L 84.6604 58.8551 L 84.6239 58.7134 L 84.5874 58.5717 L 84.5146 58.4691 L 84.4418 58.3665 L 84.3393 58.2937 L 84.2367 58.221 L 84.095 58.1845 L 83.9532 58.148 L 83.9168 58.0063 L 83.8803 57.8646 L 83.8075 57.762 L 83.7347 57.6594 L 83.6321 57.5866 L 83.5295 57.5138 L 83.3878 57.4773 L 83.2461 57.4409 L 83.2096 57.2992 L 83.1732 57.1575 L 83.1004 57.0549 L 83.0276 56.9523 L 82.925 56.8795 L 82.8224 56.8067 L 82.6807 56.7702 L 82.539 56.7338 L 82.5025 56.5921 L 82.4661 56.4504 L 82.3933 56.3478 L 82.3205 56.2452 L 82.2179 56.1724 L 82.1153 56.0996 L 81.9736 56.0631 L 81.8319 56.0266 L 81.7954 55.885 L 81.7589 55.7432 L 81.6862 55.6406 L 81.6134 55.5381 L 81.5108 55.4653 L 81.4082 55.3925 L 81.2665 55.356 L 81.1248 55.3195 L 81.0883 55.1778 L 81.0518 55.0361 L 80.9791 54.9335 L 80.9063 54.8309 L 80.8037 54.7582 L 80.7011 54.6854 L 80.5594 54.6489 L 80.4177 54.6124 L 80.3812 54.4707 L 80.3447 54.329 L 80.272 54.2264 L 80.1992 54.1238 L 80.0966 54.0511 L 79.994 53.9783 L 79.8523 53.9418 L 79.7106 53.9053 L 79.6741 53.7636 L 79.6376 53.6219 L 79.5649 53.5193 L 79.4921 53.4167 L 79.3895 53.344 L 79.2869 53.2712 L 79.1452 53.2347 L 79.0035 53.1982 L 78.967 53.0565 L 78.9305 52.9148 L 78.8578 52.8122 L 78.785 52.7096 L 78.6824 52.6369 L 78.5798 52.5641 L 78.4381 52.5276 L 78.2964 52.4911 L 78.2599 52.3494 L 78.2234 52.2077 L 78.1507 52.1051 L 78.0779 52.0025 L 77.9753 51.9298 L 77.8727 51.857 L 77.731 51.8205 L 77.5893 51.784 L 77.5528 51.6423 L 77.5163 51.5006 L 77.4435 51.398 L 77.3708 51.2954 L 77.2682 51.2227 L 77.1656 51.1499 L 77.0239 51.1134 L 76.8822 51.0769 L 76.8457 50.9352 L 76.8092 50.7935 L 76.7364 50.6909 L 76.6637 50.5883 L 76.5611 50.5155 L 76.4585 50.4428 L 76.3168 50.4063 L 76.1751 50.3698 L 76.1386 50.2281 L 76.1021 50.0864 L 76.0293 49.9838 L 75.9566 49.8812 L 75.854 49.8084 L 75.7514 49.7357 L 75.6097 49.6992 L 75.468 49.6627 L 75.4315 49.521 L 75.395 49.3793 L 75.3222 49.2767 L 75.2495 49.1741 L 75.1469 49.1013 L 75.0443 49.0286 L 74.9026 48.9921 L 74.7609 48.9556 L 74.7244 48.8139 L 74.6879 48.6722 L 74.6151 48.5696 L 74.5424 48.467 L 74.4398 48.3942 L 74.3372 48.3215 L 74.1955 48.285 L 74.0537 48.2485 L 74.0173 48.1068 L 73.9808 47.9651 L 73.908 47.8625 L 73.8352 47.7599 L 73.7326 47.6871 L 73.6301 47.6143 L 73.4883 47.5779 L 73.3466 47.5414 L 73.3102 47.3997 L 73.2737 47.258 L 73.2009 47.1554 L 73.1281 47.0528 L 73.0255 46.98 L 72.9229 46.9072 L 72.7812 46.8708 L 72.6395 46.8343 L 72.6031 46.6926 L 72.5666 46.5509 L 72.4938 46.4483 L 72.421 46.3457 L 72.3097 46.2688 L 72.1984 46.192 L 72.043 46.159 L 71.8876 46.126 L 71.7088 46.1722 L 71.5301 46.2184 L 71.3816 46.3669 L 71.2331 46.5154 L 71.1898 46.7424 L 71.1465 46.9694 L 71.2535 47.1878 L 71.3604 47.4063"/><path d = "M 80.9063 37.8604 L 81.0156 38.1047 L 81.1248 38.349 L 81.3691 38.4582 L 81.6134 38.5675 L 81.7227 38.8118 L 81.8319 39.0561 L 82.0762 39.1653 L 82.3205 39.2746 L 82.4298 39.5189 L 82.539 39.7632 L 82.7833 39.8725 L 83.0276 39.9817 L 83.1369 40.226 L 83.2461 40.4703 L 83.4904 40.5796 L 83.7347 40.6888 L 83.844 40.9331 L 83.9532 41.1774 L 84.1976 41.2867 L 84.4418 41.3959 L 84.5511 41.6402 L 84.6604 41.8845 L 84.9047 41.9938 L 85.1489 42.103 L 85.2582 42.3473 L 85.3675 42.5916 L 85.6118 42.7009 L 85.8561 42.8101 L 85.9653 43.0544 L 86.0746 43.2987 L 86.3189 43.408 L 86.5632 43.5172 L 86.6724 43.7615 L 86.7817 44.0058 L 87.026 44.1151 L 87.2703 44.2243 L 87.3795 44.4686 L 87.4888 44.7129 L 87.7331 44.8222 L 87.9774 44.9314 L 88.0866 45.1758 L 88.1959 45.4201 L 88.4402 45.5293 L 88.6845 45.6386 L 88.7937 45.8829 L 88.903 46.1272 L 89.1473 46.2364 L 89.3916 46.3457 L 89.5008 46.59 L 89.6101 46.8343 L 89.8544 46.9435 L 90.0987 47.0528 L 90.208 47.2971 L 90.3172 47.5414 L 90.5615 47.6506 L 90.8058 47.7599 L 90.9151 48.0042 L 91.0243 48.2485 L 91.2686 48.3577 L 91.5129 48.467 L 91.6222 48.7113 L 91.7314 48.9556 L 91.9757 49.0648 L 92.22 49.1741 L 92.3293 49.4184 L 92.4385 49.6627 L 92.6828 49.7719 L 92.9271 49.8812 L 93.0364 50.1255 L 93.1456 50.3698 L 93.3899 50.4791 L 93.6342 50.5883 L 93.7435 50.8326 L 93.8527 51.0769 L 94.097 51.1862 L 94.3413 51.2954 L 94.4506 51.5397 L 94.5598 51.784 L 94.8041 51.8933 L 95.0484 52.0025 L 95.1577 52.2468 L 95.267 52.4911 L 95.5113 52.6004 L 95.7556 52.7096 L 95.8625 52.9281 L 95.9694 53.1466 L 95.9261 53.3736 L 95.8828 53.6006 L 95.7343 53.7491 L 95.5858 53.8976 L 95.4071 53.9438 L 95.2284 53.99 L 95.0729 53.9569 L 94.9175 53.9239 L 94.8062 53.8471 L 94.6949 53.7703 L 94.6221 53.6677 L 94.5494 53.5651 L 94.5129 53.4234 L 94.4764 53.2817 L 94.3347 53.2452 L 94.193 53.2087 L 94.0904 53.1359 L 93.9878 53.0632 L 93.915 52.9606 L 93.8423 52.858 L 93.8058 52.7163 L 93.7693 52.5746 L 93.6276 52.5381 L 93.4859 52.5016 L 93.3833 52.4288 L 93.2807 52.3561 L 93.2079 52.2535 L 93.1352 52.1509 L 93.0987 52.0092 L 93.0622 51.8675 L 92.9205 51.831 L 92.7788 51.7945 L 92.6762 51.7217 L 92.5736 51.649 L 92.5008 51.5464 L 92.428 51.4438 L 92.3916 51.3021 L 92.3551 51.1604 L 92.2134 51.1239 L 92.0717 51.0874 L 91.9691 51.0146 L 91.8665 50.9419 L 91.7937 50.8393 L 91.7209 50.7367 L 91.6844 50.595 L 91.648 50.4533 L 91.5063 50.4168 L 91.3646 50.3803 L 91.262 50.3075 L 91.1594 50.2347 L 91.0866 50.1322 L 91.0138 50.0296 L 90.9773 49.8879 L 90.9408 49.7462 L 90.7992 49.7097 L 90.6574 49.6732 L 90.5548 49.6004 L 90.4523 49.5276 L 90.3795 49.425 L 90.3067 49.3225 L 90.2702 49.1807 L 90.2337 49.0391 L 90.092 49.0026 L 89.9503 48.9661 L 89.8477 48.8933 L 89.7451 48.8205 L 89.6724 48.7179 L 89.5996 48.6153 L 89.5631 48.4736 L 89.5266 48.3319 L 89.3849 48.2954 L 89.2432 48.259 L 89.1406 48.1862 L 89.038 48.1134 L 88.9653 48.0108 L 88.8925 47.9082 L 88.856 47.7665 L 88.8195 47.6248 L 88.6778 47.5883 L 88.5361 47.5519 L 88.4335 47.4791 L 88.3309 47.4063 L 88.2582 47.3037 L 88.1854 47.2011 L 88.1489 47.0594 L 88.1124 46.9177 L 87.9707 46.8812 L 87.829 46.8447 L 87.7264 46.772 L 87.6238 46.6992 L 87.5511 46.5966 L 87.4783 46.494 L 87.4418 46.3523 L 87.4053 46.2106 L 87.2636 46.1741 L 87.1219 46.1376 L 87.0193 46.0649 L 86.9167 45.9921 L 86.844 45.8895 L 86.7712 45.7869 L 86.7347 45.6452 L 86.6982 45.5035 L 86.5565 45.467 L 86.4148 45.4305 L 86.3122 45.3578 L 86.2096 45.285 L 86.1368 45.1824 L 86.0641 45.0798 L 86.0276 44.9381 L 85.9911 44.7964 L 85.8494 44.7599 L 85.7077 44.7234 L 85.6051 44.6507 L 85.5025 44.5779 L 85.4297 44.4753 L 85.357 44.3727 L 85.3205 44.231 L 85.284 44.0893 L 85.1423 44.0528 L 85.0006 44.0163 L 84.898 43.9436 L 84.7954 43.8708 L 84.7226 43.7682 L 84.6499 43.6656 L 84.6134 43.5239 L 84.5769 43.3822 L 84.4352 43.3457 L 84.2935 43.3092 L 84.1909 43.2365 L 84.0883 43.1637 L 84.0155 43.0611 L 83.9428 42.9585 L 83.9063 42.8168 L 83.8698 42.6751 L 83.7281 42.6386 L 83.5864 42.6021 L 83.4838 42.5293 L 83.3812 42.4566 L 83.3084 42.354 L 83.2357 42.2514 L 83.1992 42.1097 L 83.1627 41.968 L 83.021 41.9315 L 82.8793 41.895 L 82.7767 41.8222 L 82.6741 41.7495 L 82.6013 41.6469 L 82.5285 41.5443 L 82.4921 41.4026 L 82.4556 41.2609 L 82.3139 41.2244 L 82.1722 41.1879 L 82.0696 41.1151 L 81.967 41.0424 L 81.8942 40.9398 L 81.8214 40.8372 L 81.785 40.6955 L 81.7485 40.5538 L 81.6068 40.5173 L 81.4651 40.4808 L 81.3625 40.408 L 81.2599 40.3353 L 81.1871 40.2327 L 81.1143 40.1301 L 81.0778 39.9884 L 81.0414 39.8467 L 80.8997 39.8102 L 80.758 39.7737 L 80.6554 39.7009 L 80.5528 39.6282 L 80.48 39.5256 L 80.4072 39.423 L 80.3707 39.2813 L 80.3343 39.1395 L 80.1925 39.1031 L 80.0508 39.0666 L 79.9482 38.9938 L 79.8456 38.921 L 79.7688 38.8097 L 79.692 38.6984 L 79.659 38.543 L 79.626 38.3876 L 79.6722 38.2088 L 79.7184 38.0301 L 79.8669 37.8816 L 80.0154 37.7331 L 80.2423 37.6898 L 80.4693 37.6466 L 80.6878 37.7535 L 80.9063 37.8604"/><path d = "M 71.3604 114.594 L 71.6047 114.484 L 71.849 114.375 L 71.9582 114.131 L 72.0675 113.887 L 72.3118 113.777 L 72.5561 113.668 L 72.6653 113.424 L 72.7746 113.179 L 73.0189 113.07 L 73.2632 112.961 L 73.3724 112.717 L 73.4817 112.472 L 73.726 112.363 L 73.9703 112.254 L 74.0796 112.01 L 74.1888 111.765 L 74.4331 111.656 L 74.6774 111.547 L 74.7867 111.302 L 74.8959 111.058 L 75.1402 110.949 L 75.3845 110.84 L 75.4938 110.595 L 75.603 110.351 L 75.8473 110.242 L 76.0916 110.133 L 76.2009 109.888 L 76.3101 109.644 L 76.5544 109.535 L 76.7987 109.425 L 76.908 109.181 L 77.0172 108.937 L 77.2615 108.828 L 77.5058 108.718 L 77.6151 108.474 L 77.7243 108.23 L 77.9686 108.12 L 78.2129 108.011 L 78.3222 107.767 L 78.4314 107.523 L 78.6757 107.413 L 78.92 107.304 L 79.0293 107.06 L 79.1385 106.816 L 79.3828 106.706 L 79.6271 106.597 L 79.7364 106.353 L 79.8456 106.108 L 80.0899 105.999 L 80.3343 105.89 L 80.4435 105.646 L 80.5528 105.401 L 80.7971 105.292 L 81.0414 105.183 L 81.1506 104.938 L 81.2599 104.694 L 81.5042 104.585 L 81.7485 104.476 L 81.8577 104.231 L 81.967 103.987 L 82.2113 103.878 L 82.4556 103.769 L 82.5648 103.524 L 82.6741 103.28 L 82.9184 103.171 L 83.1627 103.061 L 83.2719 102.817 L 83.3812 102.573 L 83.6255 102.464 L 83.8698 102.354 L 83.979 102.11 L 84.0883 101.866 L 84.3326 101.757 L 84.5769 101.647 L 84.6861 101.403 L 84.7954 101.159 L 85.0397 101.049 L 85.284 100.94 L 85.3932 100.696 L 85.5025 100.452 L 85.7468 100.342 L 85.9911 100.233 L 86.1004 99.9887 L 86.2096 99.7444 L 86.4281 99.6375 L 86.6466 99.5306 L 86.8736 99.5739 L 87.1006 99.6172 L 87.2491 99.7657 L 87.3976 99.9142 L 87.4437 100.093 L 87.4899 100.272 L 87.4569 100.427 L 87.4239 100.582 L 87.3471 100.694 L 87.2703 100.805 L 87.1677 100.878 L 87.0651 100.951 L 86.9234 100.987 L 86.7817 101.024 L 86.7452 101.165 L 86.7087 101.307 L 86.6359 101.41 L 86.5632 101.512 L 86.4606 101.585 L 86.358 101.658 L 86.2163 101.694 L 86.0746 101.731 L 86.0381 101.872 L 86.0016 102.014 L 85.9288 102.117 L 85.8561 102.219 L 85.7535 102.292 L 85.6509 102.365 L 85.5092 102.401 L 85.3675 102.438 L 85.331 102.58 L 85.2945 102.721 L 85.2217 102.824 L 85.1489 102.926 L 85.0464 102.999 L 84.9438 103.072 L 84.8021 103.108 L 84.6604 103.145 L 84.6239 103.287 L 84.5874 103.428 L 84.5146 103.531 L 84.4418 103.634 L 84.3393 103.706 L 84.2367 103.779 L 84.095 103.816 L 83.9532 103.852 L 83.9168 103.994 L 83.8803 104.135 L 83.8075 104.238 L 83.7347 104.341 L 83.6321 104.413 L 83.5295 104.486 L 83.3878 104.523 L 83.2461 104.559 L 83.2096 104.701 L 83.1732 104.843 L 83.1004 104.945 L 83.0276 105.048 L 82.925 105.121 L 82.8224 105.193 L 82.6807 105.23 L 82.539 105.266 L 82.5025 105.408 L 82.4661 105.55 L 82.3933 105.652 L 82.3205 105.755 L 82.2179 105.828 L 82.1153 105.9 L 81.9736 105.937 L 81.8319 105.973 L 81.7954 106.115 L 81.7589 106.257 L 81.6862 106.359 L 81.6134 106.462 L 81.5108 106.535 L 81.4082 106.607 L 81.2665 106.644 L 81.1248 106.68 L 81.0883 106.822 L 81.0518 106.964 L 80.9791 107.066 L 80.9063 107.169 L 80.8037 107.242 L 80.7011 107.315 L 80.5594 107.351 L 80.4177 107.388 L 80.3812 107.529 L 80.3447 107.671 L 80.272 107.774 L 80.1992 107.876 L 80.0966 107.949 L 79.994 108.022 L 79.8523 108.058 L 79.7106 108.095 L 79.6741 108.236 L 79.6376 108.378 L 79.5649 108.481 L 79.4921 108.583 L 79.3895 108.656 L 79.2869 108.729 L 79.1452 108.765 L 79.0035 108.802 L 78.967 108.943 L 78.9305 109.085 L 78.8578 109.188 L 78.785 109.29 L 78.6824 109.363 L 78.5798 109.436 L 78.4381 109.472 L 78.2964 109.509 L 78.2599 109.651 L 78.2234 109.792 L 78.1507 109.895 L 78.0779 109.997 L 77.9753 110.07 L 77.8727 110.143 L 77.731 110.18 L 77.5893 110.216 L 77.5528 110.358 L 77.5163 110.499 L 77.4435 110.602 L 77.3708 110.705 L 77.2682 110.777 L 77.1656 110.85 L 77.0239 110.887 L 76.8822 110.923 L 76.8457 111.065 L 76.8092 111.207 L 76.7364 111.309 L 76.6637 111.412 L 76.5611 111.484 L 76.4585 111.557 L 76.3168 111.594 L 76.1751 111.63 L 76.1386 111.772 L 76.1021 111.914 L 76.0293 112.016 L 75.9566 112.119 L 75.854 112.192 L 75.7514 112.264 L 75.6097 112.301 L 75.468 112.337 L 75.4315 112.479 L 75.395 112.621 L 75.3222 112.723 L 75.2495 112.826 L 75.1469 112.899 L 75.0443 112.971 L 74.9026 113.008 L 74.7609 113.044 L 74.7244 113.186 L 74.6879 113.328 L 74.6151 113.43 L 74.5424 113.533 L 74.4398 113.606 L 74.3372 113.679 L 74.1955 113.715 L 74.0537 113.752 L 74.0173 113.893 L 73.9808 114.035 L 73.908 114.138 L 73.8352 114.24 L 73.7326 114.313 L 73.6301 114.386 L 73.4883 114.422 L 73.3466 114.459 L 73.3102 114.6 L 73.2737 114.742 L 73.2009 114.845 L 73.1281 114.947 L 73.0255 115.02 L 72.9229 115.093 L 72.7812 115.129 L 72.6395 115.166 L 72.6031 115.307 L 72.5666 115.449 L 72.4938 115.552 L 72.421 115.654 L 72.3097 115.731 L 72.1984 115.808 L 72.043 115.841 L 71.8876 115.874 L 71.7088 115.828 L 71.5301 115.782 L 71.3816 115.633 L 71.2331 115.485 L 71.1898 115.258 L 71.1465 115.031 L 71.2535 114.812 L 71.3604 114.594"/><path d = "M 80.9063 124.14 L 81.0156 123.895 L 81.1248 123.651 L 81.3691 123.542 L 81.6134 123.433 L 81.7227 123.188 L 81.8319 122.944 L 82.0762 122.835 L 82.3205 122.725 L 82.4298 122.481 L 82.539 122.237 L 82.7833 122.128 L 83.0276 122.018 L 83.1369 121.774 L 83.2461 121.53 L 83.4904 121.42 L 83.7347 121.311 L 83.844 121.067 L 83.9532 120.823 L 84.1976 120.713 L 84.4418 120.604 L 84.5511 120.36 L 84.6604 120.115 L 84.9047 120.006 L 85.1489 119.897 L 85.2582 119.653 L 85.3675 119.408 L 85.6118 119.299 L 85.8561 119.19 L 85.9653 118.946 L 86.0746 118.701 L 86.3189 118.592 L 86.5632 118.483 L 86.6724 118.238 L 86.7817 117.994 L 87.026 117.885 L 87.2703 117.776 L 87.3795 117.531 L 87.4888 117.287 L 87.7331 117.178 L 87.9774 117.069 L 88.0866 116.824 L 88.1959 116.58 L 88.4402 116.471 L 88.6845 116.361 L 88.7937 116.117 L 88.903 115.873 L 89.1473 115.764 L 89.3916 115.654 L 89.5008 115.41 L 89.6101 115.166 L 89.8544 115.057 L 90.0987 114.947 L 90.208 114.703 L 90.3172 114.459 L 90.5615 114.349 L 90.8058 114.24 L 90.9151 113.996 L 91.0243 113.752 L 91.2686 113.642 L 91.5129 113.533 L 91.6222 113.289 L 91.7314 113.044 L 91.9757 112.935 L 92.22 112.826 L 92.3293 112.582 L 92.4385 112.337 L 92.6828 112.228 L 92.9271 112.119 L 93.0364 111.875 L 93.1456 111.63 L 93.3899 111.521 L 93.6342 111.412 L 93.7435 111.167 L 93.8527 110.923 L 94.097 110.814 L 94.3413 110.705 L 94.4506 110.46 L 94.5598 110.216 L 94.8041 110.107 L 95.0484 109.997 L 95.1577 109.753 L 95.267 109.509 L 95.5113 109.4 L 95.7556 109.29 L 95.8625 109.072 L 95.9694 108.853 L 95.9261 108.626 L 95.8828 108.399 L 95.7343 108.251 L 95.5858 108.102 L 95.4071 108.056 L 95.2284 108.01 L 95.0729 108.043 L 94.9175 108.076 L 94.8062 108.153 L 94.6949 108.23 L 94.6221 108.332 L 94.5494 108.435 L 94.5129 108.577 L 94.4764 108.718 L 94.3347 108.755 L 94.193 108.791 L 94.0904 108.864 L 93.9878 108.937 L 93.915 109.039 L 93.8423 109.142 L 93.8058 109.284 L 93.7693 109.425 L 93.6276 109.462 L 93.4859 109.498 L 93.3833 109.571 L 93.2807 109.644 L 93.2079 109.747 L 93.1352 109.849 L 93.0987 109.991 L 93.0622 110.133 L 92.9205 110.169 L 92.7788 110.206 L 92.6762 110.278 L 92.5736 110.351 L 92.5008 110.454 L 92.428 110.556 L 92.3916 110.698 L 92.3551 110.84 L 92.2134 110.876 L 92.0717 110.913 L 91.9691 110.985 L 91.8665 111.058 L 91.7937 111.161 L 91.7209 111.263 L 91.6844 111.405 L 91.648 111.547 L 91.5063 111.583 L 91.3646 111.62 L 91.262 111.692 L 91.1594 111.765 L 91.0866 111.868 L 91.0138 111.97 L 90.9773 112.112 L 90.9408 112.254 L 90.7992 112.29 L 90.6574 112.327 L 90.5548 112.4 L 90.4523 112.472 L 90.3795 112.575 L 90.3067 112.678 L 90.2702 112.819 L 90.2337 112.961 L 90.092 112.997 L 89.9503 113.034 L 89.8477 113.107 L 89.7451 113.179 L 89.6724 113.282 L 89.5996 113.385 L 89.5631 113.526 L 89.5266 113.668 L 89.3849 113.705 L 89.2432 113.741 L 89.1406 113.814 L 89.038 113.887 L 88.9653 113.989 L 88.8925 114.092 L 88.856 114.233 L 88.8195 114.375 L 88.6778 114.412 L 88.5361 114.448 L 88.4335 114.521 L 88.3309 114.594 L 88.2582 114.696 L 88.1854 114.799 L 88.1489 114.941 L 88.1124 115.082 L 87.9707 115.119 L 87.829 115.155 L 87.7264 115.228 L 87.6238 115.301 L 87.5511 115.403 L 87.4783 115.506 L 87.4418 115.648 L 87.4053 115.789 L 87.2636 115.826 L 87.1219 115.862 L 87.0193 115.935 L 86.9167 116.008 L 86.844 116.111 L 86.7712 116.213 L 86.7347 116.355 L 86.6982 116.497 L 86.5565 116.533 L 86.4148 116.569 L 86.3122 116.642 L 86.2096 116.715 L 86.1368 116.818 L 86.0641 116.92 L 86.0276 117.062 L 85.9911 117.204 L 85.8494 117.24 L 85.7077 117.277 L 85.6051 117.349 L 85.5025 117.422 L 85.4297 117.525 L 85.357 117.627 L 85.3205 117.769 L 85.284 117.911 L 85.1423 117.947 L 85.0006 117.984 L 84.898 118.056 L 84.7954 118.129 L 84.7226 118.232 L 84.6499 118.334 L 84.6134 118.476 L 84.5769 118.618 L 84.4352 118.654 L 84.2935 118.691 L 84.1909 118.764 L 84.0883 118.836 L 84.0155 118.939 L 83.9428 119.042 L 83.9063 119.183 L 83.8698 119.325 L 83.7281 119.361 L 83.5864 119.398 L 83.4838 119.471 L 83.3812 119.543 L 83.3084 119.646 L 83.2357 119.749 L 83.1992 119.89 L 83.1627 120.032 L 83.021 120.069 L 82.8793 120.105 L 82.7767 120.178 L 82.6741 120.251 L 82.6013 120.353 L 82.5285 120.456 L 82.4921 120.597 L 82.4556 120.739 L 82.3139 120.776 L 82.1722 120.812 L 82.0696 120.885 L 81.967 120.958 L 81.8942 121.06 L 81.8214 121.163 L 81.785 121.305 L 81.7485 121.446 L 81.6068 121.483 L 81.4651 121.519 L 81.3625 121.592 L 81.2599 121.665 L 81.1871 121.767 L 81.1143 121.87 L 81.0778 122.012 L 81.0414 122.153 L 80.8997 122.19 L 80.758 122.226 L 80.6554 122.299 L 80.5528 122.372 L 80.48 122.474 L 80.4072 122.577 L 80.3707 122.719 L 80.3343 122.86 L 80.1925 122.897 L 80.0508 122.933 L 79.9482 123.006 L 79.8456 123.079 L 79.7688 123.19 L 79.692 123.302 L 79.659 123.457 L 79.626 123.612 L 79.6722 123.791 L 79.7184 123.97 L 79.8669 124.118 L 80.0154 124.267 L 80.2423 124.31 L 80.4693 124.353 L 80.6878 124.247 L 80.9063 124.14"/><path d = "M 60.2414 87.75 L 60.4914 87.6545 L 60.7414 87.559 L 60.9914 87.6545 L 61.2414 87.75 L 61.4914 87.6545 L 61.7414 87.559 L 61.9914 87.6545 L 62.2414 87.75 L 62.4914 87.6545 L 62.7414 87.559 L 62.9914 87.6545 L 63.2414 87.75 L 63.4914 87.6545 L 63.7414 87.559 L 63.9914 87.6545 L 64.2414 87.75 L 64.4914 87.6545 L 64.7414 87.559 L 64.9914 87.6545 L 65.2414 87.75 L 65.4914 87.6545 L 65.7414 87.559 L 65.9914 87.6545 L 66.2414 87.75 L 66.4914 87.6545 L 66.7414 87.559 L 66.9914 87.6545 L 67.2414 87.75 L 67.4914 87.6545 L 67.7414 87.559 L 67.9914 87.6545 L 68.2414 87.75 L 68.4914 87.6545 L 68.7414 87.559 L 68.9914 87.6545 L 69.2414 87.75 L 69.4914 87.6545 L 69.7414 87.559 L 69.9914 87.6545 L 70.2414 87.75 L 70.4914 87.6545 L 70.7414 87.559 L 70.9914 87.6545 L 71.2414 87.75 L 71.4914 87.6545 L 71.7414 87.559 L 71.9914 87.6545 L 72.2414 87.75 L 72.4914 87.6545 L 72.7414 87.559 L 72.9914 87.6545 L 73.2414 87.75 L 73.4914 87.6545 L 73.7414 87.559 L 73.9914 87.6545 L 74.2414 87.75 L 74.4914 87.6545 L 74.7414 87.559 L 74.9914 87.6545 L 75.2414 87.75 L 75.4914 87.6545 L 75.7414 87.559 L 75.9914 87.6545 L 76.2414 87.75 L 76.4914 87.6545 L 76.7414 87.559 L 76.9914 87.6545 L 77.2414 87.75 L 77.4914 87.6545 L 77.7414 87.559 L 77.9914 87.6545 L 78.2414 87.75 L 78.4914 87.6545 L 78.7414 87.559 L 78.9914 87.6545 L 79.2414 87.75 L 79.4914 87.6545 L 79.7414 87.559 L 79.9914 87.6545 L 80.2414 87.75 L 80.4914 87.6545 L 80.7414 87.559 L 80.9914 87.6545 L 81.2414 87.75 L 81.4714 87.6711 L 81.7015 87.5922 L 81.8314 87.4011 L 81.9614 87.21 L 81.9614 87 L 81.9614 86.79 L 81.8676 86.631 L 81.7739 86.4719 L 81.6406 86.3853 L 81.5074 86.2988 L 81.3744 86.2744 L 81.2414 86.25 L 81.1173 86.2711 L 80.9934 86.2922 L 80.8673 86.3666 L 80.7414 86.441 L 80.6153 86.3666 L 80.4893 86.2922 L 80.3653 86.2711 L 80.2414 86.25 L 80.1173 86.2711 L 79.9934 86.2922 L 79.8674 86.3666 L 79.7414 86.441 L 79.6153 86.3666 L 79.4893 86.2922 L 79.3653 86.2711 L 79.2414 86.25 L 79.1174 86.2711 L 78.9934 86.2922 L 78.8673 86.3666 L 78.7414 86.441 L 78.6153 86.3666 L 78.4893 86.2922 L 78.3653 86.2711 L 78.2414 86.25 L 78.1173 86.2711 L 77.9934 86.2922 L 77.8673 86.3666 L 77.7414 86.441 L 77.6153 86.3666 L 77.4893 86.2922 L 77.3653 86.2711 L 77.2414 86.25 L 77.1173 86.2711 L 76.9934 86.2922 L 76.8674 86.3666 L 76.7414 86.441 L 76.6153 86.3666 L 76.4893 86.2922 L 76.3653 86.2711 L 76.2414 86.25 L 76.1174 86.2711 L 75.9934 86.2922 L 75.8673 86.3666 L 75.7414 86.441 L 75.6153 86.3666 L 75.4893 86.2922 L 75.3653 86.2711 L 75.2414 86.25 L 75.1173 86.2711 L 74.9934 86.2922 L 74.8673 86.3666 L 74.7414 86.441 L 74.6153 86.3666 L 74.4893 86.2922 L 74.3653 86.2711 L 74.2414 86.25 L 74.1173 86.2711 L 73.9934 86.2922 L 73.8674 86.3666 L 73.7414 86.441 L 73.6153 86.3666 L 73.4893 86.2922 L 73.3653 86.2711 L 73.2414 86.25 L 73.1174 86.2711 L 72.9934 86.2922 L 72.8673 86.3666 L 72.7414 86.441 L 72.6153 86.3666 L 72.4893 86.2922 L 72.3653 86.2711 L 72.2414 86.25 L 72.1173 86.2711 L 71.9934 86.2922 L 71.8673 86.3666 L 71.7414 86.441 L 71.6153 86.3666 L 71.4893 86.2922 L 71.3653 86.2711 L 71.2414 86.25 L 71.1173 86.2711 L 70.9934 86.2922 L 70.8674 86.3666 L 70.7414 86.441 L 70.6153 86.3666 L 70.4893 86.2922 L 70.3653 86.2711 L 70.2414 86.25 L 70.1174 86.2711 L 69.9934 86.2922 L 69.8673 86.3666 L 69.7414 86.441 L 69.6153 86.3666 L 69.4893 86.2922 L 69.3653 86.2711 L 69.2414 86.25 L 69.1174 86.2711 L 68.9934 86.2922 L 68.8674 86.3666 L 68.7414 86.441 L 68.6153 86.3666 L 68.4893 86.2922 L 68.3653 86.2711 L 68.2414 86.25 L 68.1174 86.2711 L 67.9934 86.2922 L 67.8674 86.3666 L 67.7414 86.441 L 67.6153 86.3666 L 67.4893 86.2922 L 67.3653 86.2711 L 67.2414 86.25 L 67.1174 86.2711 L 66.9934 86.2922 L 66.8674 86.3666 L 66.7414 86.441 L 66.6153 86.3666 L 66.4893 86.2922 L 66.3653 86.2711 L 66.2414 86.25 L 66.1174 86.2711 L 65.9934 86.2922 L 65.8674 86.3666 L 65.7414 86.441 L 65.6153 86.3666 L 65.4893 86.2922 L 65.3653 86.2711 L 65.2414 86.25 L 65.1174 86.2711 L 64.9934 86.2922 L 64.8674 86.3666 L 64.7414 86.441 L 64.6153 86.3666 L 64.4893 86.2922 L 64.3653 86.2711 L 64.2414 86.25 L 64.1174 86.2711 L 63.9934 86.2922 L 63.8674 86.3666 L 63.7414 86.441 L 63.6154 86.3666 L 63.4893 86.2922 L 63.3654 86.2711 L 63.2414 86.25 L 63.1174 86.2711 L 62.9934 86.2922 L 62.8674 86.3666 L 62.7414 86.441 L 62.6153 86.3666 L 62.4893 86.2922 L 62.3654 86.2711 L 62.2414 86.25 L 62.1174 86.2711 L 61.9934 86.2922 L 61.8674 86.3666 L 61.7414 86.441 L 61.6154 86.3666 L 61.4893 86.2922 L 61.3654 86.2711 L 61.2414 86.25 L 61.1174 86.2711 L 60.9934 86.2922 L 60.8674 86.3666 L 60.7414 86.441 L 60.6154 86.3666 L 60.4893 86.2922 L 60.3653 86.2711 L 60.2414 86.25 L 60.1083 86.2744 L 59.9753 86.2988 L 59.8421 86.3853 L 59.7088 86.4719 L 59.6151 86.631 L 59.5214 86.79 L 59.5214 87 L 59.5214 87.21 L 59.6513 87.4011 L 59.7812 87.5922 L 60.0113 87.6711 L 60.2414 87.75"/><path d = "M 60.2414 74.25 L 60.4914 74.3455 L 60.7414 74.441 L 60.9914 74.3455 L 61.2414 74.25 L 61.4914 74.3455 L 61.7414 74.441 L 61.9914 74.3455 L 62.2414 74.25 L 62.4914 74.3455 L 62.7414 74.441 L 62.9914 74.3455 L 63.2414 74.25 L 63.4914 74.3455 L 63.7414 74.441 L 63.9914 74.3455 L 64.2414 74.25 L 64.4914 74.3455 L 64.7414 74.441 L 64.9914 74.3455 L 65.2414 74.25 L 65.4914 74.3455 L 65.7414 74.441 L 65.9914 74.3455 L 66.2414 74.25 L 66.4914 74.3455 L 66.7414 74.441 L 66.9914 74.3455 L 67.2414 74.25 L 67.4914 74.3455 L 67.7414 74.441 L 67.9914 74.3455 L 68.2414 74.25 L 68.4914 74.3455 L 68.7414 74.441 L 68.9914 74.3455 L 69.2414 74.25 L 69.4914 74.3455 L 69.7414 74.441 L 69.9914 74.3455 L 70.2414 74.25 L 70.4914 74.3455 L 70.7414 74.441 L 70.9914 74.3455 L 71.2414 74.25 L 71.4914 74.3455 L 71.7414 74.441 L 71.9914 74.3455 L 72.2414 74.25 L 72.4914 74.3455 L 72.7414 74.441 L 72.9914 74.3455 L 73.2414 74.25 L 73.4914 74.3455 L 73.7414 74.441 L 73.9914 74.3455 L 74.2414 74.25 L 74.4914 74.3455 L 74.7414 74.441 L 74.9914 74.3455 L 75.2414 74.25 L 75.4914 74.3455 L 75.7414 74.441 L 75.9914 74.3455 L 76.2414 74.25 L 76.4914 74.3455 L 76.7414 74.441 L 76.9914 74.3455 L 77.2414 74.25 L 77.4914 74.3455 L 77.7414 74.441 L 77.9914 74.3455 L 78.2414 74.25 L 78.4914 74.3455 L 78.7414 74.441 L 78.9914 74.3455 L 79.2414 74.25 L 79.4914 74.3455 L 79.7414 74.441 L 79.9914 74.3455 L 80.2414 74.25 L 80.4914 74.3455 L 80.7414 74.441 L 80.9914 74.3455 L 81.2414 74.25 L 81.4714 74.3289 L 81.7015 74.4078 L 81.8314 74.5989 L 81.9614 74.79 L 81.9614 75 L 81.9614 75.21 L 81.8676 75.3691 L 81.7739 75.5281 L 81.6406 75.6147 L 81.5074 75.7012 L 81.3744 75.7256 L 81.2414 75.75 L 81.1173 75.7289 L 80.9934 75.7078 L 80.8673 75.6334 L 80.7414 75.559 L 80.6153 75.6334 L 80.4893 75.7078 L 80.3653 75.7289 L 80.2414 75.75 L 80.1173 75.7289 L 79.9934 75.7078 L 79.8674 75.6334 L 79.7414 75.559 L 79.6153 75.6334 L 79.4893 75.7078 L 79.3653 75.7289 L 79.2414 75.75 L 79.1174 75.7289 L 78.9934 75.7078 L 78.8673 75.6334 L 78.7414 75.559 L 78.6153 75.6334 L 78.4893 75.7078 L 78.3653 75.7289 L 78.2414 75.75 L 78.1173 75.7289 L 77.9934 75.7078 L 77.8673 75.6334 L 77.7414 75.559 L 77.6153 75.6334 L 77.4893 75.7078 L 77.3653 75.7289 L 77.2414 75.75 L 77.1173 75.7289 L 76.9934 75.7078 L 76.8674 75.6334 L 76.7414 75.559 L 76.6153 75.6334 L 76.4893 75.7078 L 76.3653 75.7289 L 76.2414 75.75 L 76.1174 75.7289 L 75.9934 75.7078 L 75.8673 75.6334 L 75.7414 75.559 L 75.6153 75.6334 L 75.4893 75.7078 L 75.3653 75.7289 L 75.2414 75.75 L 75.1173 75.7289 L 74.9934 75.7078 L 74.8673 75.6334 L 74.7414 75.559 L 74.6153 75.6334 L 74.4893 75.7078 L 74.3653 75.7289 L 74.2414 75.75 L 74.1173 75.7289 L 73.9934 75.7078 L 73.8674 75.6334 L 73.7414 75.559 L 73.6153 75.6334 L 73.4893 75.7078 L 73.3653 75.7289 L 73.2414 75.75 L 73.1174 75.7289 L 72.9934 75.7078 L 72.8673 75.6334 L 72.7414 75.559 L 72.6153 75.6334 L 72.4893 75.7078 L 72.3653 75.7289 L 72.2414 75.75 L 72.1173 75.7289 L 71.9934 75.7078 L 71.8673 75.6334 L 71.7414 75.559 L 71.6153 75.6334 L 71.4893 75.7078 L 71.3653 75.7289 L 71.2414 75.75 L 71.1173 75.7289 L 70.9934 75.7078 L 70.8674 75.6334 L 70.7414 75.559 L 70.6153 75.6334 L 70.4893 75.7078 L 70.3653 75.7289 L 70.2414 75.75 L 70.1174 75.7289 L 69.9934 75.7078 L 69.8673 75.6334 L 69.7414 75.559 L 69.6153 75.6334 L 69.4893 75.7078 L 69.3653 75.7289 L 69.2414 75.75 L 69.1174 75.7289 L 68.9934 75.7078 L 68.8674 75.6334 L 68.7414 75.559 L 68.6153 75.6334 L 68.4893 75.7078 L 68.3653 75.7289 L 68.2414 75.75 L 68.1174 75.7289 L 67.9934 75.7078 L 67.8674 75.6334 L 67.7414 75.559 L 67.6153 75.6334 L 67.4893 75.7078 L 67.3653 75.7289 L 67.2414 75.75 L 67.1174 75.7289 L 66.9934 75.7078 L 66.8674 75.6334 L 66.7414 75.559 L 66.6153 75.6334 L 66.4893 75.7078 L 66.3653 75.7289 L 66.2414 75.75 L 66.1174 75.7289 L 65.9934 75.7078 L 65.8674 75.6334 L 65.7414 75.559 L 65.6153 75.6334 L 65.4893 75.7078 L 65.3653 75.7289 L 65.2414 75.75 L 65.1174 75.7289 L 64.9934 75.7078 L 64.8674 75.6334 L 64.7414 75.559 L 64.6153 75.6334 L 64.4893 75.7078 L 64.3653 75.7289 L 64.2414 75.75 L 64.1174 75.7289 L 63.9934 75.7078 L 63.8674 75.6334 L 63.7414 75.559 L 63.6154 75.6334 L 63.4893 75.7078 L 63.3654 75.7289 L 63.2414 75.75 L 63.1174 75.7289 L 62.9934 75.7078 L 62.8674 75.6334 L 62.7414 75.559 L 62.6153 75.6334 L 62.4893 75.7078 L 62.3654 75.7289 L 62.2414 75.75 L 62.1174 75.7289 L 61.9934 75.7078 L 61.8674 75.6334 L 61.7414 75.559 L 61.6154 75.6334 L 61.4893 75.7078 L 61.3654 75.7289 L 61.2414 75.75 L 61.1174 75.7289 L 60.9934 75.7078 L 60.8674 75.6334 L 60.7414 75.559 L 60.6154 75.6334 L 60.4893 75.7078 L 60.3653 75.7289 L 60.2414 75.75 L 60.1083 75.7256 L 59.9753 75.7012 L 59.8421 75.6147 L 59.7088 75.5281 L 59.6151 75.3691 L 59.5214 75.21 L 59.5214 75 L 59.5214 74.79 L 59.6513 74.5989 L 59.7812 74.4078 L 60.0113 74.3289 L 60.2414 74.25"/></g></svg>
